<?xml version="1.0" encoding="utf-8" standalone="no"?>
<!DOCTYPE svg PUBLIC "-//W3C//DTD SVG 1.1//EN"
  "http://www.w3.org/Graphics/SVG/1.1/DTD/svg11.dtd">
<svg xmlns:xlink="http://www.w3.org/1999/xlink" width="576pt" height="414pt" viewBox="0 0 576 414" xmlns="http://www.w3.org/2000/svg" version="1.1">
 <metadata>
  <rdf:RDF xmlns:dc="http://purl.org/dc/elements/1.1/" xmlns:cc="http://creativecommons.org/ns#" xmlns:rdf="http://www.w3.org/1999/02/22-rdf-syntax-ns#">
   <cc:Work>
    <dc:type rdf:resource="http://purl.org/dc/dcmitype/StillImage"/>
    <dc:date>2024-08-09T18:06:56.677459</dc:date>
    <dc:format>image/svg+xml</dc:format>
    <dc:creator>
     <cc:Agent>
      <dc:title>Matplotlib v3.8.4, https://matplotlib.org/</dc:title>
     </cc:Agent>
    </dc:creator>
   </cc:Work>
  </rdf:RDF>
 </metadata>
 <defs>
  <style type="text/css">*{stroke-linejoin: round; stroke-linecap: butt}</style>
 </defs>
 <g id="figure_1">
  <g id="patch_1">
   <path d="M 0 414 
L 576 414 
L 576 0 
L 0 0 
z
" style="fill: #ffffff"/>
  </g>
  <g id="axes_1">
   <g id="patch_2">
    <path d="M 103.68 210.68 
L 518.4 210.68 
L 518.4 49.68 
L 103.68 49.68 
z
" style="fill: #fafafa"/>
   </g>
   <g id="matplotlib.axis_1">
    <g id="xtick_1">
     <g id="line2d_1">
      <path d="M 130.726957 210.68 
L 130.726957 49.68 
" clip-path="url(#p99d49fa0e0)" style="fill: none; stroke: #d0d0d0; stroke-width: 0.8; stroke-linecap: square"/>
     </g>
     <g id="line2d_2">
      <defs>
       <path id="m5c284d1038" d="M 0 0 
L 0 3.5 
" style="stroke: #101010; stroke-width: 0.8"/>
      </defs>
      <g>
       <use xlink:href="#m5c284d1038" x="130.726957" y="210.68" style="fill: #101010; stroke: #101010; stroke-width: 0.8"/>
      </g>
     </g>
    </g>
    <g id="xtick_2">
     <g id="line2d_3">
      <path d="M 214.593488 210.68 
L 214.593488 49.68 
" clip-path="url(#p99d49fa0e0)" style="fill: none; stroke: #d0d0d0; stroke-width: 0.8; stroke-linecap: square"/>
     </g>
     <g id="line2d_4">
      <g>
       <use xlink:href="#m5c284d1038" x="214.593488" y="210.68" style="fill: #101010; stroke: #101010; stroke-width: 0.8"/>
      </g>
     </g>
    </g>
    <g id="xtick_3">
     <g id="line2d_5">
      <path d="M 298.46002 210.68 
L 298.46002 49.68 
" clip-path="url(#p99d49fa0e0)" style="fill: none; stroke: #d0d0d0; stroke-width: 0.8; stroke-linecap: square"/>
     </g>
     <g id="line2d_6">
      <g>
       <use xlink:href="#m5c284d1038" x="298.46002" y="210.68" style="fill: #101010; stroke: #101010; stroke-width: 0.8"/>
      </g>
     </g>
    </g>
    <g id="xtick_4">
     <g id="line2d_7">
      <path d="M 382.326552 210.68 
L 382.326552 49.68 
" clip-path="url(#p99d49fa0e0)" style="fill: none; stroke: #d0d0d0; stroke-width: 0.8; stroke-linecap: square"/>
     </g>
     <g id="line2d_8">
      <g>
       <use xlink:href="#m5c284d1038" x="382.326552" y="210.68" style="fill: #101010; stroke: #101010; stroke-width: 0.8"/>
      </g>
     </g>
    </g>
    <g id="xtick_5">
     <g id="line2d_9">
      <path d="M 466.193084 210.68 
L 466.193084 49.68 
" clip-path="url(#p99d49fa0e0)" style="fill: none; stroke: #d0d0d0; stroke-width: 0.8; stroke-linecap: square"/>
     </g>
     <g id="line2d_10">
      <g>
       <use xlink:href="#m5c284d1038" x="466.193084" y="210.68" style="fill: #101010; stroke: #101010; stroke-width: 0.8"/>
      </g>
     </g>
    </g>
   </g>
   <g id="matplotlib.axis_2">
    <g id="ytick_1">
     <g id="line2d_11">
      <path d="M 103.68 194.214091 
L 518.4 194.214091 
" clip-path="url(#p99d49fa0e0)" style="fill: none; stroke: #d0d0d0; stroke-width: 0.8; stroke-linecap: square"/>
     </g>
     <g id="line2d_12">
      <defs>
       <path id="m8f8ca850df" d="M 0 0 
L 3.5 0 
" style="stroke: #101010; stroke-width: 0.8"/>
      </defs>
      <g>
       <use xlink:href="#m8f8ca850df" x="518.4" y="194.214091" style="fill: #101010; stroke: #101010; stroke-width: 0.8"/>
      </g>
     </g>
     <g id="text_1">
      <!-- 8.50 -->
      <g style="fill: #101010" transform="translate(525.4 197.651591) scale(0.1 -0.1)">
       <defs>
        <path id="SimHei-38" d="M 175 1375 
Q 175 1675 325 1962 
Q 475 2250 825 2425 
Q 525 2600 425 2812 
Q 325 3025 312 3300 
Q 300 3575 387 3775 
Q 475 3975 650 4150 
Q 825 4325 1037 4387 
Q 1250 4450 1500 4450 
Q 1750 4450 1950 4400 
Q 2150 4350 2375 4187 
Q 2600 4025 2700 3725 
Q 2800 3425 2687 3025 
Q 2575 2625 2100 2400 
Q 2525 2275 2700 2012 
Q 2875 1750 2875 1375 
Q 2875 1000 2762 775 
Q 2650 550 2512 400 
Q 2375 250 2137 162 
Q 1900 75 1537 75 
Q 1175 75 912 162 
Q 650 250 475 425 
Q 300 600 237 837 
Q 175 1075 175 1375 
z
M 687 1400 
Q 675 1100 787 875 
Q 900 650 1200 587 
Q 1500 525 1825 600 
Q 2150 675 2275 950 
Q 2400 1225 2362 1500 
Q 2325 1775 2050 1962 
Q 1775 2150 1450 2125 
Q 1125 2100 912 1900 
Q 700 1700 687 1400 
z
M 775 3350 
Q 775 3100 950 2875 
Q 1125 2650 1500 2650 
Q 1875 2650 2062 2875 
Q 2250 3100 2237 3412 
Q 2225 3725 2012 3875 
Q 1800 4025 1437 4000 
Q 1075 3975 925 3787 
Q 775 3600 775 3350 
z
" transform="scale(0.015625)"/>
        <path id="SimHei-2e" d="M 1075 125 
L 500 125 
L 500 675 
L 1075 675 
L 1075 125 
z
" transform="scale(0.015625)"/>
        <path id="SimHei-35" d="M 550 1325 
Q 725 650 1150 575 
Q 1575 500 1837 662 
Q 2100 825 2212 1087 
Q 2325 1350 2312 1675 
Q 2300 2000 2137 2225 
Q 1975 2450 1725 2525 
Q 1475 2600 1162 2525 
Q 850 2450 650 2175 
L 225 2225 
Q 275 2375 700 4375 
L 2675 4375 
L 2675 3925 
L 1075 3925 
Q 950 3250 825 2850 
Q 1200 3025 1525 3012 
Q 1850 3000 2150 2862 
Q 2450 2725 2587 2487 
Q 2725 2250 2787 2012 
Q 2850 1775 2837 1500 
Q 2825 1225 2725 937 
Q 2625 650 2425 462 
Q 2225 275 1937 162 
Q 1650 50 1275 75 
Q 900 100 562 350 
Q 225 600 100 1200 
L 550 1325 
z
" transform="scale(0.015625)"/>
        <path id="SimHei-30" d="M 225 2537 
Q 250 3200 412 3587 
Q 575 3975 875 4225 
Q 1175 4475 1612 4475 
Q 2050 4475 2375 4112 
Q 2700 3750 2800 3200 
Q 2900 2650 2862 1937 
Q 2825 1225 2612 775 
Q 2400 325 1975 150 
Q 1550 -25 1125 187 
Q 700 400 525 750 
Q 350 1100 275 1487 
Q 200 1875 225 2537 
z
M 750 2687 
Q 675 2000 800 1462 
Q 925 925 1212 700 
Q 1500 475 1800 612 
Q 2100 750 2237 1162 
Q 2375 1575 2375 2062 
Q 2375 2550 2337 2950 
Q 2300 3350 2112 3675 
Q 1925 4000 1612 4012 
Q 1300 4025 1062 3700 
Q 825 3375 750 2687 
z
" transform="scale(0.015625)"/>
       </defs>
       <use xlink:href="#SimHei-38"/>
       <use xlink:href="#SimHei-2e" x="50"/>
       <use xlink:href="#SimHei-35" x="100"/>
       <use xlink:href="#SimHei-30" x="150"/>
      </g>
     </g>
    </g>
    <g id="ytick_2">
     <g id="line2d_13">
      <path d="M 103.68 171.344773 
L 518.4 171.344773 
" clip-path="url(#p99d49fa0e0)" style="fill: none; stroke: #d0d0d0; stroke-width: 0.8; stroke-linecap: square"/>
     </g>
     <g id="line2d_14">
      <g>
       <use xlink:href="#m8f8ca850df" x="518.4" y="171.344773" style="fill: #101010; stroke: #101010; stroke-width: 0.8"/>
      </g>
     </g>
     <g id="text_2">
      <!-- 8.75 -->
      <g style="fill: #101010" transform="translate(525.4 174.782273) scale(0.1 -0.1)">
       <defs>
        <path id="SimHei-37" d="M 850 150 
Q 1300 2050 2425 3925 
L 275 3925 
L 275 4375 
L 2950 4375 
L 2950 3950 
Q 1775 2050 1400 150 
L 850 150 
z
" transform="scale(0.015625)"/>
       </defs>
       <use xlink:href="#SimHei-38"/>
       <use xlink:href="#SimHei-2e" x="50"/>
       <use xlink:href="#SimHei-37" x="100"/>
       <use xlink:href="#SimHei-35" x="150"/>
      </g>
     </g>
    </g>
    <g id="ytick_3">
     <g id="line2d_15">
      <path d="M 103.68 148.475455 
L 518.4 148.475455 
" clip-path="url(#p99d49fa0e0)" style="fill: none; stroke: #d0d0d0; stroke-width: 0.8; stroke-linecap: square"/>
     </g>
     <g id="line2d_16">
      <g>
       <use xlink:href="#m8f8ca850df" x="518.4" y="148.475455" style="fill: #101010; stroke: #101010; stroke-width: 0.8"/>
      </g>
     </g>
     <g id="text_3">
      <!-- 9.00 -->
      <g style="fill: #101010" transform="translate(525.4 151.912955) scale(0.1 -0.1)">
       <defs>
        <path id="SimHei-39" d="M 800 75 
Q 1350 1000 1700 1750 
Q 1075 1650 662 1912 
Q 250 2175 162 2625 
Q 75 3075 175 3437 
Q 275 3800 487 4037 
Q 700 4275 1000 4375 
Q 1300 4475 1537 4475 
Q 1775 4475 2025 4375 
Q 2275 4275 2475 4075 
Q 2675 3875 2750 3662 
Q 2825 3450 2825 3112 
Q 2825 2775 2575 2250 
Q 2325 1725 1350 75 
L 800 75 
z
M 662 2875 
Q 700 2550 937 2337 
Q 1175 2125 1450 2150 
Q 1725 2175 1887 2300 
Q 2050 2425 2200 2725 
Q 2300 3100 2250 3362 
Q 2200 3625 1987 3800 
Q 1775 3975 1525 3975 
Q 1375 4000 1137 3900 
Q 900 3800 762 3500 
Q 625 3200 662 2875 
z
" transform="scale(0.015625)"/>
       </defs>
       <use xlink:href="#SimHei-39"/>
       <use xlink:href="#SimHei-2e" x="50"/>
       <use xlink:href="#SimHei-30" x="100"/>
       <use xlink:href="#SimHei-30" x="150"/>
      </g>
     </g>
    </g>
    <g id="ytick_4">
     <g id="line2d_17">
      <path d="M 103.68 125.606136 
L 518.4 125.606136 
" clip-path="url(#p99d49fa0e0)" style="fill: none; stroke: #d0d0d0; stroke-width: 0.8; stroke-linecap: square"/>
     </g>
     <g id="line2d_18">
      <g>
       <use xlink:href="#m8f8ca850df" x="518.4" y="125.606136" style="fill: #101010; stroke: #101010; stroke-width: 0.8"/>
      </g>
     </g>
     <g id="text_4">
      <!-- 9.25 -->
      <g style="fill: #101010" transform="translate(525.4 129.043636) scale(0.1 -0.1)">
       <defs>
        <path id="SimHei-32" d="M 300 250 
Q 325 625 650 925 
Q 975 1225 1475 1862 
Q 1975 2500 2125 2850 
Q 2275 3200 2237 3450 
Q 2200 3700 2000 3862 
Q 1800 4025 1537 4000 
Q 1275 3975 1037 3800 
Q 800 3625 675 3275 
L 200 3350 
Q 400 3925 712 4187 
Q 1025 4450 1450 4475 
Q 1700 4500 1900 4462 
Q 2100 4425 2312 4287 
Q 2525 4150 2662 3875 
Q 2800 3600 2762 3212 
Q 2725 2825 2375 2287 
Q 2025 1750 1025 600 
L 2825 600 
L 2825 150 
L 300 150 
L 300 250 
z
" transform="scale(0.015625)"/>
       </defs>
       <use xlink:href="#SimHei-39"/>
       <use xlink:href="#SimHei-2e" x="50"/>
       <use xlink:href="#SimHei-32" x="100"/>
       <use xlink:href="#SimHei-35" x="150"/>
      </g>
     </g>
    </g>
    <g id="ytick_5">
     <g id="line2d_19">
      <path d="M 103.68 102.736818 
L 518.4 102.736818 
" clip-path="url(#p99d49fa0e0)" style="fill: none; stroke: #d0d0d0; stroke-width: 0.8; stroke-linecap: square"/>
     </g>
     <g id="line2d_20">
      <g>
       <use xlink:href="#m8f8ca850df" x="518.4" y="102.736818" style="fill: #101010; stroke: #101010; stroke-width: 0.8"/>
      </g>
     </g>
     <g id="text_5">
      <!-- 9.50 -->
      <g style="fill: #101010" transform="translate(525.4 106.174318) scale(0.1 -0.1)">
       <use xlink:href="#SimHei-39"/>
       <use xlink:href="#SimHei-2e" x="50"/>
       <use xlink:href="#SimHei-35" x="100"/>
       <use xlink:href="#SimHei-30" x="150"/>
      </g>
     </g>
    </g>
    <g id="ytick_6">
     <g id="line2d_21">
      <path d="M 103.68 79.8675 
L 518.4 79.8675 
" clip-path="url(#p99d49fa0e0)" style="fill: none; stroke: #d0d0d0; stroke-width: 0.8; stroke-linecap: square"/>
     </g>
     <g id="line2d_22">
      <g>
       <use xlink:href="#m8f8ca850df" x="518.4" y="79.8675" style="fill: #101010; stroke: #101010; stroke-width: 0.8"/>
      </g>
     </g>
     <g id="text_6">
      <!-- 9.75 -->
      <g style="fill: #101010" transform="translate(525.4 83.305) scale(0.1 -0.1)">
       <use xlink:href="#SimHei-39"/>
       <use xlink:href="#SimHei-2e" x="50"/>
       <use xlink:href="#SimHei-37" x="100"/>
       <use xlink:href="#SimHei-35" x="150"/>
      </g>
     </g>
    </g>
    <g id="ytick_7">
     <g id="line2d_23">
      <path d="M 103.68 56.998182 
L 518.4 56.998182 
" clip-path="url(#p99d49fa0e0)" style="fill: none; stroke: #d0d0d0; stroke-width: 0.8; stroke-linecap: square"/>
     </g>
     <g id="line2d_24">
      <g>
       <use xlink:href="#m8f8ca850df" x="518.4" y="56.998182" style="fill: #101010; stroke: #101010; stroke-width: 0.8"/>
      </g>
     </g>
     <g id="text_7">
      <!-- 10.00 -->
      <g style="fill: #101010" transform="translate(525.4 60.435682) scale(0.1 -0.1)">
       <defs>
        <path id="SimHei-31" d="M 1400 3600 
Q 1075 3275 575 2975 
L 575 3450 
Q 1200 3875 1600 4450 
L 1900 4450 
L 1900 150 
L 1400 150 
L 1400 3600 
z
" transform="scale(0.015625)"/>
       </defs>
       <use xlink:href="#SimHei-31"/>
       <use xlink:href="#SimHei-30" x="50"/>
       <use xlink:href="#SimHei-2e" x="100"/>
       <use xlink:href="#SimHei-30" x="150"/>
       <use xlink:href="#SimHei-30" x="200"/>
      </g>
     </g>
    </g>
    <g id="text_8">
     <!-- price -->
     <g style="fill: #101010" transform="translate(561.275 142.68) rotate(-90) scale(0.1 -0.1)">
      <defs>
       <path id="SimHei-70" d="M 2825 1525 
Q 2825 800 2475 425 
Q 2125 50 1625 50 
Q 1350 50 1150 162 
Q 950 275 800 500 
L 800 -800 
L 300 -800 
L 300 2925 
L 800 2925 
L 800 2550 
Q 950 2775 1150 2875 
Q 1350 2975 1625 2975 
Q 2125 2975 2475 2612 
Q 2825 2250 2825 1525 
z
M 2275 1525 
Q 2275 2000 2087 2262 
Q 1900 2525 1525 2525 
Q 1225 2525 1012 2262 
Q 800 2000 800 1525 
Q 800 1050 1012 775 
Q 1225 500 1525 500 
Q 1900 500 2087 775 
Q 2275 1050 2275 1525 
z
" transform="scale(0.015625)"/>
       <path id="SimHei-72" d="M 2500 2425 
Q 2025 2500 1700 2287 
Q 1375 2075 1150 1550 
L 1150 125 
L 650 125 
L 650 2925 
L 1150 2925 
L 1150 2200 
Q 1375 2600 1712 2787 
Q 2050 2975 2500 2975 
L 2500 2425 
z
" transform="scale(0.015625)"/>
       <path id="SimHei-69" d="M 1800 3725 
L 1300 3725 
L 1300 4375 
L 1800 4375 
L 1800 3725 
z
M 1800 125 
L 1300 125 
L 1300 2925 
L 1800 2925 
L 1800 125 
z
" transform="scale(0.015625)"/>
       <path id="SimHei-63" d="M 2850 1250 
Q 2850 725 2487 400 
Q 2125 75 1575 75 
Q 1025 75 625 462 
Q 225 850 225 1525 
Q 225 2200 625 2587 
Q 1025 2975 1575 2975 
Q 2125 2975 2450 2687 
Q 2775 2400 2775 2000 
L 2225 2000 
Q 2200 2300 2012 2412 
Q 1825 2525 1575 2525 
Q 1275 2525 1025 2287 
Q 775 2050 775 1525 
Q 775 1000 1025 762 
Q 1275 525 1575 525 
Q 1900 525 2100 700 
Q 2300 875 2300 1250 
L 2850 1250 
z
" transform="scale(0.015625)"/>
       <path id="SimHei-65" d="M 2850 1075 
Q 2800 625 2450 350 
Q 2100 75 1625 75 
Q 1025 75 637 462 
Q 250 850 250 1525 
Q 250 2200 637 2587 
Q 1025 2975 1625 2975 
Q 2150 2975 2487 2637 
Q 2825 2300 2825 1525 
L 800 1525 
Q 800 975 1037 750 
Q 1275 525 1625 525 
Q 1900 525 2075 662 
Q 2250 800 2300 1075 
L 2850 1075 
z
M 2250 1925 
Q 2200 2275 2025 2412 
Q 1850 2550 1575 2550 
Q 1325 2550 1125 2412 
Q 925 2275 825 1925 
L 2250 1925 
z
" transform="scale(0.015625)"/>
      </defs>
      <use xlink:href="#SimHei-70"/>
      <use xlink:href="#SimHei-72" x="50"/>
      <use xlink:href="#SimHei-69" x="100"/>
      <use xlink:href="#SimHei-63" x="150"/>
      <use xlink:href="#SimHei-65" x="200"/>
     </g>
    </g>
   </g>
   <g id="PolyCollection_1">
    <path d="M 127.761226 113.714091 
L 127.761226 108.225455 
L 133.692687 108.225455 
L 133.692687 113.714091 
z
" clip-path="url(#p99d49fa0e0)" style="fill: #ff0000; fill-opacity: 0.9; stroke: #000000; stroke-width: 0.941667"/>
    <path d="M 136.147879 108.225455 
L 136.147879 109.140227 
L 142.07934 109.140227 
L 142.07934 108.225455 
z
" clip-path="url(#p99d49fa0e0)" style="fill: #008000; fill-opacity: 0.9; stroke: #000000; stroke-width: 0.941667"/>
    <path d="M 144.534533 106.395909 
L 144.534533 107.310682 
L 150.465993 107.310682 
L 150.465993 106.395909 
z
" clip-path="url(#p99d49fa0e0)" style="fill: #008000; fill-opacity: 0.9; stroke: #000000; stroke-width: 0.941667"/>
    <path d="M 152.921186 107.310682 
L 152.921186 94.503864 
L 158.852646 94.503864 
L 158.852646 107.310682 
z
" clip-path="url(#p99d49fa0e0)" style="fill: #ff0000; fill-opacity: 0.9; stroke: #000000; stroke-width: 0.941667"/>
    <path d="M 161.307839 100.907273 
L 161.307839 92.674318 
L 167.239299 92.674318 
L 167.239299 100.907273 
z
" clip-path="url(#p99d49fa0e0)" style="fill: #ff0000; fill-opacity: 0.9; stroke: #000000; stroke-width: 0.941667"/>
    <path d="M 169.694492 90.844773 
L 169.694492 85.356136 
L 175.625953 85.356136 
L 175.625953 90.844773 
z
" clip-path="url(#p99d49fa0e0)" style="fill: #ff0000; fill-opacity: 0.9; stroke: #000000; stroke-width: 0.941667"/>
    <path d="M 178.081145 83.526591 
L 178.081145 95.418636 
L 184.012606 95.418636 
L 184.012606 83.526591 
z
" clip-path="url(#p99d49fa0e0)" style="fill: #008000; fill-opacity: 0.9; stroke: #000000; stroke-width: 0.941667"/>
    <path d="M 186.467799 96.333409 
L 186.467799 109.140227 
L 192.399259 109.140227 
L 192.399259 96.333409 
z
" clip-path="url(#p99d49fa0e0)" style="fill: #008000; fill-opacity: 0.9; stroke: #000000; stroke-width: 0.941667"/>
    <path d="M 194.854452 109.140227 
L 194.854452 102.736818 
L 200.785912 102.736818 
L 200.785912 109.140227 
z
" clip-path="url(#p99d49fa0e0)" style="fill: #ff0000; fill-opacity: 0.9; stroke: #000000; stroke-width: 0.941667"/>
    <path d="M 203.241105 106.395909 
L 203.241105 118.287955 
L 209.172565 118.287955 
L 209.172565 106.395909 
z
" clip-path="url(#p99d49fa0e0)" style="fill: #008000; fill-opacity: 0.9; stroke: #000000; stroke-width: 0.941667"/>
    <path d="M 211.627758 117.373182 
L 211.627758 129.265227 
L 217.559219 129.265227 
L 217.559219 117.373182 
z
" clip-path="url(#p99d49fa0e0)" style="fill: #008000; fill-opacity: 0.9; stroke: #000000; stroke-width: 0.941667"/>
    <path d="M 220.014411 130.18 
L 220.014411 116.458409 
L 225.945872 116.458409 
L 225.945872 130.18 
z
" clip-path="url(#p99d49fa0e0)" style="fill: #ff0000; fill-opacity: 0.9; stroke: #000000; stroke-width: 0.941667"/>
    <path d="M 228.401065 118.287955 
L 228.401065 124.691364 
L 234.332525 124.691364 
L 234.332525 118.287955 
z
" clip-path="url(#p99d49fa0e0)" style="fill: #008000; fill-opacity: 0.9; stroke: #000000; stroke-width: 0.941667"/>
    <path d="M 236.787718 124.691364 
L 236.787718 141.157273 
L 242.719178 141.157273 
L 242.719178 124.691364 
z
" clip-path="url(#p99d49fa0e0)" style="fill: #008000; fill-opacity: 0.9; stroke: #000000; stroke-width: 0.941667"/>
    <path d="M 245.174371 138.412955 
L 245.174371 142.072045 
L 251.105831 142.072045 
L 251.105831 138.412955 
z
" clip-path="url(#p99d49fa0e0)" style="fill: #008000; fill-opacity: 0.9; stroke: #000000; stroke-width: 0.941667"/>
    <path d="M 253.561024 143.901591 
L 253.561024 143.901591 
L 259.492485 143.901591 
L 259.492485 143.901591 
z
" clip-path="url(#p99d49fa0e0)" style="fill: #008000; fill-opacity: 0.9; stroke: #000000; stroke-width: 0.941667"/>
    <path d="M 261.947677 142.986818 
L 261.947677 142.986818 
L 267.879138 142.986818 
L 267.879138 142.986818 
z
" clip-path="url(#p99d49fa0e0)" style="fill: #008000; fill-opacity: 0.9; stroke: #000000; stroke-width: 0.941667"/>
    <path d="M 270.33433 142.072045 
L 270.33433 169.515227 
L 276.265791 169.515227 
L 276.265791 142.072045 
z
" clip-path="url(#p99d49fa0e0)" style="fill: #008000; fill-opacity: 0.9; stroke: #000000; stroke-width: 0.941667"/>
    <path d="M 278.720984 165.856136 
L 278.720984 169.515227 
L 284.652444 169.515227 
L 284.652444 165.856136 
z
" clip-path="url(#p99d49fa0e0)" style="fill: #008000; fill-opacity: 0.9; stroke: #000000; stroke-width: 0.941667"/>
    <path d="M 287.107637 169.515227 
L 287.107637 200.6175 
L 293.039097 200.6175 
L 293.039097 169.515227 
z
" clip-path="url(#p99d49fa0e0)" style="fill: #008000; fill-opacity: 0.9; stroke: #000000; stroke-width: 0.941667"/>
    <path d="M 295.49429 200.6175 
L 295.49429 178.662955 
L 301.42575 178.662955 
L 301.42575 200.6175 
z
" clip-path="url(#p99d49fa0e0)" style="fill: #ff0000; fill-opacity: 0.9; stroke: #000000; stroke-width: 0.941667"/>
    <path d="M 303.880943 184.151591 
L 303.880943 177.748182 
L 309.812404 177.748182 
L 309.812404 184.151591 
z
" clip-path="url(#p99d49fa0e0)" style="fill: #ff0000; fill-opacity: 0.9; stroke: #000000; stroke-width: 0.941667"/>
    <path d="M 312.267596 167.685682 
L 312.267596 167.685682 
L 318.199057 167.685682 
L 318.199057 167.685682 
z
" clip-path="url(#p99d49fa0e0)" style="fill: #008000; fill-opacity: 0.9; stroke: #000000; stroke-width: 0.941667"/>
    <path d="M 320.65425 167.685682 
L 320.65425 166.770909 
L 326.58571 166.770909 
L 326.58571 167.685682 
z
" clip-path="url(#p99d49fa0e0)" style="fill: #ff0000; fill-opacity: 0.9; stroke: #000000; stroke-width: 0.941667"/>
    <path d="M 329.040903 168.600455 
L 329.040903 172.259545 
L 334.972363 172.259545 
L 334.972363 168.600455 
z
" clip-path="url(#p99d49fa0e0)" style="fill: #008000; fill-opacity: 0.9; stroke: #000000; stroke-width: 0.941667"/>
    <path d="M 337.427556 169.515227 
L 337.427556 169.515227 
L 343.359016 169.515227 
L 343.359016 169.515227 
z
" clip-path="url(#p99d49fa0e0)" style="fill: #008000; fill-opacity: 0.9; stroke: #000000; stroke-width: 0.941667"/>
    <path d="M 345.814209 169.515227 
L 345.814209 166.770909 
L 351.74567 166.770909 
L 351.74567 169.515227 
z
" clip-path="url(#p99d49fa0e0)" style="fill: #ff0000; fill-opacity: 0.9; stroke: #000000; stroke-width: 0.941667"/>
    <path d="M 354.200862 170.43 
L 354.200862 164.941364 
L 360.132323 164.941364 
L 360.132323 170.43 
z
" clip-path="url(#p99d49fa0e0)" style="fill: #ff0000; fill-opacity: 0.9; stroke: #000000; stroke-width: 0.941667"/>
    <path d="M 362.587515 164.941364 
L 362.587515 156.708409 
L 368.518976 156.708409 
L 368.518976 164.941364 
z
" clip-path="url(#p99d49fa0e0)" style="fill: #ff0000; fill-opacity: 0.9; stroke: #000000; stroke-width: 0.941667"/>
    <path d="M 370.974169 149.390227 
L 370.974169 152.134545 
L 376.905629 152.134545 
L 376.905629 149.390227 
z
" clip-path="url(#p99d49fa0e0)" style="fill: #008000; fill-opacity: 0.9; stroke: #000000; stroke-width: 0.941667"/>
    <path d="M 379.360822 146.645909 
L 379.360822 166.770909 
L 385.292282 166.770909 
L 385.292282 146.645909 
z
" clip-path="url(#p99d49fa0e0)" style="fill: #008000; fill-opacity: 0.9; stroke: #000000; stroke-width: 0.941667"/>
    <path d="M 387.747475 169.515227 
L 387.747475 174.089091 
L 393.678935 174.089091 
L 393.678935 169.515227 
z
" clip-path="url(#p99d49fa0e0)" style="fill: #008000; fill-opacity: 0.9; stroke: #000000; stroke-width: 0.941667"/>
    <path d="M 396.134128 175.003864 
L 396.134128 163.111818 
L 402.065589 163.111818 
L 402.065589 175.003864 
z
" clip-path="url(#p99d49fa0e0)" style="fill: #ff0000; fill-opacity: 0.9; stroke: #000000; stroke-width: 0.941667"/>
    <path d="M 404.520781 160.3675 
L 404.520781 142.986818 
L 410.452242 142.986818 
L 410.452242 160.3675 
z
" clip-path="url(#p99d49fa0e0)" style="fill: #ff0000; fill-opacity: 0.9; stroke: #000000; stroke-width: 0.941667"/>
    <path d="M 412.907435 148.475455 
L 412.907435 153.049318 
L 418.838895 153.049318 
L 418.838895 148.475455 
z
" clip-path="url(#p99d49fa0e0)" style="fill: #008000; fill-opacity: 0.9; stroke: #000000; stroke-width: 0.941667"/>
    <path d="M 421.294088 155.793636 
L 421.294088 150.305 
L 427.225548 150.305 
L 427.225548 155.793636 
z
" clip-path="url(#p99d49fa0e0)" style="fill: #ff0000; fill-opacity: 0.9; stroke: #000000; stroke-width: 0.941667"/>
    <path d="M 429.680741 151.219773 
L 429.680741 110.969773 
L 435.612201 110.969773 
L 435.612201 151.219773 
z
" clip-path="url(#p99d49fa0e0)" style="fill: #ff0000; fill-opacity: 0.9; stroke: #000000; stroke-width: 0.941667"/>
    <path d="M 438.067394 116.458409 
L 438.067394 112.799318 
L 443.998855 112.799318 
L 443.998855 116.458409 
z
" clip-path="url(#p99d49fa0e0)" style="fill: #ff0000; fill-opacity: 0.9; stroke: #000000; stroke-width: 0.941667"/>
    <path d="M 446.454047 114.628864 
L 446.454047 132.009545 
L 452.385508 132.009545 
L 452.385508 114.628864 
z
" clip-path="url(#p99d49fa0e0)" style="fill: #008000; fill-opacity: 0.9; stroke: #000000; stroke-width: 0.941667"/>
    <path d="M 454.840701 133.839091 
L 454.840701 137.498182 
L 460.772161 137.498182 
L 460.772161 133.839091 
z
" clip-path="url(#p99d49fa0e0)" style="fill: #008000; fill-opacity: 0.9; stroke: #000000; stroke-width: 0.941667"/>
    <path d="M 463.227354 129.265227 
L 463.227354 134.753864 
L 469.158814 134.753864 
L 469.158814 129.265227 
z
" clip-path="url(#p99d49fa0e0)" style="fill: #008000; fill-opacity: 0.9; stroke: #000000; stroke-width: 0.941667"/>
    <path d="M 471.614007 135.668636 
L 471.614007 102.736818 
L 477.545467 102.736818 
L 477.545467 135.668636 
z
" clip-path="url(#p99d49fa0e0)" style="fill: #ff0000; fill-opacity: 0.9; stroke: #000000; stroke-width: 0.941667"/>
    <path d="M 480.00066 106.395909 
L 480.00066 114.628864 
L 485.932121 114.628864 
L 485.932121 106.395909 
z
" clip-path="url(#p99d49fa0e0)" style="fill: #008000; fill-opacity: 0.9; stroke: #000000; stroke-width: 0.941667"/>
    <path d="M 488.387313 112.799318 
L 488.387313 132.009545 
L 494.318774 132.009545 
L 494.318774 112.799318 
z
" clip-path="url(#p99d49fa0e0)" style="fill: #008000; fill-opacity: 0.9; stroke: #000000; stroke-width: 0.941667"/>
   </g>
   <g id="LineCollection_1">
    <path d="M 130.726957 115.543636 
L 130.726957 113.714091 
" clip-path="url(#p99d49fa0e0)" style="fill: none; stroke: #000000; stroke-width: 0.941667"/>
    <path d="M 139.11361 111.884545 
L 139.11361 109.140227 
" clip-path="url(#p99d49fa0e0)" style="fill: none; stroke: #000000; stroke-width: 0.941667"/>
    <path d="M 147.500263 115.543636 
L 147.500263 107.310682 
" clip-path="url(#p99d49fa0e0)" style="fill: none; stroke: #000000; stroke-width: 0.941667"/>
    <path d="M 155.886916 114.628864 
L 155.886916 107.310682 
" clip-path="url(#p99d49fa0e0)" style="fill: none; stroke: #000000; stroke-width: 0.941667"/>
    <path d="M 164.273569 102.736818 
L 164.273569 100.907273 
" clip-path="url(#p99d49fa0e0)" style="fill: none; stroke: #000000; stroke-width: 0.941667"/>
    <path d="M 172.660222 92.674318 
L 172.660222 90.844773 
" clip-path="url(#p99d49fa0e0)" style="fill: none; stroke: #000000; stroke-width: 0.941667"/>
    <path d="M 181.046876 96.333409 
L 181.046876 95.418636 
" clip-path="url(#p99d49fa0e0)" style="fill: none; stroke: #000000; stroke-width: 0.941667"/>
    <path d="M 189.433529 110.055 
L 189.433529 109.140227 
" clip-path="url(#p99d49fa0e0)" style="fill: none; stroke: #000000; stroke-width: 0.941667"/>
    <path d="M 197.820182 109.140227 
L 197.820182 109.140227 
" clip-path="url(#p99d49fa0e0)" style="fill: none; stroke: #000000; stroke-width: 0.941667"/>
    <path d="M 206.206835 118.287955 
L 206.206835 118.287955 
" clip-path="url(#p99d49fa0e0)" style="fill: none; stroke: #000000; stroke-width: 0.941667"/>
    <path d="M 214.593488 137.498182 
L 214.593488 129.265227 
" clip-path="url(#p99d49fa0e0)" style="fill: none; stroke: #000000; stroke-width: 0.941667"/>
    <path d="M 222.980142 133.839091 
L 222.980142 130.18 
" clip-path="url(#p99d49fa0e0)" style="fill: none; stroke: #000000; stroke-width: 0.941667"/>
    <path d="M 231.366795 126.520909 
L 231.366795 124.691364 
" clip-path="url(#p99d49fa0e0)" style="fill: none; stroke: #000000; stroke-width: 0.941667"/>
    <path d="M 239.753448 142.986818 
L 239.753448 141.157273 
" clip-path="url(#p99d49fa0e0)" style="fill: none; stroke: #000000; stroke-width: 0.941667"/>
    <path d="M 248.140101 161.282273 
L 248.140101 142.072045 
" clip-path="url(#p99d49fa0e0)" style="fill: none; stroke: #000000; stroke-width: 0.941667"/>
    <path d="M 256.526754 146.645909 
L 256.526754 143.901591 
" clip-path="url(#p99d49fa0e0)" style="fill: none; stroke: #000000; stroke-width: 0.941667"/>
    <path d="M 264.913407 145.731136 
L 264.913407 142.986818 
" clip-path="url(#p99d49fa0e0)" style="fill: none; stroke: #000000; stroke-width: 0.941667"/>
    <path d="M 273.300061 170.43 
L 273.300061 169.515227 
" clip-path="url(#p99d49fa0e0)" style="fill: none; stroke: #000000; stroke-width: 0.941667"/>
    <path d="M 281.686714 177.748182 
L 281.686714 169.515227 
" clip-path="url(#p99d49fa0e0)" style="fill: none; stroke: #000000; stroke-width: 0.941667"/>
    <path d="M 290.073367 203.361818 
L 290.073367 200.6175 
" clip-path="url(#p99d49fa0e0)" style="fill: none; stroke: #000000; stroke-width: 0.941667"/>
    <path d="M 298.46002 202.447045 
L 298.46002 200.6175 
" clip-path="url(#p99d49fa0e0)" style="fill: none; stroke: #000000; stroke-width: 0.941667"/>
    <path d="M 306.846673 185.066364 
L 306.846673 184.151591 
" clip-path="url(#p99d49fa0e0)" style="fill: none; stroke: #000000; stroke-width: 0.941667"/>
    <path d="M 315.233327 175.918636 
L 315.233327 167.685682 
" clip-path="url(#p99d49fa0e0)" style="fill: none; stroke: #000000; stroke-width: 0.941667"/>
    <path d="M 323.61998 173.174318 
L 323.61998 167.685682 
" clip-path="url(#p99d49fa0e0)" style="fill: none; stroke: #000000; stroke-width: 0.941667"/>
    <path d="M 332.006633 175.003864 
L 332.006633 172.259545 
" clip-path="url(#p99d49fa0e0)" style="fill: none; stroke: #000000; stroke-width: 0.941667"/>
    <path d="M 340.393286 175.003864 
L 340.393286 169.515227 
" clip-path="url(#p99d49fa0e0)" style="fill: none; stroke: #000000; stroke-width: 0.941667"/>
    <path d="M 348.779939 170.43 
L 348.779939 169.515227 
" clip-path="url(#p99d49fa0e0)" style="fill: none; stroke: #000000; stroke-width: 0.941667"/>
    <path d="M 357.166593 181.407273 
L 357.166593 170.43 
" clip-path="url(#p99d49fa0e0)" style="fill: none; stroke: #000000; stroke-width: 0.941667"/>
    <path d="M 365.553246 169.515227 
L 365.553246 164.941364 
" clip-path="url(#p99d49fa0e0)" style="fill: none; stroke: #000000; stroke-width: 0.941667"/>
    <path d="M 373.939899 160.3675 
L 373.939899 152.134545 
" clip-path="url(#p99d49fa0e0)" style="fill: none; stroke: #000000; stroke-width: 0.941667"/>
    <path d="M 382.326552 166.770909 
L 382.326552 166.770909 
" clip-path="url(#p99d49fa0e0)" style="fill: none; stroke: #000000; stroke-width: 0.941667"/>
    <path d="M 390.713205 175.003864 
L 390.713205 174.089091 
" clip-path="url(#p99d49fa0e0)" style="fill: none; stroke: #000000; stroke-width: 0.941667"/>
    <path d="M 399.099858 178.662955 
L 399.099858 175.003864 
" clip-path="url(#p99d49fa0e0)" style="fill: none; stroke: #000000; stroke-width: 0.941667"/>
    <path d="M 407.486512 163.111818 
L 407.486512 160.3675 
" clip-path="url(#p99d49fa0e0)" style="fill: none; stroke: #000000; stroke-width: 0.941667"/>
    <path d="M 415.873165 154.878864 
L 415.873165 153.049318 
" clip-path="url(#p99d49fa0e0)" style="fill: none; stroke: #000000; stroke-width: 0.941667"/>
    <path d="M 424.259818 161.282273 
L 424.259818 155.793636 
" clip-path="url(#p99d49fa0e0)" style="fill: none; stroke: #000000; stroke-width: 0.941667"/>
    <path d="M 432.646471 152.134545 
L 432.646471 151.219773 
" clip-path="url(#p99d49fa0e0)" style="fill: none; stroke: #000000; stroke-width: 0.941667"/>
    <path d="M 441.033124 119.202727 
L 441.033124 116.458409 
" clip-path="url(#p99d49fa0e0)" style="fill: none; stroke: #000000; stroke-width: 0.941667"/>
    <path d="M 449.419778 133.839091 
L 449.419778 132.009545 
" clip-path="url(#p99d49fa0e0)" style="fill: none; stroke: #000000; stroke-width: 0.941667"/>
    <path d="M 457.806431 138.412955 
L 457.806431 137.498182 
" clip-path="url(#p99d49fa0e0)" style="fill: none; stroke: #000000; stroke-width: 0.941667"/>
    <path d="M 466.193084 142.986818 
L 466.193084 134.753864 
" clip-path="url(#p99d49fa0e0)" style="fill: none; stroke: #000000; stroke-width: 0.941667"/>
    <path d="M 474.579737 139.327727 
L 474.579737 135.668636 
" clip-path="url(#p99d49fa0e0)" style="fill: none; stroke: #000000; stroke-width: 0.941667"/>
    <path d="M 482.96639 119.202727 
L 482.96639 114.628864 
" clip-path="url(#p99d49fa0e0)" style="fill: none; stroke: #000000; stroke-width: 0.941667"/>
    <path d="M 491.353043 132.924318 
L 491.353043 132.009545 
" clip-path="url(#p99d49fa0e0)" style="fill: none; stroke: #000000; stroke-width: 0.941667"/>
    <path d="M 130.726957 98.162955 
L 130.726957 108.225455 
" clip-path="url(#p99d49fa0e0)" style="fill: none; stroke: #000000; stroke-width: 0.941667"/>
    <path d="M 139.11361 103.651591 
L 139.11361 108.225455 
" clip-path="url(#p99d49fa0e0)" style="fill: none; stroke: #000000; stroke-width: 0.941667"/>
    <path d="M 147.500263 100.907273 
L 147.500263 106.395909 
" clip-path="url(#p99d49fa0e0)" style="fill: none; stroke: #000000; stroke-width: 0.941667"/>
    <path d="M 155.886916 89.015227 
L 155.886916 94.503864 
" clip-path="url(#p99d49fa0e0)" style="fill: none; stroke: #000000; stroke-width: 0.941667"/>
    <path d="M 164.273569 89.015227 
L 164.273569 92.674318 
" clip-path="url(#p99d49fa0e0)" style="fill: none; stroke: #000000; stroke-width: 0.941667"/>
    <path d="M 172.660222 84.441364 
L 172.660222 85.356136 
" clip-path="url(#p99d49fa0e0)" style="fill: none; stroke: #000000; stroke-width: 0.941667"/>
    <path d="M 181.046876 82.611818 
L 181.046876 83.526591 
" clip-path="url(#p99d49fa0e0)" style="fill: none; stroke: #000000; stroke-width: 0.941667"/>
    <path d="M 189.433529 92.674318 
L 189.433529 96.333409 
" clip-path="url(#p99d49fa0e0)" style="fill: none; stroke: #000000; stroke-width: 0.941667"/>
    <path d="M 197.820182 99.077727 
L 197.820182 102.736818 
" clip-path="url(#p99d49fa0e0)" style="fill: none; stroke: #000000; stroke-width: 0.941667"/>
    <path d="M 206.206835 101.822045 
L 206.206835 106.395909 
" clip-path="url(#p99d49fa0e0)" style="fill: none; stroke: #000000; stroke-width: 0.941667"/>
    <path d="M 214.593488 110.969773 
L 214.593488 117.373182 
" clip-path="url(#p99d49fa0e0)" style="fill: none; stroke: #000000; stroke-width: 0.941667"/>
    <path d="M 222.980142 113.714091 
L 222.980142 116.458409 
" clip-path="url(#p99d49fa0e0)" style="fill: none; stroke: #000000; stroke-width: 0.941667"/>
    <path d="M 231.366795 113.714091 
L 231.366795 118.287955 
" clip-path="url(#p99d49fa0e0)" style="fill: none; stroke: #000000; stroke-width: 0.941667"/>
    <path d="M 239.753448 114.628864 
L 239.753448 124.691364 
" clip-path="url(#p99d49fa0e0)" style="fill: none; stroke: #000000; stroke-width: 0.941667"/>
    <path d="M 248.140101 138.412955 
L 248.140101 138.412955 
" clip-path="url(#p99d49fa0e0)" style="fill: none; stroke: #000000; stroke-width: 0.941667"/>
    <path d="M 256.526754 134.753864 
L 256.526754 143.901591 
" clip-path="url(#p99d49fa0e0)" style="fill: none; stroke: #000000; stroke-width: 0.941667"/>
    <path d="M 264.913407 135.668636 
L 264.913407 142.986818 
" clip-path="url(#p99d49fa0e0)" style="fill: none; stroke: #000000; stroke-width: 0.941667"/>
    <path d="M 273.300061 140.2425 
L 273.300061 142.072045 
" clip-path="url(#p99d49fa0e0)" style="fill: none; stroke: #000000; stroke-width: 0.941667"/>
    <path d="M 281.686714 163.111818 
L 281.686714 165.856136 
" clip-path="url(#p99d49fa0e0)" style="fill: none; stroke: #000000; stroke-width: 0.941667"/>
    <path d="M 290.073367 169.515227 
L 290.073367 169.515227 
" clip-path="url(#p99d49fa0e0)" style="fill: none; stroke: #000000; stroke-width: 0.941667"/>
    <path d="M 298.46002 176.833409 
L 298.46002 178.662955 
" clip-path="url(#p99d49fa0e0)" style="fill: none; stroke: #000000; stroke-width: 0.941667"/>
    <path d="M 306.846673 167.685682 
L 306.846673 177.748182 
" clip-path="url(#p99d49fa0e0)" style="fill: none; stroke: #000000; stroke-width: 0.941667"/>
    <path d="M 315.233327 164.026591 
L 315.233327 167.685682 
" clip-path="url(#p99d49fa0e0)" style="fill: none; stroke: #000000; stroke-width: 0.941667"/>
    <path d="M 323.61998 163.111818 
L 323.61998 166.770909 
" clip-path="url(#p99d49fa0e0)" style="fill: none; stroke: #000000; stroke-width: 0.941667"/>
    <path d="M 332.006633 164.941364 
L 332.006633 168.600455 
" clip-path="url(#p99d49fa0e0)" style="fill: none; stroke: #000000; stroke-width: 0.941667"/>
    <path d="M 340.393286 166.770909 
L 340.393286 169.515227 
" clip-path="url(#p99d49fa0e0)" style="fill: none; stroke: #000000; stroke-width: 0.941667"/>
    <path d="M 348.779939 164.026591 
L 348.779939 166.770909 
" clip-path="url(#p99d49fa0e0)" style="fill: none; stroke: #000000; stroke-width: 0.941667"/>
    <path d="M 357.166593 164.026591 
L 357.166593 164.941364 
" clip-path="url(#p99d49fa0e0)" style="fill: none; stroke: #000000; stroke-width: 0.941667"/>
    <path d="M 365.553246 154.878864 
L 365.553246 156.708409 
" clip-path="url(#p99d49fa0e0)" style="fill: none; stroke: #000000; stroke-width: 0.941667"/>
    <path d="M 373.939899 146.645909 
L 373.939899 149.390227 
" clip-path="url(#p99d49fa0e0)" style="fill: none; stroke: #000000; stroke-width: 0.941667"/>
    <path d="M 382.326552 143.901591 
L 382.326552 146.645909 
" clip-path="url(#p99d49fa0e0)" style="fill: none; stroke: #000000; stroke-width: 0.941667"/>
    <path d="M 390.713205 162.197045 
L 390.713205 169.515227 
" clip-path="url(#p99d49fa0e0)" style="fill: none; stroke: #000000; stroke-width: 0.941667"/>
    <path d="M 399.099858 157.623182 
L 399.099858 163.111818 
" clip-path="url(#p99d49fa0e0)" style="fill: none; stroke: #000000; stroke-width: 0.941667"/>
    <path d="M 407.486512 142.986818 
L 407.486512 142.986818 
" clip-path="url(#p99d49fa0e0)" style="fill: none; stroke: #000000; stroke-width: 0.941667"/>
    <path d="M 415.873165 139.327727 
L 415.873165 148.475455 
" clip-path="url(#p99d49fa0e0)" style="fill: none; stroke: #000000; stroke-width: 0.941667"/>
    <path d="M 424.259818 147.560682 
L 424.259818 150.305 
" clip-path="url(#p99d49fa0e0)" style="fill: none; stroke: #000000; stroke-width: 0.941667"/>
    <path d="M 432.646471 94.503864 
L 432.646471 110.969773 
" clip-path="url(#p99d49fa0e0)" style="fill: none; stroke: #000000; stroke-width: 0.941667"/>
    <path d="M 441.033124 98.162955 
L 441.033124 112.799318 
" clip-path="url(#p99d49fa0e0)" style="fill: none; stroke: #000000; stroke-width: 0.941667"/>
    <path d="M 449.419778 109.140227 
L 449.419778 114.628864 
" clip-path="url(#p99d49fa0e0)" style="fill: none; stroke: #000000; stroke-width: 0.941667"/>
    <path d="M 457.806431 117.373182 
L 457.806431 133.839091 
" clip-path="url(#p99d49fa0e0)" style="fill: none; stroke: #000000; stroke-width: 0.941667"/>
    <path d="M 466.193084 126.520909 
L 466.193084 129.265227 
" clip-path="url(#p99d49fa0e0)" style="fill: none; stroke: #000000; stroke-width: 0.941667"/>
    <path d="M 474.579737 56.998182 
L 474.579737 102.736818 
" clip-path="url(#p99d49fa0e0)" style="fill: none; stroke: #000000; stroke-width: 0.941667"/>
    <path d="M 482.96639 91.759545 
L 482.96639 106.395909 
" clip-path="url(#p99d49fa0e0)" style="fill: none; stroke: #000000; stroke-width: 0.941667"/>
    <path d="M 491.353043 108.225455 
L 491.353043 112.799318 
" clip-path="url(#p99d49fa0e0)" style="fill: none; stroke: #000000; stroke-width: 0.941667"/>
   </g>
   <g id="line2d_25">
    <path d="M 164.273569 102.370909 
L 172.660222 97.797045 
L 181.046876 95.052727 
L 189.433529 95.418636 
L 197.820182 97.065227 
L 206.206835 102.187955 
L 214.593488 110.969773 
L 222.980142 115.177727 
L 231.366795 118.287955 
L 239.753448 125.972045 
L 248.140101 130.728864 
L 256.526754 133.656136 
L 264.913407 138.961818 
L 273.300061 147.926591 
L 281.686714 153.598182 
L 290.073367 165.307273 
L 298.46002 172.259545 
L 306.846673 179.211818 
L 315.233327 178.845909 
L 323.61998 178.297045 
L 332.006633 172.625455 
L 340.393286 170.795909 
L 348.779939 168.600455 
L 357.166593 168.051591 
L 365.553246 166.039091 
L 373.939899 162.014091 
L 382.326552 161.465227 
L 390.713205 162.928864 
L 399.099858 162.562955 
L 407.486512 159.818636 
L 415.873165 160.001591 
L 424.259818 156.708409 
L 432.646471 144.084545 
L 441.033124 134.022045 
L 449.419778 131.826591 
L 457.806431 128.716364 
L 466.193084 125.606136 
L 474.579737 123.959545 
L 482.96639 124.325455 
L 491.353043 124.325455 
" clip-path="url(#p99d49fa0e0)" style="fill: none; stroke: #0000ff; stroke-linecap: square"/>
   </g>
   <g id="line2d_26">
    <path d="M 206.206835 102.279432 
L 214.593488 104.383409 
L 222.980142 105.115227 
L 231.366795 106.853295 
L 239.753448 111.518636 
L 248.140101 116.458409 
L 256.526754 122.312955 
L 264.913407 127.069773 
L 273.300061 133.107273 
L 281.686714 139.785114 
L 290.073367 148.018068 
L 298.46002 152.957841 
L 306.846673 159.086818 
L 315.233327 163.38625 
L 323.61998 165.947614 
L 332.006633 168.966364 
L 340.393286 171.527727 
L 348.779939 173.906136 
L 357.166593 173.44875 
L 365.553246 172.168068 
L 373.939899 167.319773 
L 382.326552 166.130568 
L 390.713205 165.764659 
L 399.099858 165.307273 
L 407.486512 162.928864 
L 415.873165 161.007841 
L 424.259818 159.086818 
L 432.646471 153.506705 
L 441.033124 148.2925 
L 449.419778 145.822614 
L 457.806431 144.358977 
L 466.193084 141.157273 
L 474.579737 134.022045 
L 482.96639 129.17375 
L 491.353043 128.076023 
" clip-path="url(#p99d49fa0e0)" style="fill: none; stroke: #ffa500; stroke-linecap: square"/>
   </g>
   <g id="line2d_27">
    <path d="M 290.073367 125.14875 
L 298.46002 128.670625 
L 306.846673 132.101023 
L 315.233327 135.119773 
L 323.61998 138.733125 
L 332.006633 142.712386 
L 340.393286 146.920341 
L 348.779939 150.487955 
L 357.166593 153.278011 
L 365.553246 155.976591 
L 373.939899 157.66892 
L 382.326552 159.544205 
L 390.713205 162.425739 
L 399.099858 164.346761 
L 407.486512 164.438239 
L 415.873165 164.987102 
L 424.259818 165.307273 
L 432.646471 163.70642 
L 441.033124 160.870625 
L 449.419778 158.995341 
L 457.806431 155.839375 
L 466.193084 153.64392 
L 474.579737 149.893352 
L 482.96639 147.240511 
L 491.353043 145.502443 
" clip-path="url(#p99d49fa0e0)" style="fill: none; stroke: #008000; stroke-linecap: square"/>
   </g>
   <g id="patch_3">
    <path d="M 103.68 210.68 
L 103.68 49.68 
" style="fill: none; stroke: #f0f0f0; stroke-width: 0.8; stroke-linejoin: miter; stroke-linecap: square"/>
   </g>
   <g id="patch_4">
    <path d="M 518.4 210.68 
L 518.4 49.68 
" style="fill: none; stroke: #f0f0f0; stroke-width: 0.8; stroke-linejoin: miter; stroke-linecap: square"/>
   </g>
   <g id="patch_5">
    <path d="M 103.68 210.68 
L 518.4 210.68 
" style="fill: none; stroke: #f0f0f0; stroke-width: 0.8; stroke-linejoin: miter; stroke-linecap: square"/>
   </g>
   <g id="patch_6">
    <path d="M 103.68 49.68 
L 518.4 49.68 
" style="fill: none; stroke: #f0f0f0; stroke-width: 0.8; stroke-linejoin: miter; stroke-linecap: square"/>
   </g>
   <g id="legend_1">
    <g id="patch_7">
     <path d="M 110.68 205.68 
L 162.68 205.68 
Q 164.68 205.68 164.68 203.68 
L 164.68 164.93 
Q 164.68 162.93 162.68 162.93 
L 110.68 162.93 
Q 108.68 162.93 108.68 164.93 
L 108.68 203.68 
Q 108.68 205.68 110.68 205.68 
z
" style="fill: #fafafa; opacity: 0.8; stroke: #cccccc; stroke-linejoin: miter"/>
    </g>
    <g id="line2d_28">
     <path d="M 112.68 170.43 
L 122.68 170.43 
L 132.68 170.43 
" style="fill: none; stroke: #0000ff; stroke-width: 2; stroke-linecap: square"/>
    </g>
    <g id="text_9">
     <!-- MA5 -->
     <g transform="translate(140.68 173.93) scale(0.1 -0.1)">
      <defs>
       <path id="SimHei-4d" d="M 2925 125 
L 2425 125 
L 2425 3175 
L 2375 3175 
L 1775 125 
L 1375 125 
L 775 3175 
L 725 3175 
L 725 125 
L 225 125 
L 225 4400 
L 1000 4400 
L 1550 1575 
L 1600 1575 
L 2150 4400 
L 2925 4400 
L 2925 125 
z
" transform="scale(0.015625)"/>
       <path id="SimHei-41" d="M 3075 125 
L 2475 125 
L 2125 1450 
L 1025 1450 
L 675 125 
L 75 125 
L 1325 4450 
L 1825 4450 
L 3075 125 
z
M 2000 1925 
L 1600 3450 
L 1550 3450 
L 1150 1925 
L 2000 1925 
z
" transform="scale(0.015625)"/>
      </defs>
      <use xlink:href="#SimHei-4d"/>
      <use xlink:href="#SimHei-41" x="50"/>
      <use xlink:href="#SimHei-35" x="100"/>
     </g>
    </g>
    <g id="line2d_29">
     <path d="M 112.68 183.68 
L 122.68 183.68 
L 132.68 183.68 
" style="fill: none; stroke: #ffa500; stroke-width: 2; stroke-linecap: square"/>
    </g>
    <g id="text_10">
     <!-- MA10 -->
     <g transform="translate(140.68 187.18) scale(0.1 -0.1)">
      <use xlink:href="#SimHei-4d"/>
      <use xlink:href="#SimHei-41" x="50"/>
      <use xlink:href="#SimHei-31" x="100"/>
      <use xlink:href="#SimHei-30" x="150"/>
     </g>
    </g>
    <g id="line2d_30">
     <path d="M 112.68 196.93 
L 122.68 196.93 
L 132.68 196.93 
" style="fill: none; stroke: #008000; stroke-width: 2; stroke-linecap: square"/>
    </g>
    <g id="text_11">
     <!-- MA20 -->
     <g transform="translate(140.68 200.43) scale(0.1 -0.1)">
      <use xlink:href="#SimHei-4d"/>
      <use xlink:href="#SimHei-41" x="50"/>
      <use xlink:href="#SimHei-32" x="100"/>
      <use xlink:href="#SimHei-30" x="150"/>
     </g>
    </g>
   </g>
  </g>
  <g id="axes_2">
   <g id="patch_8">
    <path d="M 103.68 275.08 
L 518.4 275.08 
L 518.4 210.68 
L 103.68 210.68 
z
" style="fill: #fafafa"/>
   </g>
   <g id="matplotlib.axis_3">
    <g id="xtick_6">
     <g id="line2d_31">
      <path d="M 130.726957 275.08 
L 130.726957 210.68 
" clip-path="url(#p84f0f74571)" style="fill: none; stroke: #d0d0d0; stroke-width: 0.8; stroke-linecap: square"/>
     </g>
     <g id="line2d_32">
      <g>
       <use xlink:href="#m5c284d1038" x="130.726957" y="275.08" style="fill: #101010; stroke: #101010; stroke-width: 0.8"/>
      </g>
     </g>
    </g>
    <g id="xtick_7">
     <g id="line2d_33">
      <path d="M 214.593488 275.08 
L 214.593488 210.68 
" clip-path="url(#p84f0f74571)" style="fill: none; stroke: #d0d0d0; stroke-width: 0.8; stroke-linecap: square"/>
     </g>
     <g id="line2d_34">
      <g>
       <use xlink:href="#m5c284d1038" x="214.593488" y="275.08" style="fill: #101010; stroke: #101010; stroke-width: 0.8"/>
      </g>
     </g>
    </g>
    <g id="xtick_8">
     <g id="line2d_35">
      <path d="M 298.46002 275.08 
L 298.46002 210.68 
" clip-path="url(#p84f0f74571)" style="fill: none; stroke: #d0d0d0; stroke-width: 0.8; stroke-linecap: square"/>
     </g>
     <g id="line2d_36">
      <g>
       <use xlink:href="#m5c284d1038" x="298.46002" y="275.08" style="fill: #101010; stroke: #101010; stroke-width: 0.8"/>
      </g>
     </g>
    </g>
    <g id="xtick_9">
     <g id="line2d_37">
      <path d="M 382.326552 275.08 
L 382.326552 210.68 
" clip-path="url(#p84f0f74571)" style="fill: none; stroke: #d0d0d0; stroke-width: 0.8; stroke-linecap: square"/>
     </g>
     <g id="line2d_38">
      <g>
       <use xlink:href="#m5c284d1038" x="382.326552" y="275.08" style="fill: #101010; stroke: #101010; stroke-width: 0.8"/>
      </g>
     </g>
    </g>
    <g id="xtick_10">
     <g id="line2d_39">
      <path d="M 466.193084 275.08 
L 466.193084 210.68 
" clip-path="url(#p84f0f74571)" style="fill: none; stroke: #d0d0d0; stroke-width: 0.8; stroke-linecap: square"/>
     </g>
     <g id="line2d_40">
      <g>
       <use xlink:href="#m5c284d1038" x="466.193084" y="275.08" style="fill: #101010; stroke: #101010; stroke-width: 0.8"/>
      </g>
     </g>
    </g>
   </g>
   <g id="matplotlib.axis_4">
    <g id="ytick_8">
     <g id="line2d_41">
      <path d="M 103.68 255.029915 
L 518.4 255.029915 
" clip-path="url(#p84f0f74571)" style="fill: none; stroke: #d0d0d0; stroke-width: 0.8; stroke-linecap: square"/>
     </g>
     <g id="line2d_42">
      <g>
       <use xlink:href="#m8f8ca850df" x="518.4" y="255.029915" style="fill: #101010; stroke: #101010; stroke-width: 0.8"/>
      </g>
     </g>
     <g id="text_12">
      <!-- 250000 -->
      <g style="fill: #101010" transform="translate(525.4 258.467415) scale(0.1 -0.1)">
       <use xlink:href="#SimHei-32"/>
       <use xlink:href="#SimHei-35" x="50"/>
       <use xlink:href="#SimHei-30" x="100"/>
       <use xlink:href="#SimHei-30" x="150"/>
       <use xlink:href="#SimHei-30" x="200"/>
       <use xlink:href="#SimHei-30" x="250"/>
      </g>
     </g>
    </g>
    <g id="ytick_9">
     <g id="line2d_43">
      <path d="M 103.68 232.850264 
L 518.4 232.850264 
" clip-path="url(#p84f0f74571)" style="fill: none; stroke: #d0d0d0; stroke-width: 0.8; stroke-linecap: square"/>
     </g>
     <g id="line2d_44">
      <g>
       <use xlink:href="#m8f8ca850df" x="518.4" y="232.850264" style="fill: #101010; stroke: #101010; stroke-width: 0.8"/>
      </g>
     </g>
     <g id="text_13">
      <!-- 500000 -->
      <g style="fill: #101010" transform="translate(525.4 236.287764) scale(0.1 -0.1)">
       <use xlink:href="#SimHei-35"/>
       <use xlink:href="#SimHei-30" x="50"/>
       <use xlink:href="#SimHei-30" x="100"/>
       <use xlink:href="#SimHei-30" x="150"/>
       <use xlink:href="#SimHei-30" x="200"/>
       <use xlink:href="#SimHei-30" x="250"/>
      </g>
     </g>
    </g>
    <g id="text_14">
     <!-- volume -->
     <g style="fill: #101010" transform="translate(566.275 257.88) rotate(-90) scale(0.1 -0.1)">
      <defs>
       <path id="SimHei-76" d="M 2875 2925 
L 1825 75 
L 1275 75 
L 225 2925 
L 750 2925 
L 1525 750 
L 1575 750 
L 2350 2925 
L 2875 2925 
z
" transform="scale(0.015625)"/>
       <path id="SimHei-6f" d="M 2925 1525 
Q 2925 875 2525 475 
Q 2125 75 1575 75 
Q 1025 75 625 475 
Q 225 875 225 1525 
Q 225 2175 625 2575 
Q 1025 2975 1575 2975 
Q 2125 2975 2525 2575 
Q 2925 2175 2925 1525 
z
M 2375 1525 
Q 2375 2025 2125 2275 
Q 1875 2525 1575 2525 
Q 1275 2525 1025 2275 
Q 775 2025 775 1525 
Q 775 1025 1025 775 
Q 1275 525 1575 525 
Q 1875 525 2125 775 
Q 2375 1025 2375 1525 
z
" transform="scale(0.015625)"/>
       <path id="SimHei-6c" d="M 1825 125 
L 1325 125 
L 1325 4400 
L 1825 4400 
L 1825 125 
z
" transform="scale(0.015625)"/>
       <path id="SimHei-75" d="M 2800 125 
L 2300 125 
L 2300 650 
Q 2100 375 1862 225 
Q 1625 75 1250 75 
Q 800 75 575 325 
Q 350 575 350 950 
L 350 2925 
L 850 2925 
L 850 1125 
Q 850 825 1000 650 
Q 1150 475 1400 475 
Q 1725 475 2012 812 
Q 2300 1150 2300 1650 
L 2300 2925 
L 2800 2925 
L 2800 125 
z
" transform="scale(0.015625)"/>
       <path id="SimHei-6d" d="M 3050 125 
L 2550 125 
L 2550 2150 
Q 2550 2300 2500 2400 
Q 2450 2500 2300 2500 
Q 2125 2500 1975 2312 
Q 1825 2125 1825 1825 
L 1825 125 
L 1325 125 
L 1325 2150 
Q 1325 2300 1275 2400 
Q 1225 2500 1075 2500 
Q 900 2500 750 2312 
Q 600 2125 600 1825 
L 600 125 
L 100 125 
L 100 2925 
L 600 2925 
L 600 2550 
Q 725 2750 900 2862 
Q 1075 2975 1275 2975 
Q 1475 2975 1612 2862 
Q 1750 2750 1800 2550 
Q 1925 2750 2087 2862 
Q 2250 2975 2450 2975 
Q 2750 2975 2900 2812 
Q 3050 2650 3050 2350 
L 3050 125 
z
" transform="scale(0.015625)"/>
      </defs>
      <use xlink:href="#SimHei-76"/>
      <use xlink:href="#SimHei-6f" x="50"/>
      <use xlink:href="#SimHei-6c" x="100"/>
      <use xlink:href="#SimHei-75" x="150"/>
      <use xlink:href="#SimHei-6d" x="200"/>
      <use xlink:href="#SimHei-65" x="250"/>
     </g>
     <!--  -->
     <g style="fill: #101010" transform="translate(575.775 242.88) rotate(-90) scale(0.1 -0.1)"/>
    </g>
   </g>
   <g id="patch_9">
    <path d="M 128.691795 277.209566 
L 132.762118 277.209566 
L 132.762118 267.486451 
L 128.691795 267.486451 
z
" clip-path="url(#p84f0f74571)" style="fill: #ff0000; stroke: #e60000; stroke-width: 0.65; stroke-linejoin: miter"/>
   </g>
   <g id="patch_10">
    <path d="M 137.078449 277.209566 
L 141.148771 277.209566 
L 141.148771 269.627142 
L 137.078449 269.627142 
z
" clip-path="url(#p84f0f74571)" style="fill: #008000; stroke: #007300; stroke-width: 0.65; stroke-linejoin: miter"/>
   </g>
   <g id="patch_11">
    <path d="M 145.465102 277.209566 
L 149.535424 277.209566 
L 149.535424 267.682874 
L 145.465102 267.682874 
z
" clip-path="url(#p84f0f74571)" style="fill: #008000; stroke: #007300; stroke-width: 0.65; stroke-linejoin: miter"/>
   </g>
   <g id="patch_12">
    <path d="M 153.851755 277.209566 
L 157.922077 277.209566 
L 157.922077 257.928884 
L 153.851755 257.928884 
z
" clip-path="url(#p84f0f74571)" style="fill: #ff0000; stroke: #e60000; stroke-width: 0.65; stroke-linejoin: miter"/>
   </g>
   <g id="patch_13">
    <path d="M 162.238408 277.209566 
L 166.30873 277.209566 
L 166.30873 265.953216 
L 162.238408 265.953216 
z
" clip-path="url(#p84f0f74571)" style="fill: #ff0000; stroke: #e60000; stroke-width: 0.65; stroke-linejoin: miter"/>
   </g>
   <g id="patch_14">
    <path d="M 170.625061 277.209566 
L 174.695384 277.209566 
L 174.695384 267.357809 
L 170.625061 267.357809 
z
" clip-path="url(#p84f0f74571)" style="fill: #ff0000; stroke: #e60000; stroke-width: 0.65; stroke-linejoin: miter"/>
   </g>
   <g id="patch_15">
    <path d="M 179.011714 277.209566 
L 183.082037 277.209566 
L 183.082037 268.219444 
L 179.011714 268.219444 
z
" clip-path="url(#p84f0f74571)" style="fill: #008000; stroke: #007300; stroke-width: 0.65; stroke-linejoin: miter"/>
   </g>
   <g id="patch_16">
    <path d="M 187.398368 277.209566 
L 191.46869 277.209566 
L 191.46869 267.367213 
L 187.398368 267.367213 
z
" clip-path="url(#p84f0f74571)" style="fill: #008000; stroke: #007300; stroke-width: 0.65; stroke-linejoin: miter"/>
   </g>
   <g id="patch_17">
    <path d="M 195.785021 277.209566 
L 199.855343 277.209566 
L 199.855343 267.759172 
L 195.785021 267.759172 
z
" clip-path="url(#p84f0f74571)" style="fill: #ff0000; stroke: #e60000; stroke-width: 0.65; stroke-linejoin: miter"/>
   </g>
   <g id="patch_18">
    <path d="M 204.171674 277.209566 
L 208.241996 277.209566 
L 208.241996 266.787525 
L 204.171674 266.787525 
z
" clip-path="url(#p84f0f74571)" style="fill: #008000; stroke: #007300; stroke-width: 0.65; stroke-linejoin: miter"/>
   </g>
   <g id="patch_19">
    <path d="M 212.558327 277.209566 
L 216.62865 277.209566 
L 216.62865 262.273966 
L 212.558327 262.273966 
z
" clip-path="url(#p84f0f74571)" style="fill: #008000; stroke: #007300; stroke-width: 0.65; stroke-linejoin: miter"/>
   </g>
   <g id="patch_20">
    <path d="M 220.94498 277.209566 
L 225.015303 277.209566 
L 225.015303 268.364676 
L 220.94498 268.364676 
z
" clip-path="url(#p84f0f74571)" style="fill: #ff0000; stroke: #e60000; stroke-width: 0.65; stroke-linejoin: miter"/>
   </g>
   <g id="patch_21">
    <path d="M 229.331634 277.209566 
L 233.401956 277.209566 
L 233.401956 269.128987 
L 229.331634 269.128987 
z
" clip-path="url(#p84f0f74571)" style="fill: #008000; stroke: #007300; stroke-width: 0.65; stroke-linejoin: miter"/>
   </g>
   <g id="patch_22">
    <path d="M 237.718287 277.209566 
L 241.788609 277.209566 
L 241.788609 261.172969 
L 237.718287 261.172969 
z
" clip-path="url(#p84f0f74571)" style="fill: #008000; stroke: #007300; stroke-width: 0.65; stroke-linejoin: miter"/>
   </g>
   <g id="patch_23">
    <path d="M 246.10494 277.209566 
L 250.175262 277.209566 
L 250.175262 263.517003 
L 246.10494 263.517003 
z
" clip-path="url(#p84f0f74571)" style="fill: #008000; stroke: #007300; stroke-width: 0.65; stroke-linejoin: miter"/>
   </g>
   <g id="patch_24">
    <path d="M 254.491593 277.209566 
L 258.561915 277.209566 
L 258.561915 268.264247 
L 254.491593 268.264247 
z
" clip-path="url(#p84f0f74571)" style="fill: #008000; stroke: #007300; stroke-width: 0.65; stroke-linejoin: miter"/>
   </g>
   <g id="patch_25">
    <path d="M 262.878246 277.209566 
L 266.948569 277.209566 
L 266.948569 270.111013 
L 262.878246 270.111013 
z
" clip-path="url(#p84f0f74571)" style="fill: #008000; stroke: #007300; stroke-width: 0.65; stroke-linejoin: miter"/>
   </g>
   <g id="patch_26">
    <path d="M 271.264899 277.209566 
L 275.335222 277.209566 
L 275.335222 261.721782 
L 271.264899 261.721782 
z
" clip-path="url(#p84f0f74571)" style="fill: #008000; stroke: #007300; stroke-width: 0.65; stroke-linejoin: miter"/>
   </g>
   <g id="patch_27">
    <path d="M 279.651553 277.209566 
L 283.721875 277.209566 
L 283.721875 264.802181 
L 279.651553 264.802181 
z
" clip-path="url(#p84f0f74571)" style="fill: #008000; stroke: #007300; stroke-width: 0.65; stroke-linejoin: miter"/>
   </g>
   <g id="patch_28">
    <path d="M 288.038206 277.209566 
L 292.108528 277.209566 
L 292.108528 257.264559 
L 288.038206 257.264559 
z
" clip-path="url(#p84f0f74571)" style="fill: #008000; stroke: #007300; stroke-width: 0.65; stroke-linejoin: miter"/>
   </g>
   <g id="patch_29">
    <path d="M 296.424859 277.209566 
L 300.495181 277.209566 
L 300.495181 261.389619 
L 296.424859 261.389619 
z
" clip-path="url(#p84f0f74571)" style="fill: #ff0000; stroke: #e60000; stroke-width: 0.65; stroke-linejoin: miter"/>
   </g>
   <g id="patch_30">
    <path d="M 304.811512 277.209566 
L 308.881835 277.209566 
L 308.881835 266.647439 
L 304.811512 266.647439 
z
" clip-path="url(#p84f0f74571)" style="fill: #ff0000; stroke: #e60000; stroke-width: 0.65; stroke-linejoin: miter"/>
   </g>
   <g id="patch_31">
    <path d="M 313.198165 277.209566 
L 317.268488 277.209566 
L 317.268488 264.885399 
L 313.198165 264.885399 
z
" clip-path="url(#p84f0f74571)" style="fill: #008000; stroke: #007300; stroke-width: 0.65; stroke-linejoin: miter"/>
   </g>
   <g id="patch_32">
    <path d="M 321.584819 277.209566 
L 325.655141 277.209566 
L 325.655141 269.09625 
L 321.584819 269.09625 
z
" clip-path="url(#p84f0f74571)" style="fill: #ff0000; stroke: #e60000; stroke-width: 0.65; stroke-linejoin: miter"/>
   </g>
   <g id="patch_33">
    <path d="M 329.971472 277.209566 
L 334.041794 277.209566 
L 334.041794 269.630424 
L 329.971472 269.630424 
z
" clip-path="url(#p84f0f74571)" style="fill: #008000; stroke: #007300; stroke-width: 0.65; stroke-linejoin: miter"/>
   </g>
   <g id="patch_34">
    <path d="M 338.358125 277.209566 
L 342.428447 277.209566 
L 342.428447 269.812475 
L 338.358125 269.812475 
z
" clip-path="url(#p84f0f74571)" style="fill: #008000; stroke: #007300; stroke-width: 0.65; stroke-linejoin: miter"/>
   </g>
   <g id="patch_35">
    <path d="M 346.744778 277.209566 
L 350.815101 277.209566 
L 350.815101 269.037695 
L 346.744778 269.037695 
z
" clip-path="url(#p84f0f74571)" style="fill: #ff0000; stroke: #e60000; stroke-width: 0.65; stroke-linejoin: miter"/>
   </g>
   <g id="patch_36">
    <path d="M 355.131431 277.209566 
L 359.201754 277.209566 
L 359.201754 267.198204 
L 355.131431 267.198204 
z
" clip-path="url(#p84f0f74571)" style="fill: #ff0000; stroke: #e60000; stroke-width: 0.65; stroke-linejoin: miter"/>
   </g>
   <g id="patch_37">
    <path d="M 363.518085 277.209566 
L 367.588407 277.209566 
L 367.588407 265.627796 
L 363.518085 265.627796 
z
" clip-path="url(#p84f0f74571)" style="fill: #ff0000; stroke: #e60000; stroke-width: 0.65; stroke-linejoin: miter"/>
   </g>
   <g id="patch_38">
    <path d="M 371.904738 277.209566 
L 375.97506 277.209566 
L 375.97506 265.741533 
L 371.904738 265.741533 
z
" clip-path="url(#p84f0f74571)" style="fill: #008000; stroke: #007300; stroke-width: 0.65; stroke-linejoin: miter"/>
   </g>
   <g id="patch_39">
    <path d="M 380.291391 277.209566 
L 384.361713 277.209566 
L 384.361713 265.456924 
L 380.291391 265.456924 
z
" clip-path="url(#p84f0f74571)" style="fill: #008000; stroke: #007300; stroke-width: 0.65; stroke-linejoin: miter"/>
   </g>
   <g id="patch_40">
    <path d="M 388.678044 277.209566 
L 392.748366 277.209566 
L 392.748366 268.062678 
L 388.678044 268.062678 
z
" clip-path="url(#p84f0f74571)" style="fill: #008000; stroke: #007300; stroke-width: 0.65; stroke-linejoin: miter"/>
   </g>
   <g id="patch_41">
    <path d="M 397.064697 277.209566 
L 401.13502 277.209566 
L 401.13502 267.312385 
L 397.064697 267.312385 
z
" clip-path="url(#p84f0f74571)" style="fill: #ff0000; stroke: #e60000; stroke-width: 0.65; stroke-linejoin: miter"/>
   </g>
   <g id="patch_42">
    <path d="M 405.45135 277.209566 
L 409.521673 277.209566 
L 409.521673 263.794337 
L 405.45135 263.794337 
z
" clip-path="url(#p84f0f74571)" style="fill: #ff0000; stroke: #e60000; stroke-width: 0.65; stroke-linejoin: miter"/>
   </g>
   <g id="patch_43">
    <path d="M 413.838004 277.209566 
L 417.908326 277.209566 
L 417.908326 268.197796 
L 413.838004 268.197796 
z
" clip-path="url(#p84f0f74571)" style="fill: #008000; stroke: #007300; stroke-width: 0.65; stroke-linejoin: miter"/>
   </g>
   <g id="patch_44">
    <path d="M 422.224657 277.209566 
L 426.294979 277.209566 
L 426.294979 269.324345 
L 422.224657 269.324345 
z
" clip-path="url(#p84f0f74571)" style="fill: #ff0000; stroke: #e60000; stroke-width: 0.65; stroke-linejoin: miter"/>
   </g>
   <g id="patch_45">
    <path d="M 430.61131 277.209566 
L 434.681632 277.209566 
L 434.681632 244.872788 
L 430.61131 244.872788 
z
" clip-path="url(#p84f0f74571)" style="fill: #ff0000; stroke: #e60000; stroke-width: 0.65; stroke-linejoin: miter"/>
   </g>
   <g id="patch_46">
    <path d="M 438.997963 277.209566 
L 443.068286 277.209566 
L 443.068286 257.390983 
L 438.997963 257.390983 
z
" clip-path="url(#p84f0f74571)" style="fill: #ff0000; stroke: #e60000; stroke-width: 0.65; stroke-linejoin: miter"/>
   </g>
   <g id="patch_47">
    <path d="M 447.384616 277.209566 
L 451.454939 277.209566 
L 451.454939 262.039394 
L 447.384616 262.039394 
z
" clip-path="url(#p84f0f74571)" style="fill: #008000; stroke: #007300; stroke-width: 0.65; stroke-linejoin: miter"/>
   </g>
   <g id="patch_48">
    <path d="M 455.77127 277.209566 
L 459.841592 277.209566 
L 459.841592 262.423014 
L 455.77127 262.423014 
z
" clip-path="url(#p84f0f74571)" style="fill: #008000; stroke: #007300; stroke-width: 0.65; stroke-linejoin: miter"/>
   </g>
   <g id="patch_49">
    <path d="M 464.157923 277.209566 
L 468.228245 277.209566 
L 468.228245 266.625969 
L 464.157923 266.625969 
z
" clip-path="url(#p84f0f74571)" style="fill: #008000; stroke: #007300; stroke-width: 0.65; stroke-linejoin: miter"/>
   </g>
   <g id="patch_50">
    <path d="M 472.544576 277.209566 
L 476.614898 277.209566 
L 476.614898 216.728142 
L 472.544576 216.728142 
z
" clip-path="url(#p84f0f74571)" style="fill: #ff0000; stroke: #e60000; stroke-width: 0.65; stroke-linejoin: miter"/>
   </g>
   <g id="patch_51">
    <path d="M 480.931229 277.209566 
L 485.001551 277.209566 
L 485.001551 236.717508 
L 480.931229 236.717508 
z
" clip-path="url(#p84f0f74571)" style="fill: #008000; stroke: #007300; stroke-width: 0.65; stroke-linejoin: miter"/>
   </g>
   <g id="patch_52">
    <path d="M 489.317882 277.209566 
L 493.388205 277.209566 
L 493.388205 251.463871 
L 489.317882 251.463871 
z
" clip-path="url(#p84f0f74571)" style="fill: #008000; stroke: #007300; stroke-width: 0.65; stroke-linejoin: miter"/>
   </g>
   <g id="patch_53">
    <path d="M 103.68 275.08 
L 103.68 210.68 
" style="fill: none; stroke: #f0f0f0; stroke-width: 0.8; stroke-linejoin: miter; stroke-linecap: square"/>
   </g>
   <g id="patch_54">
    <path d="M 518.4 275.08 
L 518.4 210.68 
" style="fill: none; stroke: #f0f0f0; stroke-width: 0.8; stroke-linejoin: miter; stroke-linecap: square"/>
   </g>
   <g id="patch_55">
    <path d="M 103.68 275.08 
L 518.4 275.08 
" style="fill: none; stroke: #f0f0f0; stroke-width: 0.8; stroke-linejoin: miter; stroke-linecap: square"/>
   </g>
   <g id="patch_56">
    <path d="M 103.68 210.68 
L 518.4 210.68 
" style="fill: none; stroke: #f0f0f0; stroke-width: 0.8; stroke-linejoin: miter; stroke-linecap: square"/>
   </g>
  </g>
  <g id="axes_3">
   <g id="patch_57">
    <path d="M 103.68 339.48 
L 518.4 339.48 
L 518.4 275.08 
L 103.68 275.08 
z
" style="fill: #fafafa"/>
   </g>
   <g id="matplotlib.axis_5">
    <g id="xtick_11">
     <g id="line2d_45">
      <path d="M 130.726957 339.48 
L 130.726957 275.08 
" clip-path="url(#pe9c9fa4f4c)" style="fill: none; stroke: #d0d0d0; stroke-width: 0.8; stroke-linecap: square"/>
     </g>
     <g id="line2d_46">
      <g>
       <use xlink:href="#m5c284d1038" x="130.726957" y="339.48" style="fill: #101010; stroke: #101010; stroke-width: 0.8"/>
      </g>
     </g>
     <g id="text_15">
      <!-- 0611 -->
      <g style="fill: #101010" transform="translate(121.795627 358.297121) rotate(-15) scale(0.1 -0.1)">
       <defs>
        <path id="SimHei-36" d="M 250 1612 
Q 275 1975 387 2225 
Q 500 2475 725 2850 
L 1750 4450 
L 2325 4450 
L 1275 2800 
Q 1950 2975 2350 2750 
Q 2750 2525 2887 2237 
Q 3025 1950 3037 1612 
Q 3050 1275 2937 950 
Q 2825 625 2537 362 
Q 2250 100 1737 75 
Q 1225 50 862 262 
Q 500 475 362 862 
Q 225 1250 250 1612 
z
M 1025 787 
Q 1250 550 1625 525 
Q 2000 500 2250 775 
Q 2500 1050 2500 1575 
Q 2500 2100 2187 2300 
Q 1875 2500 1487 2450 
Q 1100 2400 925 2075 
Q 750 1750 775 1387 
Q 800 1025 1025 787 
z
" transform="scale(0.015625)"/>
       </defs>
       <use xlink:href="#SimHei-30"/>
       <use xlink:href="#SimHei-36" x="50"/>
       <use xlink:href="#SimHei-31" x="100"/>
       <use xlink:href="#SimHei-31" x="150"/>
      </g>
     </g>
    </g>
    <g id="xtick_12">
     <g id="line2d_47">
      <path d="M 214.593488 339.48 
L 214.593488 275.08 
" clip-path="url(#pe9c9fa4f4c)" style="fill: none; stroke: #d0d0d0; stroke-width: 0.8; stroke-linecap: square"/>
     </g>
     <g id="line2d_48">
      <g>
       <use xlink:href="#m5c284d1038" x="214.593488" y="339.48" style="fill: #101010; stroke: #101010; stroke-width: 0.8"/>
      </g>
     </g>
     <g id="text_16">
      <!-- 0625 -->
      <g style="fill: #101010" transform="translate(205.662159 358.297121) rotate(-15) scale(0.1 -0.1)">
       <use xlink:href="#SimHei-30"/>
       <use xlink:href="#SimHei-36" x="50"/>
       <use xlink:href="#SimHei-32" x="100"/>
       <use xlink:href="#SimHei-35" x="150"/>
      </g>
     </g>
    </g>
    <g id="xtick_13">
     <g id="line2d_49">
      <path d="M 298.46002 339.48 
L 298.46002 275.08 
" clip-path="url(#pe9c9fa4f4c)" style="fill: none; stroke: #d0d0d0; stroke-width: 0.8; stroke-linecap: square"/>
     </g>
     <g id="line2d_50">
      <g>
       <use xlink:href="#m5c284d1038" x="298.46002" y="339.48" style="fill: #101010; stroke: #101010; stroke-width: 0.8"/>
      </g>
     </g>
     <g id="text_17">
      <!-- 0709 -->
      <g style="fill: #101010" transform="translate(289.528691 358.297121) rotate(-15) scale(0.1 -0.1)">
       <use xlink:href="#SimHei-30"/>
       <use xlink:href="#SimHei-37" x="50"/>
       <use xlink:href="#SimHei-30" x="100"/>
       <use xlink:href="#SimHei-39" x="150"/>
      </g>
     </g>
    </g>
    <g id="xtick_14">
     <g id="line2d_51">
      <path d="M 382.326552 339.48 
L 382.326552 275.08 
" clip-path="url(#pe9c9fa4f4c)" style="fill: none; stroke: #d0d0d0; stroke-width: 0.8; stroke-linecap: square"/>
     </g>
     <g id="line2d_52">
      <g>
       <use xlink:href="#m5c284d1038" x="382.326552" y="339.48" style="fill: #101010; stroke: #101010; stroke-width: 0.8"/>
      </g>
     </g>
     <g id="text_18">
      <!-- 0723 -->
      <g style="fill: #101010" transform="translate(373.395222 358.297121) rotate(-15) scale(0.1 -0.1)">
       <defs>
        <path id="SimHei-33" d="M 250 1225 
L 700 1300 
Q 800 975 1025 762 
Q 1250 550 1587 562 
Q 1925 575 2125 837 
Q 2325 1100 2300 1437 
Q 2275 1775 2037 1962 
Q 1800 2150 1275 2225 
L 1275 2550 
Q 1800 2600 2037 2825 
Q 2275 3050 2250 3412 
Q 2225 3775 1925 3937 
Q 1625 4100 1287 3975 
Q 950 3850 750 3275 
L 300 3350 
Q 450 3800 712 4100 
Q 975 4400 1425 4450 
Q 1875 4500 2212 4337 
Q 2550 4175 2687 3837 
Q 2825 3500 2725 3100 
Q 2625 2700 2150 2400 
Q 2500 2250 2687 1950 
Q 2875 1650 2812 1162 
Q 2750 675 2375 375 
Q 2000 75 1525 87 
Q 1050 100 700 387 
Q 350 675 250 1225 
z
" transform="scale(0.015625)"/>
       </defs>
       <use xlink:href="#SimHei-30"/>
       <use xlink:href="#SimHei-37" x="50"/>
       <use xlink:href="#SimHei-32" x="100"/>
       <use xlink:href="#SimHei-33" x="150"/>
      </g>
     </g>
    </g>
    <g id="xtick_15">
     <g id="line2d_53">
      <path d="M 466.193084 339.48 
L 466.193084 275.08 
" clip-path="url(#pe9c9fa4f4c)" style="fill: none; stroke: #d0d0d0; stroke-width: 0.8; stroke-linecap: square"/>
     </g>
     <g id="line2d_54">
      <g>
       <use xlink:href="#m5c284d1038" x="466.193084" y="339.48" style="fill: #101010; stroke: #101010; stroke-width: 0.8"/>
      </g>
     </g>
     <g id="text_19">
      <!-- 0806 -->
      <g style="fill: #101010" transform="translate(457.261754 358.297121) rotate(-15) scale(0.1 -0.1)">
       <use xlink:href="#SimHei-30"/>
       <use xlink:href="#SimHei-38" x="50"/>
       <use xlink:href="#SimHei-30" x="100"/>
       <use xlink:href="#SimHei-36" x="150"/>
      </g>
     </g>
    </g>
   </g>
   <g id="matplotlib.axis_6">
    <g id="ytick_10">
     <g id="line2d_55">
      <path d="M 103.68 339.062074 
L 518.4 339.062074 
" clip-path="url(#pe9c9fa4f4c)" style="fill: none; stroke: #d0d0d0; stroke-width: 0.8; stroke-linecap: square"/>
     </g>
     <g id="line2d_56">
      <g>
       <use xlink:href="#m8f8ca850df" x="518.4" y="339.062074" style="fill: #101010; stroke: #101010; stroke-width: 0.8"/>
      </g>
     </g>
     <g id="text_20">
      <!-- 20 -->
      <g style="fill: #101010" transform="translate(525.4 342.499574) scale(0.1 -0.1)">
       <use xlink:href="#SimHei-32"/>
       <use xlink:href="#SimHei-30" x="50"/>
      </g>
     </g>
    </g>
    <g id="ytick_11">
     <g id="line2d_57">
      <path d="M 103.68 296.760201 
L 518.4 296.760201 
" clip-path="url(#pe9c9fa4f4c)" style="fill: none; stroke: #d0d0d0; stroke-width: 0.8; stroke-linecap: square"/>
     </g>
     <g id="line2d_58">
      <g>
       <use xlink:href="#m8f8ca850df" x="518.4" y="296.760201" style="fill: #101010; stroke: #101010; stroke-width: 0.8"/>
      </g>
     </g>
     <g id="text_21">
      <!-- 30 -->
      <g style="fill: #101010" transform="translate(525.4 300.197701) scale(0.1 -0.1)">
       <use xlink:href="#SimHei-33"/>
       <use xlink:href="#SimHei-30" x="50"/>
      </g>
     </g>
    </g>
    <g id="text_22">
     <!-- control trend -->
     <g style="fill: #101010" transform="translate(546.275 339.78) rotate(-90) scale(0.1 -0.1)">
      <defs>
       <path id="SimHei-6e" d="M 2800 125 
L 2300 125 
L 2300 1925 
Q 2300 2225 2150 2400 
Q 2000 2575 1750 2575 
Q 1425 2575 1137 2237 
Q 850 1900 850 1400 
L 850 125 
L 350 125 
L 350 2925 
L 850 2925 
L 850 2400 
Q 1050 2675 1287 2825 
Q 1525 2975 1900 2975 
Q 2350 2975 2575 2725 
Q 2800 2475 2800 2100 
L 2800 125 
z
" transform="scale(0.015625)"/>
       <path id="SimHei-74" d="M 2750 200 
Q 2625 150 2462 112 
Q 2300 75 2025 75 
Q 1575 75 1300 325 
Q 1025 575 1025 1025 
L 1025 2525 
L 175 2525 
L 175 2925 
L 1025 2925 
L 1025 3900 
L 1525 3900 
L 1525 2925 
L 2550 2925 
L 2550 2525 
L 1525 2525 
L 1525 1000 
Q 1525 800 1625 662 
Q 1725 525 2000 525 
Q 2275 525 2450 575 
Q 2625 625 2750 700 
L 2750 200 
z
" transform="scale(0.015625)"/>
       <path id="SimHei-20" transform="scale(0.015625)"/>
       <path id="SimHei-64" d="M 2750 125 
L 2250 125 
L 2250 500 
Q 2100 275 1900 175 
Q 1700 75 1425 75 
Q 925 75 575 437 
Q 225 800 225 1525 
Q 225 2250 575 2625 
Q 925 3000 1425 3000 
Q 1700 3000 1900 2887 
Q 2100 2775 2250 2550 
L 2250 4400 
L 2750 4400 
L 2750 125 
z
M 2250 1525 
Q 2250 2000 2037 2275 
Q 1825 2550 1525 2550 
Q 1150 2550 962 2275 
Q 775 2000 775 1525 
Q 775 1050 962 787 
Q 1150 525 1525 525 
Q 1825 525 2037 787 
Q 2250 1050 2250 1525 
z
" transform="scale(0.015625)"/>
      </defs>
      <use xlink:href="#SimHei-63"/>
      <use xlink:href="#SimHei-6f" x="50"/>
      <use xlink:href="#SimHei-6e" x="100"/>
      <use xlink:href="#SimHei-74" x="150"/>
      <use xlink:href="#SimHei-72" x="200"/>
      <use xlink:href="#SimHei-6f" x="250"/>
      <use xlink:href="#SimHei-6c" x="300"/>
      <use xlink:href="#SimHei-20" x="350"/>
      <use xlink:href="#SimHei-74" x="400"/>
      <use xlink:href="#SimHei-72" x="450"/>
      <use xlink:href="#SimHei-65" x="500"/>
      <use xlink:href="#SimHei-6e" x="550"/>
      <use xlink:href="#SimHei-64" x="600"/>
     </g>
    </g>
   </g>
   <g id="line2d_59">
    <path d="M 130.726957 314.090094 
L 139.11361 310.454163 
L 147.500263 308.237714 
L 155.886916 303.216144 
L 164.273569 312.835928 
L 172.660222 282.331709 
L 181.046876 312.441505 
L 189.433529 303.241525 
L 197.820182 320.344511 
L 206.206835 317.862237 
L 214.593488 309.649074 
L 222.980142 315.226661 
L 231.366795 315.982341 
L 239.753448 315.979126 
L 248.140101 314.333753 
L 256.526754 322.37077 
L 264.913407 315.618545 
L 273.300061 309.565993 
L 281.686714 318.169517 
L 290.073367 319.996789 
L 298.46002 322.574158 
L 306.846673 296.927378 
L 315.233327 289.37514 
L 323.61998 278.007273 
L 332.006633 321.958919 
L 340.393286 309.555502 
L 348.779939 320.647054 
L 357.166593 330.630296 
L 365.553246 318.728241 
L 373.939899 336.552727 
L 382.326552 314.916334 
L 390.713205 333.66131 
L 399.099858 314.16133 
L 407.486512 285.047489 
L 415.873165 321.090208 
L 424.259818 315.15001 
L 432.646471 289.769901 
L 441.033124 318.860392 
L 449.419778 311.463148 
L 457.806431 326.241223 
L 466.193084 328.695239 
L 474.579737 288.284936 
L 482.96639 306.926356 
L 491.353043 309.213365 
" clip-path="url(#pe9c9fa4f4c)" style="fill: none; stroke: #0000ff; stroke-linecap: square"/>
   </g>
   <g id="patch_58">
    <path d="M 103.68 339.48 
L 103.68 275.08 
" style="fill: none; stroke: #f0f0f0; stroke-width: 0.8; stroke-linejoin: miter; stroke-linecap: square"/>
   </g>
   <g id="patch_59">
    <path d="M 518.4 339.48 
L 518.4 275.08 
" style="fill: none; stroke: #f0f0f0; stroke-width: 0.8; stroke-linejoin: miter; stroke-linecap: square"/>
   </g>
   <g id="patch_60">
    <path d="M 103.68 339.48 
L 518.4 339.48 
" style="fill: none; stroke: #f0f0f0; stroke-width: 0.8; stroke-linejoin: miter; stroke-linecap: square"/>
   </g>
   <g id="patch_61">
    <path d="M 103.68 275.08 
L 518.4 275.08 
" style="fill: none; stroke: #f0f0f0; stroke-width: 0.8; stroke-linejoin: miter; stroke-linecap: square"/>
   </g>
  </g>
  <g id="text_23">
   <!-- -20240809 -->
   <g transform="translate(226.8 13.145625) scale(0.144 -0.144)">
    <defs>
     <path id="SimHei-4e2d" d="M 3475 5200 
Q 3450 4500 3450 3875 
L 5625 3875 
Q 5600 3375 5600 2500 
Q 5600 1650 5625 1225 
L 5075 1225 
L 5075 1600 
L 3450 1600 
L 3450 525 
Q 3450 225 3475 -600 
L 2875 -600 
Q 2925 -150 2925 450 
L 2925 1600 
L 1300 1600 
L 1300 1225 
L 750 1225 
Q 775 1600 775 2500 
Q 775 3425 750 3875 
L 2925 3875 
Q 2925 4550 2900 5200 
L 3475 5200 
z
M 5075 2000 
L 5075 3475 
L 3450 3475 
L 3450 2000 
L 5075 2000 
z
M 2925 2000 
L 2925 3475 
L 1300 3475 
L 1300 2000 
L 2925 2000 
z
" transform="scale(0.015625)"/>
     <path id="SimHei-94f6" d="M 5675 4900 
Q 5650 4425 5650 3875 
L 5650 3275 
Q 5650 2850 5675 2375 
L 4450 2375 
Q 4525 1925 4725 1500 
Q 5225 1825 5500 2225 
Q 5675 2050 5950 1800 
Q 5225 1400 4925 1100 
Q 5350 375 6200 25 
Q 5900 -175 5725 -450 
Q 5125 -50 4650 712 
Q 4175 1475 4000 2375 
L 3575 2375 
L 3575 150 
Q 3775 250 4200 600 
Q 4275 350 4400 150 
Q 3925 -100 3225 -625 
Q 3075 -375 2975 -200 
Q 3125 25 3150 450 
L 3150 3775 
Q 3150 4300 3125 4900 
L 5675 4900 
z
M 2500 2775 
Q 2100 2800 1850 2800 
L 1850 2075 
Q 2275 2075 2725 2100 
L 2725 1600 
Q 2275 1625 1850 1625 
L 1850 350 
Q 2225 675 2500 950 
Q 2575 625 2650 425 
Q 2500 350 2150 50 
Q 1800 -250 1525 -550 
Q 1375 -325 1200 -125 
Q 1375 125 1400 475 
L 1400 1625 
Q 1050 1625 600 1600 
L 600 2100 
Q 1100 2075 1400 2075 
L 1400 2800 
Q 1250 2800 950 2775 
L 950 3200 
Q 1350 3175 1725 3175 
Q 2125 3175 2500 3200 
L 2500 2775 
z
M 550 2925 
Q 350 3175 200 3350 
Q 575 3700 862 4225 
Q 1150 4750 1350 5275 
Q 1575 5125 1950 5050 
Q 1700 4750 1425 4250 
L 1800 4250 
Q 2125 4250 2675 4275 
L 2675 3800 
Q 2125 3825 1800 3825 
L 1200 3825 
Q 750 3175 550 2925 
z
M 5200 2800 
L 5200 3450 
L 3575 3450 
L 3575 2800 
L 5200 2800 
z
M 5200 3850 
L 5200 4475 
L 3575 4475 
L 3575 3850 
L 5200 3850 
z
" transform="scale(0.015625)"/>
     <path id="SimHei-8bc1" d="M 5125 4675 
Q 5625 4675 6050 4700 
L 6050 4225 
Q 5625 4250 5125 4250 
L 4500 4250 
L 4500 2625 
L 5075 2625 
Q 5500 2625 5900 2650 
L 5900 2175 
Q 5525 2200 5075 2200 
L 4500 2200 
L 4500 125 
L 5200 125 
Q 5625 125 6175 150 
L 6175 -325 
Q 5625 -300 5200 -300 
L 3000 -300 
Q 2400 -300 2000 -325 
L 2000 150 
Q 2400 125 2775 125 
L 2775 2075 
Q 2775 2600 2750 2950 
L 3275 2950 
Q 3250 2625 3250 2075 
L 3250 125 
L 4000 125 
L 4000 4250 
L 3550 4250 
Q 2975 4250 2450 4225 
L 2450 4700 
Q 2975 4675 3550 4675 
L 5125 4675 
z
M 850 -125 
Q 1150 175 1150 500 
L 1150 2750 
L 925 2750 
Q 575 2750 225 2725 
L 225 3200 
Q 550 3175 925 3175 
L 1650 3175 
Q 1625 2700 1625 2175 
L 1625 800 
Q 1850 1075 2025 1325 
Q 2150 1050 2325 825 
Q 2050 500 1812 212 
Q 1575 -75 1225 -525 
Q 1050 -300 850 -125 
z
M 1525 3900 
Q 1100 4500 800 4825 
Q 1000 4975 1175 5175 
L 1925 4275 
Q 1675 4100 1525 3900 
z
" transform="scale(0.015625)"/>
     <path id="SimHei-5238" d="M 3425 0 
Q 3875 -75 4062 12 
Q 4250 100 4250 1175 
L 3150 1175 
Q 2975 375 2450 -25 
Q 1925 -425 1325 -650 
Q 1175 -375 875 -175 
Q 1825 50 2200 400 
Q 2575 750 2625 1175 
Q 2000 1175 1650 1150 
L 1650 1475 
Q 1250 1200 675 975 
Q 575 1225 375 1475 
Q 1000 1625 1475 1900 
Q 1950 2175 2175 2450 
L 1425 2450 
Q 975 2450 500 2425 
L 500 2875 
Q 975 2850 1450 2850 
L 2425 2850 
Q 2600 3125 2675 3475 
L 1850 3475 
Q 1350 3475 900 3450 
L 900 3900 
Q 1350 3875 1850 3875 
L 2775 3875 
Q 2900 4675 2900 5225 
Q 3150 5175 3500 5125 
Q 3400 5000 3350 4625 
Q 3300 4250 3225 3875 
L 4675 3875 
Q 5125 3875 5575 3900 
L 5575 3450 
Q 5150 3475 4700 3475 
L 3150 3475 
Q 3075 3150 2950 2850 
L 5025 2850 
Q 5450 2850 5925 2875 
L 5925 2425 
Q 5475 2450 5025 2450 
L 4500 2450 
Q 4775 1975 5212 1762 
Q 5650 1550 6200 1425 
Q 5975 1200 5875 925 
Q 5325 1075 4775 1475 
Q 4725 225 4700 -62 
Q 4675 -350 4425 -450 
Q 4175 -550 3650 -600 
Q 3600 -300 3425 0 
z
M 1850 1600 
Q 2225 1575 2500 1575 
L 4625 1575 
Q 4300 1825 3925 2450 
L 2750 2450 
Q 2350 1925 1850 1600 
z
M 4050 4225 
Q 4625 4875 4725 5125 
Q 4900 5000 5200 4825 
Q 5050 4700 4875 4475 
Q 4700 4250 4475 3950 
Q 4275 4125 4050 4225 
z
M 1775 3975 
Q 1650 4250 1225 4750 
Q 1475 4875 1650 5025 
Q 1975 4625 2225 4225 
Q 1925 4125 1775 3975 
z
" transform="scale(0.015625)"/>
     <path id="SimHei-2d" d="M 2975 2125 
L 125 2125 
L 125 2525 
L 2975 2525 
L 2975 2125 
z
" transform="scale(0.015625)"/>
     <path id="SimHei-34" d="M 2000 1100 
L 75 1100 
L 75 1525 
L 2100 4450 
L 2475 4450 
L 2475 1525 
L 3075 1525 
L 3075 1100 
L 2475 1100 
L 2475 150 
L 2000 150 
L 2000 1100 
z
M 2000 1525 
L 2000 3500 
L 600 1525 
L 2000 1525 
z
" transform="scale(0.015625)"/>
    </defs>
    <use xlink:href="#SimHei-4e2d"/>
    <use xlink:href="#SimHei-94f6" x="100"/>
    <use xlink:href="#SimHei-8bc1" x="200"/>
    <use xlink:href="#SimHei-5238" x="300"/>
    <use xlink:href="#SimHei-2d" x="400"/>
    <use xlink:href="#SimHei-32" x="450"/>
    <use xlink:href="#SimHei-30" x="500"/>
    <use xlink:href="#SimHei-32" x="550"/>
    <use xlink:href="#SimHei-34" x="600"/>
    <use xlink:href="#SimHei-30" x="650"/>
    <use xlink:href="#SimHei-38" x="700"/>
    <use xlink:href="#SimHei-30" x="750"/>
    <use xlink:href="#SimHei-39" x="800"/>
   </g>
  </g>
 </g>
 <defs>
  <clipPath id="p99d49fa0e0">
   <rect x="103.68" y="49.68" width="414.72" height="161"/>
  </clipPath>
  <clipPath id="p84f0f74571">
   <rect x="103.68" y="210.68" width="414.72" height="64.4"/>
  </clipPath>
  <clipPath id="pe9c9fa4f4c">
   <rect x="103.68" y="275.08" width="414.72" height="64.4"/>
  </clipPath>
 </defs>
</svg>
