<?xml version="1.0" encoding="utf-8" standalone="no"?>
<!DOCTYPE svg PUBLIC "-//W3C//DTD SVG 1.1//EN"
  "http://www.w3.org/Graphics/SVG/1.1/DTD/svg11.dtd">
<svg xmlns:xlink="http://www.w3.org/1999/xlink" width="576pt" height="414pt" viewBox="0 0 576 414" xmlns="http://www.w3.org/2000/svg" version="1.1">
 <metadata>
  <rdf:RDF xmlns:dc="http://purl.org/dc/elements/1.1/" xmlns:cc="http://creativecommons.org/ns#" xmlns:rdf="http://www.w3.org/1999/02/22-rdf-syntax-ns#">
   <cc:Work>
    <dc:type rdf:resource="http://purl.org/dc/dcmitype/StillImage"/>
    <dc:date>2024-08-09T17:48:49.801622</dc:date>
    <dc:format>image/svg+xml</dc:format>
    <dc:creator>
     <cc:Agent>
      <dc:title>Matplotlib v3.8.4, https://matplotlib.org/</dc:title>
     </cc:Agent>
    </dc:creator>
   </cc:Work>
  </rdf:RDF>
 </metadata>
 <defs>
  <style type="text/css">*{stroke-linejoin: round; stroke-linecap: butt}</style>
 </defs>
 <g id="figure_1">
  <g id="patch_1">
   <path d="M 0 414 
L 576 414 
L 576 0 
L 0 0 
z
" style="fill: #ffffff"/>
  </g>
  <g id="axes_1">
   <g id="patch_2">
    <path d="M 103.68 210.68 
L 518.4 210.68 
L 518.4 49.68 
L 103.68 49.68 
z
" style="fill: #fafafa"/>
   </g>
   <g id="matplotlib.axis_1">
    <g id="xtick_1">
     <g id="line2d_1">
      <path d="M 130.726957 210.68 
L 130.726957 49.68 
" clip-path="url(#p9a57e72b23)" style="fill: none; stroke: #d0d0d0; stroke-width: 0.8; stroke-linecap: square"/>
     </g>
     <g id="line2d_2">
      <defs>
       <path id="m18fb7cd1e8" d="M 0 0 
L 0 3.5 
" style="stroke: #101010; stroke-width: 0.8"/>
      </defs>
      <g>
       <use xlink:href="#m18fb7cd1e8" x="130.726957" y="210.68" style="fill: #101010; stroke: #101010; stroke-width: 0.8"/>
      </g>
     </g>
    </g>
    <g id="xtick_2">
     <g id="line2d_3">
      <path d="M 214.593488 210.68 
L 214.593488 49.68 
" clip-path="url(#p9a57e72b23)" style="fill: none; stroke: #d0d0d0; stroke-width: 0.8; stroke-linecap: square"/>
     </g>
     <g id="line2d_4">
      <g>
       <use xlink:href="#m18fb7cd1e8" x="214.593488" y="210.68" style="fill: #101010; stroke: #101010; stroke-width: 0.8"/>
      </g>
     </g>
    </g>
    <g id="xtick_3">
     <g id="line2d_5">
      <path d="M 298.46002 210.68 
L 298.46002 49.68 
" clip-path="url(#p9a57e72b23)" style="fill: none; stroke: #d0d0d0; stroke-width: 0.8; stroke-linecap: square"/>
     </g>
     <g id="line2d_6">
      <g>
       <use xlink:href="#m18fb7cd1e8" x="298.46002" y="210.68" style="fill: #101010; stroke: #101010; stroke-width: 0.8"/>
      </g>
     </g>
    </g>
    <g id="xtick_4">
     <g id="line2d_7">
      <path d="M 382.326552 210.68 
L 382.326552 49.68 
" clip-path="url(#p9a57e72b23)" style="fill: none; stroke: #d0d0d0; stroke-width: 0.8; stroke-linecap: square"/>
     </g>
     <g id="line2d_8">
      <g>
       <use xlink:href="#m18fb7cd1e8" x="382.326552" y="210.68" style="fill: #101010; stroke: #101010; stroke-width: 0.8"/>
      </g>
     </g>
    </g>
    <g id="xtick_5">
     <g id="line2d_9">
      <path d="M 466.193084 210.68 
L 466.193084 49.68 
" clip-path="url(#p9a57e72b23)" style="fill: none; stroke: #d0d0d0; stroke-width: 0.8; stroke-linecap: square"/>
     </g>
     <g id="line2d_10">
      <g>
       <use xlink:href="#m18fb7cd1e8" x="466.193084" y="210.68" style="fill: #101010; stroke: #101010; stroke-width: 0.8"/>
      </g>
     </g>
    </g>
   </g>
   <g id="matplotlib.axis_2">
    <g id="ytick_1">
     <g id="line2d_11">
      <path d="M 103.68 205.073674 
L 518.4 205.073674 
" clip-path="url(#p9a57e72b23)" style="fill: none; stroke: #d0d0d0; stroke-width: 0.8; stroke-linecap: square"/>
     </g>
     <g id="line2d_12">
      <defs>
       <path id="m15573e4d5c" d="M 0 0 
L 3.5 0 
" style="stroke: #101010; stroke-width: 0.8"/>
      </defs>
      <g>
       <use xlink:href="#m15573e4d5c" x="518.4" y="205.073674" style="fill: #101010; stroke: #101010; stroke-width: 0.8"/>
      </g>
     </g>
     <g id="text_1">
      <!-- 7.00 -->
      <g style="fill: #101010" transform="translate(525.4 208.511174) scale(0.1 -0.1)">
       <defs>
        <path id="SimHei-37" d="M 850 150 
Q 1300 2050 2425 3925 
L 275 3925 
L 275 4375 
L 2950 4375 
L 2950 3950 
Q 1775 2050 1400 150 
L 850 150 
z
" transform="scale(0.015625)"/>
        <path id="SimHei-2e" d="M 1075 125 
L 500 125 
L 500 675 
L 1075 675 
L 1075 125 
z
" transform="scale(0.015625)"/>
        <path id="SimHei-30" d="M 225 2537 
Q 250 3200 412 3587 
Q 575 3975 875 4225 
Q 1175 4475 1612 4475 
Q 2050 4475 2375 4112 
Q 2700 3750 2800 3200 
Q 2900 2650 2862 1937 
Q 2825 1225 2612 775 
Q 2400 325 1975 150 
Q 1550 -25 1125 187 
Q 700 400 525 750 
Q 350 1100 275 1487 
Q 200 1875 225 2537 
z
M 750 2687 
Q 675 2000 800 1462 
Q 925 925 1212 700 
Q 1500 475 1800 612 
Q 2100 750 2237 1162 
Q 2375 1575 2375 2062 
Q 2375 2550 2337 2950 
Q 2300 3350 2112 3675 
Q 1925 4000 1612 4012 
Q 1300 4025 1062 3700 
Q 825 3375 750 2687 
z
" transform="scale(0.015625)"/>
       </defs>
       <use xlink:href="#SimHei-37"/>
       <use xlink:href="#SimHei-2e" x="50"/>
       <use xlink:href="#SimHei-30" x="100"/>
       <use xlink:href="#SimHei-30" x="150"/>
      </g>
     </g>
    </g>
    <g id="ytick_2">
     <g id="line2d_13">
      <path d="M 103.68 183.675481 
L 518.4 183.675481 
" clip-path="url(#p9a57e72b23)" style="fill: none; stroke: #d0d0d0; stroke-width: 0.8; stroke-linecap: square"/>
     </g>
     <g id="line2d_14">
      <g>
       <use xlink:href="#m15573e4d5c" x="518.4" y="183.675481" style="fill: #101010; stroke: #101010; stroke-width: 0.8"/>
      </g>
     </g>
     <g id="text_2">
      <!-- 7.25 -->
      <g style="fill: #101010" transform="translate(525.4 187.112981) scale(0.1 -0.1)">
       <defs>
        <path id="SimHei-32" d="M 300 250 
Q 325 625 650 925 
Q 975 1225 1475 1862 
Q 1975 2500 2125 2850 
Q 2275 3200 2237 3450 
Q 2200 3700 2000 3862 
Q 1800 4025 1537 4000 
Q 1275 3975 1037 3800 
Q 800 3625 675 3275 
L 200 3350 
Q 400 3925 712 4187 
Q 1025 4450 1450 4475 
Q 1700 4500 1900 4462 
Q 2100 4425 2312 4287 
Q 2525 4150 2662 3875 
Q 2800 3600 2762 3212 
Q 2725 2825 2375 2287 
Q 2025 1750 1025 600 
L 2825 600 
L 2825 150 
L 300 150 
L 300 250 
z
" transform="scale(0.015625)"/>
        <path id="SimHei-35" d="M 550 1325 
Q 725 650 1150 575 
Q 1575 500 1837 662 
Q 2100 825 2212 1087 
Q 2325 1350 2312 1675 
Q 2300 2000 2137 2225 
Q 1975 2450 1725 2525 
Q 1475 2600 1162 2525 
Q 850 2450 650 2175 
L 225 2225 
Q 275 2375 700 4375 
L 2675 4375 
L 2675 3925 
L 1075 3925 
Q 950 3250 825 2850 
Q 1200 3025 1525 3012 
Q 1850 3000 2150 2862 
Q 2450 2725 2587 2487 
Q 2725 2250 2787 2012 
Q 2850 1775 2837 1500 
Q 2825 1225 2725 937 
Q 2625 650 2425 462 
Q 2225 275 1937 162 
Q 1650 50 1275 75 
Q 900 100 562 350 
Q 225 600 100 1200 
L 550 1325 
z
" transform="scale(0.015625)"/>
       </defs>
       <use xlink:href="#SimHei-37"/>
       <use xlink:href="#SimHei-2e" x="50"/>
       <use xlink:href="#SimHei-32" x="100"/>
       <use xlink:href="#SimHei-35" x="150"/>
      </g>
     </g>
    </g>
    <g id="ytick_3">
     <g id="line2d_15">
      <path d="M 103.68 162.277289 
L 518.4 162.277289 
" clip-path="url(#p9a57e72b23)" style="fill: none; stroke: #d0d0d0; stroke-width: 0.8; stroke-linecap: square"/>
     </g>
     <g id="line2d_16">
      <g>
       <use xlink:href="#m15573e4d5c" x="518.4" y="162.277289" style="fill: #101010; stroke: #101010; stroke-width: 0.8"/>
      </g>
     </g>
     <g id="text_3">
      <!-- 7.50 -->
      <g style="fill: #101010" transform="translate(525.4 165.714789) scale(0.1 -0.1)">
       <use xlink:href="#SimHei-37"/>
       <use xlink:href="#SimHei-2e" x="50"/>
       <use xlink:href="#SimHei-35" x="100"/>
       <use xlink:href="#SimHei-30" x="150"/>
      </g>
     </g>
    </g>
    <g id="ytick_4">
     <g id="line2d_17">
      <path d="M 103.68 140.879096 
L 518.4 140.879096 
" clip-path="url(#p9a57e72b23)" style="fill: none; stroke: #d0d0d0; stroke-width: 0.8; stroke-linecap: square"/>
     </g>
     <g id="line2d_18">
      <g>
       <use xlink:href="#m15573e4d5c" x="518.4" y="140.879096" style="fill: #101010; stroke: #101010; stroke-width: 0.8"/>
      </g>
     </g>
     <g id="text_4">
      <!-- 7.75 -->
      <g style="fill: #101010" transform="translate(525.4 144.316596) scale(0.1 -0.1)">
       <use xlink:href="#SimHei-37"/>
       <use xlink:href="#SimHei-2e" x="50"/>
       <use xlink:href="#SimHei-37" x="100"/>
       <use xlink:href="#SimHei-35" x="150"/>
      </g>
     </g>
    </g>
    <g id="ytick_5">
     <g id="line2d_19">
      <path d="M 103.68 119.480904 
L 518.4 119.480904 
" clip-path="url(#p9a57e72b23)" style="fill: none; stroke: #d0d0d0; stroke-width: 0.8; stroke-linecap: square"/>
     </g>
     <g id="line2d_20">
      <g>
       <use xlink:href="#m15573e4d5c" x="518.4" y="119.480904" style="fill: #101010; stroke: #101010; stroke-width: 0.8"/>
      </g>
     </g>
     <g id="text_5">
      <!-- 8.00 -->
      <g style="fill: #101010" transform="translate(525.4 122.918404) scale(0.1 -0.1)">
       <defs>
        <path id="SimHei-38" d="M 175 1375 
Q 175 1675 325 1962 
Q 475 2250 825 2425 
Q 525 2600 425 2812 
Q 325 3025 312 3300 
Q 300 3575 387 3775 
Q 475 3975 650 4150 
Q 825 4325 1037 4387 
Q 1250 4450 1500 4450 
Q 1750 4450 1950 4400 
Q 2150 4350 2375 4187 
Q 2600 4025 2700 3725 
Q 2800 3425 2687 3025 
Q 2575 2625 2100 2400 
Q 2525 2275 2700 2012 
Q 2875 1750 2875 1375 
Q 2875 1000 2762 775 
Q 2650 550 2512 400 
Q 2375 250 2137 162 
Q 1900 75 1537 75 
Q 1175 75 912 162 
Q 650 250 475 425 
Q 300 600 237 837 
Q 175 1075 175 1375 
z
M 687 1400 
Q 675 1100 787 875 
Q 900 650 1200 587 
Q 1500 525 1825 600 
Q 2150 675 2275 950 
Q 2400 1225 2362 1500 
Q 2325 1775 2050 1962 
Q 1775 2150 1450 2125 
Q 1125 2100 912 1900 
Q 700 1700 687 1400 
z
M 775 3350 
Q 775 3100 950 2875 
Q 1125 2650 1500 2650 
Q 1875 2650 2062 2875 
Q 2250 3100 2237 3412 
Q 2225 3725 2012 3875 
Q 1800 4025 1437 4000 
Q 1075 3975 925 3787 
Q 775 3600 775 3350 
z
" transform="scale(0.015625)"/>
       </defs>
       <use xlink:href="#SimHei-38"/>
       <use xlink:href="#SimHei-2e" x="50"/>
       <use xlink:href="#SimHei-30" x="100"/>
       <use xlink:href="#SimHei-30" x="150"/>
      </g>
     </g>
    </g>
    <g id="ytick_6">
     <g id="line2d_21">
      <path d="M 103.68 98.082711 
L 518.4 98.082711 
" clip-path="url(#p9a57e72b23)" style="fill: none; stroke: #d0d0d0; stroke-width: 0.8; stroke-linecap: square"/>
     </g>
     <g id="line2d_22">
      <g>
       <use xlink:href="#m15573e4d5c" x="518.4" y="98.082711" style="fill: #101010; stroke: #101010; stroke-width: 0.8"/>
      </g>
     </g>
     <g id="text_6">
      <!-- 8.25 -->
      <g style="fill: #101010" transform="translate(525.4 101.520211) scale(0.1 -0.1)">
       <use xlink:href="#SimHei-38"/>
       <use xlink:href="#SimHei-2e" x="50"/>
       <use xlink:href="#SimHei-32" x="100"/>
       <use xlink:href="#SimHei-35" x="150"/>
      </g>
     </g>
    </g>
    <g id="ytick_7">
     <g id="line2d_23">
      <path d="M 103.68 76.684519 
L 518.4 76.684519 
" clip-path="url(#p9a57e72b23)" style="fill: none; stroke: #d0d0d0; stroke-width: 0.8; stroke-linecap: square"/>
     </g>
     <g id="line2d_24">
      <g>
       <use xlink:href="#m15573e4d5c" x="518.4" y="76.684519" style="fill: #101010; stroke: #101010; stroke-width: 0.8"/>
      </g>
     </g>
     <g id="text_7">
      <!-- 8.50 -->
      <g style="fill: #101010" transform="translate(525.4 80.122019) scale(0.1 -0.1)">
       <use xlink:href="#SimHei-38"/>
       <use xlink:href="#SimHei-2e" x="50"/>
       <use xlink:href="#SimHei-35" x="100"/>
       <use xlink:href="#SimHei-30" x="150"/>
      </g>
     </g>
    </g>
    <g id="ytick_8">
     <g id="line2d_25">
      <path d="M 103.68 55.286326 
L 518.4 55.286326 
" clip-path="url(#p9a57e72b23)" style="fill: none; stroke: #d0d0d0; stroke-width: 0.8; stroke-linecap: square"/>
     </g>
     <g id="line2d_26">
      <g>
       <use xlink:href="#m15573e4d5c" x="518.4" y="55.286326" style="fill: #101010; stroke: #101010; stroke-width: 0.8"/>
      </g>
     </g>
     <g id="text_8">
      <!-- 8.75 -->
      <g style="fill: #101010" transform="translate(525.4 58.723826) scale(0.1 -0.1)">
       <use xlink:href="#SimHei-38"/>
       <use xlink:href="#SimHei-2e" x="50"/>
       <use xlink:href="#SimHei-37" x="100"/>
       <use xlink:href="#SimHei-35" x="150"/>
      </g>
     </g>
    </g>
    <g id="text_9">
     <!-- price -->
     <g style="fill: #101010" transform="translate(556.275 142.68) rotate(-90) scale(0.1 -0.1)">
      <defs>
       <path id="SimHei-70" d="M 2825 1525 
Q 2825 800 2475 425 
Q 2125 50 1625 50 
Q 1350 50 1150 162 
Q 950 275 800 500 
L 800 -800 
L 300 -800 
L 300 2925 
L 800 2925 
L 800 2550 
Q 950 2775 1150 2875 
Q 1350 2975 1625 2975 
Q 2125 2975 2475 2612 
Q 2825 2250 2825 1525 
z
M 2275 1525 
Q 2275 2000 2087 2262 
Q 1900 2525 1525 2525 
Q 1225 2525 1012 2262 
Q 800 2000 800 1525 
Q 800 1050 1012 775 
Q 1225 500 1525 500 
Q 1900 500 2087 775 
Q 2275 1050 2275 1525 
z
" transform="scale(0.015625)"/>
       <path id="SimHei-72" d="M 2500 2425 
Q 2025 2500 1700 2287 
Q 1375 2075 1150 1550 
L 1150 125 
L 650 125 
L 650 2925 
L 1150 2925 
L 1150 2200 
Q 1375 2600 1712 2787 
Q 2050 2975 2500 2975 
L 2500 2425 
z
" transform="scale(0.015625)"/>
       <path id="SimHei-69" d="M 1800 3725 
L 1300 3725 
L 1300 4375 
L 1800 4375 
L 1800 3725 
z
M 1800 125 
L 1300 125 
L 1300 2925 
L 1800 2925 
L 1800 125 
z
" transform="scale(0.015625)"/>
       <path id="SimHei-63" d="M 2850 1250 
Q 2850 725 2487 400 
Q 2125 75 1575 75 
Q 1025 75 625 462 
Q 225 850 225 1525 
Q 225 2200 625 2587 
Q 1025 2975 1575 2975 
Q 2125 2975 2450 2687 
Q 2775 2400 2775 2000 
L 2225 2000 
Q 2200 2300 2012 2412 
Q 1825 2525 1575 2525 
Q 1275 2525 1025 2287 
Q 775 2050 775 1525 
Q 775 1000 1025 762 
Q 1275 525 1575 525 
Q 1900 525 2100 700 
Q 2300 875 2300 1250 
L 2850 1250 
z
" transform="scale(0.015625)"/>
       <path id="SimHei-65" d="M 2850 1075 
Q 2800 625 2450 350 
Q 2100 75 1625 75 
Q 1025 75 637 462 
Q 250 850 250 1525 
Q 250 2200 637 2587 
Q 1025 2975 1625 2975 
Q 2150 2975 2487 2637 
Q 2825 2300 2825 1525 
L 800 1525 
Q 800 975 1037 750 
Q 1275 525 1625 525 
Q 1900 525 2075 662 
Q 2250 800 2300 1075 
L 2850 1075 
z
M 2250 1925 
Q 2200 2275 2025 2412 
Q 1850 2550 1575 2550 
Q 1325 2550 1125 2412 
Q 925 2275 825 1925 
L 2250 1925 
z
" transform="scale(0.015625)"/>
      </defs>
      <use xlink:href="#SimHei-70"/>
      <use xlink:href="#SimHei-72" x="50"/>
      <use xlink:href="#SimHei-69" x="100"/>
      <use xlink:href="#SimHei-63" x="150"/>
      <use xlink:href="#SimHei-65" x="200"/>
     </g>
    </g>
   </g>
   <g id="PolyCollection_1">
    <path d="M 127.761226 104.930133 
L 127.761226 98.082711 
L 133.692687 98.082711 
L 133.692687 104.930133 
z
" clip-path="url(#p9a57e72b23)" style="fill: #ff0000; fill-opacity: 0.9; stroke: #000000; stroke-width: 0.941667"/>
    <path d="M 136.147879 98.938639 
L 136.147879 84.387868 
L 142.07934 84.387868 
L 142.07934 98.938639 
z
" clip-path="url(#p9a57e72b23)" style="fill: #ff0000; fill-opacity: 0.9; stroke: #000000; stroke-width: 0.941667"/>
    <path d="M 144.534533 87.811579 
L 144.534533 85.243796 
L 150.465993 85.243796 
L 150.465993 87.811579 
z
" clip-path="url(#p9a57e72b23)" style="fill: #ff0000; fill-opacity: 0.9; stroke: #000000; stroke-width: 0.941667"/>
    <path d="M 152.921186 85.243796 
L 152.921186 77.540447 
L 158.852646 77.540447 
L 158.852646 85.243796 
z
" clip-path="url(#p9a57e72b23)" style="fill: #ff0000; fill-opacity: 0.9; stroke: #000000; stroke-width: 0.941667"/>
    <path d="M 161.307839 82.676013 
L 161.307839 92.091217 
L 167.239299 92.091217 
L 167.239299 82.676013 
z
" clip-path="url(#p9a57e72b23)" style="fill: #008000; fill-opacity: 0.9; stroke: #000000; stroke-width: 0.941667"/>
    <path d="M 169.694492 92.091217 
L 169.694492 72.40488 
L 175.625953 72.40488 
L 175.625953 92.091217 
z
" clip-path="url(#p9a57e72b23)" style="fill: #ff0000; fill-opacity: 0.9; stroke: #000000; stroke-width: 0.941667"/>
    <path d="M 178.081145 72.40488 
L 178.081145 76.684519 
L 184.012606 76.684519 
L 184.012606 72.40488 
z
" clip-path="url(#p9a57e72b23)" style="fill: #008000; fill-opacity: 0.9; stroke: #000000; stroke-width: 0.941667"/>
    <path d="M 186.467799 82.676013 
L 186.467799 105.786061 
L 192.399259 105.786061 
L 192.399259 82.676013 
z
" clip-path="url(#p9a57e72b23)" style="fill: #008000; fill-opacity: 0.9; stroke: #000000; stroke-width: 0.941667"/>
    <path d="M 194.854452 102.36235 
L 194.854452 92.947145 
L 200.785912 92.947145 
L 200.785912 102.36235 
z
" clip-path="url(#p9a57e72b23)" style="fill: #ff0000; fill-opacity: 0.9; stroke: #000000; stroke-width: 0.941667"/>
    <path d="M 203.241105 102.36235 
L 203.241105 124.61647 
L 209.172565 124.61647 
L 209.172565 102.36235 
z
" clip-path="url(#p9a57e72b23)" style="fill: #008000; fill-opacity: 0.9; stroke: #000000; stroke-width: 0.941667"/>
    <path d="M 211.627758 123.760542 
L 211.627758 129.752036 
L 217.559219 129.752036 
L 217.559219 123.760542 
z
" clip-path="url(#p9a57e72b23)" style="fill: #008000; fill-opacity: 0.9; stroke: #000000; stroke-width: 0.941667"/>
    <path d="M 220.014411 128.040181 
L 220.014411 110.065699 
L 225.945872 110.065699 
L 225.945872 128.040181 
z
" clip-path="url(#p9a57e72b23)" style="fill: #ff0000; fill-opacity: 0.9; stroke: #000000; stroke-width: 0.941667"/>
    <path d="M 228.401065 116.913121 
L 228.401065 121.192759 
L 234.332525 121.192759 
L 234.332525 116.913121 
z
" clip-path="url(#p9a57e72b23)" style="fill: #008000; fill-opacity: 0.9; stroke: #000000; stroke-width: 0.941667"/>
    <path d="M 236.787718 126.328325 
L 236.787718 119.480904 
L 242.719178 119.480904 
L 242.719178 126.328325 
z
" clip-path="url(#p9a57e72b23)" style="fill: #ff0000; fill-opacity: 0.9; stroke: #000000; stroke-width: 0.941667"/>
    <path d="M 245.174371 119.480904 
L 245.174371 120.336831 
L 251.105831 120.336831 
L 251.105831 119.480904 
z
" clip-path="url(#p9a57e72b23)" style="fill: #008000; fill-opacity: 0.9; stroke: #000000; stroke-width: 0.941667"/>
    <path d="M 253.561024 93.803073 
L 253.561024 108.353844 
L 259.492485 108.353844 
L 259.492485 93.803073 
z
" clip-path="url(#p9a57e72b23)" style="fill: #008000; fill-opacity: 0.9; stroke: #000000; stroke-width: 0.941667"/>
    <path d="M 261.947677 111.777554 
L 261.947677 122.048687 
L 267.879138 122.048687 
L 267.879138 111.777554 
z
" clip-path="url(#p9a57e72b23)" style="fill: #008000; fill-opacity: 0.9; stroke: #000000; stroke-width: 0.941667"/>
    <path d="M 270.33433 119.480904 
L 270.33433 134.031675 
L 276.265791 134.031675 
L 276.265791 119.480904 
z
" clip-path="url(#p9a57e72b23)" style="fill: #008000; fill-opacity: 0.9; stroke: #000000; stroke-width: 0.941667"/>
    <path d="M 278.720984 137.455385 
L 278.720984 135.74353 
L 284.652444 135.74353 
L 284.652444 137.455385 
z
" clip-path="url(#p9a57e72b23)" style="fill: #ff0000; fill-opacity: 0.9; stroke: #000000; stroke-width: 0.941667"/>
    <path d="M 287.107637 141.735024 
L 287.107637 171.692493 
L 293.039097 171.692493 
L 293.039097 141.735024 
z
" clip-path="url(#p9a57e72b23)" style="fill: #008000; fill-opacity: 0.9; stroke: #000000; stroke-width: 0.941667"/>
    <path d="M 295.49429 172.548421 
L 295.49429 153.718012 
L 301.42575 153.718012 
L 301.42575 172.548421 
z
" clip-path="url(#p9a57e72b23)" style="fill: #ff0000; fill-opacity: 0.9; stroke: #000000; stroke-width: 0.941667"/>
    <path d="M 303.880943 167.412855 
L 303.880943 165.700999 
L 309.812404 165.700999 
L 309.812404 167.412855 
z
" clip-path="url(#p9a57e72b23)" style="fill: #ff0000; fill-opacity: 0.9; stroke: #000000; stroke-width: 0.941667"/>
    <path d="M 312.267596 154.573939 
L 312.267596 157.141722 
L 318.199057 157.141722 
L 318.199057 154.573939 
z
" clip-path="url(#p9a57e72b23)" style="fill: #008000; fill-opacity: 0.9; stroke: #000000; stroke-width: 0.941667"/>
    <path d="M 320.65425 155.429867 
L 320.65425 163.989144 
L 326.58571 163.989144 
L 326.58571 155.429867 
z
" clip-path="url(#p9a57e72b23)" style="fill: #008000; fill-opacity: 0.9; stroke: #000000; stroke-width: 0.941667"/>
    <path d="M 329.040903 163.989144 
L 329.040903 175.972132 
L 334.972363 175.972132 
L 334.972363 163.989144 
z
" clip-path="url(#p9a57e72b23)" style="fill: #008000; fill-opacity: 0.9; stroke: #000000; stroke-width: 0.941667"/>
    <path d="M 337.427556 175.972132 
L 337.427556 170.836566 
L 343.359016 170.836566 
L 343.359016 175.972132 
z
" clip-path="url(#p9a57e72b23)" style="fill: #ff0000; fill-opacity: 0.9; stroke: #000000; stroke-width: 0.941667"/>
    <path d="M 345.814209 169.12471 
L 345.814209 181.963626 
L 351.74567 181.963626 
L 351.74567 169.12471 
z
" clip-path="url(#p9a57e72b23)" style="fill: #008000; fill-opacity: 0.9; stroke: #000000; stroke-width: 0.941667"/>
    <path d="M 354.200862 183.675481 
L 354.200862 190.522903 
L 360.132323 190.522903 
L 360.132323 183.675481 
z
" clip-path="url(#p9a57e72b23)" style="fill: #008000; fill-opacity: 0.9; stroke: #000000; stroke-width: 0.941667"/>
    <path d="M 362.587515 189.666975 
L 362.587515 187.95512 
L 368.518976 187.95512 
L 368.518976 189.666975 
z
" clip-path="url(#p9a57e72b23)" style="fill: #ff0000; fill-opacity: 0.9; stroke: #000000; stroke-width: 0.941667"/>
    <path d="M 370.974169 187.95512 
L 370.974169 169.980638 
L 376.905629 169.980638 
L 376.905629 187.95512 
z
" clip-path="url(#p9a57e72b23)" style="fill: #ff0000; fill-opacity: 0.9; stroke: #000000; stroke-width: 0.941667"/>
    <path d="M 379.360822 174.260276 
L 379.360822 180.25177 
L 385.292282 180.25177 
L 385.292282 174.260276 
z
" clip-path="url(#p9a57e72b23)" style="fill: #008000; fill-opacity: 0.9; stroke: #000000; stroke-width: 0.941667"/>
    <path d="M 387.747475 179.395843 
L 387.747475 193.946614 
L 393.678935 193.946614 
L 393.678935 179.395843 
z
" clip-path="url(#p9a57e72b23)" style="fill: #008000; fill-opacity: 0.9; stroke: #000000; stroke-width: 0.941667"/>
    <path d="M 396.134128 196.514397 
L 396.134128 190.522903 
L 402.065589 190.522903 
L 402.065589 196.514397 
z
" clip-path="url(#p9a57e72b23)" style="fill: #ff0000; fill-opacity: 0.9; stroke: #000000; stroke-width: 0.941667"/>
    <path d="M 404.520781 187.95512 
L 404.520781 149.438373 
L 410.452242 149.438373 
L 410.452242 187.95512 
z
" clip-path="url(#p9a57e72b23)" style="fill: #ff0000; fill-opacity: 0.9; stroke: #000000; stroke-width: 0.941667"/>
    <path d="M 412.907435 139.167241 
L 412.907435 125.472398 
L 418.838895 125.472398 
L 418.838895 139.167241 
z
" clip-path="url(#p9a57e72b23)" style="fill: #ff0000; fill-opacity: 0.9; stroke: #000000; stroke-width: 0.941667"/>
    <path d="M 421.294088 133.175747 
L 421.294088 128.040181 
L 427.225548 128.040181 
L 427.225548 133.175747 
z
" clip-path="url(#p9a57e72b23)" style="fill: #ff0000; fill-opacity: 0.9; stroke: #000000; stroke-width: 0.941667"/>
    <path d="M 429.680741 127.184253 
L 429.680741 104.074205 
L 435.612201 104.074205 
L 435.612201 127.184253 
z
" clip-path="url(#p9a57e72b23)" style="fill: #ff0000; fill-opacity: 0.9; stroke: #000000; stroke-width: 0.941667"/>
    <path d="M 438.067394 110.065699 
L 438.067394 98.938639 
L 443.998855 98.938639 
L 443.998855 110.065699 
z
" clip-path="url(#p9a57e72b23)" style="fill: #ff0000; fill-opacity: 0.9; stroke: #000000; stroke-width: 0.941667"/>
    <path d="M 446.454047 105.786061 
L 446.454047 111.777554 
L 452.385508 111.777554 
L 452.385508 105.786061 
z
" clip-path="url(#p9a57e72b23)" style="fill: #008000; fill-opacity: 0.9; stroke: #000000; stroke-width: 0.941667"/>
    <path d="M 454.840701 117.769048 
L 454.840701 148.582446 
L 460.772161 148.582446 
L 460.772161 117.769048 
z
" clip-path="url(#p9a57e72b23)" style="fill: #008000; fill-opacity: 0.9; stroke: #000000; stroke-width: 0.941667"/>
    <path d="M 463.227354 143.446879 
L 463.227354 141.735024 
L 469.158814 141.735024 
L 469.158814 143.446879 
z
" clip-path="url(#p9a57e72b23)" style="fill: #ff0000; fill-opacity: 0.9; stroke: #000000; stroke-width: 0.941667"/>
    <path d="M 471.614007 139.167241 
L 471.614007 75.828591 
L 477.545467 75.828591 
L 477.545467 139.167241 
z
" clip-path="url(#p9a57e72b23)" style="fill: #ff0000; fill-opacity: 0.9; stroke: #000000; stroke-width: 0.941667"/>
    <path d="M 480.00066 82.676013 
L 480.00066 117.769048 
L 485.932121 117.769048 
L 485.932121 82.676013 
z
" clip-path="url(#p9a57e72b23)" style="fill: #008000; fill-opacity: 0.9; stroke: #000000; stroke-width: 0.941667"/>
    <path d="M 488.387313 119.480904 
L 488.387313 128.896108 
L 494.318774 128.896108 
L 494.318774 119.480904 
z
" clip-path="url(#p9a57e72b23)" style="fill: #008000; fill-opacity: 0.9; stroke: #000000; stroke-width: 0.941667"/>
   </g>
   <g id="LineCollection_1">
    <path d="M 130.726957 122.048687 
L 130.726957 104.930133 
" clip-path="url(#p9a57e72b23)" style="fill: none; stroke: #000000; stroke-width: 0.941667"/>
    <path d="M 139.11361 106.641988 
L 139.11361 98.938639 
" clip-path="url(#p9a57e72b23)" style="fill: none; stroke: #000000; stroke-width: 0.941667"/>
    <path d="M 147.500263 92.091217 
L 147.500263 87.811579 
" clip-path="url(#p9a57e72b23)" style="fill: none; stroke: #000000; stroke-width: 0.941667"/>
    <path d="M 155.886916 93.803073 
L 155.886916 85.243796 
" clip-path="url(#p9a57e72b23)" style="fill: none; stroke: #000000; stroke-width: 0.941667"/>
    <path d="M 164.273569 93.803073 
L 164.273569 92.091217 
" clip-path="url(#p9a57e72b23)" style="fill: none; stroke: #000000; stroke-width: 0.941667"/>
    <path d="M 172.660222 93.803073 
L 172.660222 92.091217 
" clip-path="url(#p9a57e72b23)" style="fill: none; stroke: #000000; stroke-width: 0.941667"/>
    <path d="M 181.046876 79.252302 
L 181.046876 76.684519 
" clip-path="url(#p9a57e72b23)" style="fill: none; stroke: #000000; stroke-width: 0.941667"/>
    <path d="M 189.433529 106.641988 
L 189.433529 105.786061 
" clip-path="url(#p9a57e72b23)" style="fill: none; stroke: #000000; stroke-width: 0.941667"/>
    <path d="M 197.820182 115.201265 
L 197.820182 102.36235 
" clip-path="url(#p9a57e72b23)" style="fill: none; stroke: #000000; stroke-width: 0.941667"/>
    <path d="M 206.206835 128.040181 
L 206.206835 124.61647 
" clip-path="url(#p9a57e72b23)" style="fill: none; stroke: #000000; stroke-width: 0.941667"/>
    <path d="M 214.593488 139.167241 
L 214.593488 129.752036 
" clip-path="url(#p9a57e72b23)" style="fill: none; stroke: #000000; stroke-width: 0.941667"/>
    <path d="M 222.980142 138.311313 
L 222.980142 128.040181 
" clip-path="url(#p9a57e72b23)" style="fill: none; stroke: #000000; stroke-width: 0.941667"/>
    <path d="M 231.366795 122.904615 
L 231.366795 121.192759 
" clip-path="url(#p9a57e72b23)" style="fill: none; stroke: #000000; stroke-width: 0.941667"/>
    <path d="M 239.753448 127.184253 
L 239.753448 126.328325 
" clip-path="url(#p9a57e72b23)" style="fill: none; stroke: #000000; stroke-width: 0.941667"/>
    <path d="M 248.140101 135.74353 
L 248.140101 120.336831 
" clip-path="url(#p9a57e72b23)" style="fill: none; stroke: #000000; stroke-width: 0.941667"/>
    <path d="M 256.526754 113.48941 
L 256.526754 108.353844 
" clip-path="url(#p9a57e72b23)" style="fill: none; stroke: #000000; stroke-width: 0.941667"/>
    <path d="M 264.913407 124.61647 
L 264.913407 122.048687 
" clip-path="url(#p9a57e72b23)" style="fill: none; stroke: #000000; stroke-width: 0.941667"/>
    <path d="M 273.300061 138.311313 
L 273.300061 134.031675 
" clip-path="url(#p9a57e72b23)" style="fill: none; stroke: #000000; stroke-width: 0.941667"/>
    <path d="M 281.686714 151.150229 
L 281.686714 137.455385 
" clip-path="url(#p9a57e72b23)" style="fill: none; stroke: #000000; stroke-width: 0.941667"/>
    <path d="M 290.073367 174.260276 
L 290.073367 171.692493 
" clip-path="url(#p9a57e72b23)" style="fill: none; stroke: #000000; stroke-width: 0.941667"/>
    <path d="M 298.46002 179.395843 
L 298.46002 172.548421 
" clip-path="url(#p9a57e72b23)" style="fill: none; stroke: #000000; stroke-width: 0.941667"/>
    <path d="M 306.846673 176.82806 
L 306.846673 167.412855 
" clip-path="url(#p9a57e72b23)" style="fill: none; stroke: #000000; stroke-width: 0.941667"/>
    <path d="M 315.233327 162.277289 
L 315.233327 157.141722 
" clip-path="url(#p9a57e72b23)" style="fill: none; stroke: #000000; stroke-width: 0.941667"/>
    <path d="M 323.61998 164.845072 
L 323.61998 163.989144 
" clip-path="url(#p9a57e72b23)" style="fill: none; stroke: #000000; stroke-width: 0.941667"/>
    <path d="M 332.006633 179.395843 
L 332.006633 175.972132 
" clip-path="url(#p9a57e72b23)" style="fill: none; stroke: #000000; stroke-width: 0.941667"/>
    <path d="M 340.393286 183.675481 
L 340.393286 175.972132 
" clip-path="url(#p9a57e72b23)" style="fill: none; stroke: #000000; stroke-width: 0.941667"/>
    <path d="M 348.779939 182.819553 
L 348.779939 181.963626 
" clip-path="url(#p9a57e72b23)" style="fill: none; stroke: #000000; stroke-width: 0.941667"/>
    <path d="M 357.166593 201.649963 
L 357.166593 190.522903 
" clip-path="url(#p9a57e72b23)" style="fill: none; stroke: #000000; stroke-width: 0.941667"/>
    <path d="M 365.553246 194.802541 
L 365.553246 189.666975 
" clip-path="url(#p9a57e72b23)" style="fill: none; stroke: #000000; stroke-width: 0.941667"/>
    <path d="M 373.939899 192.234758 
L 373.939899 187.95512 
" clip-path="url(#p9a57e72b23)" style="fill: none; stroke: #000000; stroke-width: 0.941667"/>
    <path d="M 382.326552 181.107698 
L 382.326552 180.25177 
" clip-path="url(#p9a57e72b23)" style="fill: none; stroke: #000000; stroke-width: 0.941667"/>
    <path d="M 390.713205 195.658469 
L 390.713205 193.946614 
" clip-path="url(#p9a57e72b23)" style="fill: none; stroke: #000000; stroke-width: 0.941667"/>
    <path d="M 399.099858 203.361818 
L 399.099858 196.514397 
" clip-path="url(#p9a57e72b23)" style="fill: none; stroke: #000000; stroke-width: 0.941667"/>
    <path d="M 407.486512 190.522903 
L 407.486512 187.95512 
" clip-path="url(#p9a57e72b23)" style="fill: none; stroke: #000000; stroke-width: 0.941667"/>
    <path d="M 415.873165 152.862084 
L 415.873165 139.167241 
" clip-path="url(#p9a57e72b23)" style="fill: none; stroke: #000000; stroke-width: 0.941667"/>
    <path d="M 424.259818 146.87059 
L 424.259818 133.175747 
" clip-path="url(#p9a57e72b23)" style="fill: none; stroke: #000000; stroke-width: 0.941667"/>
    <path d="M 432.646471 127.184253 
L 432.646471 127.184253 
" clip-path="url(#p9a57e72b23)" style="fill: none; stroke: #000000; stroke-width: 0.941667"/>
    <path d="M 441.033124 112.633482 
L 441.033124 110.065699 
" clip-path="url(#p9a57e72b23)" style="fill: none; stroke: #000000; stroke-width: 0.941667"/>
    <path d="M 449.419778 113.48941 
L 449.419778 111.777554 
" clip-path="url(#p9a57e72b23)" style="fill: none; stroke: #000000; stroke-width: 0.941667"/>
    <path d="M 457.806431 152.006156 
L 457.806431 148.582446 
" clip-path="url(#p9a57e72b23)" style="fill: none; stroke: #000000; stroke-width: 0.941667"/>
    <path d="M 466.193084 149.438373 
L 466.193084 143.446879 
" clip-path="url(#p9a57e72b23)" style="fill: none; stroke: #000000; stroke-width: 0.941667"/>
    <path d="M 474.579737 139.167241 
L 474.579737 139.167241 
" clip-path="url(#p9a57e72b23)" style="fill: none; stroke: #000000; stroke-width: 0.941667"/>
    <path d="M 482.96639 121.192759 
L 482.96639 117.769048 
" clip-path="url(#p9a57e72b23)" style="fill: none; stroke: #000000; stroke-width: 0.941667"/>
    <path d="M 491.353043 129.752036 
L 491.353043 128.896108 
" clip-path="url(#p9a57e72b23)" style="fill: none; stroke: #000000; stroke-width: 0.941667"/>
    <path d="M 130.726957 95.514928 
L 130.726957 98.082711 
" clip-path="url(#p9a57e72b23)" style="fill: none; stroke: #000000; stroke-width: 0.941667"/>
    <path d="M 139.11361 80.964157 
L 139.11361 84.387868 
" clip-path="url(#p9a57e72b23)" style="fill: none; stroke: #000000; stroke-width: 0.941667"/>
    <path d="M 147.500263 80.10823 
L 147.500263 85.243796 
" clip-path="url(#p9a57e72b23)" style="fill: none; stroke: #000000; stroke-width: 0.941667"/>
    <path d="M 155.886916 77.540447 
L 155.886916 77.540447 
" clip-path="url(#p9a57e72b23)" style="fill: none; stroke: #000000; stroke-width: 0.941667"/>
    <path d="M 164.273569 75.828591 
L 164.273569 82.676013 
" clip-path="url(#p9a57e72b23)" style="fill: none; stroke: #000000; stroke-width: 0.941667"/>
    <path d="M 172.660222 72.40488 
L 172.660222 72.40488 
" clip-path="url(#p9a57e72b23)" style="fill: none; stroke: #000000; stroke-width: 0.941667"/>
    <path d="M 181.046876 56.998182 
L 181.046876 72.40488 
" clip-path="url(#p9a57e72b23)" style="fill: none; stroke: #000000; stroke-width: 0.941667"/>
    <path d="M 189.433529 72.40488 
L 189.433529 82.676013 
" clip-path="url(#p9a57e72b23)" style="fill: none; stroke: #000000; stroke-width: 0.941667"/>
    <path d="M 197.820182 78.396374 
L 197.820182 92.947145 
" clip-path="url(#p9a57e72b23)" style="fill: none; stroke: #000000; stroke-width: 0.941667"/>
    <path d="M 206.206835 98.082711 
L 206.206835 102.36235 
" clip-path="url(#p9a57e72b23)" style="fill: none; stroke: #000000; stroke-width: 0.941667"/>
    <path d="M 214.593488 116.057193 
L 214.593488 123.760542 
" clip-path="url(#p9a57e72b23)" style="fill: none; stroke: #000000; stroke-width: 0.941667"/>
    <path d="M 222.980142 109.209771 
L 222.980142 110.065699 
" clip-path="url(#p9a57e72b23)" style="fill: none; stroke: #000000; stroke-width: 0.941667"/>
    <path d="M 231.366795 108.353844 
L 231.366795 116.913121 
" clip-path="url(#p9a57e72b23)" style="fill: none; stroke: #000000; stroke-width: 0.941667"/>
    <path d="M 239.753448 107.497916 
L 239.753448 119.480904 
" clip-path="url(#p9a57e72b23)" style="fill: none; stroke: #000000; stroke-width: 0.941667"/>
    <path d="M 248.140101 114.345338 
L 248.140101 119.480904 
" clip-path="url(#p9a57e72b23)" style="fill: none; stroke: #000000; stroke-width: 0.941667"/>
    <path d="M 256.526754 78.396374 
L 256.526754 93.803073 
" clip-path="url(#p9a57e72b23)" style="fill: none; stroke: #000000; stroke-width: 0.941667"/>
    <path d="M 264.913407 106.641988 
L 264.913407 111.777554 
" clip-path="url(#p9a57e72b23)" style="fill: none; stroke: #000000; stroke-width: 0.941667"/>
    <path d="M 273.300061 117.769048 
L 273.300061 119.480904 
" clip-path="url(#p9a57e72b23)" style="fill: none; stroke: #000000; stroke-width: 0.941667"/>
    <path d="M 281.686714 134.031675 
L 281.686714 135.74353 
" clip-path="url(#p9a57e72b23)" style="fill: none; stroke: #000000; stroke-width: 0.941667"/>
    <path d="M 290.073367 137.455385 
L 290.073367 141.735024 
" clip-path="url(#p9a57e72b23)" style="fill: none; stroke: #000000; stroke-width: 0.941667"/>
    <path d="M 298.46002 150.294301 
L 298.46002 153.718012 
" clip-path="url(#p9a57e72b23)" style="fill: none; stroke: #000000; stroke-width: 0.941667"/>
    <path d="M 306.846673 156.285795 
L 306.846673 165.700999 
" clip-path="url(#p9a57e72b23)" style="fill: none; stroke: #000000; stroke-width: 0.941667"/>
    <path d="M 315.233327 150.294301 
L 315.233327 154.573939 
" clip-path="url(#p9a57e72b23)" style="fill: none; stroke: #000000; stroke-width: 0.941667"/>
    <path d="M 323.61998 152.862084 
L 323.61998 155.429867 
" clip-path="url(#p9a57e72b23)" style="fill: none; stroke: #000000; stroke-width: 0.941667"/>
    <path d="M 332.006633 163.133216 
L 332.006633 163.989144 
" clip-path="url(#p9a57e72b23)" style="fill: none; stroke: #000000; stroke-width: 0.941667"/>
    <path d="M 340.393286 167.412855 
L 340.393286 170.836566 
" clip-path="url(#p9a57e72b23)" style="fill: none; stroke: #000000; stroke-width: 0.941667"/>
    <path d="M 348.779939 169.12471 
L 348.779939 169.12471 
" clip-path="url(#p9a57e72b23)" style="fill: none; stroke: #000000; stroke-width: 0.941667"/>
    <path d="M 357.166593 183.675481 
L 357.166593 183.675481 
" clip-path="url(#p9a57e72b23)" style="fill: none; stroke: #000000; stroke-width: 0.941667"/>
    <path d="M 365.553246 182.819553 
L 365.553246 187.95512 
" clip-path="url(#p9a57e72b23)" style="fill: none; stroke: #000000; stroke-width: 0.941667"/>
    <path d="M 373.939899 159.709506 
L 373.939899 169.980638 
" clip-path="url(#p9a57e72b23)" style="fill: none; stroke: #000000; stroke-width: 0.941667"/>
    <path d="M 382.326552 166.556927 
L 382.326552 174.260276 
" clip-path="url(#p9a57e72b23)" style="fill: none; stroke: #000000; stroke-width: 0.941667"/>
    <path d="M 390.713205 173.404349 
L 390.713205 179.395843 
" clip-path="url(#p9a57e72b23)" style="fill: none; stroke: #000000; stroke-width: 0.941667"/>
    <path d="M 399.099858 184.531409 
L 399.099858 190.522903 
" clip-path="url(#p9a57e72b23)" style="fill: none; stroke: #000000; stroke-width: 0.941667"/>
    <path d="M 407.486512 136.599458 
L 407.486512 149.438373 
" clip-path="url(#p9a57e72b23)" style="fill: none; stroke: #000000; stroke-width: 0.941667"/>
    <path d="M 415.873165 104.930133 
L 415.873165 125.472398 
" clip-path="url(#p9a57e72b23)" style="fill: none; stroke: #000000; stroke-width: 0.941667"/>
    <path d="M 424.259818 111.777554 
L 424.259818 128.040181 
" clip-path="url(#p9a57e72b23)" style="fill: none; stroke: #000000; stroke-width: 0.941667"/>
    <path d="M 432.646471 94.659001 
L 432.646471 104.074205 
" clip-path="url(#p9a57e72b23)" style="fill: none; stroke: #000000; stroke-width: 0.941667"/>
    <path d="M 441.033124 85.243796 
L 441.033124 98.938639 
" clip-path="url(#p9a57e72b23)" style="fill: none; stroke: #000000; stroke-width: 0.941667"/>
    <path d="M 449.419778 93.803073 
L 449.419778 105.786061 
" clip-path="url(#p9a57e72b23)" style="fill: none; stroke: #000000; stroke-width: 0.941667"/>
    <path d="M 457.806431 108.353844 
L 457.806431 117.769048 
" clip-path="url(#p9a57e72b23)" style="fill: none; stroke: #000000; stroke-width: 0.941667"/>
    <path d="M 466.193084 133.175747 
L 466.193084 141.735024 
" clip-path="url(#p9a57e72b23)" style="fill: none; stroke: #000000; stroke-width: 0.941667"/>
    <path d="M 474.579737 75.828591 
L 474.579737 75.828591 
" clip-path="url(#p9a57e72b23)" style="fill: none; stroke: #000000; stroke-width: 0.941667"/>
    <path d="M 482.96639 82.676013 
L 482.96639 82.676013 
" clip-path="url(#p9a57e72b23)" style="fill: none; stroke: #000000; stroke-width: 0.941667"/>
    <path d="M 491.353043 107.497916 
L 491.353043 119.480904 
" clip-path="url(#p9a57e72b23)" style="fill: none; stroke: #000000; stroke-width: 0.941667"/>
   </g>
   <g id="line2d_27">
    <path d="M 164.273569 87.469208 
L 172.660222 82.333642 
L 181.046876 80.792972 
L 189.433529 84.901425 
L 197.820182 87.982764 
L 206.206835 94.487815 
L 214.593488 105.957246 
L 222.980142 112.633482 
L 231.366795 115.714822 
L 239.753448 121.021574 
L 248.140101 120.165646 
L 256.526754 115.886007 
L 264.913407 118.282605 
L 273.300061 120.850388 
L 281.686714 124.102913 
L 290.073367 134.374046 
L 298.46002 143.446879 
L 306.846673 152.177342 
L 315.233327 156.799351 
L 323.61998 162.448474 
L 332.006633 163.304402 
L 340.393286 166.728113 
L 348.779939 169.980638 
L 357.166593 176.656874 
L 365.553246 181.450069 
L 373.939899 180.25177 
L 382.326552 182.134811 
L 390.713205 184.531409 
L 399.099858 184.531409 
L 407.486512 176.82806 
L 415.873165 167.926411 
L 424.259818 157.484094 
L 432.646471 139.509612 
L 441.033124 121.192759 
L 449.419778 113.660595 
L 457.806431 118.282605 
L 466.193084 121.021574 
L 474.579737 115.372451 
L 482.96639 119.138533 
L 491.353043 122.562243 
" clip-path="url(#p9a57e72b23)" style="fill: none; stroke: #0000ff; stroke-linecap: square"/>
   </g>
   <g id="line2d_28">
    <path d="M 206.206835 90.978511 
L 214.593488 94.145444 
L 222.980142 96.713227 
L 231.366795 100.308123 
L 239.753448 104.502169 
L 248.140101 107.32673 
L 256.526754 110.921627 
L 264.913407 115.458044 
L 273.300061 118.282605 
L 281.686714 122.562243 
L 290.073367 127.269846 
L 298.46002 129.666443 
L 306.846673 135.229973 
L 315.233327 138.82487 
L 323.61998 143.275694 
L 332.006633 148.839224 
L 340.393286 155.087496 
L 348.779939 161.07899 
L 357.166593 166.728113 
L 365.553246 171.949272 
L 373.939899 171.778086 
L 382.326552 174.431462 
L 390.713205 177.256023 
L 399.099858 180.594141 
L 407.486512 179.139064 
L 415.873165 174.089091 
L 424.259818 169.809452 
L 432.646471 162.02051 
L 441.033124 152.862084 
L 449.419778 145.244327 
L 457.806431 143.104508 
L 466.193084 139.252834 
L 474.579737 127.441031 
L 482.96639 120.165646 
L 491.353043 118.111419 
" clip-path="url(#p9a57e72b23)" style="fill: none; stroke: #ffa500; stroke-linecap: square"/>
   </g>
   <g id="line2d_29">
    <path d="M 290.073367 109.124179 
L 298.46002 111.905944 
L 306.846673 115.9716 
L 315.233327 119.566497 
L 323.61998 123.888931 
L 332.006633 128.082977 
L 340.393286 133.004561 
L 348.779939 138.268517 
L 357.166593 142.505359 
L 365.553246 147.255758 
L 373.939899 149.523966 
L 382.326552 152.048953 
L 390.713205 156.242998 
L 399.099858 159.709506 
L 407.486512 161.207379 
L 415.873165 161.464157 
L 424.259818 162.448474 
L 432.646471 161.54975 
L 441.033124 159.795098 
L 449.419778 158.5968 
L 457.806431 157.441297 
L 466.193084 156.842148 
L 474.579737 152.348527 
L 482.96639 150.379894 
L 491.353043 148.625242 
" clip-path="url(#p9a57e72b23)" style="fill: none; stroke: #008000; stroke-linecap: square"/>
   </g>
   <g id="patch_3">
    <path d="M 103.68 210.68 
L 103.68 49.68 
" style="fill: none; stroke: #f0f0f0; stroke-width: 0.8; stroke-linejoin: miter; stroke-linecap: square"/>
   </g>
   <g id="patch_4">
    <path d="M 518.4 210.68 
L 518.4 49.68 
" style="fill: none; stroke: #f0f0f0; stroke-width: 0.8; stroke-linejoin: miter; stroke-linecap: square"/>
   </g>
   <g id="patch_5">
    <path d="M 103.68 210.68 
L 518.4 210.68 
" style="fill: none; stroke: #f0f0f0; stroke-width: 0.8; stroke-linejoin: miter; stroke-linecap: square"/>
   </g>
   <g id="patch_6">
    <path d="M 103.68 49.68 
L 518.4 49.68 
" style="fill: none; stroke: #f0f0f0; stroke-width: 0.8; stroke-linejoin: miter; stroke-linecap: square"/>
   </g>
   <g id="legend_1">
    <g id="patch_7">
     <path d="M 110.68 205.68 
L 162.68 205.68 
Q 164.68 205.68 164.68 203.68 
L 164.68 164.93 
Q 164.68 162.93 162.68 162.93 
L 110.68 162.93 
Q 108.68 162.93 108.68 164.93 
L 108.68 203.68 
Q 108.68 205.68 110.68 205.68 
z
" style="fill: #fafafa; opacity: 0.8; stroke: #cccccc; stroke-linejoin: miter"/>
    </g>
    <g id="line2d_30">
     <path d="M 112.68 170.43 
L 122.68 170.43 
L 132.68 170.43 
" style="fill: none; stroke: #0000ff; stroke-width: 2; stroke-linecap: square"/>
    </g>
    <g id="text_10">
     <!-- MA5 -->
     <g transform="translate(140.68 173.93) scale(0.1 -0.1)">
      <defs>
       <path id="SimHei-4d" d="M 2925 125 
L 2425 125 
L 2425 3175 
L 2375 3175 
L 1775 125 
L 1375 125 
L 775 3175 
L 725 3175 
L 725 125 
L 225 125 
L 225 4400 
L 1000 4400 
L 1550 1575 
L 1600 1575 
L 2150 4400 
L 2925 4400 
L 2925 125 
z
" transform="scale(0.015625)"/>
       <path id="SimHei-41" d="M 3075 125 
L 2475 125 
L 2125 1450 
L 1025 1450 
L 675 125 
L 75 125 
L 1325 4450 
L 1825 4450 
L 3075 125 
z
M 2000 1925 
L 1600 3450 
L 1550 3450 
L 1150 1925 
L 2000 1925 
z
" transform="scale(0.015625)"/>
      </defs>
      <use xlink:href="#SimHei-4d"/>
      <use xlink:href="#SimHei-41" x="50"/>
      <use xlink:href="#SimHei-35" x="100"/>
     </g>
    </g>
    <g id="line2d_31">
     <path d="M 112.68 183.68 
L 122.68 183.68 
L 132.68 183.68 
" style="fill: none; stroke: #ffa500; stroke-width: 2; stroke-linecap: square"/>
    </g>
    <g id="text_11">
     <!-- MA10 -->
     <g transform="translate(140.68 187.18) scale(0.1 -0.1)">
      <defs>
       <path id="SimHei-31" d="M 1400 3600 
Q 1075 3275 575 2975 
L 575 3450 
Q 1200 3875 1600 4450 
L 1900 4450 
L 1900 150 
L 1400 150 
L 1400 3600 
z
" transform="scale(0.015625)"/>
      </defs>
      <use xlink:href="#SimHei-4d"/>
      <use xlink:href="#SimHei-41" x="50"/>
      <use xlink:href="#SimHei-31" x="100"/>
      <use xlink:href="#SimHei-30" x="150"/>
     </g>
    </g>
    <g id="line2d_32">
     <path d="M 112.68 196.93 
L 122.68 196.93 
L 132.68 196.93 
" style="fill: none; stroke: #008000; stroke-width: 2; stroke-linecap: square"/>
    </g>
    <g id="text_12">
     <!-- MA20 -->
     <g transform="translate(140.68 200.43) scale(0.1 -0.1)">
      <use xlink:href="#SimHei-4d"/>
      <use xlink:href="#SimHei-41" x="50"/>
      <use xlink:href="#SimHei-32" x="100"/>
      <use xlink:href="#SimHei-30" x="150"/>
     </g>
    </g>
   </g>
  </g>
  <g id="axes_2">
   <g id="patch_8">
    <path d="M 103.68 275.08 
L 518.4 275.08 
L 518.4 210.68 
L 103.68 210.68 
z
" style="fill: #fafafa"/>
   </g>
   <g id="matplotlib.axis_3">
    <g id="xtick_6">
     <g id="line2d_33">
      <path d="M 130.726957 275.08 
L 130.726957 210.68 
" clip-path="url(#pe50eae2f5c)" style="fill: none; stroke: #d0d0d0; stroke-width: 0.8; stroke-linecap: square"/>
     </g>
     <g id="line2d_34">
      <g>
       <use xlink:href="#m18fb7cd1e8" x="130.726957" y="275.08" style="fill: #101010; stroke: #101010; stroke-width: 0.8"/>
      </g>
     </g>
    </g>
    <g id="xtick_7">
     <g id="line2d_35">
      <path d="M 214.593488 275.08 
L 214.593488 210.68 
" clip-path="url(#pe50eae2f5c)" style="fill: none; stroke: #d0d0d0; stroke-width: 0.8; stroke-linecap: square"/>
     </g>
     <g id="line2d_36">
      <g>
       <use xlink:href="#m18fb7cd1e8" x="214.593488" y="275.08" style="fill: #101010; stroke: #101010; stroke-width: 0.8"/>
      </g>
     </g>
    </g>
    <g id="xtick_8">
     <g id="line2d_37">
      <path d="M 298.46002 275.08 
L 298.46002 210.68 
" clip-path="url(#pe50eae2f5c)" style="fill: none; stroke: #d0d0d0; stroke-width: 0.8; stroke-linecap: square"/>
     </g>
     <g id="line2d_38">
      <g>
       <use xlink:href="#m18fb7cd1e8" x="298.46002" y="275.08" style="fill: #101010; stroke: #101010; stroke-width: 0.8"/>
      </g>
     </g>
    </g>
    <g id="xtick_9">
     <g id="line2d_39">
      <path d="M 382.326552 275.08 
L 382.326552 210.68 
" clip-path="url(#pe50eae2f5c)" style="fill: none; stroke: #d0d0d0; stroke-width: 0.8; stroke-linecap: square"/>
     </g>
     <g id="line2d_40">
      <g>
       <use xlink:href="#m18fb7cd1e8" x="382.326552" y="275.08" style="fill: #101010; stroke: #101010; stroke-width: 0.8"/>
      </g>
     </g>
    </g>
    <g id="xtick_10">
     <g id="line2d_41">
      <path d="M 466.193084 275.08 
L 466.193084 210.68 
" clip-path="url(#pe50eae2f5c)" style="fill: none; stroke: #d0d0d0; stroke-width: 0.8; stroke-linecap: square"/>
     </g>
     <g id="line2d_42">
      <g>
       <use xlink:href="#m18fb7cd1e8" x="466.193084" y="275.08" style="fill: #101010; stroke: #101010; stroke-width: 0.8"/>
      </g>
     </g>
    </g>
   </g>
   <g id="matplotlib.axis_4">
    <g id="ytick_9">
     <g id="line2d_43">
      <path d="M 103.68 251.126271 
L 518.4 251.126271 
" clip-path="url(#pe50eae2f5c)" style="fill: none; stroke: #d0d0d0; stroke-width: 0.8; stroke-linecap: square"/>
     </g>
     <g id="line2d_44">
      <g>
       <use xlink:href="#m15573e4d5c" x="518.4" y="251.126271" style="fill: #101010; stroke: #101010; stroke-width: 0.8"/>
      </g>
     </g>
     <g id="text_13">
      <!-- 250000 -->
      <g style="fill: #101010" transform="translate(525.4 254.563771) scale(0.1 -0.1)">
       <use xlink:href="#SimHei-32"/>
       <use xlink:href="#SimHei-35" x="50"/>
       <use xlink:href="#SimHei-30" x="100"/>
       <use xlink:href="#SimHei-30" x="150"/>
       <use xlink:href="#SimHei-30" x="200"/>
       <use xlink:href="#SimHei-30" x="250"/>
      </g>
     </g>
    </g>
    <g id="ytick_10">
     <g id="line2d_45">
      <path d="M 103.68 224.438758 
L 518.4 224.438758 
" clip-path="url(#pe50eae2f5c)" style="fill: none; stroke: #d0d0d0; stroke-width: 0.8; stroke-linecap: square"/>
     </g>
     <g id="line2d_46">
      <g>
       <use xlink:href="#m15573e4d5c" x="518.4" y="224.438758" style="fill: #101010; stroke: #101010; stroke-width: 0.8"/>
      </g>
     </g>
     <g id="text_14">
      <!-- 500000 -->
      <g style="fill: #101010" transform="translate(525.4 227.876258) scale(0.1 -0.1)">
       <use xlink:href="#SimHei-35"/>
       <use xlink:href="#SimHei-30" x="50"/>
       <use xlink:href="#SimHei-30" x="100"/>
       <use xlink:href="#SimHei-30" x="150"/>
       <use xlink:href="#SimHei-30" x="200"/>
       <use xlink:href="#SimHei-30" x="250"/>
      </g>
     </g>
    </g>
    <g id="text_15">
     <!-- volume -->
     <g style="fill: #101010" transform="translate(566.275 257.88) rotate(-90) scale(0.1 -0.1)">
      <defs>
       <path id="SimHei-76" d="M 2875 2925 
L 1825 75 
L 1275 75 
L 225 2925 
L 750 2925 
L 1525 750 
L 1575 750 
L 2350 2925 
L 2875 2925 
z
" transform="scale(0.015625)"/>
       <path id="SimHei-6f" d="M 2925 1525 
Q 2925 875 2525 475 
Q 2125 75 1575 75 
Q 1025 75 625 475 
Q 225 875 225 1525 
Q 225 2175 625 2575 
Q 1025 2975 1575 2975 
Q 2125 2975 2525 2575 
Q 2925 2175 2925 1525 
z
M 2375 1525 
Q 2375 2025 2125 2275 
Q 1875 2525 1575 2525 
Q 1275 2525 1025 2275 
Q 775 2025 775 1525 
Q 775 1025 1025 775 
Q 1275 525 1575 525 
Q 1875 525 2125 775 
Q 2375 1025 2375 1525 
z
" transform="scale(0.015625)"/>
       <path id="SimHei-6c" d="M 1825 125 
L 1325 125 
L 1325 4400 
L 1825 4400 
L 1825 125 
z
" transform="scale(0.015625)"/>
       <path id="SimHei-75" d="M 2800 125 
L 2300 125 
L 2300 650 
Q 2100 375 1862 225 
Q 1625 75 1250 75 
Q 800 75 575 325 
Q 350 575 350 950 
L 350 2925 
L 850 2925 
L 850 1125 
Q 850 825 1000 650 
Q 1150 475 1400 475 
Q 1725 475 2012 812 
Q 2300 1150 2300 1650 
L 2300 2925 
L 2800 2925 
L 2800 125 
z
" transform="scale(0.015625)"/>
       <path id="SimHei-6d" d="M 3050 125 
L 2550 125 
L 2550 2150 
Q 2550 2300 2500 2400 
Q 2450 2500 2300 2500 
Q 2125 2500 1975 2312 
Q 1825 2125 1825 1825 
L 1825 125 
L 1325 125 
L 1325 2150 
Q 1325 2300 1275 2400 
Q 1225 2500 1075 2500 
Q 900 2500 750 2312 
Q 600 2125 600 1825 
L 600 125 
L 100 125 
L 100 2925 
L 600 2925 
L 600 2550 
Q 725 2750 900 2862 
Q 1075 2975 1275 2975 
Q 1475 2975 1612 2862 
Q 1750 2750 1800 2550 
Q 1925 2750 2087 2862 
Q 2250 2975 2450 2975 
Q 2750 2975 2900 2812 
Q 3050 2650 3050 2350 
L 3050 125 
z
" transform="scale(0.015625)"/>
      </defs>
      <use xlink:href="#SimHei-76"/>
      <use xlink:href="#SimHei-6f" x="50"/>
      <use xlink:href="#SimHei-6c" x="100"/>
      <use xlink:href="#SimHei-75" x="150"/>
      <use xlink:href="#SimHei-6d" x="200"/>
      <use xlink:href="#SimHei-65" x="250"/>
     </g>
     <!--  -->
     <g style="fill: #101010" transform="translate(575.775 242.88) rotate(-90) scale(0.1 -0.1)"/>
    </g>
   </g>
   <g id="patch_9">
    <path d="M 128.691795 277.813783 
L 132.762118 277.813783 
L 132.762118 263.956132 
L 128.691795 263.956132 
z
" clip-path="url(#pe50eae2f5c)" style="fill: #ff0000; stroke: #e60000; stroke-width: 0.65; stroke-linejoin: miter"/>
   </g>
   <g id="patch_10">
    <path d="M 137.078449 277.813783 
L 141.148771 277.813783 
L 141.148771 262.236389 
L 137.078449 262.236389 
z
" clip-path="url(#pe50eae2f5c)" style="fill: #ff0000; stroke: #e60000; stroke-width: 0.65; stroke-linejoin: miter"/>
   </g>
   <g id="patch_11">
    <path d="M 145.465102 277.813783 
L 149.535424 277.813783 
L 149.535424 262.48533 
L 145.465102 262.48533 
z
" clip-path="url(#pe50eae2f5c)" style="fill: #ff0000; stroke: #e60000; stroke-width: 0.65; stroke-linejoin: miter"/>
   </g>
   <g id="patch_12">
    <path d="M 153.851755 277.813783 
L 157.922077 277.813783 
L 157.922077 262.60425 
L 153.851755 262.60425 
z
" clip-path="url(#pe50eae2f5c)" style="fill: #ff0000; stroke: #e60000; stroke-width: 0.65; stroke-linejoin: miter"/>
   </g>
   <g id="patch_13">
    <path d="M 162.238408 277.813783 
L 166.30873 277.813783 
L 166.30873 261.844296 
L 162.238408 261.844296 
z
" clip-path="url(#pe50eae2f5c)" style="fill: #008000; stroke: #007300; stroke-width: 0.65; stroke-linejoin: miter"/>
   </g>
   <g id="patch_14">
    <path d="M 170.625061 277.813783 
L 174.695384 277.813783 
L 174.695384 257.159997 
L 170.625061 257.159997 
z
" clip-path="url(#pe50eae2f5c)" style="fill: #ff0000; stroke: #e60000; stroke-width: 0.65; stroke-linejoin: miter"/>
   </g>
   <g id="patch_15">
    <path d="M 179.011714 277.813783 
L 183.082037 277.813783 
L 183.082037 257.959555 
L 179.011714 257.959555 
z
" clip-path="url(#pe50eae2f5c)" style="fill: #008000; stroke: #007300; stroke-width: 0.65; stroke-linejoin: miter"/>
   </g>
   <g id="patch_16">
    <path d="M 187.398368 277.813783 
L 191.46869 277.813783 
L 191.46869 258.576677 
L 187.398368 258.576677 
z
" clip-path="url(#pe50eae2f5c)" style="fill: #008000; stroke: #007300; stroke-width: 0.65; stroke-linejoin: miter"/>
   </g>
   <g id="patch_17">
    <path d="M 195.785021 277.813783 
L 199.855343 277.813783 
L 199.855343 259.255074 
L 195.785021 259.255074 
z
" clip-path="url(#pe50eae2f5c)" style="fill: #ff0000; stroke: #e60000; stroke-width: 0.65; stroke-linejoin: miter"/>
   </g>
   <g id="patch_18">
    <path d="M 204.171674 277.813783 
L 208.241996 277.813783 
L 208.241996 259.242797 
L 204.171674 259.242797 
z
" clip-path="url(#pe50eae2f5c)" style="fill: #008000; stroke: #007300; stroke-width: 0.65; stroke-linejoin: miter"/>
   </g>
   <g id="patch_19">
    <path d="M 212.558327 277.813783 
L 216.62865 277.813783 
L 216.62865 263.20269 
L 212.558327 263.20269 
z
" clip-path="url(#pe50eae2f5c)" style="fill: #008000; stroke: #007300; stroke-width: 0.65; stroke-linejoin: miter"/>
   </g>
   <g id="patch_20">
    <path d="M 220.94498 277.813783 
L 225.015303 277.813783 
L 225.015303 263.122094 
L 220.94498 263.122094 
z
" clip-path="url(#pe50eae2f5c)" style="fill: #ff0000; stroke: #e60000; stroke-width: 0.65; stroke-linejoin: miter"/>
   </g>
   <g id="patch_21">
    <path d="M 229.331634 277.813783 
L 233.401956 277.813783 
L 233.401956 265.97595 
L 229.331634 265.97595 
z
" clip-path="url(#pe50eae2f5c)" style="fill: #008000; stroke: #007300; stroke-width: 0.65; stroke-linejoin: miter"/>
   </g>
   <g id="patch_22">
    <path d="M 237.718287 277.813783 
L 241.788609 277.813783 
L 241.788609 265.688045 
L 237.718287 265.688045 
z
" clip-path="url(#pe50eae2f5c)" style="fill: #ff0000; stroke: #e60000; stroke-width: 0.65; stroke-linejoin: miter"/>
   </g>
   <g id="patch_23">
    <path d="M 246.10494 277.813783 
L 250.175262 277.813783 
L 250.175262 264.95574 
L 246.10494 264.95574 
z
" clip-path="url(#pe50eae2f5c)" style="fill: #008000; stroke: #007300; stroke-width: 0.65; stroke-linejoin: miter"/>
   </g>
   <g id="patch_24">
    <path d="M 254.491593 277.813783 
L 258.561915 277.813783 
L 258.561915 250.824275 
L 254.491593 250.824275 
z
" clip-path="url(#pe50eae2f5c)" style="fill: #008000; stroke: #007300; stroke-width: 0.65; stroke-linejoin: miter"/>
   </g>
   <g id="patch_25">
    <path d="M 262.878246 277.813783 
L 266.948569 277.813783 
L 266.948569 262.866428 
L 262.878246 262.866428 
z
" clip-path="url(#pe50eae2f5c)" style="fill: #008000; stroke: #007300; stroke-width: 0.65; stroke-linejoin: miter"/>
   </g>
   <g id="patch_26">
    <path d="M 271.264899 277.813783 
L 275.335222 277.813783 
L 275.335222 265.549057 
L 271.264899 265.549057 
z
" clip-path="url(#pe50eae2f5c)" style="fill: #008000; stroke: #007300; stroke-width: 0.65; stroke-linejoin: miter"/>
   </g>
   <g id="patch_27">
    <path d="M 279.651553 277.813783 
L 283.721875 277.813783 
L 283.721875 267.822939 
L 279.651553 267.822939 
z
" clip-path="url(#pe50eae2f5c)" style="fill: #ff0000; stroke: #e60000; stroke-width: 0.65; stroke-linejoin: miter"/>
   </g>
   <g id="patch_28">
    <path d="M 288.038206 277.813783 
L 292.108528 277.813783 
L 292.108528 261.566212 
L 288.038206 261.566212 
z
" clip-path="url(#pe50eae2f5c)" style="fill: #008000; stroke: #007300; stroke-width: 0.65; stroke-linejoin: miter"/>
   </g>
   <g id="patch_29">
    <path d="M 296.424859 277.813783 
L 300.495181 277.813783 
L 300.495181 260.947489 
L 296.424859 260.947489 
z
" clip-path="url(#pe50eae2f5c)" style="fill: #ff0000; stroke: #e60000; stroke-width: 0.65; stroke-linejoin: miter"/>
   </g>
   <g id="patch_30">
    <path d="M 304.811512 277.813783 
L 308.881835 277.813783 
L 308.881835 264.462875 
L 304.811512 264.462875 
z
" clip-path="url(#pe50eae2f5c)" style="fill: #ff0000; stroke: #e60000; stroke-width: 0.65; stroke-linejoin: miter"/>
   </g>
   <g id="patch_31">
    <path d="M 313.198165 277.813783 
L 317.268488 277.813783 
L 317.268488 263.750852 
L 313.198165 263.750852 
z
" clip-path="url(#pe50eae2f5c)" style="fill: #008000; stroke: #007300; stroke-width: 0.65; stroke-linejoin: miter"/>
   </g>
   <g id="patch_32">
    <path d="M 321.584819 277.813783 
L 325.655141 277.813783 
L 325.655141 266.893467 
L 321.584819 266.893467 
z
" clip-path="url(#pe50eae2f5c)" style="fill: #008000; stroke: #007300; stroke-width: 0.65; stroke-linejoin: miter"/>
   </g>
   <g id="patch_33">
    <path d="M 329.971472 277.813783 
L 334.041794 277.813783 
L 334.041794 267.59791 
L 329.971472 267.59791 
z
" clip-path="url(#pe50eae2f5c)" style="fill: #008000; stroke: #007300; stroke-width: 0.65; stroke-linejoin: miter"/>
   </g>
   <g id="patch_34">
    <path d="M 338.358125 277.813783 
L 342.428447 277.813783 
L 342.428447 268.172759 
L 338.358125 268.172759 
z
" clip-path="url(#pe50eae2f5c)" style="fill: #ff0000; stroke: #e60000; stroke-width: 0.65; stroke-linejoin: miter"/>
   </g>
   <g id="patch_35">
    <path d="M 346.744778 277.813783 
L 350.815101 277.813783 
L 350.815101 268.701172 
L 346.744778 268.701172 
z
" clip-path="url(#pe50eae2f5c)" style="fill: #008000; stroke: #007300; stroke-width: 0.65; stroke-linejoin: miter"/>
   </g>
   <g id="patch_36">
    <path d="M 355.131431 277.813783 
L 359.201754 277.813783 
L 359.201754 265.918839 
L 355.131431 265.918839 
z
" clip-path="url(#pe50eae2f5c)" style="fill: #008000; stroke: #007300; stroke-width: 0.65; stroke-linejoin: miter"/>
   </g>
   <g id="patch_37">
    <path d="M 363.518085 277.813783 
L 367.588407 277.813783 
L 367.588407 267.804578 
L 363.518085 267.804578 
z
" clip-path="url(#pe50eae2f5c)" style="fill: #ff0000; stroke: #e60000; stroke-width: 0.65; stroke-linejoin: miter"/>
   </g>
   <g id="patch_38">
    <path d="M 371.904738 277.813783 
L 375.97506 277.813783 
L 375.97506 261.757295 
L 371.904738 261.757295 
z
" clip-path="url(#pe50eae2f5c)" style="fill: #ff0000; stroke: #e60000; stroke-width: 0.65; stroke-linejoin: miter"/>
   </g>
   <g id="patch_39">
    <path d="M 380.291391 277.813783 
L 384.361713 277.813783 
L 384.361713 267.751844 
L 380.291391 267.751844 
z
" clip-path="url(#pe50eae2f5c)" style="fill: #008000; stroke: #007300; stroke-width: 0.65; stroke-linejoin: miter"/>
   </g>
   <g id="patch_40">
    <path d="M 388.678044 277.813783 
L 392.748366 277.813783 
L 392.748366 266.969579 
L 388.678044 266.969579 
z
" clip-path="url(#pe50eae2f5c)" style="fill: #008000; stroke: #007300; stroke-width: 0.65; stroke-linejoin: miter"/>
   </g>
   <g id="patch_41">
    <path d="M 397.064697 277.813783 
L 401.13502 277.813783 
L 401.13502 265.754444 
L 397.064697 265.754444 
z
" clip-path="url(#pe50eae2f5c)" style="fill: #ff0000; stroke: #e60000; stroke-width: 0.65; stroke-linejoin: miter"/>
   </g>
   <g id="patch_42">
    <path d="M 405.45135 277.813783 
L 409.521673 277.813783 
L 409.521673 241.695224 
L 405.45135 241.695224 
z
" clip-path="url(#pe50eae2f5c)" style="fill: #ff0000; stroke: #e60000; stroke-width: 0.65; stroke-linejoin: miter"/>
   </g>
   <g id="patch_43">
    <path d="M 413.838004 277.813783 
L 417.908326 277.813783 
L 417.908326 232.820772 
L 413.838004 232.820772 
z
" clip-path="url(#pe50eae2f5c)" style="fill: #ff0000; stroke: #e60000; stroke-width: 0.65; stroke-linejoin: miter"/>
   </g>
   <g id="patch_44">
    <path d="M 422.224657 277.813783 
L 426.294979 277.813783 
L 426.294979 243.782721 
L 422.224657 243.782721 
z
" clip-path="url(#pe50eae2f5c)" style="fill: #ff0000; stroke: #e60000; stroke-width: 0.65; stroke-linejoin: miter"/>
   </g>
   <g id="patch_45">
    <path d="M 430.61131 277.813783 
L 434.681632 277.813783 
L 434.681632 243.972096 
L 430.61131 243.972096 
z
" clip-path="url(#pe50eae2f5c)" style="fill: #ff0000; stroke: #e60000; stroke-width: 0.65; stroke-linejoin: miter"/>
   </g>
   <g id="patch_46">
    <path d="M 438.997963 277.813783 
L 443.068286 277.813783 
L 443.068286 244.720841 
L 438.997963 244.720841 
z
" clip-path="url(#pe50eae2f5c)" style="fill: #ff0000; stroke: #e60000; stroke-width: 0.65; stroke-linejoin: miter"/>
   </g>
   <g id="patch_47">
    <path d="M 447.384616 277.813783 
L 451.454939 277.813783 
L 451.454939 255.114132 
L 447.384616 255.114132 
z
" clip-path="url(#pe50eae2f5c)" style="fill: #008000; stroke: #007300; stroke-width: 0.65; stroke-linejoin: miter"/>
   </g>
   <g id="patch_48">
    <path d="M 455.77127 277.813783 
L 459.841592 277.813783 
L 459.841592 251.012368 
L 455.77127 251.012368 
z
" clip-path="url(#pe50eae2f5c)" style="fill: #008000; stroke: #007300; stroke-width: 0.65; stroke-linejoin: miter"/>
   </g>
   <g id="patch_49">
    <path d="M 464.157923 277.813783 
L 468.228245 277.813783 
L 468.228245 260.54344 
L 464.157923 260.54344 
z
" clip-path="url(#pe50eae2f5c)" style="fill: #ff0000; stroke: #e60000; stroke-width: 0.65; stroke-linejoin: miter"/>
   </g>
   <g id="patch_50">
    <path d="M 472.544576 277.813783 
L 476.614898 277.813783 
L 476.614898 224.670512 
L 472.544576 224.670512 
z
" clip-path="url(#pe50eae2f5c)" style="fill: #ff0000; stroke: #e60000; stroke-width: 0.65; stroke-linejoin: miter"/>
   </g>
   <g id="patch_51">
    <path d="M 480.931229 277.813783 
L 485.001551 277.813783 
L 485.001551 216.783071 
L 480.931229 216.783071 
z
" clip-path="url(#pe50eae2f5c)" style="fill: #008000; stroke: #007300; stroke-width: 0.65; stroke-linejoin: miter"/>
   </g>
   <g id="patch_52">
    <path d="M 489.317882 277.813783 
L 493.388205 277.813783 
L 493.388205 250.301626 
L 489.317882 250.301626 
z
" clip-path="url(#pe50eae2f5c)" style="fill: #008000; stroke: #007300; stroke-width: 0.65; stroke-linejoin: miter"/>
   </g>
   <g id="patch_53">
    <path d="M 103.68 275.08 
L 103.68 210.68 
" style="fill: none; stroke: #f0f0f0; stroke-width: 0.8; stroke-linejoin: miter; stroke-linecap: square"/>
   </g>
   <g id="patch_54">
    <path d="M 518.4 275.08 
L 518.4 210.68 
" style="fill: none; stroke: #f0f0f0; stroke-width: 0.8; stroke-linejoin: miter; stroke-linecap: square"/>
   </g>
   <g id="patch_55">
    <path d="M 103.68 275.08 
L 518.4 275.08 
" style="fill: none; stroke: #f0f0f0; stroke-width: 0.8; stroke-linejoin: miter; stroke-linecap: square"/>
   </g>
   <g id="patch_56">
    <path d="M 103.68 210.68 
L 518.4 210.68 
" style="fill: none; stroke: #f0f0f0; stroke-width: 0.8; stroke-linejoin: miter; stroke-linecap: square"/>
   </g>
  </g>
  <g id="axes_3">
   <g id="patch_57">
    <path d="M 103.68 339.48 
L 518.4 339.48 
L 518.4 275.08 
L 103.68 275.08 
z
" style="fill: #fafafa"/>
   </g>
   <g id="matplotlib.axis_5">
    <g id="xtick_11">
     <g id="line2d_47">
      <path d="M 130.726957 339.48 
L 130.726957 275.08 
" clip-path="url(#p35180996cf)" style="fill: none; stroke: #d0d0d0; stroke-width: 0.8; stroke-linecap: square"/>
     </g>
     <g id="line2d_48">
      <g>
       <use xlink:href="#m18fb7cd1e8" x="130.726957" y="339.48" style="fill: #101010; stroke: #101010; stroke-width: 0.8"/>
      </g>
     </g>
     <g id="text_16">
      <!-- 0611 -->
      <g style="fill: #101010" transform="translate(121.795627 358.297121) rotate(-15) scale(0.1 -0.1)">
       <defs>
        <path id="SimHei-36" d="M 250 1612 
Q 275 1975 387 2225 
Q 500 2475 725 2850 
L 1750 4450 
L 2325 4450 
L 1275 2800 
Q 1950 2975 2350 2750 
Q 2750 2525 2887 2237 
Q 3025 1950 3037 1612 
Q 3050 1275 2937 950 
Q 2825 625 2537 362 
Q 2250 100 1737 75 
Q 1225 50 862 262 
Q 500 475 362 862 
Q 225 1250 250 1612 
z
M 1025 787 
Q 1250 550 1625 525 
Q 2000 500 2250 775 
Q 2500 1050 2500 1575 
Q 2500 2100 2187 2300 
Q 1875 2500 1487 2450 
Q 1100 2400 925 2075 
Q 750 1750 775 1387 
Q 800 1025 1025 787 
z
" transform="scale(0.015625)"/>
       </defs>
       <use xlink:href="#SimHei-30"/>
       <use xlink:href="#SimHei-36" x="50"/>
       <use xlink:href="#SimHei-31" x="100"/>
       <use xlink:href="#SimHei-31" x="150"/>
      </g>
     </g>
    </g>
    <g id="xtick_12">
     <g id="line2d_49">
      <path d="M 214.593488 339.48 
L 214.593488 275.08 
" clip-path="url(#p35180996cf)" style="fill: none; stroke: #d0d0d0; stroke-width: 0.8; stroke-linecap: square"/>
     </g>
     <g id="line2d_50">
      <g>
       <use xlink:href="#m18fb7cd1e8" x="214.593488" y="339.48" style="fill: #101010; stroke: #101010; stroke-width: 0.8"/>
      </g>
     </g>
     <g id="text_17">
      <!-- 0625 -->
      <g style="fill: #101010" transform="translate(205.662159 358.297121) rotate(-15) scale(0.1 -0.1)">
       <use xlink:href="#SimHei-30"/>
       <use xlink:href="#SimHei-36" x="50"/>
       <use xlink:href="#SimHei-32" x="100"/>
       <use xlink:href="#SimHei-35" x="150"/>
      </g>
     </g>
    </g>
    <g id="xtick_13">
     <g id="line2d_51">
      <path d="M 298.46002 339.48 
L 298.46002 275.08 
" clip-path="url(#p35180996cf)" style="fill: none; stroke: #d0d0d0; stroke-width: 0.8; stroke-linecap: square"/>
     </g>
     <g id="line2d_52">
      <g>
       <use xlink:href="#m18fb7cd1e8" x="298.46002" y="339.48" style="fill: #101010; stroke: #101010; stroke-width: 0.8"/>
      </g>
     </g>
     <g id="text_18">
      <!-- 0709 -->
      <g style="fill: #101010" transform="translate(289.528691 358.297121) rotate(-15) scale(0.1 -0.1)">
       <defs>
        <path id="SimHei-39" d="M 800 75 
Q 1350 1000 1700 1750 
Q 1075 1650 662 1912 
Q 250 2175 162 2625 
Q 75 3075 175 3437 
Q 275 3800 487 4037 
Q 700 4275 1000 4375 
Q 1300 4475 1537 4475 
Q 1775 4475 2025 4375 
Q 2275 4275 2475 4075 
Q 2675 3875 2750 3662 
Q 2825 3450 2825 3112 
Q 2825 2775 2575 2250 
Q 2325 1725 1350 75 
L 800 75 
z
M 662 2875 
Q 700 2550 937 2337 
Q 1175 2125 1450 2150 
Q 1725 2175 1887 2300 
Q 2050 2425 2200 2725 
Q 2300 3100 2250 3362 
Q 2200 3625 1987 3800 
Q 1775 3975 1525 3975 
Q 1375 4000 1137 3900 
Q 900 3800 762 3500 
Q 625 3200 662 2875 
z
" transform="scale(0.015625)"/>
       </defs>
       <use xlink:href="#SimHei-30"/>
       <use xlink:href="#SimHei-37" x="50"/>
       <use xlink:href="#SimHei-30" x="100"/>
       <use xlink:href="#SimHei-39" x="150"/>
      </g>
     </g>
    </g>
    <g id="xtick_14">
     <g id="line2d_53">
      <path d="M 382.326552 339.48 
L 382.326552 275.08 
" clip-path="url(#p35180996cf)" style="fill: none; stroke: #d0d0d0; stroke-width: 0.8; stroke-linecap: square"/>
     </g>
     <g id="line2d_54">
      <g>
       <use xlink:href="#m18fb7cd1e8" x="382.326552" y="339.48" style="fill: #101010; stroke: #101010; stroke-width: 0.8"/>
      </g>
     </g>
     <g id="text_19">
      <!-- 0723 -->
      <g style="fill: #101010" transform="translate(373.395222 358.297121) rotate(-15) scale(0.1 -0.1)">
       <defs>
        <path id="SimHei-33" d="M 250 1225 
L 700 1300 
Q 800 975 1025 762 
Q 1250 550 1587 562 
Q 1925 575 2125 837 
Q 2325 1100 2300 1437 
Q 2275 1775 2037 1962 
Q 1800 2150 1275 2225 
L 1275 2550 
Q 1800 2600 2037 2825 
Q 2275 3050 2250 3412 
Q 2225 3775 1925 3937 
Q 1625 4100 1287 3975 
Q 950 3850 750 3275 
L 300 3350 
Q 450 3800 712 4100 
Q 975 4400 1425 4450 
Q 1875 4500 2212 4337 
Q 2550 4175 2687 3837 
Q 2825 3500 2725 3100 
Q 2625 2700 2150 2400 
Q 2500 2250 2687 1950 
Q 2875 1650 2812 1162 
Q 2750 675 2375 375 
Q 2000 75 1525 87 
Q 1050 100 700 387 
Q 350 675 250 1225 
z
" transform="scale(0.015625)"/>
       </defs>
       <use xlink:href="#SimHei-30"/>
       <use xlink:href="#SimHei-37" x="50"/>
       <use xlink:href="#SimHei-32" x="100"/>
       <use xlink:href="#SimHei-33" x="150"/>
      </g>
     </g>
    </g>
    <g id="xtick_15">
     <g id="line2d_55">
      <path d="M 466.193084 339.48 
L 466.193084 275.08 
" clip-path="url(#p35180996cf)" style="fill: none; stroke: #d0d0d0; stroke-width: 0.8; stroke-linecap: square"/>
     </g>
     <g id="line2d_56">
      <g>
       <use xlink:href="#m18fb7cd1e8" x="466.193084" y="339.48" style="fill: #101010; stroke: #101010; stroke-width: 0.8"/>
      </g>
     </g>
     <g id="text_20">
      <!-- 0806 -->
      <g style="fill: #101010" transform="translate(457.261754 358.297121) rotate(-15) scale(0.1 -0.1)">
       <use xlink:href="#SimHei-30"/>
       <use xlink:href="#SimHei-38" x="50"/>
       <use xlink:href="#SimHei-30" x="100"/>
       <use xlink:href="#SimHei-36" x="150"/>
      </g>
     </g>
    </g>
   </g>
   <g id="matplotlib.axis_6">
    <g id="ytick_11">
     <g id="line2d_57">
      <path d="M 103.68 322.136008 
L 518.4 322.136008 
" clip-path="url(#p35180996cf)" style="fill: none; stroke: #d0d0d0; stroke-width: 0.8; stroke-linecap: square"/>
     </g>
     <g id="line2d_58">
      <g>
       <use xlink:href="#m15573e4d5c" x="518.4" y="322.136008" style="fill: #101010; stroke: #101010; stroke-width: 0.8"/>
      </g>
     </g>
     <g id="text_21">
      <!-- 20 -->
      <g style="fill: #101010" transform="translate(525.4 325.573508) scale(0.1 -0.1)">
       <use xlink:href="#SimHei-32"/>
       <use xlink:href="#SimHei-30" x="50"/>
      </g>
     </g>
    </g>
    <g id="ytick_12">
     <g id="line2d_59">
      <path d="M 103.68 283.415111 
L 518.4 283.415111 
" clip-path="url(#p35180996cf)" style="fill: none; stroke: #d0d0d0; stroke-width: 0.8; stroke-linecap: square"/>
     </g>
     <g id="line2d_60">
      <g>
       <use xlink:href="#m15573e4d5c" x="518.4" y="283.415111" style="fill: #101010; stroke: #101010; stroke-width: 0.8"/>
      </g>
     </g>
     <g id="text_22">
      <!-- 40 -->
      <g style="fill: #101010" transform="translate(525.4 286.852611) scale(0.1 -0.1)">
       <defs>
        <path id="SimHei-34" d="M 2000 1100 
L 75 1100 
L 75 1525 
L 2100 4450 
L 2475 4450 
L 2475 1525 
L 3075 1525 
L 3075 1100 
L 2475 1100 
L 2475 150 
L 2000 150 
L 2000 1100 
z
M 2000 1525 
L 2000 3500 
L 600 1525 
L 2000 1525 
z
" transform="scale(0.015625)"/>
       </defs>
       <use xlink:href="#SimHei-34"/>
       <use xlink:href="#SimHei-30" x="50"/>
      </g>
     </g>
    </g>
    <g id="text_23">
     <!-- control trend -->
     <g style="fill: #101010" transform="translate(546.275 339.78) rotate(-90) scale(0.1 -0.1)">
      <defs>
       <path id="SimHei-6e" d="M 2800 125 
L 2300 125 
L 2300 1925 
Q 2300 2225 2150 2400 
Q 2000 2575 1750 2575 
Q 1425 2575 1137 2237 
Q 850 1900 850 1400 
L 850 125 
L 350 125 
L 350 2925 
L 850 2925 
L 850 2400 
Q 1050 2675 1287 2825 
Q 1525 2975 1900 2975 
Q 2350 2975 2575 2725 
Q 2800 2475 2800 2100 
L 2800 125 
z
" transform="scale(0.015625)"/>
       <path id="SimHei-74" d="M 2750 200 
Q 2625 150 2462 112 
Q 2300 75 2025 75 
Q 1575 75 1300 325 
Q 1025 575 1025 1025 
L 1025 2525 
L 175 2525 
L 175 2925 
L 1025 2925 
L 1025 3900 
L 1525 3900 
L 1525 2925 
L 2550 2925 
L 2550 2525 
L 1525 2525 
L 1525 1000 
Q 1525 800 1625 662 
Q 1725 525 2000 525 
Q 2275 525 2450 575 
Q 2625 625 2750 700 
L 2750 200 
z
" transform="scale(0.015625)"/>
       <path id="SimHei-20" transform="scale(0.015625)"/>
       <path id="SimHei-64" d="M 2750 125 
L 2250 125 
L 2250 500 
Q 2100 275 1900 175 
Q 1700 75 1425 75 
Q 925 75 575 437 
Q 225 800 225 1525 
Q 225 2250 575 2625 
Q 925 3000 1425 3000 
Q 1700 3000 1900 2887 
Q 2100 2775 2250 2550 
L 2250 4400 
L 2750 4400 
L 2750 125 
z
M 2250 1525 
Q 2250 2000 2037 2275 
Q 1825 2550 1525 2550 
Q 1150 2550 962 2275 
Q 775 2000 775 1525 
Q 775 1050 962 787 
Q 1150 525 1525 525 
Q 1825 525 2037 787 
Q 2250 1050 2250 1525 
z
" transform="scale(0.015625)"/>
      </defs>
      <use xlink:href="#SimHei-63"/>
      <use xlink:href="#SimHei-6f" x="50"/>
      <use xlink:href="#SimHei-6e" x="100"/>
      <use xlink:href="#SimHei-74" x="150"/>
      <use xlink:href="#SimHei-72" x="200"/>
      <use xlink:href="#SimHei-6f" x="250"/>
      <use xlink:href="#SimHei-6c" x="300"/>
      <use xlink:href="#SimHei-20" x="350"/>
      <use xlink:href="#SimHei-74" x="400"/>
      <use xlink:href="#SimHei-72" x="450"/>
      <use xlink:href="#SimHei-65" x="500"/>
      <use xlink:href="#SimHei-6e" x="550"/>
      <use xlink:href="#SimHei-64" x="600"/>
     </g>
    </g>
   </g>
   <g id="line2d_61">
    <path d="M 130.726957 327.49165 
L 139.11361 315.752403 
L 147.500263 316.459137 
L 155.886916 316.701375 
L 164.273569 319.363669 
L 172.660222 320.744301 
L 181.046876 317.039641 
L 189.433529 325.430382 
L 197.820182 320.341062 
L 206.206835 327.956843 
L 214.593488 327.055498 
L 222.980142 327.657221 
L 231.366795 331.281109 
L 239.753448 330.786411 
L 248.140101 332.271125 
L 256.526754 321.759331 
L 264.913407 328.289378 
L 273.300061 324.715129 
L 281.686714 332.127161 
L 290.073367 334.204847 
L 298.46002 324.047581 
L 306.846673 336.552727 
L 315.233327 323.584712 
L 323.61998 325.627084 
L 332.006633 327.250651 
L 340.393286 322.206635 
L 348.779939 328.896367 
L 357.166593 330.462162 
L 365.553246 325.011964 
L 373.939899 314.936554 
L 382.326552 324.815262 
L 390.713205 328.135346 
L 399.099858 317.120335 
L 407.486512 304.17199 
L 415.873165 310.686781 
L 424.259818 319.530324 
L 432.646471 316.322917 
L 441.033124 310.838179 
L 449.419778 317.726317 
L 457.806431 330.546806 
L 466.193084 321.401705 
L 474.579737 278.007273 
L 482.96639 313.828362 
L 491.353043 311.333884 
" clip-path="url(#p35180996cf)" style="fill: none; stroke: #0000ff; stroke-linecap: square"/>
   </g>
   <g id="patch_58">
    <path d="M 103.68 339.48 
L 103.68 275.08 
" style="fill: none; stroke: #f0f0f0; stroke-width: 0.8; stroke-linejoin: miter; stroke-linecap: square"/>
   </g>
   <g id="patch_59">
    <path d="M 518.4 339.48 
L 518.4 275.08 
" style="fill: none; stroke: #f0f0f0; stroke-width: 0.8; stroke-linejoin: miter; stroke-linecap: square"/>
   </g>
   <g id="patch_60">
    <path d="M 103.68 339.48 
L 518.4 339.48 
" style="fill: none; stroke: #f0f0f0; stroke-width: 0.8; stroke-linejoin: miter; stroke-linecap: square"/>
   </g>
   <g id="patch_61">
    <path d="M 103.68 275.08 
L 518.4 275.08 
" style="fill: none; stroke: #f0f0f0; stroke-width: 0.8; stroke-linejoin: miter; stroke-linecap: square"/>
   </g>
  </g>
  <g id="text_24">
   <!-- -20240809 -->
   <g transform="translate(226.8 13.145625) scale(0.144 -0.144)">
    <defs>
     <path id="SimHei-5357" d="M 4550 -100 
Q 4925 -100 5100 -87 
Q 5275 -75 5225 175 
L 5225 3075 
L 1125 3075 
L 1125 -600 
L 575 -600 
Q 625 25 625 675 
L 625 2200 
Q 625 2800 575 3450 
L 2750 3450 
L 2875 4150 
L 1875 4150 
Q 1250 4150 425 4100 
L 425 4575 
Q 1000 4525 1700 4525 
L 2925 4525 
Q 3000 5000 3000 5275 
Q 3325 5200 3575 5175 
Q 3475 4900 3425 4525 
L 5100 4525 
Q 5525 4525 6025 4550 
L 6025 4125 
Q 5550 4150 5100 4150 
L 3375 4150 
L 3250 3450 
L 5775 3450 
Q 5725 2875 5725 2425 
L 5725 -75 
Q 5700 -425 5425 -487 
Q 5150 -550 4800 -625 
Q 4725 -350 4550 -100 
z
M 1625 2025 
Q 1975 1975 2500 1975 
L 3350 1975 
Q 3500 2175 3600 2375 
Q 3700 2575 3875 2900 
Q 4125 2775 4450 2650 
Q 4250 2575 4137 2375 
Q 4025 2175 3875 1975 
L 4175 1975 
Q 4425 1975 4775 2000 
L 4775 1575 
Q 4450 1600 4025 1600 
L 3450 1600 
L 3450 1100 
L 4175 1100 
Q 4700 1100 4950 1125 
L 4950 675 
Q 4700 700 4175 700 
L 3450 700 
L 3450 275 
Q 3450 -50 3475 -375 
L 2925 -375 
Q 2950 -100 2950 275 
L 2950 700 
L 2275 700 
Q 1725 700 1425 675 
L 1425 1150 
Q 1800 1100 2225 1100 
L 2950 1100 
L 2950 1600 
L 2500 1600 
Q 2000 1600 1625 1575 
L 1625 2025 
z
M 2850 2325 
Q 2650 2200 2450 2050 
Q 2350 2250 2225 2412 
Q 2100 2575 1975 2700 
Q 2125 2775 2325 2950 
Q 2475 2775 2587 2650 
Q 2700 2525 2850 2325 
z
" transform="scale(0.015625)"/>
     <path id="SimHei-4eac" d="M 5100 3450 
Q 5075 3050 5075 2475 
Q 5075 1925 5100 1625 
L 3525 1625 
L 3525 100 
Q 3525 -325 3300 -450 
Q 3075 -575 2450 -650 
Q 2375 -350 2200 -100 
Q 2750 -125 2887 -75 
Q 3025 -25 3025 275 
L 3025 1625 
L 1375 1625 
Q 1400 2050 1400 2575 
Q 1400 3100 1375 3450 
L 5100 3450 
z
M 3150 5275 
Q 3400 4875 3625 4400 
L 5000 4400 
Q 5575 4400 6000 4425 
L 6000 3950 
Q 5575 3975 5000 3975 
L 1425 3975 
Q 950 3975 425 3950 
L 425 4425 
Q 925 4400 1425 4400 
L 3025 4400 
Q 2950 4625 2675 5075 
Q 2975 5175 3150 5275 
z
M 4575 2050 
L 4575 3025 
L 1900 3025 
L 1900 2050 
L 4575 2050 
z
M 2325 1075 
Q 1875 625 850 -325 
Q 650 -100 450 75 
Q 1500 850 1925 1475 
Q 2100 1250 2325 1075 
z
M 4400 1375 
Q 4925 975 5312 662 
Q 5700 350 5900 150 
Q 5700 -50 5500 -275 
Q 5150 125 4075 975 
Q 4225 1150 4400 1375 
z
" transform="scale(0.015625)"/>
     <path id="SimHei-718a" d="M 3175 3350 
Q 3150 2975 3150 2600 
L 3150 1250 
Q 3150 975 2975 887 
Q 2800 800 2225 725 
Q 2150 950 2025 1175 
Q 2475 1200 2587 1212 
Q 2700 1225 2675 1500 
L 1175 1500 
L 1175 800 
L 650 800 
Q 675 1600 675 2150 
Q 675 2700 650 3350 
L 3175 3350 
z
M 4200 2900 
Q 4175 2625 4175 2200 
Q 5225 2475 5650 2775 
Q 5775 2525 5975 2350 
Q 5500 2225 4200 1800 
L 4200 1475 
Q 4200 1250 4525 1250 
L 5150 1250 
Q 5350 1250 5450 1337 
Q 5550 1425 5650 1800 
Q 5900 1675 6200 1625 
Q 5975 1100 5850 975 
Q 5725 850 5375 850 
L 4175 850 
Q 3650 850 3650 1250 
L 3650 2400 
Q 3650 2600 3625 2900 
L 4200 2900 
z
M 5925 4425 
Q 5025 4175 4150 3925 
Q 4150 3500 4375 3500 
L 5150 3500 
Q 5325 3500 5425 3612 
Q 5525 3725 5550 4000 
Q 5775 3900 6075 3825 
Q 5950 3300 5787 3212 
Q 5625 3125 5300 3125 
L 4150 3125 
Q 3650 3125 3650 3475 
L 3650 4550 
Q 3650 4850 3625 5150 
L 4200 5150 
Q 4175 4825 4175 4300 
Q 5025 4500 5525 4875 
Q 5675 4650 5925 4425 
z
M 2050 5000 
Q 1575 4575 1050 4025 
Q 1450 4050 2600 4175 
Q 2475 4325 2275 4525 
Q 2500 4625 2750 4750 
Q 3275 4050 3525 3750 
Q 3275 3650 3075 3500 
L 2850 3825 
Q 2725 3800 2125 3750 
Q 1525 3700 600 3575 
Q 475 3800 400 4025 
Q 650 4150 937 4450 
Q 1225 4750 1500 5250 
Q 1775 5100 2050 5000 
z
M 2675 1850 
L 2675 2275 
L 1175 2275 
L 1175 1850 
L 2675 1850 
z
M 1300 425 
Q 1100 200 750 -625 
Q 425 -500 250 -450 
Q 425 -100 750 575 
Q 1000 500 1300 425 
z
M 5500 650 
Q 5925 -125 6025 -350 
Q 5750 -425 5525 -550 
Q 5375 -150 5025 450 
Q 5200 525 5500 650 
z
M 2675 2625 
L 2675 3000 
L 1175 3000 
L 1175 2625 
L 2675 2625 
z
M 4025 550 
Q 4200 -125 4250 -375 
L 3750 -475 
Q 3675 -250 3550 475 
Q 3750 525 4025 550 
z
M 2550 475 
Q 2575 250 2725 -425 
Q 2475 -425 2200 -500 
Q 2150 -200 2050 425 
Q 2250 475 2550 475 
z
" transform="scale(0.015625)"/>
     <path id="SimHei-732b" d="M 5800 200 
Q 5800 -50 5825 -575 
L 5300 -575 
L 5300 -200 
L 3125 -200 
L 3125 -625 
L 2625 -625 
Q 2650 -225 2650 75 
L 2650 2100 
Q 2650 2425 2625 2875 
L 5825 2875 
Q 5800 2525 5800 2175 
L 5800 200 
z
M 2550 4825 
Q 2250 4525 1775 3950 
Q 1950 3525 2050 2900 
Q 2150 2275 2162 1575 
Q 2175 875 2050 325 
Q 1925 -225 1550 -425 
Q 1175 -625 850 -650 
Q 825 -350 650 -150 
Q 1125 -125 1337 50 
Q 1550 225 1650 625 
Q 1750 1025 1700 2100 
Q 1250 1500 600 875 
Q 450 1100 275 1300 
Q 625 1525 1012 1937 
Q 1400 2350 1625 2675 
Q 1550 3325 1425 3600 
Q 900 3100 575 2850 
Q 450 3075 275 3250 
Q 650 3425 1225 4025 
Q 900 4475 550 4700 
Q 725 4850 875 5025 
Q 1250 4725 1550 4350 
Q 1875 4675 2175 5175 
Q 2350 5000 2550 4825 
z
M 3750 5125 
Q 3725 4925 3725 4625 
L 3725 4275 
L 4650 4275 
L 4650 4600 
Q 4650 4850 4625 5150 
L 5150 5150 
Q 5100 4950 5100 4650 
L 5100 4275 
L 5575 4275 
Q 5850 4275 6075 4300 
L 6075 3850 
Q 5850 3875 5575 3875 
L 5100 3875 
L 5100 3675 
Q 5100 3425 5125 3175 
L 4625 3175 
Q 4650 3500 4650 3875 
L 3725 3875 
Q 3725 3500 3750 3125 
L 3225 3125 
Q 3250 3425 3250 3625 
L 3250 3875 
L 2925 3875 
Q 2550 3875 2325 3850 
L 2325 4300 
Q 2525 4275 2775 4275 
L 3250 4275 
L 3250 4650 
Q 3250 4900 3225 5125 
L 3750 5125 
z
M 4000 1525 
L 4000 2450 
L 3125 2450 
L 3125 1525 
L 4000 1525 
z
M 4000 200 
L 4000 1100 
L 3125 1100 
L 3125 200 
L 4000 200 
z
M 5300 1525 
L 5300 2450 
L 4475 2450 
L 4475 1525 
L 5300 1525 
z
M 5300 200 
L 5300 1100 
L 4475 1100 
L 4475 200 
L 5300 200 
z
" transform="scale(0.015625)"/>
     <path id="SimHei-2d" d="M 2975 2125 
L 125 2125 
L 125 2525 
L 2975 2525 
L 2975 2125 
z
" transform="scale(0.015625)"/>
    </defs>
    <use xlink:href="#SimHei-5357"/>
    <use xlink:href="#SimHei-4eac" x="100"/>
    <use xlink:href="#SimHei-718a" x="200"/>
    <use xlink:href="#SimHei-732b" x="300"/>
    <use xlink:href="#SimHei-2d" x="400"/>
    <use xlink:href="#SimHei-32" x="450"/>
    <use xlink:href="#SimHei-30" x="500"/>
    <use xlink:href="#SimHei-32" x="550"/>
    <use xlink:href="#SimHei-34" x="600"/>
    <use xlink:href="#SimHei-30" x="650"/>
    <use xlink:href="#SimHei-38" x="700"/>
    <use xlink:href="#SimHei-30" x="750"/>
    <use xlink:href="#SimHei-39" x="800"/>
   </g>
  </g>
 </g>
 <defs>
  <clipPath id="p9a57e72b23">
   <rect x="103.68" y="49.68" width="414.72" height="161"/>
  </clipPath>
  <clipPath id="pe50eae2f5c">
   <rect x="103.68" y="210.68" width="414.72" height="64.4"/>
  </clipPath>
  <clipPath id="p35180996cf">
   <rect x="103.68" y="275.08" width="414.72" height="64.4"/>
  </clipPath>
 </defs>
</svg>
