<?xml version="1.0" encoding="utf-8" standalone="no"?>
<!DOCTYPE svg PUBLIC "-//W3C//DTD SVG 1.1//EN"
  "http://www.w3.org/Graphics/SVG/1.1/DTD/svg11.dtd">
<svg xmlns:xlink="http://www.w3.org/1999/xlink" width="576pt" height="414pt" viewBox="0 0 576 414" xmlns="http://www.w3.org/2000/svg" version="1.1">
 <metadata>
  <rdf:RDF xmlns:dc="http://purl.org/dc/elements/1.1/" xmlns:cc="http://creativecommons.org/ns#" xmlns:rdf="http://www.w3.org/1999/02/22-rdf-syntax-ns#">
   <cc:Work>
    <dc:type rdf:resource="http://purl.org/dc/dcmitype/StillImage"/>
    <dc:date>2024-08-09T18:06:56.369329</dc:date>
    <dc:format>image/svg+xml</dc:format>
    <dc:creator>
     <cc:Agent>
      <dc:title>Matplotlib v3.8.4, https://matplotlib.org/</dc:title>
     </cc:Agent>
    </dc:creator>
   </cc:Work>
  </rdf:RDF>
 </metadata>
 <defs>
  <style type="text/css">*{stroke-linejoin: round; stroke-linecap: butt}</style>
 </defs>
 <g id="figure_1">
  <g id="patch_1">
   <path d="M 0 414 
L 576 414 
L 576 0 
L 0 0 
z
" style="fill: #ffffff"/>
  </g>
  <g id="axes_1">
   <g id="patch_2">
    <path d="M 103.68 210.68 
L 518.4 210.68 
L 518.4 49.68 
L 103.68 49.68 
z
" style="fill: #fafafa"/>
   </g>
   <g id="matplotlib.axis_1">
    <g id="xtick_1">
     <g id="line2d_1">
      <path d="M 130.726957 210.68 
L 130.726957 49.68 
" clip-path="url(#pae10fcce1d)" style="fill: none; stroke: #d0d0d0; stroke-width: 0.8; stroke-linecap: square"/>
     </g>
     <g id="line2d_2">
      <defs>
       <path id="m2024c2bf9c" d="M 0 0 
L 0 3.5 
" style="stroke: #101010; stroke-width: 0.8"/>
      </defs>
      <g>
       <use xlink:href="#m2024c2bf9c" x="130.726957" y="210.68" style="fill: #101010; stroke: #101010; stroke-width: 0.8"/>
      </g>
     </g>
    </g>
    <g id="xtick_2">
     <g id="line2d_3">
      <path d="M 214.593488 210.68 
L 214.593488 49.68 
" clip-path="url(#pae10fcce1d)" style="fill: none; stroke: #d0d0d0; stroke-width: 0.8; stroke-linecap: square"/>
     </g>
     <g id="line2d_4">
      <g>
       <use xlink:href="#m2024c2bf9c" x="214.593488" y="210.68" style="fill: #101010; stroke: #101010; stroke-width: 0.8"/>
      </g>
     </g>
    </g>
    <g id="xtick_3">
     <g id="line2d_5">
      <path d="M 298.46002 210.68 
L 298.46002 49.68 
" clip-path="url(#pae10fcce1d)" style="fill: none; stroke: #d0d0d0; stroke-width: 0.8; stroke-linecap: square"/>
     </g>
     <g id="line2d_6">
      <g>
       <use xlink:href="#m2024c2bf9c" x="298.46002" y="210.68" style="fill: #101010; stroke: #101010; stroke-width: 0.8"/>
      </g>
     </g>
    </g>
    <g id="xtick_4">
     <g id="line2d_7">
      <path d="M 382.326552 210.68 
L 382.326552 49.68 
" clip-path="url(#pae10fcce1d)" style="fill: none; stroke: #d0d0d0; stroke-width: 0.8; stroke-linecap: square"/>
     </g>
     <g id="line2d_8">
      <g>
       <use xlink:href="#m2024c2bf9c" x="382.326552" y="210.68" style="fill: #101010; stroke: #101010; stroke-width: 0.8"/>
      </g>
     </g>
    </g>
    <g id="xtick_5">
     <g id="line2d_9">
      <path d="M 466.193084 210.68 
L 466.193084 49.68 
" clip-path="url(#pae10fcce1d)" style="fill: none; stroke: #d0d0d0; stroke-width: 0.8; stroke-linecap: square"/>
     </g>
     <g id="line2d_10">
      <g>
       <use xlink:href="#m2024c2bf9c" x="466.193084" y="210.68" style="fill: #101010; stroke: #101010; stroke-width: 0.8"/>
      </g>
     </g>
    </g>
   </g>
   <g id="matplotlib.axis_2">
    <g id="ytick_1">
     <g id="line2d_11">
      <path d="M 103.68 181.321176 
L 518.4 181.321176 
" clip-path="url(#pae10fcce1d)" style="fill: none; stroke: #d0d0d0; stroke-width: 0.8; stroke-linecap: square"/>
     </g>
     <g id="line2d_12">
      <defs>
       <path id="mccb8630a1a" d="M 0 0 
L 3.5 0 
" style="stroke: #101010; stroke-width: 0.8"/>
      </defs>
      <g>
       <use xlink:href="#mccb8630a1a" x="518.4" y="181.321176" style="fill: #101010; stroke: #101010; stroke-width: 0.8"/>
      </g>
     </g>
     <g id="text_1">
      <!-- 4 -->
      <g style="fill: #101010" transform="translate(525.4 184.758676) scale(0.1 -0.1)">
       <defs>
        <path id="SimHei-34" d="M 2000 1100 
L 75 1100 
L 75 1525 
L 2100 4450 
L 2475 4450 
L 2475 1525 
L 3075 1525 
L 3075 1100 
L 2475 1100 
L 2475 150 
L 2000 150 
L 2000 1100 
z
M 2000 1525 
L 2000 3500 
L 600 1525 
L 2000 1525 
z
" transform="scale(0.015625)"/>
       </defs>
       <use xlink:href="#SimHei-34"/>
      </g>
     </g>
    </g>
    <g id="ytick_2">
     <g id="line2d_13">
      <path d="M 103.68 146.882674 
L 518.4 146.882674 
" clip-path="url(#pae10fcce1d)" style="fill: none; stroke: #d0d0d0; stroke-width: 0.8; stroke-linecap: square"/>
     </g>
     <g id="line2d_14">
      <g>
       <use xlink:href="#mccb8630a1a" x="518.4" y="146.882674" style="fill: #101010; stroke: #101010; stroke-width: 0.8"/>
      </g>
     </g>
     <g id="text_2">
      <!-- 6 -->
      <g style="fill: #101010" transform="translate(525.4 150.320174) scale(0.1 -0.1)">
       <defs>
        <path id="SimHei-36" d="M 250 1612 
Q 275 1975 387 2225 
Q 500 2475 725 2850 
L 1750 4450 
L 2325 4450 
L 1275 2800 
Q 1950 2975 2350 2750 
Q 2750 2525 2887 2237 
Q 3025 1950 3037 1612 
Q 3050 1275 2937 950 
Q 2825 625 2537 362 
Q 2250 100 1737 75 
Q 1225 50 862 262 
Q 500 475 362 862 
Q 225 1250 250 1612 
z
M 1025 787 
Q 1250 550 1625 525 
Q 2000 500 2250 775 
Q 2500 1050 2500 1575 
Q 2500 2100 2187 2300 
Q 1875 2500 1487 2450 
Q 1100 2400 925 2075 
Q 750 1750 775 1387 
Q 800 1025 1025 787 
z
" transform="scale(0.015625)"/>
       </defs>
       <use xlink:href="#SimHei-36"/>
      </g>
     </g>
    </g>
    <g id="ytick_3">
     <g id="line2d_15">
      <path d="M 103.68 112.444171 
L 518.4 112.444171 
" clip-path="url(#pae10fcce1d)" style="fill: none; stroke: #d0d0d0; stroke-width: 0.8; stroke-linecap: square"/>
     </g>
     <g id="line2d_16">
      <g>
       <use xlink:href="#mccb8630a1a" x="518.4" y="112.444171" style="fill: #101010; stroke: #101010; stroke-width: 0.8"/>
      </g>
     </g>
     <g id="text_3">
      <!-- 8 -->
      <g style="fill: #101010" transform="translate(525.4 115.881671) scale(0.1 -0.1)">
       <defs>
        <path id="SimHei-38" d="M 175 1375 
Q 175 1675 325 1962 
Q 475 2250 825 2425 
Q 525 2600 425 2812 
Q 325 3025 312 3300 
Q 300 3575 387 3775 
Q 475 3975 650 4150 
Q 825 4325 1037 4387 
Q 1250 4450 1500 4450 
Q 1750 4450 1950 4400 
Q 2150 4350 2375 4187 
Q 2600 4025 2700 3725 
Q 2800 3425 2687 3025 
Q 2575 2625 2100 2400 
Q 2525 2275 2700 2012 
Q 2875 1750 2875 1375 
Q 2875 1000 2762 775 
Q 2650 550 2512 400 
Q 2375 250 2137 162 
Q 1900 75 1537 75 
Q 1175 75 912 162 
Q 650 250 475 425 
Q 300 600 237 837 
Q 175 1075 175 1375 
z
M 687 1400 
Q 675 1100 787 875 
Q 900 650 1200 587 
Q 1500 525 1825 600 
Q 2150 675 2275 950 
Q 2400 1225 2362 1500 
Q 2325 1775 2050 1962 
Q 1775 2150 1450 2125 
Q 1125 2100 912 1900 
Q 700 1700 687 1400 
z
M 775 3350 
Q 775 3100 950 2875 
Q 1125 2650 1500 2650 
Q 1875 2650 2062 2875 
Q 2250 3100 2237 3412 
Q 2225 3725 2012 3875 
Q 1800 4025 1437 4000 
Q 1075 3975 925 3787 
Q 775 3600 775 3350 
z
" transform="scale(0.015625)"/>
       </defs>
       <use xlink:href="#SimHei-38"/>
      </g>
     </g>
    </g>
    <g id="ytick_4">
     <g id="line2d_17">
      <path d="M 103.68 78.005668 
L 518.4 78.005668 
" clip-path="url(#pae10fcce1d)" style="fill: none; stroke: #d0d0d0; stroke-width: 0.8; stroke-linecap: square"/>
     </g>
     <g id="line2d_18">
      <g>
       <use xlink:href="#mccb8630a1a" x="518.4" y="78.005668" style="fill: #101010; stroke: #101010; stroke-width: 0.8"/>
      </g>
     </g>
     <g id="text_4">
      <!-- 10 -->
      <g style="fill: #101010" transform="translate(525.4 81.443168) scale(0.1 -0.1)">
       <defs>
        <path id="SimHei-31" d="M 1400 3600 
Q 1075 3275 575 2975 
L 575 3450 
Q 1200 3875 1600 4450 
L 1900 4450 
L 1900 150 
L 1400 150 
L 1400 3600 
z
" transform="scale(0.015625)"/>
        <path id="SimHei-30" d="M 225 2537 
Q 250 3200 412 3587 
Q 575 3975 875 4225 
Q 1175 4475 1612 4475 
Q 2050 4475 2375 4112 
Q 2700 3750 2800 3200 
Q 2900 2650 2862 1937 
Q 2825 1225 2612 775 
Q 2400 325 1975 150 
Q 1550 -25 1125 187 
Q 700 400 525 750 
Q 350 1100 275 1487 
Q 200 1875 225 2537 
z
M 750 2687 
Q 675 2000 800 1462 
Q 925 925 1212 700 
Q 1500 475 1800 612 
Q 2100 750 2237 1162 
Q 2375 1575 2375 2062 
Q 2375 2550 2337 2950 
Q 2300 3350 2112 3675 
Q 1925 4000 1612 4012 
Q 1300 4025 1062 3700 
Q 825 3375 750 2687 
z
" transform="scale(0.015625)"/>
       </defs>
       <use xlink:href="#SimHei-31"/>
       <use xlink:href="#SimHei-30" x="50"/>
      </g>
     </g>
    </g>
    <g id="text_5">
     <!-- price -->
     <g style="fill: #101010" transform="translate(546.275 142.68) rotate(-90) scale(0.1 -0.1)">
      <defs>
       <path id="SimHei-70" d="M 2825 1525 
Q 2825 800 2475 425 
Q 2125 50 1625 50 
Q 1350 50 1150 162 
Q 950 275 800 500 
L 800 -800 
L 300 -800 
L 300 2925 
L 800 2925 
L 800 2550 
Q 950 2775 1150 2875 
Q 1350 2975 1625 2975 
Q 2125 2975 2475 2612 
Q 2825 2250 2825 1525 
z
M 2275 1525 
Q 2275 2000 2087 2262 
Q 1900 2525 1525 2525 
Q 1225 2525 1012 2262 
Q 800 2000 800 1525 
Q 800 1050 1012 775 
Q 1225 500 1525 500 
Q 1900 500 2087 775 
Q 2275 1050 2275 1525 
z
" transform="scale(0.015625)"/>
       <path id="SimHei-72" d="M 2500 2425 
Q 2025 2500 1700 2287 
Q 1375 2075 1150 1550 
L 1150 125 
L 650 125 
L 650 2925 
L 1150 2925 
L 1150 2200 
Q 1375 2600 1712 2787 
Q 2050 2975 2500 2975 
L 2500 2425 
z
" transform="scale(0.015625)"/>
       <path id="SimHei-69" d="M 1800 3725 
L 1300 3725 
L 1300 4375 
L 1800 4375 
L 1800 3725 
z
M 1800 125 
L 1300 125 
L 1300 2925 
L 1800 2925 
L 1800 125 
z
" transform="scale(0.015625)"/>
       <path id="SimHei-63" d="M 2850 1250 
Q 2850 725 2487 400 
Q 2125 75 1575 75 
Q 1025 75 625 462 
Q 225 850 225 1525 
Q 225 2200 625 2587 
Q 1025 2975 1575 2975 
Q 2125 2975 2450 2687 
Q 2775 2400 2775 2000 
L 2225 2000 
Q 2200 2300 2012 2412 
Q 1825 2525 1575 2525 
Q 1275 2525 1025 2287 
Q 775 2050 775 1525 
Q 775 1000 1025 762 
Q 1275 525 1575 525 
Q 1900 525 2100 700 
Q 2300 875 2300 1250 
L 2850 1250 
z
" transform="scale(0.015625)"/>
       <path id="SimHei-65" d="M 2850 1075 
Q 2800 625 2450 350 
Q 2100 75 1625 75 
Q 1025 75 637 462 
Q 250 850 250 1525 
Q 250 2200 637 2587 
Q 1025 2975 1625 2975 
Q 2150 2975 2487 2637 
Q 2825 2300 2825 1525 
L 800 1525 
Q 800 975 1037 750 
Q 1275 525 1625 525 
Q 1900 525 2075 662 
Q 2250 800 2300 1075 
L 2850 1075 
z
M 2250 1925 
Q 2200 2275 2025 2412 
Q 1850 2550 1575 2550 
Q 1325 2550 1125 2412 
Q 925 2275 825 1925 
L 2250 1925 
z
" transform="scale(0.015625)"/>
      </defs>
      <use xlink:href="#SimHei-70"/>
      <use xlink:href="#SimHei-72" x="50"/>
      <use xlink:href="#SimHei-69" x="100"/>
      <use xlink:href="#SimHei-63" x="150"/>
      <use xlink:href="#SimHei-65" x="200"/>
     </g>
    </g>
   </g>
   <g id="PolyCollection_1">
    <path d="M 127.761226 202.673048 
L 127.761226 203.017433 
L 133.692687 203.017433 
L 133.692687 202.673048 
z
" clip-path="url(#pae10fcce1d)" style="fill: #008000; fill-opacity: 0.9; stroke: #000000; stroke-width: 0.941667"/>
    <path d="M 136.147879 203.017433 
L 136.147879 202.673048 
L 142.07934 202.673048 
L 142.07934 203.017433 
z
" clip-path="url(#pae10fcce1d)" style="fill: #ff0000; fill-opacity: 0.9; stroke: #000000; stroke-width: 0.941667"/>
    <path d="M 144.534533 202.673048 
L 144.534533 202.845241 
L 150.465993 202.845241 
L 150.465993 202.673048 
z
" clip-path="url(#pae10fcce1d)" style="fill: #008000; fill-opacity: 0.9; stroke: #000000; stroke-width: 0.941667"/>
    <path d="M 152.921186 200.262353 
L 152.921186 201.812086 
L 158.852646 201.812086 
L 158.852646 200.262353 
z
" clip-path="url(#pae10fcce1d)" style="fill: #008000; fill-opacity: 0.9; stroke: #000000; stroke-width: 0.941667"/>
    <path d="M 161.307839 202.328663 
L 161.307839 202.673048 
L 167.239299 202.673048 
L 167.239299 202.328663 
z
" clip-path="url(#pae10fcce1d)" style="fill: #008000; fill-opacity: 0.9; stroke: #000000; stroke-width: 0.941667"/>
    <path d="M 169.694492 202.500856 
L 169.694492 200.09016 
L 175.625953 200.09016 
L 175.625953 202.500856 
z
" clip-path="url(#pae10fcce1d)" style="fill: #ff0000; fill-opacity: 0.9; stroke: #000000; stroke-width: 0.941667"/>
    <path d="M 178.081145 200.77893 
L 178.081145 200.434545 
L 184.012606 200.434545 
L 184.012606 200.77893 
z
" clip-path="url(#pae10fcce1d)" style="fill: #ff0000; fill-opacity: 0.9; stroke: #000000; stroke-width: 0.941667"/>
    <path d="M 186.467799 200.606738 
L 186.467799 201.639893 
L 192.399259 201.639893 
L 192.399259 200.606738 
z
" clip-path="url(#pae10fcce1d)" style="fill: #008000; fill-opacity: 0.9; stroke: #000000; stroke-width: 0.941667"/>
    <path d="M 194.854452 201.812086 
L 194.854452 199.745775 
L 200.785912 199.745775 
L 200.785912 201.812086 
z
" clip-path="url(#pae10fcce1d)" style="fill: #ff0000; fill-opacity: 0.9; stroke: #000000; stroke-width: 0.941667"/>
    <path d="M 203.241105 200.262353 
L 203.241105 201.984278 
L 209.172565 201.984278 
L 209.172565 200.262353 
z
" clip-path="url(#pae10fcce1d)" style="fill: #008000; fill-opacity: 0.9; stroke: #000000; stroke-width: 0.941667"/>
    <path d="M 211.627758 201.467701 
L 211.627758 201.812086 
L 217.559219 201.812086 
L 217.559219 201.467701 
z
" clip-path="url(#pae10fcce1d)" style="fill: #008000; fill-opacity: 0.9; stroke: #000000; stroke-width: 0.941667"/>
    <path d="M 220.014411 201.812086 
L 220.014411 201.812086 
L 225.945872 201.812086 
L 225.945872 201.812086 
z
" clip-path="url(#pae10fcce1d)" style="fill: #008000; fill-opacity: 0.9; stroke: #000000; stroke-width: 0.941667"/>
    <path d="M 228.401065 201.984278 
L 228.401065 201.984278 
L 234.332525 201.984278 
L 234.332525 201.984278 
z
" clip-path="url(#pae10fcce1d)" style="fill: #008000; fill-opacity: 0.9; stroke: #000000; stroke-width: 0.941667"/>
    <path d="M 236.787718 202.156471 
L 236.787718 202.156471 
L 242.719178 202.156471 
L 242.719178 202.156471 
z
" clip-path="url(#pae10fcce1d)" style="fill: #008000; fill-opacity: 0.9; stroke: #000000; stroke-width: 0.941667"/>
    <path d="M 245.174371 202.328663 
L 245.174371 201.639893 
L 251.105831 201.639893 
L 251.105831 202.328663 
z
" clip-path="url(#pae10fcce1d)" style="fill: #ff0000; fill-opacity: 0.9; stroke: #000000; stroke-width: 0.941667"/>
    <path d="M 253.561024 201.812086 
L 253.561024 201.812086 
L 259.492485 201.812086 
L 259.492485 201.812086 
z
" clip-path="url(#pae10fcce1d)" style="fill: #008000; fill-opacity: 0.9; stroke: #000000; stroke-width: 0.941667"/>
    <path d="M 261.947677 201.984278 
L 261.947677 201.639893 
L 267.879138 201.639893 
L 267.879138 201.984278 
z
" clip-path="url(#pae10fcce1d)" style="fill: #ff0000; fill-opacity: 0.9; stroke: #000000; stroke-width: 0.941667"/>
    <path d="M 270.33433 201.639893 
L 270.33433 202.673048 
L 276.265791 202.673048 
L 276.265791 201.639893 
z
" clip-path="url(#pae10fcce1d)" style="fill: #008000; fill-opacity: 0.9; stroke: #000000; stroke-width: 0.941667"/>
    <path d="M 278.720984 202.500856 
L 278.720984 202.328663 
L 284.652444 202.328663 
L 284.652444 202.500856 
z
" clip-path="url(#pae10fcce1d)" style="fill: #ff0000; fill-opacity: 0.9; stroke: #000000; stroke-width: 0.941667"/>
    <path d="M 287.107637 202.500856 
L 287.107637 199.40139 
L 293.039097 199.40139 
L 293.039097 202.500856 
z
" clip-path="url(#pae10fcce1d)" style="fill: #ff0000; fill-opacity: 0.9; stroke: #000000; stroke-width: 0.941667"/>
    <path d="M 295.49429 194.235615 
L 295.49429 194.924385 
L 301.42575 194.924385 
L 301.42575 194.235615 
z
" clip-path="url(#pae10fcce1d)" style="fill: #008000; fill-opacity: 0.9; stroke: #000000; stroke-width: 0.941667"/>
    <path d="M 303.880943 189.414225 
L 303.880943 189.414225 
L 309.812404 189.414225 
L 309.812404 189.414225 
z
" clip-path="url(#pae10fcce1d)" style="fill: #008000; fill-opacity: 0.9; stroke: #000000; stroke-width: 0.941667"/>
    <path d="M 312.267596 184.765027 
L 312.267596 183.387487 
L 318.199057 183.387487 
L 318.199057 184.765027 
z
" clip-path="url(#pae10fcce1d)" style="fill: #ff0000; fill-opacity: 0.9; stroke: #000000; stroke-width: 0.941667"/>
    <path d="M 320.65425 181.321176 
L 320.65425 177.877326 
L 326.58571 177.877326 
L 326.58571 181.321176 
z
" clip-path="url(#pae10fcce1d)" style="fill: #ff0000; fill-opacity: 0.9; stroke: #000000; stroke-width: 0.941667"/>
    <path d="M 329.040903 176.155401 
L 329.040903 173.572513 
L 334.972363 173.572513 
L 334.972363 176.155401 
z
" clip-path="url(#pae10fcce1d)" style="fill: #ff0000; fill-opacity: 0.9; stroke: #000000; stroke-width: 0.941667"/>
    <path d="M 337.427556 173.916898 
L 337.427556 165.82385 
L 343.359016 165.82385 
L 343.359016 173.916898 
z
" clip-path="url(#pae10fcce1d)" style="fill: #ff0000; fill-opacity: 0.9; stroke: #000000; stroke-width: 0.941667"/>
    <path d="M 345.814209 167.717968 
L 345.814209 166.168235 
L 351.74567 166.168235 
L 351.74567 167.717968 
z
" clip-path="url(#pae10fcce1d)" style="fill: #ff0000; fill-opacity: 0.9; stroke: #000000; stroke-width: 0.941667"/>
    <path d="M 354.200862 169.267701 
L 354.200862 157.730802 
L 360.132323 157.730802 
L 360.132323 169.267701 
z
" clip-path="url(#pae10fcce1d)" style="fill: #ff0000; fill-opacity: 0.9; stroke: #000000; stroke-width: 0.941667"/>
    <path d="M 362.587515 158.93615 
L 362.587515 154.114759 
L 368.518976 154.114759 
L 368.518976 158.93615 
z
" clip-path="url(#pae10fcce1d)" style="fill: #ff0000; fill-opacity: 0.9; stroke: #000000; stroke-width: 0.941667"/>
    <path d="M 370.974169 153.598182 
L 370.974169 144.471979 
L 376.905629 144.471979 
L 376.905629 153.598182 
z
" clip-path="url(#pae10fcce1d)" style="fill: #ff0000; fill-opacity: 0.9; stroke: #000000; stroke-width: 0.941667"/>
    <path d="M 379.360822 139.134011 
L 379.360822 133.968235 
L 385.292282 133.968235 
L 385.292282 139.134011 
z
" clip-path="url(#pae10fcce1d)" style="fill: #ff0000; fill-opacity: 0.9; stroke: #000000; stroke-width: 0.941667"/>
    <path d="M 387.747475 130.007807 
L 387.747475 127.769305 
L 393.678935 127.769305 
L 393.678935 130.007807 
z
" clip-path="url(#pae10fcce1d)" style="fill: #ff0000; fill-opacity: 0.9; stroke: #000000; stroke-width: 0.941667"/>
    <path d="M 396.134128 128.80246 
L 396.134128 115.543636 
L 402.065589 115.543636 
L 402.065589 128.80246 
z
" clip-path="url(#pae10fcce1d)" style="fill: #ff0000; fill-opacity: 0.9; stroke: #000000; stroke-width: 0.941667"/>
    <path d="M 404.520781 109.000321 
L 404.520781 105.039893 
L 410.452242 105.039893 
L 410.452242 109.000321 
z
" clip-path="url(#pae10fcce1d)" style="fill: #ff0000; fill-opacity: 0.9; stroke: #000000; stroke-width: 0.941667"/>
    <path d="M 412.907435 95.91369 
L 412.907435 90.575722 
L 418.838895 90.575722 
L 418.838895 95.91369 
z
" clip-path="url(#pae10fcce1d)" style="fill: #ff0000; fill-opacity: 0.9; stroke: #000000; stroke-width: 0.941667"/>
    <path d="M 421.294088 85.237754 
L 421.294088 74.561818 
L 427.225548 74.561818 
L 427.225548 85.237754 
z
" clip-path="url(#pae10fcce1d)" style="fill: #ff0000; fill-opacity: 0.9; stroke: #000000; stroke-width: 0.941667"/>
    <path d="M 429.680741 64.746845 
L 429.680741 79.211016 
L 435.612201 79.211016 
L 435.612201 64.746845 
z
" clip-path="url(#pae10fcce1d)" style="fill: #008000; fill-opacity: 0.9; stroke: #000000; stroke-width: 0.941667"/>
    <path d="M 438.067394 78.866631 
L 438.067394 78.005668 
L 443.998855 78.005668 
L 443.998855 78.866631 
z
" clip-path="url(#pae10fcce1d)" style="fill: #ff0000; fill-opacity: 0.9; stroke: #000000; stroke-width: 0.941667"/>
    <path d="M 446.454047 80.760749 
L 446.454047 74.561818 
L 452.385508 74.561818 
L 452.385508 80.760749 
z
" clip-path="url(#pae10fcce1d)" style="fill: #ff0000; fill-opacity: 0.9; stroke: #000000; stroke-width: 0.941667"/>
    <path d="M 454.840701 81.621711 
L 454.840701 56.998182 
L 460.772161 56.998182 
L 460.772161 81.621711 
z
" clip-path="url(#pae10fcce1d)" style="fill: #ff0000; fill-opacity: 0.9; stroke: #000000; stroke-width: 0.941667"/>
    <path d="M 463.227354 57.342567 
L 463.227354 76.283743 
L 469.158814 76.283743 
L 469.158814 57.342567 
z
" clip-path="url(#pae10fcce1d)" style="fill: #008000; fill-opacity: 0.9; stroke: #000000; stroke-width: 0.941667"/>
    <path d="M 471.614007 74.389626 
L 471.614007 76.283743 
L 477.545467 76.283743 
L 477.545467 74.389626 
z
" clip-path="url(#pae10fcce1d)" style="fill: #008000; fill-opacity: 0.9; stroke: #000000; stroke-width: 0.941667"/>
    <path d="M 480.00066 78.866631 
L 480.00066 87.304064 
L 485.932121 87.304064 
L 485.932121 78.866631 
z
" clip-path="url(#pae10fcce1d)" style="fill: #008000; fill-opacity: 0.9; stroke: #000000; stroke-width: 0.941667"/>
    <path d="M 488.387313 83.860214 
L 488.387313 86.615294 
L 494.318774 86.615294 
L 494.318774 83.860214 
z
" clip-path="url(#pae10fcce1d)" style="fill: #008000; fill-opacity: 0.9; stroke: #000000; stroke-width: 0.941667"/>
   </g>
   <g id="LineCollection_1">
    <path d="M 130.726957 203.361818 
L 130.726957 203.017433 
" clip-path="url(#pae10fcce1d)" style="fill: none; stroke: #000000; stroke-width: 0.941667"/>
    <path d="M 139.11361 203.189626 
L 139.11361 203.017433 
" clip-path="url(#pae10fcce1d)" style="fill: none; stroke: #000000; stroke-width: 0.941667"/>
    <path d="M 147.500263 203.189626 
L 147.500263 202.845241 
" clip-path="url(#pae10fcce1d)" style="fill: none; stroke: #000000; stroke-width: 0.941667"/>
    <path d="M 155.886916 202.156471 
L 155.886916 201.812086 
" clip-path="url(#pae10fcce1d)" style="fill: none; stroke: #000000; stroke-width: 0.941667"/>
    <path d="M 164.273569 202.673048 
L 164.273569 202.673048 
" clip-path="url(#pae10fcce1d)" style="fill: none; stroke: #000000; stroke-width: 0.941667"/>
    <path d="M 172.660222 202.845241 
L 172.660222 202.500856 
" clip-path="url(#pae10fcce1d)" style="fill: none; stroke: #000000; stroke-width: 0.941667"/>
    <path d="M 181.046876 200.951123 
L 181.046876 200.77893 
" clip-path="url(#pae10fcce1d)" style="fill: none; stroke: #000000; stroke-width: 0.941667"/>
    <path d="M 189.433529 201.812086 
L 189.433529 201.639893 
" clip-path="url(#pae10fcce1d)" style="fill: none; stroke: #000000; stroke-width: 0.941667"/>
    <path d="M 197.820182 202.156471 
L 197.820182 201.812086 
" clip-path="url(#pae10fcce1d)" style="fill: none; stroke: #000000; stroke-width: 0.941667"/>
    <path d="M 206.206835 201.984278 
L 206.206835 201.984278 
" clip-path="url(#pae10fcce1d)" style="fill: none; stroke: #000000; stroke-width: 0.941667"/>
    <path d="M 214.593488 202.673048 
L 214.593488 201.812086 
" clip-path="url(#pae10fcce1d)" style="fill: none; stroke: #000000; stroke-width: 0.941667"/>
    <path d="M 222.980142 203.017433 
L 222.980142 201.812086 
" clip-path="url(#pae10fcce1d)" style="fill: none; stroke: #000000; stroke-width: 0.941667"/>
    <path d="M 231.366795 202.328663 
L 231.366795 201.984278 
" clip-path="url(#pae10fcce1d)" style="fill: none; stroke: #000000; stroke-width: 0.941667"/>
    <path d="M 239.753448 202.328663 
L 239.753448 202.156471 
" clip-path="url(#pae10fcce1d)" style="fill: none; stroke: #000000; stroke-width: 0.941667"/>
    <path d="M 248.140101 202.500856 
L 248.140101 202.328663 
" clip-path="url(#pae10fcce1d)" style="fill: none; stroke: #000000; stroke-width: 0.941667"/>
    <path d="M 256.526754 201.984278 
L 256.526754 201.812086 
" clip-path="url(#pae10fcce1d)" style="fill: none; stroke: #000000; stroke-width: 0.941667"/>
    <path d="M 264.913407 201.984278 
L 264.913407 201.984278 
" clip-path="url(#pae10fcce1d)" style="fill: none; stroke: #000000; stroke-width: 0.941667"/>
    <path d="M 273.300061 202.845241 
L 273.300061 202.673048 
" clip-path="url(#pae10fcce1d)" style="fill: none; stroke: #000000; stroke-width: 0.941667"/>
    <path d="M 281.686714 202.845241 
L 281.686714 202.500856 
" clip-path="url(#pae10fcce1d)" style="fill: none; stroke: #000000; stroke-width: 0.941667"/>
    <path d="M 290.073367 202.500856 
L 290.073367 202.500856 
" clip-path="url(#pae10fcce1d)" style="fill: none; stroke: #000000; stroke-width: 0.941667"/>
    <path d="M 298.46002 196.474118 
L 298.46002 194.924385 
" clip-path="url(#pae10fcce1d)" style="fill: none; stroke: #000000; stroke-width: 0.941667"/>
    <path d="M 306.846673 189.414225 
L 306.846673 189.414225 
" clip-path="url(#pae10fcce1d)" style="fill: none; stroke: #000000; stroke-width: 0.941667"/>
    <path d="M 315.233327 186.314759 
L 315.233327 184.765027 
" clip-path="url(#pae10fcce1d)" style="fill: none; stroke: #000000; stroke-width: 0.941667"/>
    <path d="M 323.61998 181.321176 
L 323.61998 181.321176 
" clip-path="url(#pae10fcce1d)" style="fill: none; stroke: #000000; stroke-width: 0.941667"/>
    <path d="M 332.006633 178.049519 
L 332.006633 176.155401 
" clip-path="url(#pae10fcce1d)" style="fill: none; stroke: #000000; stroke-width: 0.941667"/>
    <path d="M 340.393286 176.327594 
L 340.393286 173.916898 
" clip-path="url(#pae10fcce1d)" style="fill: none; stroke: #000000; stroke-width: 0.941667"/>
    <path d="M 348.779939 169.267701 
L 348.779939 167.717968 
" clip-path="url(#pae10fcce1d)" style="fill: none; stroke: #000000; stroke-width: 0.941667"/>
    <path d="M 357.166593 170.128663 
L 357.166593 169.267701 
" clip-path="url(#pae10fcce1d)" style="fill: none; stroke: #000000; stroke-width: 0.941667"/>
    <path d="M 365.553246 159.969305 
L 365.553246 158.93615 
" clip-path="url(#pae10fcce1d)" style="fill: none; stroke: #000000; stroke-width: 0.941667"/>
    <path d="M 373.939899 153.598182 
L 373.939899 153.598182 
" clip-path="url(#pae10fcce1d)" style="fill: none; stroke: #000000; stroke-width: 0.941667"/>
    <path d="M 382.326552 141.372513 
L 382.326552 139.134011 
" clip-path="url(#pae10fcce1d)" style="fill: none; stroke: #000000; stroke-width: 0.941667"/>
    <path d="M 390.713205 138.100856 
L 390.713205 130.007807 
" clip-path="url(#pae10fcce1d)" style="fill: none; stroke: #000000; stroke-width: 0.941667"/>
    <path d="M 399.099858 128.80246 
L 399.099858 128.80246 
" clip-path="url(#pae10fcce1d)" style="fill: none; stroke: #000000; stroke-width: 0.941667"/>
    <path d="M 407.486512 115.543636 
L 407.486512 109.000321 
" clip-path="url(#pae10fcce1d)" style="fill: none; stroke: #000000; stroke-width: 0.941667"/>
    <path d="M 415.873165 100.390695 
L 415.873165 95.91369 
" clip-path="url(#pae10fcce1d)" style="fill: none; stroke: #000000; stroke-width: 0.941667"/>
    <path d="M 424.259818 86.615294 
L 424.259818 85.237754 
" clip-path="url(#pae10fcce1d)" style="fill: none; stroke: #000000; stroke-width: 0.941667"/>
    <path d="M 432.646471 89.025989 
L 432.646471 79.211016 
" clip-path="url(#pae10fcce1d)" style="fill: none; stroke: #000000; stroke-width: 0.941667"/>
    <path d="M 441.033124 84.721176 
L 441.033124 78.866631 
" clip-path="url(#pae10fcce1d)" style="fill: none; stroke: #000000; stroke-width: 0.941667"/>
    <path d="M 449.419778 85.582139 
L 449.419778 80.760749 
" clip-path="url(#pae10fcce1d)" style="fill: none; stroke: #000000; stroke-width: 0.941667"/>
    <path d="M 457.806431 84.204599 
L 457.806431 81.621711 
" clip-path="url(#pae10fcce1d)" style="fill: none; stroke: #000000; stroke-width: 0.941667"/>
    <path d="M 466.193084 76.283743 
L 466.193084 76.283743 
" clip-path="url(#pae10fcce1d)" style="fill: none; stroke: #000000; stroke-width: 0.941667"/>
    <path d="M 474.579737 81.277326 
L 474.579737 76.283743 
" clip-path="url(#pae10fcce1d)" style="fill: none; stroke: #000000; stroke-width: 0.941667"/>
    <path d="M 482.96639 92.986417 
L 482.96639 87.304064 
" clip-path="url(#pae10fcce1d)" style="fill: none; stroke: #000000; stroke-width: 0.941667"/>
    <path d="M 491.353043 88.165027 
L 491.353043 86.615294 
" clip-path="url(#pae10fcce1d)" style="fill: none; stroke: #000000; stroke-width: 0.941667"/>
    <path d="M 130.726957 202.500856 
L 130.726957 202.673048 
" clip-path="url(#pae10fcce1d)" style="fill: none; stroke: #000000; stroke-width: 0.941667"/>
    <path d="M 139.11361 202.673048 
L 139.11361 202.673048 
" clip-path="url(#pae10fcce1d)" style="fill: none; stroke: #000000; stroke-width: 0.941667"/>
    <path d="M 147.500263 202.673048 
L 147.500263 202.673048 
" clip-path="url(#pae10fcce1d)" style="fill: none; stroke: #000000; stroke-width: 0.941667"/>
    <path d="M 155.886916 200.262353 
L 155.886916 200.262353 
" clip-path="url(#pae10fcce1d)" style="fill: none; stroke: #000000; stroke-width: 0.941667"/>
    <path d="M 164.273569 202.156471 
L 164.273569 202.328663 
" clip-path="url(#pae10fcce1d)" style="fill: none; stroke: #000000; stroke-width: 0.941667"/>
    <path d="M 172.660222 199.573583 
L 172.660222 200.09016 
" clip-path="url(#pae10fcce1d)" style="fill: none; stroke: #000000; stroke-width: 0.941667"/>
    <path d="M 181.046876 197.507273 
L 181.046876 200.434545 
" clip-path="url(#pae10fcce1d)" style="fill: none; stroke: #000000; stroke-width: 0.941667"/>
    <path d="M 189.433529 199.917968 
L 189.433529 200.606738 
" clip-path="url(#pae10fcce1d)" style="fill: none; stroke: #000000; stroke-width: 0.941667"/>
    <path d="M 197.820182 198.02385 
L 197.820182 199.745775 
" clip-path="url(#pae10fcce1d)" style="fill: none; stroke: #000000; stroke-width: 0.941667"/>
    <path d="M 206.206835 200.09016 
L 206.206835 200.262353 
" clip-path="url(#pae10fcce1d)" style="fill: none; stroke: #000000; stroke-width: 0.941667"/>
    <path d="M 214.593488 201.295508 
L 214.593488 201.467701 
" clip-path="url(#pae10fcce1d)" style="fill: none; stroke: #000000; stroke-width: 0.941667"/>
    <path d="M 222.980142 201.639893 
L 222.980142 201.812086 
" clip-path="url(#pae10fcce1d)" style="fill: none; stroke: #000000; stroke-width: 0.941667"/>
    <path d="M 231.366795 201.467701 
L 231.366795 201.984278 
" clip-path="url(#pae10fcce1d)" style="fill: none; stroke: #000000; stroke-width: 0.941667"/>
    <path d="M 239.753448 201.639893 
L 239.753448 202.156471 
" clip-path="url(#pae10fcce1d)" style="fill: none; stroke: #000000; stroke-width: 0.941667"/>
    <path d="M 248.140101 201.639893 
L 248.140101 201.639893 
" clip-path="url(#pae10fcce1d)" style="fill: none; stroke: #000000; stroke-width: 0.941667"/>
    <path d="M 256.526754 201.295508 
L 256.526754 201.812086 
" clip-path="url(#pae10fcce1d)" style="fill: none; stroke: #000000; stroke-width: 0.941667"/>
    <path d="M 264.913407 200.951123 
L 264.913407 201.639893 
" clip-path="url(#pae10fcce1d)" style="fill: none; stroke: #000000; stroke-width: 0.941667"/>
    <path d="M 273.300061 201.295508 
L 273.300061 201.639893 
" clip-path="url(#pae10fcce1d)" style="fill: none; stroke: #000000; stroke-width: 0.941667"/>
    <path d="M 281.686714 202.156471 
L 281.686714 202.328663 
" clip-path="url(#pae10fcce1d)" style="fill: none; stroke: #000000; stroke-width: 0.941667"/>
    <path d="M 290.073367 197.851658 
L 290.073367 199.40139 
" clip-path="url(#pae10fcce1d)" style="fill: none; stroke: #000000; stroke-width: 0.941667"/>
    <path d="M 298.46002 194.235615 
L 298.46002 194.235615 
" clip-path="url(#pae10fcce1d)" style="fill: none; stroke: #000000; stroke-width: 0.941667"/>
    <path d="M 306.846673 189.414225 
L 306.846673 189.414225 
" clip-path="url(#pae10fcce1d)" style="fill: none; stroke: #000000; stroke-width: 0.941667"/>
    <path d="M 315.233327 183.387487 
L 315.233327 183.387487 
" clip-path="url(#pae10fcce1d)" style="fill: none; stroke: #000000; stroke-width: 0.941667"/>
    <path d="M 323.61998 176.671979 
L 323.61998 177.877326 
" clip-path="url(#pae10fcce1d)" style="fill: none; stroke: #000000; stroke-width: 0.941667"/>
    <path d="M 332.006633 170.645241 
L 332.006633 173.572513 
" clip-path="url(#pae10fcce1d)" style="fill: none; stroke: #000000; stroke-width: 0.941667"/>
    <path d="M 340.393286 165.82385 
L 340.393286 165.82385 
" clip-path="url(#pae10fcce1d)" style="fill: none; stroke: #000000; stroke-width: 0.941667"/>
    <path d="M 348.779939 161.519037 
L 348.779939 166.168235 
" clip-path="url(#pae10fcce1d)" style="fill: none; stroke: #000000; stroke-width: 0.941667"/>
    <path d="M 357.166593 157.730802 
L 357.166593 157.730802 
" clip-path="url(#pae10fcce1d)" style="fill: none; stroke: #000000; stroke-width: 0.941667"/>
    <path d="M 365.553246 151.015294 
L 365.553246 154.114759 
" clip-path="url(#pae10fcce1d)" style="fill: none; stroke: #000000; stroke-width: 0.941667"/>
    <path d="M 373.939899 144.471979 
L 373.939899 144.471979 
" clip-path="url(#pae10fcce1d)" style="fill: none; stroke: #000000; stroke-width: 0.941667"/>
    <path d="M 382.326552 133.968235 
L 382.326552 133.968235 
" clip-path="url(#pae10fcce1d)" style="fill: none; stroke: #000000; stroke-width: 0.941667"/>
    <path d="M 390.713205 125.014225 
L 390.713205 127.769305 
" clip-path="url(#pae10fcce1d)" style="fill: none; stroke: #000000; stroke-width: 0.941667"/>
    <path d="M 399.099858 115.543636 
L 399.099858 115.543636 
" clip-path="url(#pae10fcce1d)" style="fill: none; stroke: #000000; stroke-width: 0.941667"/>
    <path d="M 407.486512 102.11262 
L 407.486512 105.039893 
" clip-path="url(#pae10fcce1d)" style="fill: none; stroke: #000000; stroke-width: 0.941667"/>
    <path d="M 415.873165 90.575722 
L 415.873165 90.575722 
" clip-path="url(#pae10fcce1d)" style="fill: none; stroke: #000000; stroke-width: 0.941667"/>
    <path d="M 424.259818 74.561818 
L 424.259818 74.561818 
" clip-path="url(#pae10fcce1d)" style="fill: none; stroke: #000000; stroke-width: 0.941667"/>
    <path d="M 432.646471 57.514759 
L 432.646471 64.746845 
" clip-path="url(#pae10fcce1d)" style="fill: none; stroke: #000000; stroke-width: 0.941667"/>
    <path d="M 441.033124 73.528663 
L 441.033124 78.005668 
" clip-path="url(#pae10fcce1d)" style="fill: none; stroke: #000000; stroke-width: 0.941667"/>
    <path d="M 449.419778 62.508342 
L 449.419778 74.561818 
" clip-path="url(#pae10fcce1d)" style="fill: none; stroke: #000000; stroke-width: 0.941667"/>
    <path d="M 457.806431 56.998182 
L 457.806431 56.998182 
" clip-path="url(#pae10fcce1d)" style="fill: none; stroke: #000000; stroke-width: 0.941667"/>
    <path d="M 466.193084 57.342567 
L 466.193084 57.342567 
" clip-path="url(#pae10fcce1d)" style="fill: none; stroke: #000000; stroke-width: 0.941667"/>
    <path d="M 474.579737 71.29016 
L 474.579737 74.389626 
" clip-path="url(#pae10fcce1d)" style="fill: none; stroke: #000000; stroke-width: 0.941667"/>
    <path d="M 482.96639 75.078396 
L 482.96639 78.866631 
" clip-path="url(#pae10fcce1d)" style="fill: none; stroke: #000000; stroke-width: 0.941667"/>
    <path d="M 491.353043 78.694439 
L 491.353043 83.860214 
" clip-path="url(#pae10fcce1d)" style="fill: none; stroke: #000000; stroke-width: 0.941667"/>
   </g>
   <g id="line2d_19">
    <path d="M 164.273569 202.604171 
L 172.660222 202.018717 
L 181.046876 201.571016 
L 189.433529 201.329947 
L 197.820182 200.916684 
L 206.206835 200.77893 
L 214.593488 201.123316 
L 222.980142 201.398824 
L 231.366795 201.467701 
L 239.753448 201.94984 
L 248.140101 201.880963 
L 256.526754 201.880963 
L 264.913407 201.846524 
L 273.300061 201.984278 
L 281.686714 202.018717 
L 290.073367 201.571016 
L 298.46002 200.193476 
L 306.846673 197.748342 
L 315.233327 193.89123 
L 323.61998 189.000963 
L 332.006633 183.835187 
L 340.393286 178.01508 
L 348.779939 173.365882 
L 357.166593 168.234545 
L 365.553246 163.482032 
L 373.939899 157.661925 
L 382.326552 151.290802 
L 390.713205 143.611016 
L 399.099858 135.173583 
L 407.486512 125.35861 
L 415.873165 114.579358 
L 424.259818 102.698075 
L 432.646471 92.986417 
L 441.033124 85.478824 
L 449.419778 79.383209 
L 457.806431 72.667701 
L 466.193084 73.012086 
L 474.579737 72.426631 
L 482.96639 74.28631 
L 491.353043 76.697005 
" clip-path="url(#pae10fcce1d)" style="fill: none; stroke: #0000ff; stroke-linecap: square"/>
   </g>
   <g id="line2d_20">
    <path d="M 206.206835 201.691551 
L 214.593488 201.571016 
L 222.980142 201.48492 
L 231.366795 201.398824 
L 239.753448 201.433262 
L 248.140101 201.329947 
L 256.526754 201.502139 
L 264.913407 201.622674 
L 273.300061 201.725989 
L 281.686714 201.984278 
L 290.073367 201.725989 
L 298.46002 201.037219 
L 306.846673 199.797433 
L 315.233327 197.937754 
L 323.61998 195.50984 
L 332.006633 192.703102 
L 340.393286 189.104278 
L 348.779939 185.557112 
L 357.166593 181.062888 
L 365.553246 176.241497 
L 373.939899 170.748556 
L 382.326552 164.652941 
L 390.713205 158.488449 
L 399.099858 151.704064 
L 407.486512 144.420321 
L 415.873165 136.120642 
L 424.259818 126.994439 
L 432.646471 118.298717 
L 441.033124 110.326203 
L 449.419778 102.370909 
L 457.806431 93.623529 
L 466.193084 87.85508 
L 474.579737 82.706524 
L 482.96639 79.882567 
L 491.353043 78.040107 
" clip-path="url(#pae10fcce1d)" style="fill: none; stroke: #ffa500; stroke-linecap: square"/>
   </g>
   <g id="line2d_21">
    <path d="M 290.073367 201.70877 
L 298.46002 201.304118 
L 306.846673 200.641176 
L 315.233327 199.668289 
L 323.61998 198.471551 
L 332.006633 197.016524 
L 340.393286 195.303209 
L 348.779939 193.589893 
L 357.166593 191.394439 
L 365.553246 189.112888 
L 373.939899 186.237273 
L 382.326552 182.84508 
L 390.713205 179.142941 
L 399.099858 174.820909 
L 407.486512 169.96508 
L 415.873165 164.411872 
L 424.259818 158.049358 
L 432.646471 151.927914 
L 441.033124 145.694545 
L 449.419778 139.306203 
L 457.806431 132.186043 
L 466.193084 126.254011 
L 474.579737 120.597487 
L 482.96639 115.793316 
L 491.353043 111.230214 
" clip-path="url(#pae10fcce1d)" style="fill: none; stroke: #008000; stroke-linecap: square"/>
   </g>
   <g id="patch_3">
    <path d="M 103.68 210.68 
L 103.68 49.68 
" style="fill: none; stroke: #f0f0f0; stroke-width: 0.8; stroke-linejoin: miter; stroke-linecap: square"/>
   </g>
   <g id="patch_4">
    <path d="M 518.4 210.68 
L 518.4 49.68 
" style="fill: none; stroke: #f0f0f0; stroke-width: 0.8; stroke-linejoin: miter; stroke-linecap: square"/>
   </g>
   <g id="patch_5">
    <path d="M 103.68 210.68 
L 518.4 210.68 
" style="fill: none; stroke: #f0f0f0; stroke-width: 0.8; stroke-linejoin: miter; stroke-linecap: square"/>
   </g>
   <g id="patch_6">
    <path d="M 103.68 49.68 
L 518.4 49.68 
" style="fill: none; stroke: #f0f0f0; stroke-width: 0.8; stroke-linejoin: miter; stroke-linecap: square"/>
   </g>
   <g id="legend_1">
    <g id="patch_7">
     <path d="M 110.68 205.68 
L 162.68 205.68 
Q 164.68 205.68 164.68 203.68 
L 164.68 164.93 
Q 164.68 162.93 162.68 162.93 
L 110.68 162.93 
Q 108.68 162.93 108.68 164.93 
L 108.68 203.68 
Q 108.68 205.68 110.68 205.68 
z
" style="fill: #fafafa; opacity: 0.8; stroke: #cccccc; stroke-linejoin: miter"/>
    </g>
    <g id="line2d_22">
     <path d="M 112.68 170.43 
L 122.68 170.43 
L 132.68 170.43 
" style="fill: none; stroke: #0000ff; stroke-width: 2; stroke-linecap: square"/>
    </g>
    <g id="text_6">
     <!-- MA5 -->
     <g transform="translate(140.68 173.93) scale(0.1 -0.1)">
      <defs>
       <path id="SimHei-4d" d="M 2925 125 
L 2425 125 
L 2425 3175 
L 2375 3175 
L 1775 125 
L 1375 125 
L 775 3175 
L 725 3175 
L 725 125 
L 225 125 
L 225 4400 
L 1000 4400 
L 1550 1575 
L 1600 1575 
L 2150 4400 
L 2925 4400 
L 2925 125 
z
" transform="scale(0.015625)"/>
       <path id="SimHei-41" d="M 3075 125 
L 2475 125 
L 2125 1450 
L 1025 1450 
L 675 125 
L 75 125 
L 1325 4450 
L 1825 4450 
L 3075 125 
z
M 2000 1925 
L 1600 3450 
L 1550 3450 
L 1150 1925 
L 2000 1925 
z
" transform="scale(0.015625)"/>
       <path id="SimHei-35" d="M 550 1325 
Q 725 650 1150 575 
Q 1575 500 1837 662 
Q 2100 825 2212 1087 
Q 2325 1350 2312 1675 
Q 2300 2000 2137 2225 
Q 1975 2450 1725 2525 
Q 1475 2600 1162 2525 
Q 850 2450 650 2175 
L 225 2225 
Q 275 2375 700 4375 
L 2675 4375 
L 2675 3925 
L 1075 3925 
Q 950 3250 825 2850 
Q 1200 3025 1525 3012 
Q 1850 3000 2150 2862 
Q 2450 2725 2587 2487 
Q 2725 2250 2787 2012 
Q 2850 1775 2837 1500 
Q 2825 1225 2725 937 
Q 2625 650 2425 462 
Q 2225 275 1937 162 
Q 1650 50 1275 75 
Q 900 100 562 350 
Q 225 600 100 1200 
L 550 1325 
z
" transform="scale(0.015625)"/>
      </defs>
      <use xlink:href="#SimHei-4d"/>
      <use xlink:href="#SimHei-41" x="50"/>
      <use xlink:href="#SimHei-35" x="100"/>
     </g>
    </g>
    <g id="line2d_23">
     <path d="M 112.68 183.68 
L 122.68 183.68 
L 132.68 183.68 
" style="fill: none; stroke: #ffa500; stroke-width: 2; stroke-linecap: square"/>
    </g>
    <g id="text_7">
     <!-- MA10 -->
     <g transform="translate(140.68 187.18) scale(0.1 -0.1)">
      <use xlink:href="#SimHei-4d"/>
      <use xlink:href="#SimHei-41" x="50"/>
      <use xlink:href="#SimHei-31" x="100"/>
      <use xlink:href="#SimHei-30" x="150"/>
     </g>
    </g>
    <g id="line2d_24">
     <path d="M 112.68 196.93 
L 122.68 196.93 
L 132.68 196.93 
" style="fill: none; stroke: #008000; stroke-width: 2; stroke-linecap: square"/>
    </g>
    <g id="text_8">
     <!-- MA20 -->
     <g transform="translate(140.68 200.43) scale(0.1 -0.1)">
      <defs>
       <path id="SimHei-32" d="M 300 250 
Q 325 625 650 925 
Q 975 1225 1475 1862 
Q 1975 2500 2125 2850 
Q 2275 3200 2237 3450 
Q 2200 3700 2000 3862 
Q 1800 4025 1537 4000 
Q 1275 3975 1037 3800 
Q 800 3625 675 3275 
L 200 3350 
Q 400 3925 712 4187 
Q 1025 4450 1450 4475 
Q 1700 4500 1900 4462 
Q 2100 4425 2312 4287 
Q 2525 4150 2662 3875 
Q 2800 3600 2762 3212 
Q 2725 2825 2375 2287 
Q 2025 1750 1025 600 
L 2825 600 
L 2825 150 
L 300 150 
L 300 250 
z
" transform="scale(0.015625)"/>
      </defs>
      <use xlink:href="#SimHei-4d"/>
      <use xlink:href="#SimHei-41" x="50"/>
      <use xlink:href="#SimHei-32" x="100"/>
      <use xlink:href="#SimHei-30" x="150"/>
     </g>
    </g>
   </g>
  </g>
  <g id="axes_2">
   <g id="patch_8">
    <path d="M 103.68 275.08 
L 518.4 275.08 
L 518.4 210.68 
L 103.68 210.68 
z
" style="fill: #fafafa"/>
   </g>
   <g id="matplotlib.axis_3">
    <g id="xtick_6">
     <g id="line2d_25">
      <path d="M 130.726957 275.08 
L 130.726957 210.68 
" clip-path="url(#pbc4a390db4)" style="fill: none; stroke: #d0d0d0; stroke-width: 0.8; stroke-linecap: square"/>
     </g>
     <g id="line2d_26">
      <g>
       <use xlink:href="#m2024c2bf9c" x="130.726957" y="275.08" style="fill: #101010; stroke: #101010; stroke-width: 0.8"/>
      </g>
     </g>
    </g>
    <g id="xtick_7">
     <g id="line2d_27">
      <path d="M 214.593488 275.08 
L 214.593488 210.68 
" clip-path="url(#pbc4a390db4)" style="fill: none; stroke: #d0d0d0; stroke-width: 0.8; stroke-linecap: square"/>
     </g>
     <g id="line2d_28">
      <g>
       <use xlink:href="#m2024c2bf9c" x="214.593488" y="275.08" style="fill: #101010; stroke: #101010; stroke-width: 0.8"/>
      </g>
     </g>
    </g>
    <g id="xtick_8">
     <g id="line2d_29">
      <path d="M 298.46002 275.08 
L 298.46002 210.68 
" clip-path="url(#pbc4a390db4)" style="fill: none; stroke: #d0d0d0; stroke-width: 0.8; stroke-linecap: square"/>
     </g>
     <g id="line2d_30">
      <g>
       <use xlink:href="#m2024c2bf9c" x="298.46002" y="275.08" style="fill: #101010; stroke: #101010; stroke-width: 0.8"/>
      </g>
     </g>
    </g>
    <g id="xtick_9">
     <g id="line2d_31">
      <path d="M 382.326552 275.08 
L 382.326552 210.68 
" clip-path="url(#pbc4a390db4)" style="fill: none; stroke: #d0d0d0; stroke-width: 0.8; stroke-linecap: square"/>
     </g>
     <g id="line2d_32">
      <g>
       <use xlink:href="#m2024c2bf9c" x="382.326552" y="275.08" style="fill: #101010; stroke: #101010; stroke-width: 0.8"/>
      </g>
     </g>
    </g>
    <g id="xtick_10">
     <g id="line2d_33">
      <path d="M 466.193084 275.08 
L 466.193084 210.68 
" clip-path="url(#pbc4a390db4)" style="fill: none; stroke: #d0d0d0; stroke-width: 0.8; stroke-linecap: square"/>
     </g>
     <g id="line2d_34">
      <g>
       <use xlink:href="#m2024c2bf9c" x="466.193084" y="275.08" style="fill: #101010; stroke: #101010; stroke-width: 0.8"/>
      </g>
     </g>
    </g>
   </g>
   <g id="matplotlib.axis_4">
    <g id="ytick_5">
     <g id="line2d_35">
      <path d="M 103.68 253.25863 
L 518.4 253.25863 
" clip-path="url(#pbc4a390db4)" style="fill: none; stroke: #d0d0d0; stroke-width: 0.8; stroke-linecap: square"/>
     </g>
     <g id="line2d_36">
      <g>
       <use xlink:href="#mccb8630a1a" x="518.4" y="253.25863" style="fill: #101010; stroke: #101010; stroke-width: 0.8"/>
      </g>
     </g>
     <g id="text_9">
      <!-- 2 -->
      <g style="fill: #101010" transform="translate(525.4 256.69613) scale(0.1 -0.1)">
       <use xlink:href="#SimHei-32"/>
      </g>
     </g>
    </g>
    <g id="ytick_6">
     <g id="line2d_37">
      <path d="M 103.68 231.277802 
L 518.4 231.277802 
" clip-path="url(#pbc4a390db4)" style="fill: none; stroke: #d0d0d0; stroke-width: 0.8; stroke-linecap: square"/>
     </g>
     <g id="line2d_38">
      <g>
       <use xlink:href="#mccb8630a1a" x="518.4" y="231.277802" style="fill: #101010; stroke: #101010; stroke-width: 0.8"/>
      </g>
     </g>
     <g id="text_10">
      <!-- 4 -->
      <g style="fill: #101010" transform="translate(525.4 234.715302) scale(0.1 -0.1)">
       <use xlink:href="#SimHei-34"/>
      </g>
     </g>
    </g>
    <g id="text_11">
     <!-- volume -->
     <g style="fill: #101010" transform="translate(541.275 257.88) rotate(-90) scale(0.1 -0.1)">
      <defs>
       <path id="SimHei-76" d="M 2875 2925 
L 1825 75 
L 1275 75 
L 225 2925 
L 750 2925 
L 1525 750 
L 1575 750 
L 2350 2925 
L 2875 2925 
z
" transform="scale(0.015625)"/>
       <path id="SimHei-6f" d="M 2925 1525 
Q 2925 875 2525 475 
Q 2125 75 1575 75 
Q 1025 75 625 475 
Q 225 875 225 1525 
Q 225 2175 625 2575 
Q 1025 2975 1575 2975 
Q 2125 2975 2525 2575 
Q 2925 2175 2925 1525 
z
M 2375 1525 
Q 2375 2025 2125 2275 
Q 1875 2525 1575 2525 
Q 1275 2525 1025 2275 
Q 775 2025 775 1525 
Q 775 1025 1025 775 
Q 1275 525 1575 525 
Q 1875 525 2125 775 
Q 2375 1025 2375 1525 
z
" transform="scale(0.015625)"/>
       <path id="SimHei-6c" d="M 1825 125 
L 1325 125 
L 1325 4400 
L 1825 4400 
L 1825 125 
z
" transform="scale(0.015625)"/>
       <path id="SimHei-75" d="M 2800 125 
L 2300 125 
L 2300 650 
Q 2100 375 1862 225 
Q 1625 75 1250 75 
Q 800 75 575 325 
Q 350 575 350 950 
L 350 2925 
L 850 2925 
L 850 1125 
Q 850 825 1000 650 
Q 1150 475 1400 475 
Q 1725 475 2012 812 
Q 2300 1150 2300 1650 
L 2300 2925 
L 2800 2925 
L 2800 125 
z
" transform="scale(0.015625)"/>
       <path id="SimHei-6d" d="M 3050 125 
L 2550 125 
L 2550 2150 
Q 2550 2300 2500 2400 
Q 2450 2500 2300 2500 
Q 2125 2500 1975 2312 
Q 1825 2125 1825 1825 
L 1825 125 
L 1325 125 
L 1325 2150 
Q 1325 2300 1275 2400 
Q 1225 2500 1075 2500 
Q 900 2500 750 2312 
Q 600 2125 600 1825 
L 600 125 
L 100 125 
L 100 2925 
L 600 2925 
L 600 2550 
Q 725 2750 900 2862 
Q 1075 2975 1275 2975 
Q 1475 2975 1612 2862 
Q 1750 2750 1800 2550 
Q 1925 2750 2087 2862 
Q 2250 2975 2450 2975 
Q 2750 2975 2900 2812 
Q 3050 2650 3050 2350 
L 3050 125 
z
" transform="scale(0.015625)"/>
      </defs>
      <use xlink:href="#SimHei-76"/>
      <use xlink:href="#SimHei-6f" x="50"/>
      <use xlink:href="#SimHei-6c" x="100"/>
      <use xlink:href="#SimHei-75" x="150"/>
      <use xlink:href="#SimHei-6d" x="200"/>
      <use xlink:href="#SimHei-65" x="250"/>
     </g>
     <!--  -->
     <g style="fill: #101010" transform="translate(550.775 242.88) rotate(-90) scale(0.1 -0.1)"/>
     <!--   $10^{6}$ -->
     <g style="fill: #101010" transform="translate(561.685 256.68) rotate(-90) scale(0.1 -0.1)">
      <defs>
       <path id="SimHei-20" transform="scale(0.015625)"/>
       <path id="DejaVuSans-31" d="M 794 531 
L 1825 531 
L 1825 4091 
L 703 3866 
L 703 4441 
L 1819 4666 
L 2450 4666 
L 2450 531 
L 3481 531 
L 3481 0 
L 794 0 
L 794 531 
z
" transform="scale(0.015625)"/>
       <path id="DejaVuSans-30" d="M 2034 4250 
Q 1547 4250 1301 3770 
Q 1056 3291 1056 2328 
Q 1056 1369 1301 889 
Q 1547 409 2034 409 
Q 2525 409 2770 889 
Q 3016 1369 3016 2328 
Q 3016 3291 2770 3770 
Q 2525 4250 2034 4250 
z
M 2034 4750 
Q 2819 4750 3233 4129 
Q 3647 3509 3647 2328 
Q 3647 1150 3233 529 
Q 2819 -91 2034 -91 
Q 1250 -91 836 529 
Q 422 1150 422 2328 
Q 422 3509 836 4129 
Q 1250 4750 2034 4750 
z
" transform="scale(0.015625)"/>
       <path id="DejaVuSans-36" d="M 2113 2584 
Q 1688 2584 1439 2293 
Q 1191 2003 1191 1497 
Q 1191 994 1439 701 
Q 1688 409 2113 409 
Q 2538 409 2786 701 
Q 3034 994 3034 1497 
Q 3034 2003 2786 2293 
Q 2538 2584 2113 2584 
z
M 3366 4563 
L 3366 3988 
Q 3128 4100 2886 4159 
Q 2644 4219 2406 4219 
Q 1781 4219 1451 3797 
Q 1122 3375 1075 2522 
Q 1259 2794 1537 2939 
Q 1816 3084 2150 3084 
Q 2853 3084 3261 2657 
Q 3669 2231 3669 1497 
Q 3669 778 3244 343 
Q 2819 -91 2113 -91 
Q 1303 -91 875 529 
Q 447 1150 447 2328 
Q 447 3434 972 4092 
Q 1497 4750 2381 4750 
Q 2619 4750 2861 4703 
Q 3103 4656 3366 4563 
z
" transform="scale(0.015625)"/>
      </defs>
      <use xlink:href="#SimHei-20" transform="translate(0 0.765625)"/>
      <use xlink:href="#SimHei-20" transform="translate(50 0.765625)"/>
      <use xlink:href="#DejaVuSans-31" transform="translate(100 0.765625)"/>
      <use xlink:href="#DejaVuSans-30" transform="translate(163.623047 0.765625)"/>
      <use xlink:href="#DejaVuSans-36" transform="translate(228.203125 39.046875) scale(0.7)"/>
     </g>
    </g>
   </g>
   <g id="patch_9">
    <path d="M 128.691795 275.239459 
L 132.762118 275.239459 
L 132.762118 274.395988 
L 128.691795 274.395988 
z
" clip-path="url(#pbc4a390db4)" style="fill: #008000; stroke: #007300; stroke-width: 0.65; stroke-linejoin: miter"/>
   </g>
   <g id="patch_10">
    <path d="M 137.078449 275.239459 
L 141.148771 275.239459 
L 141.148771 274.43185 
L 137.078449 274.43185 
z
" clip-path="url(#pbc4a390db4)" style="fill: #ff0000; stroke: #e60000; stroke-width: 0.65; stroke-linejoin: miter"/>
   </g>
   <g id="patch_11">
    <path d="M 145.465102 275.239459 
L 149.535424 275.239459 
L 149.535424 274.389625 
L 145.465102 274.389625 
z
" clip-path="url(#pbc4a390db4)" style="fill: #008000; stroke: #007300; stroke-width: 0.65; stroke-linejoin: miter"/>
   </g>
   <g id="patch_12">
    <path d="M 153.851755 275.239459 
L 157.922077 275.239459 
L 157.922077 273.470848 
L 153.851755 273.470848 
z
" clip-path="url(#pbc4a390db4)" style="fill: #008000; stroke: #007300; stroke-width: 0.65; stroke-linejoin: miter"/>
   </g>
   <g id="patch_13">
    <path d="M 162.238408 275.239459 
L 166.30873 275.239459 
L 166.30873 274.333739 
L 162.238408 274.333739 
z
" clip-path="url(#pbc4a390db4)" style="fill: #008000; stroke: #007300; stroke-width: 0.65; stroke-linejoin: miter"/>
   </g>
   <g id="patch_14">
    <path d="M 170.625061 275.239459 
L 174.695384 275.239459 
L 174.695384 272.703794 
L 170.625061 272.703794 
z
" clip-path="url(#pbc4a390db4)" style="fill: #ff0000; stroke: #e60000; stroke-width: 0.65; stroke-linejoin: miter"/>
   </g>
   <g id="patch_15">
    <path d="M 179.011714 275.239459 
L 183.082037 275.239459 
L 183.082037 271.830705 
L 179.011714 271.830705 
z
" clip-path="url(#pbc4a390db4)" style="fill: #ff0000; stroke: #e60000; stroke-width: 0.65; stroke-linejoin: miter"/>
   </g>
   <g id="patch_16">
    <path d="M 187.398368 275.239459 
L 191.46869 275.239459 
L 191.46869 273.223487 
L 187.398368 273.223487 
z
" clip-path="url(#pbc4a390db4)" style="fill: #008000; stroke: #007300; stroke-width: 0.65; stroke-linejoin: miter"/>
   </g>
   <g id="patch_17">
    <path d="M 195.785021 275.239459 
L 199.855343 275.239459 
L 199.855343 270.630332 
L 195.785021 270.630332 
z
" clip-path="url(#pbc4a390db4)" style="fill: #ff0000; stroke: #e60000; stroke-width: 0.65; stroke-linejoin: miter"/>
   </g>
   <g id="patch_18">
    <path d="M 204.171674 275.239459 
L 208.241996 275.239459 
L 208.241996 272.233954 
L 204.171674 272.233954 
z
" clip-path="url(#pbc4a390db4)" style="fill: #008000; stroke: #007300; stroke-width: 0.65; stroke-linejoin: miter"/>
   </g>
   <g id="patch_19">
    <path d="M 212.558327 275.239459 
L 216.62865 275.239459 
L 216.62865 273.683513 
L 212.558327 273.683513 
z
" clip-path="url(#pbc4a390db4)" style="fill: #008000; stroke: #007300; stroke-width: 0.65; stroke-linejoin: miter"/>
   </g>
   <g id="patch_20">
    <path d="M 220.94498 275.239459 
L 225.015303 275.239459 
L 225.015303 273.482289 
L 220.94498 273.482289 
z
" clip-path="url(#pbc4a390db4)" style="fill: #008000; stroke: #007300; stroke-width: 0.65; stroke-linejoin: miter"/>
   </g>
   <g id="patch_21">
    <path d="M 229.331634 275.239459 
L 233.401956 275.239459 
L 233.401956 274.018732 
L 229.331634 274.018732 
z
" clip-path="url(#pbc4a390db4)" style="fill: #008000; stroke: #007300; stroke-width: 0.65; stroke-linejoin: miter"/>
   </g>
   <g id="patch_22">
    <path d="M 237.718287 275.239459 
L 241.788609 275.239459 
L 241.788609 274.259927 
L 237.718287 274.259927 
z
" clip-path="url(#pbc4a390db4)" style="fill: #008000; stroke: #007300; stroke-width: 0.65; stroke-linejoin: miter"/>
   </g>
   <g id="patch_23">
    <path d="M 246.10494 275.239459 
L 250.175262 275.239459 
L 250.175262 274.358566 
L 246.10494 274.358566 
z
" clip-path="url(#pbc4a390db4)" style="fill: #ff0000; stroke: #e60000; stroke-width: 0.65; stroke-linejoin: miter"/>
   </g>
   <g id="patch_24">
    <path d="M 254.491593 275.239459 
L 258.561915 275.239459 
L 258.561915 274.289425 
L 254.491593 274.289425 
z
" clip-path="url(#pbc4a390db4)" style="fill: #008000; stroke: #007300; stroke-width: 0.65; stroke-linejoin: miter"/>
   </g>
   <g id="patch_25">
    <path d="M 262.878246 275.239459 
L 266.948569 275.239459 
L 266.948569 274.108204 
L 262.878246 274.108204 
z
" clip-path="url(#pbc4a390db4)" style="fill: #ff0000; stroke: #e60000; stroke-width: 0.65; stroke-linejoin: miter"/>
   </g>
   <g id="patch_26">
    <path d="M 271.264899 275.239459 
L 275.335222 275.239459 
L 275.335222 274.04601 
L 271.264899 274.04601 
z
" clip-path="url(#pbc4a390db4)" style="fill: #008000; stroke: #007300; stroke-width: 0.65; stroke-linejoin: miter"/>
   </g>
   <g id="patch_27">
    <path d="M 279.651553 275.239459 
L 283.721875 275.239459 
L 283.721875 274.707929 
L 279.651553 274.707929 
z
" clip-path="url(#pbc4a390db4)" style="fill: #ff0000; stroke: #e60000; stroke-width: 0.65; stroke-linejoin: miter"/>
   </g>
   <g id="patch_28">
    <path d="M 288.038206 275.239459 
L 292.108528 275.239459 
L 292.108528 270.116002 
L 288.038206 270.116002 
z
" clip-path="url(#pbc4a390db4)" style="fill: #ff0000; stroke: #e60000; stroke-width: 0.65; stroke-linejoin: miter"/>
   </g>
   <g id="patch_29">
    <path d="M 296.424859 275.239459 
L 300.495181 275.239459 
L 300.495181 252.779833 
L 296.424859 252.779833 
z
" clip-path="url(#pbc4a390db4)" style="fill: #008000; stroke: #007300; stroke-width: 0.65; stroke-linejoin: miter"/>
   </g>
   <g id="patch_30">
    <path d="M 304.811512 275.239459 
L 308.881835 275.239459 
L 308.881835 264.161231 
L 304.811512 264.161231 
z
" clip-path="url(#pbc4a390db4)" style="fill: #008000; stroke: #007300; stroke-width: 0.65; stroke-linejoin: miter"/>
   </g>
   <g id="patch_31">
    <path d="M 313.198165 275.239459 
L 317.268488 275.239459 
L 317.268488 247.57841 
L 313.198165 247.57841 
z
" clip-path="url(#pbc4a390db4)" style="fill: #ff0000; stroke: #e60000; stroke-width: 0.65; stroke-linejoin: miter"/>
   </g>
   <g id="patch_32">
    <path d="M 321.584819 275.239459 
L 325.655141 275.239459 
L 325.655141 232.539798 
L 321.584819 232.539798 
z
" clip-path="url(#pbc4a390db4)" style="fill: #ff0000; stroke: #e60000; stroke-width: 0.65; stroke-linejoin: miter"/>
   </g>
   <g id="patch_33">
    <path d="M 329.971472 275.239459 
L 334.041794 275.239459 
L 334.041794 232.315187 
L 329.971472 232.315187 
z
" clip-path="url(#pbc4a390db4)" style="fill: #ff0000; stroke: #e60000; stroke-width: 0.65; stroke-linejoin: miter"/>
   </g>
   <g id="patch_34">
    <path d="M 338.358125 275.239459 
L 342.428447 275.239459 
L 342.428447 228.657566 
L 338.358125 228.657566 
z
" clip-path="url(#pbc4a390db4)" style="fill: #ff0000; stroke: #e60000; stroke-width: 0.65; stroke-linejoin: miter"/>
   </g>
   <g id="patch_35">
    <path d="M 346.744778 275.239459 
L 350.815101 275.239459 
L 350.815101 228.212047 
L 346.744778 228.212047 
z
" clip-path="url(#pbc4a390db4)" style="fill: #ff0000; stroke: #e60000; stroke-width: 0.65; stroke-linejoin: miter"/>
   </g>
   <g id="patch_36">
    <path d="M 355.131431 275.239459 
L 359.201754 275.239459 
L 359.201754 230.08932 
L 355.131431 230.08932 
z
" clip-path="url(#pbc4a390db4)" style="fill: #ff0000; stroke: #e60000; stroke-width: 0.65; stroke-linejoin: miter"/>
   </g>
   <g id="patch_37">
    <path d="M 363.518085 275.239459 
L 367.588407 275.239459 
L 367.588407 230.259122 
L 363.518085 230.259122 
z
" clip-path="url(#pbc4a390db4)" style="fill: #ff0000; stroke: #e60000; stroke-width: 0.65; stroke-linejoin: miter"/>
   </g>
   <g id="patch_38">
    <path d="M 371.904738 275.239459 
L 375.97506 275.239459 
L 375.97506 239.556903 
L 371.904738 239.556903 
z
" clip-path="url(#pbc4a390db4)" style="fill: #ff0000; stroke: #e60000; stroke-width: 0.65; stroke-linejoin: miter"/>
   </g>
   <g id="patch_39">
    <path d="M 380.291391 275.239459 
L 384.361713 275.239459 
L 384.361713 247.036814 
L 380.291391 247.036814 
z
" clip-path="url(#pbc4a390db4)" style="fill: #ff0000; stroke: #e60000; stroke-width: 0.65; stroke-linejoin: miter"/>
   </g>
   <g id="patch_40">
    <path d="M 388.678044 275.239459 
L 392.748366 275.239459 
L 392.748366 228.826247 
L 388.678044 228.826247 
z
" clip-path="url(#pbc4a390db4)" style="fill: #ff0000; stroke: #e60000; stroke-width: 0.65; stroke-linejoin: miter"/>
   </g>
   <g id="patch_41">
    <path d="M 397.064697 275.239459 
L 401.13502 275.239459 
L 401.13502 239.964163 
L 397.064697 239.964163 
z
" clip-path="url(#pbc4a390db4)" style="fill: #ff0000; stroke: #e60000; stroke-width: 0.65; stroke-linejoin: miter"/>
   </g>
   <g id="patch_42">
    <path d="M 405.45135 275.239459 
L 409.521673 275.239459 
L 409.521673 221.817 
L 405.45135 221.817 
z
" clip-path="url(#pbc4a390db4)" style="fill: #ff0000; stroke: #e60000; stroke-width: 0.65; stroke-linejoin: miter"/>
   </g>
   <g id="patch_43">
    <path d="M 413.838004 275.239459 
L 417.908326 275.239459 
L 417.908326 254.446705 
L 413.838004 254.446705 
z
" clip-path="url(#pbc4a390db4)" style="fill: #ff0000; stroke: #e60000; stroke-width: 0.65; stroke-linejoin: miter"/>
   </g>
   <g id="patch_44">
    <path d="M 422.224657 275.239459 
L 426.294979 275.239459 
L 426.294979 239.574114 
L 422.224657 239.574114 
z
" clip-path="url(#pbc4a390db4)" style="fill: #ff0000; stroke: #e60000; stroke-width: 0.65; stroke-linejoin: miter"/>
   </g>
   <g id="patch_45">
    <path d="M 430.61131 275.239459 
L 434.681632 275.239459 
L 434.681632 218.155236 
L 430.61131 218.155236 
z
" clip-path="url(#pbc4a390db4)" style="fill: #008000; stroke: #007300; stroke-width: 0.65; stroke-linejoin: miter"/>
   </g>
   <g id="patch_46">
    <path d="M 438.997963 275.239459 
L 443.068286 275.239459 
L 443.068286 229.426862 
L 438.997963 229.426862 
z
" clip-path="url(#pbc4a390db4)" style="fill: #ff0000; stroke: #e60000; stroke-width: 0.65; stroke-linejoin: miter"/>
   </g>
   <g id="patch_47">
    <path d="M 447.384616 275.239459 
L 451.454939 275.239459 
L 451.454939 216.549042 
L 447.384616 216.549042 
z
" clip-path="url(#pbc4a390db4)" style="fill: #ff0000; stroke: #e60000; stroke-width: 0.65; stroke-linejoin: miter"/>
   </g>
   <g id="patch_48">
    <path d="M 455.77127 275.239459 
L 459.841592 275.239459 
L 459.841592 220.486599 
L 455.77127 220.486599 
z
" clip-path="url(#pbc4a390db4)" style="fill: #ff0000; stroke: #e60000; stroke-width: 0.65; stroke-linejoin: miter"/>
   </g>
   <g id="patch_49">
    <path d="M 464.157923 275.239459 
L 468.228245 275.239459 
L 468.228245 220.477137 
L 464.157923 220.477137 
z
" clip-path="url(#pbc4a390db4)" style="fill: #008000; stroke: #007300; stroke-width: 0.65; stroke-linejoin: miter"/>
   </g>
   <g id="patch_50">
    <path d="M 472.544576 275.239459 
L 476.614898 275.239459 
L 476.614898 231.723166 
L 472.544576 231.723166 
z
" clip-path="url(#pbc4a390db4)" style="fill: #008000; stroke: #007300; stroke-width: 0.65; stroke-linejoin: miter"/>
   </g>
   <g id="patch_51">
    <path d="M 480.931229 275.239459 
L 485.001551 275.239459 
L 485.001551 229.207955 
L 480.931229 229.207955 
z
" clip-path="url(#pbc4a390db4)" style="fill: #008000; stroke: #007300; stroke-width: 0.65; stroke-linejoin: miter"/>
   </g>
   <g id="patch_52">
    <path d="M 489.317882 275.239459 
L 493.388205 275.239459 
L 493.388205 236.632134 
L 489.317882 236.632134 
z
" clip-path="url(#pbc4a390db4)" style="fill: #008000; stroke: #007300; stroke-width: 0.65; stroke-linejoin: miter"/>
   </g>
   <g id="patch_53">
    <path d="M 103.68 275.08 
L 103.68 210.68 
" style="fill: none; stroke: #f0f0f0; stroke-width: 0.8; stroke-linejoin: miter; stroke-linecap: square"/>
   </g>
   <g id="patch_54">
    <path d="M 518.4 275.08 
L 518.4 210.68 
" style="fill: none; stroke: #f0f0f0; stroke-width: 0.8; stroke-linejoin: miter; stroke-linecap: square"/>
   </g>
   <g id="patch_55">
    <path d="M 103.68 275.08 
L 518.4 275.08 
" style="fill: none; stroke: #f0f0f0; stroke-width: 0.8; stroke-linejoin: miter; stroke-linecap: square"/>
   </g>
   <g id="patch_56">
    <path d="M 103.68 210.68 
L 518.4 210.68 
" style="fill: none; stroke: #f0f0f0; stroke-width: 0.8; stroke-linejoin: miter; stroke-linecap: square"/>
   </g>
  </g>
  <g id="axes_3">
   <g id="patch_57">
    <path d="M 103.68 339.48 
L 518.4 339.48 
L 518.4 275.08 
L 103.68 275.08 
z
" style="fill: #fafafa"/>
   </g>
   <g id="matplotlib.axis_5">
    <g id="xtick_11">
     <g id="line2d_39">
      <path d="M 130.726957 339.48 
L 130.726957 275.08 
" clip-path="url(#p82c8d3ed71)" style="fill: none; stroke: #d0d0d0; stroke-width: 0.8; stroke-linecap: square"/>
     </g>
     <g id="line2d_40">
      <g>
       <use xlink:href="#m2024c2bf9c" x="130.726957" y="339.48" style="fill: #101010; stroke: #101010; stroke-width: 0.8"/>
      </g>
     </g>
     <g id="text_12">
      <!-- 0611 -->
      <g style="fill: #101010" transform="translate(121.795627 358.297121) rotate(-15) scale(0.1 -0.1)">
       <use xlink:href="#SimHei-30"/>
       <use xlink:href="#SimHei-36" x="50"/>
       <use xlink:href="#SimHei-31" x="100"/>
       <use xlink:href="#SimHei-31" x="150"/>
      </g>
     </g>
    </g>
    <g id="xtick_12">
     <g id="line2d_41">
      <path d="M 214.593488 339.48 
L 214.593488 275.08 
" clip-path="url(#p82c8d3ed71)" style="fill: none; stroke: #d0d0d0; stroke-width: 0.8; stroke-linecap: square"/>
     </g>
     <g id="line2d_42">
      <g>
       <use xlink:href="#m2024c2bf9c" x="214.593488" y="339.48" style="fill: #101010; stroke: #101010; stroke-width: 0.8"/>
      </g>
     </g>
     <g id="text_13">
      <!-- 0625 -->
      <g style="fill: #101010" transform="translate(205.662159 358.297121) rotate(-15) scale(0.1 -0.1)">
       <use xlink:href="#SimHei-30"/>
       <use xlink:href="#SimHei-36" x="50"/>
       <use xlink:href="#SimHei-32" x="100"/>
       <use xlink:href="#SimHei-35" x="150"/>
      </g>
     </g>
    </g>
    <g id="xtick_13">
     <g id="line2d_43">
      <path d="M 298.46002 339.48 
L 298.46002 275.08 
" clip-path="url(#p82c8d3ed71)" style="fill: none; stroke: #d0d0d0; stroke-width: 0.8; stroke-linecap: square"/>
     </g>
     <g id="line2d_44">
      <g>
       <use xlink:href="#m2024c2bf9c" x="298.46002" y="339.48" style="fill: #101010; stroke: #101010; stroke-width: 0.8"/>
      </g>
     </g>
     <g id="text_14">
      <!-- 0709 -->
      <g style="fill: #101010" transform="translate(289.528691 358.297121) rotate(-15) scale(0.1 -0.1)">
       <defs>
        <path id="SimHei-37" d="M 850 150 
Q 1300 2050 2425 3925 
L 275 3925 
L 275 4375 
L 2950 4375 
L 2950 3950 
Q 1775 2050 1400 150 
L 850 150 
z
" transform="scale(0.015625)"/>
        <path id="SimHei-39" d="M 800 75 
Q 1350 1000 1700 1750 
Q 1075 1650 662 1912 
Q 250 2175 162 2625 
Q 75 3075 175 3437 
Q 275 3800 487 4037 
Q 700 4275 1000 4375 
Q 1300 4475 1537 4475 
Q 1775 4475 2025 4375 
Q 2275 4275 2475 4075 
Q 2675 3875 2750 3662 
Q 2825 3450 2825 3112 
Q 2825 2775 2575 2250 
Q 2325 1725 1350 75 
L 800 75 
z
M 662 2875 
Q 700 2550 937 2337 
Q 1175 2125 1450 2150 
Q 1725 2175 1887 2300 
Q 2050 2425 2200 2725 
Q 2300 3100 2250 3362 
Q 2200 3625 1987 3800 
Q 1775 3975 1525 3975 
Q 1375 4000 1137 3900 
Q 900 3800 762 3500 
Q 625 3200 662 2875 
z
" transform="scale(0.015625)"/>
       </defs>
       <use xlink:href="#SimHei-30"/>
       <use xlink:href="#SimHei-37" x="50"/>
       <use xlink:href="#SimHei-30" x="100"/>
       <use xlink:href="#SimHei-39" x="150"/>
      </g>
     </g>
    </g>
    <g id="xtick_14">
     <g id="line2d_45">
      <path d="M 382.326552 339.48 
L 382.326552 275.08 
" clip-path="url(#p82c8d3ed71)" style="fill: none; stroke: #d0d0d0; stroke-width: 0.8; stroke-linecap: square"/>
     </g>
     <g id="line2d_46">
      <g>
       <use xlink:href="#m2024c2bf9c" x="382.326552" y="339.48" style="fill: #101010; stroke: #101010; stroke-width: 0.8"/>
      </g>
     </g>
     <g id="text_15">
      <!-- 0723 -->
      <g style="fill: #101010" transform="translate(373.395222 358.297121) rotate(-15) scale(0.1 -0.1)">
       <defs>
        <path id="SimHei-33" d="M 250 1225 
L 700 1300 
Q 800 975 1025 762 
Q 1250 550 1587 562 
Q 1925 575 2125 837 
Q 2325 1100 2300 1437 
Q 2275 1775 2037 1962 
Q 1800 2150 1275 2225 
L 1275 2550 
Q 1800 2600 2037 2825 
Q 2275 3050 2250 3412 
Q 2225 3775 1925 3937 
Q 1625 4100 1287 3975 
Q 950 3850 750 3275 
L 300 3350 
Q 450 3800 712 4100 
Q 975 4400 1425 4450 
Q 1875 4500 2212 4337 
Q 2550 4175 2687 3837 
Q 2825 3500 2725 3100 
Q 2625 2700 2150 2400 
Q 2500 2250 2687 1950 
Q 2875 1650 2812 1162 
Q 2750 675 2375 375 
Q 2000 75 1525 87 
Q 1050 100 700 387 
Q 350 675 250 1225 
z
" transform="scale(0.015625)"/>
       </defs>
       <use xlink:href="#SimHei-30"/>
       <use xlink:href="#SimHei-37" x="50"/>
       <use xlink:href="#SimHei-32" x="100"/>
       <use xlink:href="#SimHei-33" x="150"/>
      </g>
     </g>
    </g>
    <g id="xtick_15">
     <g id="line2d_47">
      <path d="M 466.193084 339.48 
L 466.193084 275.08 
" clip-path="url(#p82c8d3ed71)" style="fill: none; stroke: #d0d0d0; stroke-width: 0.8; stroke-linecap: square"/>
     </g>
     <g id="line2d_48">
      <g>
       <use xlink:href="#m2024c2bf9c" x="466.193084" y="339.48" style="fill: #101010; stroke: #101010; stroke-width: 0.8"/>
      </g>
     </g>
     <g id="text_16">
      <!-- 0806 -->
      <g style="fill: #101010" transform="translate(457.261754 358.297121) rotate(-15) scale(0.1 -0.1)">
       <use xlink:href="#SimHei-30"/>
       <use xlink:href="#SimHei-38" x="50"/>
       <use xlink:href="#SimHei-30" x="100"/>
       <use xlink:href="#SimHei-36" x="150"/>
      </g>
     </g>
    </g>
   </g>
   <g id="matplotlib.axis_6">
    <g id="ytick_7">
     <g id="line2d_49">
      <path d="M 103.68 336.17825 
L 518.4 336.17825 
" clip-path="url(#p82c8d3ed71)" style="fill: none; stroke: #d0d0d0; stroke-width: 0.8; stroke-linecap: square"/>
     </g>
     <g id="line2d_50">
      <g>
       <use xlink:href="#mccb8630a1a" x="518.4" y="336.17825" style="fill: #101010; stroke: #101010; stroke-width: 0.8"/>
      </g>
     </g>
     <g id="text_17">
      <!-- 20 -->
      <g style="fill: #101010" transform="translate(525.4 339.61575) scale(0.1 -0.1)">
       <use xlink:href="#SimHei-32"/>
       <use xlink:href="#SimHei-30" x="50"/>
      </g>
     </g>
    </g>
    <g id="ytick_8">
     <g id="line2d_51">
      <path d="M 103.68 293.614349 
L 518.4 293.614349 
" clip-path="url(#p82c8d3ed71)" style="fill: none; stroke: #d0d0d0; stroke-width: 0.8; stroke-linecap: square"/>
     </g>
     <g id="line2d_52">
      <g>
       <use xlink:href="#mccb8630a1a" x="518.4" y="293.614349" style="fill: #101010; stroke: #101010; stroke-width: 0.8"/>
      </g>
     </g>
     <g id="text_18">
      <!-- 40 -->
      <g style="fill: #101010" transform="translate(525.4 297.051849) scale(0.1 -0.1)">
       <use xlink:href="#SimHei-34"/>
       <use xlink:href="#SimHei-30" x="50"/>
      </g>
     </g>
    </g>
    <g id="text_19">
     <!-- control trend -->
     <g style="fill: #101010" transform="translate(546.275 339.78) rotate(-90) scale(0.1 -0.1)">
      <defs>
       <path id="SimHei-6e" d="M 2800 125 
L 2300 125 
L 2300 1925 
Q 2300 2225 2150 2400 
Q 2000 2575 1750 2575 
Q 1425 2575 1137 2237 
Q 850 1900 850 1400 
L 850 125 
L 350 125 
L 350 2925 
L 850 2925 
L 850 2400 
Q 1050 2675 1287 2825 
Q 1525 2975 1900 2975 
Q 2350 2975 2575 2725 
Q 2800 2475 2800 2100 
L 2800 125 
z
" transform="scale(0.015625)"/>
       <path id="SimHei-74" d="M 2750 200 
Q 2625 150 2462 112 
Q 2300 75 2025 75 
Q 1575 75 1300 325 
Q 1025 575 1025 1025 
L 1025 2525 
L 175 2525 
L 175 2925 
L 1025 2925 
L 1025 3900 
L 1525 3900 
L 1525 2925 
L 2550 2925 
L 2550 2525 
L 1525 2525 
L 1525 1000 
Q 1525 800 1625 662 
Q 1725 525 2000 525 
Q 2275 525 2450 575 
Q 2625 625 2750 700 
L 2750 200 
z
" transform="scale(0.015625)"/>
       <path id="SimHei-64" d="M 2750 125 
L 2250 125 
L 2250 500 
Q 2100 275 1900 175 
Q 1700 75 1425 75 
Q 925 75 575 437 
Q 225 800 225 1525 
Q 225 2250 575 2625 
Q 925 3000 1425 3000 
Q 1700 3000 1900 2887 
Q 2100 2775 2250 2550 
L 2250 4400 
L 2750 4400 
L 2750 125 
z
M 2250 1525 
Q 2250 2000 2037 2275 
Q 1825 2550 1525 2550 
Q 1150 2550 962 2275 
Q 775 2000 775 1525 
Q 775 1050 962 787 
Q 1150 525 1525 525 
Q 1825 525 2037 787 
Q 2250 1050 2250 1525 
z
" transform="scale(0.015625)"/>
      </defs>
      <use xlink:href="#SimHei-63"/>
      <use xlink:href="#SimHei-6f" x="50"/>
      <use xlink:href="#SimHei-6e" x="100"/>
      <use xlink:href="#SimHei-74" x="150"/>
      <use xlink:href="#SimHei-72" x="200"/>
      <use xlink:href="#SimHei-6f" x="250"/>
      <use xlink:href="#SimHei-6c" x="300"/>
      <use xlink:href="#SimHei-20" x="350"/>
      <use xlink:href="#SimHei-74" x="400"/>
      <use xlink:href="#SimHei-72" x="450"/>
      <use xlink:href="#SimHei-65" x="500"/>
      <use xlink:href="#SimHei-6e" x="550"/>
      <use xlink:href="#SimHei-64" x="600"/>
     </g>
    </g>
   </g>
   <g id="line2d_53">
    <path d="M 130.726957 336.552727 
L 139.11361 311.715329 
L 147.500263 278.494459 
L 155.886916 309.277354 
L 164.273569 313.052772 
L 172.660222 314.740175 
L 181.046876 313.510419 
L 189.433529 335.66893 
L 197.820182 305.399101 
L 206.206835 324.551154 
L 214.593488 302.872678 
L 222.980142 311.277006 
L 231.366795 307.251312 
L 239.753448 332.680604 
L 248.140101 309.840048 
L 256.526754 315.421623 
L 264.913407 308.366571 
L 273.300061 323.47267 
L 281.686714 331.341033 
L 290.073367 309.773223 
L 298.46002 278.007273 
L 306.846673 286.803784 
L 315.233327 283.310735 
L 323.61998 286.636508 
L 332.006633 299.286159 
L 340.393286 294.130393 
L 348.779939 312.291218 
L 357.166593 295.556625 
L 365.553246 314.372423 
L 373.939899 293.147678 
L 382.326552 299.491657 
L 390.713205 307.583481 
L 399.099858 302.638151 
L 407.486512 308.207723 
L 415.873165 298.181626 
L 424.259818 307.770677 
L 432.646471 308.106761 
L 441.033124 314.058472 
L 449.419778 314.096524 
L 457.806431 299.000725 
L 466.193084 308.854779 
L 474.579737 310.163194 
L 482.96639 310.761983 
L 491.353043 314.749709 
" clip-path="url(#p82c8d3ed71)" style="fill: none; stroke: #0000ff; stroke-linecap: square"/>
   </g>
   <g id="patch_58">
    <path d="M 103.68 339.48 
L 103.68 275.08 
" style="fill: none; stroke: #f0f0f0; stroke-width: 0.8; stroke-linejoin: miter; stroke-linecap: square"/>
   </g>
   <g id="patch_59">
    <path d="M 518.4 339.48 
L 518.4 275.08 
" style="fill: none; stroke: #f0f0f0; stroke-width: 0.8; stroke-linejoin: miter; stroke-linecap: square"/>
   </g>
   <g id="patch_60">
    <path d="M 103.68 339.48 
L 518.4 339.48 
" style="fill: none; stroke: #f0f0f0; stroke-width: 0.8; stroke-linejoin: miter; stroke-linecap: square"/>
   </g>
   <g id="patch_61">
    <path d="M 103.68 275.08 
L 518.4 275.08 
" style="fill: none; stroke: #f0f0f0; stroke-width: 0.8; stroke-linejoin: miter; stroke-linecap: square"/>
   </g>
  </g>
  <g id="text_20">
   <!-- -20240809 -->
   <g transform="translate(226.8 13.17375) scale(0.144 -0.144)">
    <defs>
     <path id="SimHei-5927" d="M 2900 3400 
Q 2925 4275 2912 4575 
Q 2900 4875 2875 5150 
Q 3175 5100 3550 5075 
Q 3475 4825 3437 4350 
Q 3400 3875 3400 3400 
L 4675 3400 
Q 5350 3400 5925 3450 
L 5925 2900 
Q 5425 2925 4900 2925 
L 3425 2925 
Q 3525 2500 3775 2062 
Q 4025 1625 4287 1287 
Q 4550 950 5012 575 
Q 5475 200 6025 -50 
Q 5825 -200 5625 -550 
Q 5175 -300 4737 75 
Q 4300 450 3862 1062 
Q 3425 1675 3200 2200 
Q 3000 1650 2775 1287 
Q 2550 925 2287 625 
Q 2025 325 1612 25 
Q 1200 -275 675 -575 
Q 475 -275 225 -50 
Q 750 125 1262 450 
Q 1775 775 2100 1187 
Q 2425 1600 2625 2050 
Q 2825 2500 2875 2925 
L 1500 2925 
Q 900 2925 550 2900 
L 550 3450 
Q 900 3425 1500 3400 
L 2900 3400 
z
" transform="scale(0.015625)"/>
     <path id="SimHei-4f17" d="M 525 2775 
Q 1225 3000 1900 3650 
Q 2575 4300 2775 5125 
Q 2975 5075 3375 5000 
L 3250 4750 
Q 4075 3350 5675 2950 
Q 5475 2775 5325 2475 
Q 3750 3050 3025 4300 
Q 2350 3050 900 2350 
Q 775 2600 525 2775 
z
M 4500 2675 
Q 4450 2475 4425 2275 
Q 4400 2075 4450 1675 
Q 4500 1275 5062 687 
Q 5625 100 6050 -50 
Q 5775 -250 5625 -475 
Q 4775 75 4200 1050 
Q 3850 150 3075 -625 
Q 2900 -425 2600 -325 
Q 3225 100 3537 687 
Q 3850 1275 3875 1750 
Q 3900 2225 3900 2750 
Q 4175 2700 4500 2675 
z
M 2425 2575 
Q 2325 2350 2150 1475 
Q 2800 1100 3250 750 
Q 3050 575 2900 400 
Q 2675 675 2025 1050 
Q 1575 150 900 -450 
Q 750 -250 425 -150 
Q 1275 525 1562 1375 
Q 1850 2225 1850 2700 
Q 2200 2650 2425 2575 
z
" transform="scale(0.015625)"/>
     <path id="SimHei-4ea4" d="M 2325 2600 
Q 2775 1575 3200 1150 
Q 3875 1825 4225 2725 
Q 4425 2575 4725 2400 
Q 4125 1450 3550 825 
Q 4400 175 6000 25 
Q 5750 -325 5700 -550 
Q 4100 -250 3150 525 
Q 2075 -275 650 -600 
Q 575 -300 375 -50 
Q 1900 125 2775 850 
Q 2200 1525 1850 2350 
Q 2150 2475 2325 2600 
z
M 1250 3725 
Q 875 3725 525 3700 
L 525 4200 
L 1225 4150 
L 5125 4150 
Q 5525 4175 5950 4200 
L 5950 3675 
Q 5525 3700 5125 3725 
L 1250 3725 
z
M 2525 3300 
Q 2175 2975 1025 2000 
Q 825 2250 550 2400 
Q 1025 2650 1412 3025 
Q 1800 3400 2000 3675 
Q 2250 3500 2525 3300 
z
M 4325 3675 
Q 4450 3575 4900 3237 
Q 5350 2900 5775 2600 
Q 5500 2400 5300 2175 
Q 5075 2475 3900 3300 
Q 4100 3500 4325 3675 
z
M 3250 5300 
Q 3500 4725 3625 4375 
Q 3275 4275 3025 4200 
Q 2875 4625 2650 5125 
Q 2950 5225 3250 5300 
z
" transform="scale(0.015625)"/>
     <path id="SimHei-901a" d="M 5675 5050 
Q 5325 4650 4937 4300 
Q 4550 3950 4250 3650 
L 5700 3650 
Q 5675 3100 5675 2575 
L 5675 850 
Q 5700 525 5500 425 
Q 5300 325 4900 250 
Q 4850 475 4650 775 
Q 5025 800 5150 850 
Q 5275 900 5250 1325 
L 4125 1325 
L 4125 300 
L 3675 300 
L 3675 1325 
L 2575 1325 
L 2575 300 
L 2125 300 
Q 2150 1125 2150 1950 
Q 2150 2775 2125 3650 
L 3600 3650 
Q 3475 3850 3050 4200 
Q 3225 4350 3375 4525 
Q 3825 4175 4000 4000 
Q 4400 4425 4625 4650 
L 3025 4650 
Q 2525 4650 2150 4625 
L 2150 5075 
Q 2525 5050 2975 5050 
L 5675 5050 
z
M 1425 3000 
Q 1400 2500 1400 2100 
L 1400 600 
Q 2025 -25 3700 -25 
Q 5375 -25 6150 125 
Q 6000 -175 5975 -500 
Q 3975 -525 3137 -450 
Q 2300 -375 1775 -112 
Q 1250 150 1075 -37 
Q 900 -225 650 -650 
Q 425 -400 200 -225 
Q 600 125 975 425 
L 975 2575 
Q 775 2575 350 2550 
L 350 3025 
Q 750 3000 1425 3000 
z
M 5250 1725 
L 5250 2325 
L 4125 2325 
L 4125 1725 
L 5250 1725 
z
M 3675 1725 
L 3675 2325 
L 2575 2325 
L 2575 1725 
L 3675 1725 
z
M 5250 2725 
L 5250 3275 
L 4125 3275 
L 4125 2725 
L 5250 2725 
z
M 3675 2725 
L 3675 3275 
L 2575 3275 
L 2575 2725 
L 3675 2725 
z
M 1025 5025 
Q 1450 4425 1700 4075 
Q 1425 3925 1250 3725 
Q 1075 4100 600 4725 
Q 800 4875 1025 5025 
z
" transform="scale(0.015625)"/>
     <path id="SimHei-2d" d="M 2975 2125 
L 125 2125 
L 125 2525 
L 2975 2525 
L 2975 2125 
z
" transform="scale(0.015625)"/>
    </defs>
    <use xlink:href="#SimHei-5927"/>
    <use xlink:href="#SimHei-4f17" x="100"/>
    <use xlink:href="#SimHei-4ea4" x="200"/>
    <use xlink:href="#SimHei-901a" x="300"/>
    <use xlink:href="#SimHei-2d" x="400"/>
    <use xlink:href="#SimHei-32" x="450"/>
    <use xlink:href="#SimHei-30" x="500"/>
    <use xlink:href="#SimHei-32" x="550"/>
    <use xlink:href="#SimHei-34" x="600"/>
    <use xlink:href="#SimHei-30" x="650"/>
    <use xlink:href="#SimHei-38" x="700"/>
    <use xlink:href="#SimHei-30" x="750"/>
    <use xlink:href="#SimHei-39" x="800"/>
   </g>
  </g>
 </g>
 <defs>
  <clipPath id="pae10fcce1d">
   <rect x="103.68" y="49.68" width="414.72" height="161"/>
  </clipPath>
  <clipPath id="pbc4a390db4">
   <rect x="103.68" y="210.68" width="414.72" height="64.4"/>
  </clipPath>
  <clipPath id="p82c8d3ed71">
   <rect x="103.68" y="275.08" width="414.72" height="64.4"/>
  </clipPath>
 </defs>
</svg>
