<?xml version="1.0" encoding="utf-8" standalone="no"?>
<!DOCTYPE svg PUBLIC "-//W3C//DTD SVG 1.1//EN"
  "http://www.w3.org/Graphics/SVG/1.1/DTD/svg11.dtd">
<svg xmlns:xlink="http://www.w3.org/1999/xlink" width="576pt" height="414pt" viewBox="0 0 576 414" xmlns="http://www.w3.org/2000/svg" version="1.1">
 <metadata>
  <rdf:RDF xmlns:dc="http://purl.org/dc/elements/1.1/" xmlns:cc="http://creativecommons.org/ns#" xmlns:rdf="http://www.w3.org/1999/02/22-rdf-syntax-ns#">
   <cc:Work>
    <dc:type rdf:resource="http://purl.org/dc/dcmitype/StillImage"/>
    <dc:date>2024-08-09T18:06:55.947690</dc:date>
    <dc:format>image/svg+xml</dc:format>
    <dc:creator>
     <cc:Agent>
      <dc:title>Matplotlib v3.8.4, https://matplotlib.org/</dc:title>
     </cc:Agent>
    </dc:creator>
   </cc:Work>
  </rdf:RDF>
 </metadata>
 <defs>
  <style type="text/css">*{stroke-linejoin: round; stroke-linecap: butt}</style>
 </defs>
 <g id="figure_1">
  <g id="patch_1">
   <path d="M 0 414 
L 576 414 
L 576 0 
L 0 0 
z
" style="fill: #ffffff"/>
  </g>
  <g id="axes_1">
   <g id="patch_2">
    <path d="M 103.68 210.68 
L 518.4 210.68 
L 518.4 49.68 
L 103.68 49.68 
z
" style="fill: #fafafa"/>
   </g>
   <g id="matplotlib.axis_1">
    <g id="xtick_1">
     <g id="line2d_1">
      <path d="M 130.726957 210.68 
L 130.726957 49.68 
" clip-path="url(#p443b0a5ada)" style="fill: none; stroke: #d0d0d0; stroke-width: 0.8; stroke-linecap: square"/>
     </g>
     <g id="line2d_2">
      <defs>
       <path id="m28f7cefd25" d="M 0 0 
L 0 3.5 
" style="stroke: #101010; stroke-width: 0.8"/>
      </defs>
      <g>
       <use xlink:href="#m28f7cefd25" x="130.726957" y="210.68" style="fill: #101010; stroke: #101010; stroke-width: 0.8"/>
      </g>
     </g>
    </g>
    <g id="xtick_2">
     <g id="line2d_3">
      <path d="M 214.593488 210.68 
L 214.593488 49.68 
" clip-path="url(#p443b0a5ada)" style="fill: none; stroke: #d0d0d0; stroke-width: 0.8; stroke-linecap: square"/>
     </g>
     <g id="line2d_4">
      <g>
       <use xlink:href="#m28f7cefd25" x="214.593488" y="210.68" style="fill: #101010; stroke: #101010; stroke-width: 0.8"/>
      </g>
     </g>
    </g>
    <g id="xtick_3">
     <g id="line2d_5">
      <path d="M 298.46002 210.68 
L 298.46002 49.68 
" clip-path="url(#p443b0a5ada)" style="fill: none; stroke: #d0d0d0; stroke-width: 0.8; stroke-linecap: square"/>
     </g>
     <g id="line2d_6">
      <g>
       <use xlink:href="#m28f7cefd25" x="298.46002" y="210.68" style="fill: #101010; stroke: #101010; stroke-width: 0.8"/>
      </g>
     </g>
    </g>
    <g id="xtick_4">
     <g id="line2d_7">
      <path d="M 382.326552 210.68 
L 382.326552 49.68 
" clip-path="url(#p443b0a5ada)" style="fill: none; stroke: #d0d0d0; stroke-width: 0.8; stroke-linecap: square"/>
     </g>
     <g id="line2d_8">
      <g>
       <use xlink:href="#m28f7cefd25" x="382.326552" y="210.68" style="fill: #101010; stroke: #101010; stroke-width: 0.8"/>
      </g>
     </g>
    </g>
    <g id="xtick_5">
     <g id="line2d_9">
      <path d="M 466.193084 210.68 
L 466.193084 49.68 
" clip-path="url(#p443b0a5ada)" style="fill: none; stroke: #d0d0d0; stroke-width: 0.8; stroke-linecap: square"/>
     </g>
     <g id="line2d_10">
      <g>
       <use xlink:href="#m28f7cefd25" x="466.193084" y="210.68" style="fill: #101010; stroke: #101010; stroke-width: 0.8"/>
      </g>
     </g>
    </g>
   </g>
   <g id="matplotlib.axis_2">
    <g id="ytick_1">
     <g id="line2d_11">
      <path d="M 103.68 198.759188 
L 518.4 198.759188 
" clip-path="url(#p443b0a5ada)" style="fill: none; stroke: #d0d0d0; stroke-width: 0.8; stroke-linecap: square"/>
     </g>
     <g id="line2d_12">
      <defs>
       <path id="m04a6dc0970" d="M 0 0 
L 3.5 0 
" style="stroke: #101010; stroke-width: 0.8"/>
      </defs>
      <g>
       <use xlink:href="#m04a6dc0970" x="518.4" y="198.759188" style="fill: #101010; stroke: #101010; stroke-width: 0.8"/>
      </g>
     </g>
     <g id="text_1">
      <!-- 4.00 -->
      <g style="fill: #101010" transform="translate(525.4 202.196688) scale(0.1 -0.1)">
       <defs>
        <path id="SimHei-34" d="M 2000 1100 
L 75 1100 
L 75 1525 
L 2100 4450 
L 2475 4450 
L 2475 1525 
L 3075 1525 
L 3075 1100 
L 2475 1100 
L 2475 150 
L 2000 150 
L 2000 1100 
z
M 2000 1525 
L 2000 3500 
L 600 1525 
L 2000 1525 
z
" transform="scale(0.015625)"/>
        <path id="SimHei-2e" d="M 1075 125 
L 500 125 
L 500 675 
L 1075 675 
L 1075 125 
z
" transform="scale(0.015625)"/>
        <path id="SimHei-30" d="M 225 2537 
Q 250 3200 412 3587 
Q 575 3975 875 4225 
Q 1175 4475 1612 4475 
Q 2050 4475 2375 4112 
Q 2700 3750 2800 3200 
Q 2900 2650 2862 1937 
Q 2825 1225 2612 775 
Q 2400 325 1975 150 
Q 1550 -25 1125 187 
Q 700 400 525 750 
Q 350 1100 275 1487 
Q 200 1875 225 2537 
z
M 750 2687 
Q 675 2000 800 1462 
Q 925 925 1212 700 
Q 1500 475 1800 612 
Q 2100 750 2237 1162 
Q 2375 1575 2375 2062 
Q 2375 2550 2337 2950 
Q 2300 3350 2112 3675 
Q 1925 4000 1612 4012 
Q 1300 4025 1062 3700 
Q 825 3375 750 2687 
z
" transform="scale(0.015625)"/>
       </defs>
       <use xlink:href="#SimHei-34"/>
       <use xlink:href="#SimHei-2e" x="50"/>
       <use xlink:href="#SimHei-30" x="100"/>
       <use xlink:href="#SimHei-30" x="150"/>
      </g>
     </g>
    </g>
    <g id="ytick_2">
     <g id="line2d_13">
      <path d="M 103.68 175.746038 
L 518.4 175.746038 
" clip-path="url(#p443b0a5ada)" style="fill: none; stroke: #d0d0d0; stroke-width: 0.8; stroke-linecap: square"/>
     </g>
     <g id="line2d_14">
      <g>
       <use xlink:href="#m04a6dc0970" x="518.4" y="175.746038" style="fill: #101010; stroke: #101010; stroke-width: 0.8"/>
      </g>
     </g>
     <g id="text_2">
      <!-- 4.25 -->
      <g style="fill: #101010" transform="translate(525.4 179.183538) scale(0.1 -0.1)">
       <defs>
        <path id="SimHei-32" d="M 300 250 
Q 325 625 650 925 
Q 975 1225 1475 1862 
Q 1975 2500 2125 2850 
Q 2275 3200 2237 3450 
Q 2200 3700 2000 3862 
Q 1800 4025 1537 4000 
Q 1275 3975 1037 3800 
Q 800 3625 675 3275 
L 200 3350 
Q 400 3925 712 4187 
Q 1025 4450 1450 4475 
Q 1700 4500 1900 4462 
Q 2100 4425 2312 4287 
Q 2525 4150 2662 3875 
Q 2800 3600 2762 3212 
Q 2725 2825 2375 2287 
Q 2025 1750 1025 600 
L 2825 600 
L 2825 150 
L 300 150 
L 300 250 
z
" transform="scale(0.015625)"/>
        <path id="SimHei-35" d="M 550 1325 
Q 725 650 1150 575 
Q 1575 500 1837 662 
Q 2100 825 2212 1087 
Q 2325 1350 2312 1675 
Q 2300 2000 2137 2225 
Q 1975 2450 1725 2525 
Q 1475 2600 1162 2525 
Q 850 2450 650 2175 
L 225 2225 
Q 275 2375 700 4375 
L 2675 4375 
L 2675 3925 
L 1075 3925 
Q 950 3250 825 2850 
Q 1200 3025 1525 3012 
Q 1850 3000 2150 2862 
Q 2450 2725 2587 2487 
Q 2725 2250 2787 2012 
Q 2850 1775 2837 1500 
Q 2825 1225 2725 937 
Q 2625 650 2425 462 
Q 2225 275 1937 162 
Q 1650 50 1275 75 
Q 900 100 562 350 
Q 225 600 100 1200 
L 550 1325 
z
" transform="scale(0.015625)"/>
       </defs>
       <use xlink:href="#SimHei-34"/>
       <use xlink:href="#SimHei-2e" x="50"/>
       <use xlink:href="#SimHei-32" x="100"/>
       <use xlink:href="#SimHei-35" x="150"/>
      </g>
     </g>
    </g>
    <g id="ytick_3">
     <g id="line2d_15">
      <path d="M 103.68 152.732887 
L 518.4 152.732887 
" clip-path="url(#p443b0a5ada)" style="fill: none; stroke: #d0d0d0; stroke-width: 0.8; stroke-linecap: square"/>
     </g>
     <g id="line2d_16">
      <g>
       <use xlink:href="#m04a6dc0970" x="518.4" y="152.732887" style="fill: #101010; stroke: #101010; stroke-width: 0.8"/>
      </g>
     </g>
     <g id="text_3">
      <!-- 4.50 -->
      <g style="fill: #101010" transform="translate(525.4 156.170387) scale(0.1 -0.1)">
       <use xlink:href="#SimHei-34"/>
       <use xlink:href="#SimHei-2e" x="50"/>
       <use xlink:href="#SimHei-35" x="100"/>
       <use xlink:href="#SimHei-30" x="150"/>
      </g>
     </g>
    </g>
    <g id="ytick_4">
     <g id="line2d_17">
      <path d="M 103.68 129.719737 
L 518.4 129.719737 
" clip-path="url(#p443b0a5ada)" style="fill: none; stroke: #d0d0d0; stroke-width: 0.8; stroke-linecap: square"/>
     </g>
     <g id="line2d_18">
      <g>
       <use xlink:href="#m04a6dc0970" x="518.4" y="129.719737" style="fill: #101010; stroke: #101010; stroke-width: 0.8"/>
      </g>
     </g>
     <g id="text_4">
      <!-- 4.75 -->
      <g style="fill: #101010" transform="translate(525.4 133.157237) scale(0.1 -0.1)">
       <defs>
        <path id="SimHei-37" d="M 850 150 
Q 1300 2050 2425 3925 
L 275 3925 
L 275 4375 
L 2950 4375 
L 2950 3950 
Q 1775 2050 1400 150 
L 850 150 
z
" transform="scale(0.015625)"/>
       </defs>
       <use xlink:href="#SimHei-34"/>
       <use xlink:href="#SimHei-2e" x="50"/>
       <use xlink:href="#SimHei-37" x="100"/>
       <use xlink:href="#SimHei-35" x="150"/>
      </g>
     </g>
    </g>
    <g id="ytick_5">
     <g id="line2d_19">
      <path d="M 103.68 106.706587 
L 518.4 106.706587 
" clip-path="url(#p443b0a5ada)" style="fill: none; stroke: #d0d0d0; stroke-width: 0.8; stroke-linecap: square"/>
     </g>
     <g id="line2d_20">
      <g>
       <use xlink:href="#m04a6dc0970" x="518.4" y="106.706587" style="fill: #101010; stroke: #101010; stroke-width: 0.8"/>
      </g>
     </g>
     <g id="text_5">
      <!-- 5.00 -->
      <g style="fill: #101010" transform="translate(525.4 110.144087) scale(0.1 -0.1)">
       <use xlink:href="#SimHei-35"/>
       <use xlink:href="#SimHei-2e" x="50"/>
       <use xlink:href="#SimHei-30" x="100"/>
       <use xlink:href="#SimHei-30" x="150"/>
      </g>
     </g>
    </g>
    <g id="ytick_6">
     <g id="line2d_21">
      <path d="M 103.68 83.693436 
L 518.4 83.693436 
" clip-path="url(#p443b0a5ada)" style="fill: none; stroke: #d0d0d0; stroke-width: 0.8; stroke-linecap: square"/>
     </g>
     <g id="line2d_22">
      <g>
       <use xlink:href="#m04a6dc0970" x="518.4" y="83.693436" style="fill: #101010; stroke: #101010; stroke-width: 0.8"/>
      </g>
     </g>
     <g id="text_6">
      <!-- 5.25 -->
      <g style="fill: #101010" transform="translate(525.4 87.130936) scale(0.1 -0.1)">
       <use xlink:href="#SimHei-35"/>
       <use xlink:href="#SimHei-2e" x="50"/>
       <use xlink:href="#SimHei-32" x="100"/>
       <use xlink:href="#SimHei-35" x="150"/>
      </g>
     </g>
    </g>
    <g id="ytick_7">
     <g id="line2d_23">
      <path d="M 103.68 60.680286 
L 518.4 60.680286 
" clip-path="url(#p443b0a5ada)" style="fill: none; stroke: #d0d0d0; stroke-width: 0.8; stroke-linecap: square"/>
     </g>
     <g id="line2d_24">
      <g>
       <use xlink:href="#m04a6dc0970" x="518.4" y="60.680286" style="fill: #101010; stroke: #101010; stroke-width: 0.8"/>
      </g>
     </g>
     <g id="text_7">
      <!-- 5.50 -->
      <g style="fill: #101010" transform="translate(525.4 64.117786) scale(0.1 -0.1)">
       <use xlink:href="#SimHei-35"/>
       <use xlink:href="#SimHei-2e" x="50"/>
       <use xlink:href="#SimHei-35" x="100"/>
       <use xlink:href="#SimHei-30" x="150"/>
      </g>
     </g>
    </g>
    <g id="text_8">
     <!-- price -->
     <g style="fill: #101010" transform="translate(556.275 142.68) rotate(-90) scale(0.1 -0.1)">
      <defs>
       <path id="SimHei-70" d="M 2825 1525 
Q 2825 800 2475 425 
Q 2125 50 1625 50 
Q 1350 50 1150 162 
Q 950 275 800 500 
L 800 -800 
L 300 -800 
L 300 2925 
L 800 2925 
L 800 2550 
Q 950 2775 1150 2875 
Q 1350 2975 1625 2975 
Q 2125 2975 2475 2612 
Q 2825 2250 2825 1525 
z
M 2275 1525 
Q 2275 2000 2087 2262 
Q 1900 2525 1525 2525 
Q 1225 2525 1012 2262 
Q 800 2000 800 1525 
Q 800 1050 1012 775 
Q 1225 500 1525 500 
Q 1900 500 2087 775 
Q 2275 1050 2275 1525 
z
" transform="scale(0.015625)"/>
       <path id="SimHei-72" d="M 2500 2425 
Q 2025 2500 1700 2287 
Q 1375 2075 1150 1550 
L 1150 125 
L 650 125 
L 650 2925 
L 1150 2925 
L 1150 2200 
Q 1375 2600 1712 2787 
Q 2050 2975 2500 2975 
L 2500 2425 
z
" transform="scale(0.015625)"/>
       <path id="SimHei-69" d="M 1800 3725 
L 1300 3725 
L 1300 4375 
L 1800 4375 
L 1800 3725 
z
M 1800 125 
L 1300 125 
L 1300 2925 
L 1800 2925 
L 1800 125 
z
" transform="scale(0.015625)"/>
       <path id="SimHei-63" d="M 2850 1250 
Q 2850 725 2487 400 
Q 2125 75 1575 75 
Q 1025 75 625 462 
Q 225 850 225 1525 
Q 225 2200 625 2587 
Q 1025 2975 1575 2975 
Q 2125 2975 2450 2687 
Q 2775 2400 2775 2000 
L 2225 2000 
Q 2200 2300 2012 2412 
Q 1825 2525 1575 2525 
Q 1275 2525 1025 2287 
Q 775 2050 775 1525 
Q 775 1000 1025 762 
Q 1275 525 1575 525 
Q 1900 525 2100 700 
Q 2300 875 2300 1250 
L 2850 1250 
z
" transform="scale(0.015625)"/>
       <path id="SimHei-65" d="M 2850 1075 
Q 2800 625 2450 350 
Q 2100 75 1625 75 
Q 1025 75 637 462 
Q 250 850 250 1525 
Q 250 2200 637 2587 
Q 1025 2975 1625 2975 
Q 2150 2975 2487 2637 
Q 2825 2300 2825 1525 
L 800 1525 
Q 800 975 1037 750 
Q 1275 525 1625 525 
Q 1900 525 2075 662 
Q 2250 800 2300 1075 
L 2850 1075 
z
M 2250 1925 
Q 2200 2275 2025 2412 
Q 1850 2550 1575 2550 
Q 1325 2550 1125 2412 
Q 925 2275 825 1925 
L 2250 1925 
z
" transform="scale(0.015625)"/>
      </defs>
      <use xlink:href="#SimHei-70"/>
      <use xlink:href="#SimHei-72" x="50"/>
      <use xlink:href="#SimHei-69" x="100"/>
      <use xlink:href="#SimHei-63" x="150"/>
      <use xlink:href="#SimHei-65" x="200"/>
     </g>
    </g>
   </g>
   <g id="PolyCollection_1">
    <path d="M 127.761226 152.732887 
L 127.761226 157.335517 
L 133.692687 157.335517 
L 133.692687 152.732887 
z
" clip-path="url(#p443b0a5ada)" style="fill: #008000; fill-opacity: 0.9; stroke: #000000; stroke-width: 0.941667"/>
    <path d="M 136.147879 158.256043 
L 136.147879 134.322367 
L 142.07934 134.322367 
L 142.07934 158.256043 
z
" clip-path="url(#p443b0a5ada)" style="fill: #ff0000; fill-opacity: 0.9; stroke: #000000; stroke-width: 0.941667"/>
    <path d="M 144.534533 141.686575 
L 144.534533 148.130257 
L 150.465993 148.130257 
L 150.465993 141.686575 
z
" clip-path="url(#p443b0a5ada)" style="fill: #008000; fill-opacity: 0.9; stroke: #000000; stroke-width: 0.941667"/>
    <path d="M 152.921186 150.891835 
L 152.921186 147.209731 
L 158.852646 147.209731 
L 158.852646 150.891835 
z
" clip-path="url(#p443b0a5ada)" style="fill: #ff0000; fill-opacity: 0.9; stroke: #000000; stroke-width: 0.941667"/>
    <path d="M 161.307839 150.891835 
L 161.307839 155.494465 
L 167.239299 155.494465 
L 167.239299 150.891835 
z
" clip-path="url(#p443b0a5ada)" style="fill: #008000; fill-opacity: 0.9; stroke: #000000; stroke-width: 0.941667"/>
    <path d="M 169.694492 152.732887 
L 169.694492 148.130257 
L 175.625953 148.130257 
L 175.625953 152.732887 
z
" clip-path="url(#p443b0a5ada)" style="fill: #ff0000; fill-opacity: 0.9; stroke: #000000; stroke-width: 0.941667"/>
    <path d="M 178.081145 148.130257 
L 178.081145 154.573939 
L 184.012606 154.573939 
L 184.012606 148.130257 
z
" clip-path="url(#p443b0a5ada)" style="fill: #008000; fill-opacity: 0.9; stroke: #000000; stroke-width: 0.941667"/>
    <path d="M 186.467799 155.494465 
L 186.467799 155.494465 
L 192.399259 155.494465 
L 192.399259 155.494465 
z
" clip-path="url(#p443b0a5ada)" style="fill: #008000; fill-opacity: 0.9; stroke: #000000; stroke-width: 0.941667"/>
    <path d="M 194.854452 155.494465 
L 194.854452 160.097095 
L 200.785912 160.097095 
L 200.785912 155.494465 
z
" clip-path="url(#p443b0a5ada)" style="fill: #008000; fill-opacity: 0.9; stroke: #000000; stroke-width: 0.941667"/>
    <path d="M 203.241105 161.017621 
L 203.241105 172.98446 
L 209.172565 172.98446 
L 209.172565 161.017621 
z
" clip-path="url(#p443b0a5ada)" style="fill: #008000; fill-opacity: 0.9; stroke: #000000; stroke-width: 0.941667"/>
    <path d="M 211.627758 172.98446 
L 211.627758 170.222882 
L 217.559219 170.222882 
L 217.559219 172.98446 
z
" clip-path="url(#p443b0a5ada)" style="fill: #ff0000; fill-opacity: 0.9; stroke: #000000; stroke-width: 0.941667"/>
    <path d="M 220.014411 171.143408 
L 220.014411 163.7792 
L 225.945872 163.7792 
L 225.945872 171.143408 
z
" clip-path="url(#p443b0a5ada)" style="fill: #ff0000; fill-opacity: 0.9; stroke: #000000; stroke-width: 0.941667"/>
    <path d="M 228.401065 163.7792 
L 228.401065 172.98446 
L 234.332525 172.98446 
L 234.332525 163.7792 
z
" clip-path="url(#p443b0a5ada)" style="fill: #008000; fill-opacity: 0.9; stroke: #000000; stroke-width: 0.941667"/>
    <path d="M 236.787718 173.904986 
L 236.787718 172.98446 
L 242.719178 172.98446 
L 242.719178 173.904986 
z
" clip-path="url(#p443b0a5ada)" style="fill: #ff0000; fill-opacity: 0.9; stroke: #000000; stroke-width: 0.941667"/>
    <path d="M 245.174371 172.98446 
L 245.174371 167.461304 
L 251.105831 167.461304 
L 251.105831 172.98446 
z
" clip-path="url(#p443b0a5ada)" style="fill: #ff0000; fill-opacity: 0.9; stroke: #000000; stroke-width: 0.941667"/>
    <path d="M 253.561024 169.302356 
L 253.561024 166.540778 
L 259.492485 166.540778 
L 259.492485 169.302356 
z
" clip-path="url(#p443b0a5ada)" style="fill: #ff0000; fill-opacity: 0.9; stroke: #000000; stroke-width: 0.941667"/>
    <path d="M 261.947677 166.540778 
L 261.947677 168.38183 
L 267.879138 168.38183 
L 267.879138 166.540778 
z
" clip-path="url(#p443b0a5ada)" style="fill: #008000; fill-opacity: 0.9; stroke: #000000; stroke-width: 0.941667"/>
    <path d="M 270.33433 169.302356 
L 270.33433 181.269194 
L 276.265791 181.269194 
L 276.265791 169.302356 
z
" clip-path="url(#p443b0a5ada)" style="fill: #008000; fill-opacity: 0.9; stroke: #000000; stroke-width: 0.941667"/>
    <path d="M 278.720984 181.269194 
L 278.720984 177.58709 
L 284.652444 177.58709 
L 284.652444 181.269194 
z
" clip-path="url(#p443b0a5ada)" style="fill: #ff0000; fill-opacity: 0.9; stroke: #000000; stroke-width: 0.941667"/>
    <path d="M 287.107637 179.428142 
L 287.107637 187.712876 
L 293.039097 187.712876 
L 293.039097 179.428142 
z
" clip-path="url(#p443b0a5ada)" style="fill: #008000; fill-opacity: 0.9; stroke: #000000; stroke-width: 0.941667"/>
    <path d="M 295.49429 188.633402 
L 295.49429 184.030772 
L 301.42575 184.030772 
L 301.42575 188.633402 
z
" clip-path="url(#p443b0a5ada)" style="fill: #ff0000; fill-opacity: 0.9; stroke: #000000; stroke-width: 0.941667"/>
    <path d="M 303.880943 184.030772 
L 303.880943 186.79235 
L 309.812404 186.79235 
L 309.812404 184.030772 
z
" clip-path="url(#p443b0a5ada)" style="fill: #008000; fill-opacity: 0.9; stroke: #000000; stroke-width: 0.941667"/>
    <path d="M 312.267596 180.348668 
L 312.267596 171.143408 
L 318.199057 171.143408 
L 318.199057 180.348668 
z
" clip-path="url(#p443b0a5ada)" style="fill: #ff0000; fill-opacity: 0.9; stroke: #000000; stroke-width: 0.941667"/>
    <path d="M 320.65425 170.222882 
L 320.65425 171.143408 
L 326.58571 171.143408 
L 326.58571 170.222882 
z
" clip-path="url(#p443b0a5ada)" style="fill: #008000; fill-opacity: 0.9; stroke: #000000; stroke-width: 0.941667"/>
    <path d="M 329.040903 172.98446 
L 329.040903 177.58709 
L 334.972363 177.58709 
L 334.972363 172.98446 
z
" clip-path="url(#p443b0a5ada)" style="fill: #008000; fill-opacity: 0.9; stroke: #000000; stroke-width: 0.941667"/>
    <path d="M 337.427556 180.348668 
L 337.427556 181.269194 
L 343.359016 181.269194 
L 343.359016 180.348668 
z
" clip-path="url(#p443b0a5ada)" style="fill: #008000; fill-opacity: 0.9; stroke: #000000; stroke-width: 0.941667"/>
    <path d="M 345.814209 180.348668 
L 345.814209 184.951298 
L 351.74567 184.951298 
L 351.74567 180.348668 
z
" clip-path="url(#p443b0a5ada)" style="fill: #008000; fill-opacity: 0.9; stroke: #000000; stroke-width: 0.941667"/>
    <path d="M 354.200862 184.030772 
L 354.200862 184.030772 
L 360.132323 184.030772 
L 360.132323 184.030772 
z
" clip-path="url(#p443b0a5ada)" style="fill: #008000; fill-opacity: 0.9; stroke: #000000; stroke-width: 0.941667"/>
    <path d="M 362.587515 187.712876 
L 362.587515 184.951298 
L 368.518976 184.951298 
L 368.518976 187.712876 
z
" clip-path="url(#p443b0a5ada)" style="fill: #ff0000; fill-opacity: 0.9; stroke: #000000; stroke-width: 0.941667"/>
    <path d="M 370.974169 184.951298 
L 370.974169 187.712876 
L 376.905629 187.712876 
L 376.905629 184.951298 
z
" clip-path="url(#p443b0a5ada)" style="fill: #008000; fill-opacity: 0.9; stroke: #000000; stroke-width: 0.941667"/>
    <path d="M 379.360822 187.712876 
L 379.360822 195.99761 
L 385.292282 195.99761 
L 385.292282 187.712876 
z
" clip-path="url(#p443b0a5ada)" style="fill: #008000; fill-opacity: 0.9; stroke: #000000; stroke-width: 0.941667"/>
    <path d="M 387.747475 196.918136 
L 387.747475 200.60024 
L 393.678935 200.60024 
L 393.678935 196.918136 
z
" clip-path="url(#p443b0a5ada)" style="fill: #008000; fill-opacity: 0.9; stroke: #000000; stroke-width: 0.941667"/>
    <path d="M 396.134128 201.520766 
L 396.134128 195.99761 
L 402.065589 195.99761 
L 402.065589 201.520766 
z
" clip-path="url(#p443b0a5ada)" style="fill: #ff0000; fill-opacity: 0.9; stroke: #000000; stroke-width: 0.941667"/>
    <path d="M 404.520781 186.79235 
L 404.520781 159.176569 
L 410.452242 159.176569 
L 410.452242 186.79235 
z
" clip-path="url(#p443b0a5ada)" style="fill: #ff0000; fill-opacity: 0.9; stroke: #000000; stroke-width: 0.941667"/>
    <path d="M 412.907435 160.097095 
L 412.907435 147.209731 
L 418.838895 147.209731 
L 418.838895 160.097095 
z
" clip-path="url(#p443b0a5ada)" style="fill: #ff0000; fill-opacity: 0.9; stroke: #000000; stroke-width: 0.941667"/>
    <path d="M 421.294088 143.527627 
L 421.294088 108.547639 
L 427.225548 108.547639 
L 427.225548 143.527627 
z
" clip-path="url(#p443b0a5ada)" style="fill: #ff0000; fill-opacity: 0.9; stroke: #000000; stroke-width: 0.941667"/>
    <path d="M 429.680741 114.070795 
L 429.680741 103.945009 
L 435.612201 103.945009 
L 435.612201 114.070795 
z
" clip-path="url(#p443b0a5ada)" style="fill: #ff0000; fill-opacity: 0.9; stroke: #000000; stroke-width: 0.941667"/>
    <path d="M 438.067394 114.070795 
L 438.067394 74.488176 
L 443.998855 74.488176 
L 443.998855 114.070795 
z
" clip-path="url(#p443b0a5ada)" style="fill: #ff0000; fill-opacity: 0.9; stroke: #000000; stroke-width: 0.941667"/>
    <path d="M 446.454047 80.931858 
L 446.454047 92.898696 
L 452.385508 92.898696 
L 452.385508 80.931858 
z
" clip-path="url(#p443b0a5ada)" style="fill: #008000; fill-opacity: 0.9; stroke: #000000; stroke-width: 0.941667"/>
    <path d="M 454.840701 102.103957 
L 454.840701 127.878685 
L 460.772161 127.878685 
L 460.772161 102.103957 
z
" clip-path="url(#p443b0a5ada)" style="fill: #008000; fill-opacity: 0.9; stroke: #000000; stroke-width: 0.941667"/>
    <path d="M 463.227354 125.117107 
L 463.227354 83.693436 
L 469.158814 83.693436 
L 469.158814 125.117107 
z
" clip-path="url(#p443b0a5ada)" style="fill: #ff0000; fill-opacity: 0.9; stroke: #000000; stroke-width: 0.941667"/>
    <path d="M 471.614007 81.852384 
L 471.614007 99.342379 
L 477.545467 99.342379 
L 477.545467 81.852384 
z
" clip-path="url(#p443b0a5ada)" style="fill: #008000; fill-opacity: 0.9; stroke: #000000; stroke-width: 0.941667"/>
    <path d="M 480.00066 100.262905 
L 480.00066 113.150269 
L 485.932121 113.150269 
L 485.932121 100.262905 
z
" clip-path="url(#p443b0a5ada)" style="fill: #008000; fill-opacity: 0.9; stroke: #000000; stroke-width: 0.941667"/>
    <path d="M 488.387313 116.832373 
L 488.387313 113.150269 
L 494.318774 113.150269 
L 494.318774 116.832373 
z
" clip-path="url(#p443b0a5ada)" style="fill: #ff0000; fill-opacity: 0.9; stroke: #000000; stroke-width: 0.941667"/>
   </g>
   <g id="LineCollection_1">
    <path d="M 130.726957 162.858674 
L 130.726957 157.335517 
" clip-path="url(#p443b0a5ada)" style="fill: none; stroke: #000000; stroke-width: 0.941667"/>
    <path d="M 139.11361 159.176569 
L 139.11361 158.256043 
" clip-path="url(#p443b0a5ada)" style="fill: none; stroke: #000000; stroke-width: 0.941667"/>
    <path d="M 147.500263 150.891835 
L 147.500263 148.130257 
" clip-path="url(#p443b0a5ada)" style="fill: none; stroke: #000000; stroke-width: 0.941667"/>
    <path d="M 155.886916 161.938148 
L 155.886916 150.891835 
" clip-path="url(#p443b0a5ada)" style="fill: none; stroke: #000000; stroke-width: 0.941667"/>
    <path d="M 164.273569 157.335517 
L 164.273569 155.494465 
" clip-path="url(#p443b0a5ada)" style="fill: none; stroke: #000000; stroke-width: 0.941667"/>
    <path d="M 172.660222 157.335517 
L 172.660222 152.732887 
" clip-path="url(#p443b0a5ada)" style="fill: none; stroke: #000000; stroke-width: 0.941667"/>
    <path d="M 181.046876 155.494465 
L 181.046876 154.573939 
" clip-path="url(#p443b0a5ada)" style="fill: none; stroke: #000000; stroke-width: 0.941667"/>
    <path d="M 189.433529 161.017621 
L 189.433529 155.494465 
" clip-path="url(#p443b0a5ada)" style="fill: none; stroke: #000000; stroke-width: 0.941667"/>
    <path d="M 197.820182 161.017621 
L 197.820182 160.097095 
" clip-path="url(#p443b0a5ada)" style="fill: none; stroke: #000000; stroke-width: 0.941667"/>
    <path d="M 206.206835 173.904986 
L 206.206835 172.98446 
" clip-path="url(#p443b0a5ada)" style="fill: none; stroke: #000000; stroke-width: 0.941667"/>
    <path d="M 214.593488 173.904986 
L 214.593488 172.98446 
" clip-path="url(#p443b0a5ada)" style="fill: none; stroke: #000000; stroke-width: 0.941667"/>
    <path d="M 222.980142 172.98446 
L 222.980142 171.143408 
" clip-path="url(#p443b0a5ada)" style="fill: none; stroke: #000000; stroke-width: 0.941667"/>
    <path d="M 231.366795 173.904986 
L 231.366795 172.98446 
" clip-path="url(#p443b0a5ada)" style="fill: none; stroke: #000000; stroke-width: 0.941667"/>
    <path d="M 239.753448 175.746038 
L 239.753448 173.904986 
" clip-path="url(#p443b0a5ada)" style="fill: none; stroke: #000000; stroke-width: 0.941667"/>
    <path d="M 248.140101 172.98446 
L 248.140101 172.98446 
" clip-path="url(#p443b0a5ada)" style="fill: none; stroke: #000000; stroke-width: 0.941667"/>
    <path d="M 256.526754 172.063934 
L 256.526754 169.302356 
" clip-path="url(#p443b0a5ada)" style="fill: none; stroke: #000000; stroke-width: 0.941667"/>
    <path d="M 264.913407 171.143408 
L 264.913407 168.38183 
" clip-path="url(#p443b0a5ada)" style="fill: none; stroke: #000000; stroke-width: 0.941667"/>
    <path d="M 273.300061 183.110246 
L 273.300061 181.269194 
" clip-path="url(#p443b0a5ada)" style="fill: none; stroke: #000000; stroke-width: 0.941667"/>
    <path d="M 281.686714 184.030772 
L 281.686714 181.269194 
" clip-path="url(#p443b0a5ada)" style="fill: none; stroke: #000000; stroke-width: 0.941667"/>
    <path d="M 290.073367 190.474454 
L 290.073367 187.712876 
" clip-path="url(#p443b0a5ada)" style="fill: none; stroke: #000000; stroke-width: 0.941667"/>
    <path d="M 298.46002 198.759188 
L 298.46002 188.633402 
" clip-path="url(#p443b0a5ada)" style="fill: none; stroke: #000000; stroke-width: 0.941667"/>
    <path d="M 306.846673 188.633402 
L 306.846673 186.79235 
" clip-path="url(#p443b0a5ada)" style="fill: none; stroke: #000000; stroke-width: 0.941667"/>
    <path d="M 315.233327 183.110246 
L 315.233327 180.348668 
" clip-path="url(#p443b0a5ada)" style="fill: none; stroke: #000000; stroke-width: 0.941667"/>
    <path d="M 323.61998 172.98446 
L 323.61998 171.143408 
" clip-path="url(#p443b0a5ada)" style="fill: none; stroke: #000000; stroke-width: 0.941667"/>
    <path d="M 332.006633 178.507616 
L 332.006633 177.58709 
" clip-path="url(#p443b0a5ada)" style="fill: none; stroke: #000000; stroke-width: 0.941667"/>
    <path d="M 340.393286 183.110246 
L 340.393286 181.269194 
" clip-path="url(#p443b0a5ada)" style="fill: none; stroke: #000000; stroke-width: 0.941667"/>
    <path d="M 348.779939 187.712876 
L 348.779939 184.951298 
" clip-path="url(#p443b0a5ada)" style="fill: none; stroke: #000000; stroke-width: 0.941667"/>
    <path d="M 357.166593 191.39498 
L 357.166593 184.030772 
" clip-path="url(#p443b0a5ada)" style="fill: none; stroke: #000000; stroke-width: 0.941667"/>
    <path d="M 365.553246 187.712876 
L 365.553246 187.712876 
" clip-path="url(#p443b0a5ada)" style="fill: none; stroke: #000000; stroke-width: 0.941667"/>
    <path d="M 373.939899 189.553928 
L 373.939899 187.712876 
" clip-path="url(#p443b0a5ada)" style="fill: none; stroke: #000000; stroke-width: 0.941667"/>
    <path d="M 382.326552 195.99761 
L 382.326552 195.99761 
" clip-path="url(#p443b0a5ada)" style="fill: none; stroke: #000000; stroke-width: 0.941667"/>
    <path d="M 390.713205 202.441292 
L 390.713205 200.60024 
" clip-path="url(#p443b0a5ada)" style="fill: none; stroke: #000000; stroke-width: 0.941667"/>
    <path d="M 399.099858 203.361818 
L 399.099858 201.520766 
" clip-path="url(#p443b0a5ada)" style="fill: none; stroke: #000000; stroke-width: 0.941667"/>
    <path d="M 407.486512 189.553928 
L 407.486512 186.79235 
" clip-path="url(#p443b0a5ada)" style="fill: none; stroke: #000000; stroke-width: 0.941667"/>
    <path d="M 415.873165 163.7792 
L 415.873165 160.097095 
" clip-path="url(#p443b0a5ada)" style="fill: none; stroke: #000000; stroke-width: 0.941667"/>
    <path d="M 424.259818 152.732887 
L 424.259818 143.527627 
" clip-path="url(#p443b0a5ada)" style="fill: none; stroke: #000000; stroke-width: 0.941667"/>
    <path d="M 432.646471 119.593951 
L 432.646471 114.070795 
" clip-path="url(#p443b0a5ada)" style="fill: none; stroke: #000000; stroke-width: 0.941667"/>
    <path d="M 441.033124 114.991321 
L 441.033124 114.070795 
" clip-path="url(#p443b0a5ada)" style="fill: none; stroke: #000000; stroke-width: 0.941667"/>
    <path d="M 449.419778 95.660274 
L 449.419778 92.898696 
" clip-path="url(#p443b0a5ada)" style="fill: none; stroke: #000000; stroke-width: 0.941667"/>
    <path d="M 457.806431 128.799211 
L 457.806431 127.878685 
" clip-path="url(#p443b0a5ada)" style="fill: none; stroke: #000000; stroke-width: 0.941667"/>
    <path d="M 466.193084 127.878685 
L 466.193084 125.117107 
" clip-path="url(#p443b0a5ada)" style="fill: none; stroke: #000000; stroke-width: 0.941667"/>
    <path d="M 474.579737 103.945009 
L 474.579737 99.342379 
" clip-path="url(#p443b0a5ada)" style="fill: none; stroke: #000000; stroke-width: 0.941667"/>
    <path d="M 482.96639 115.911847 
L 482.96639 113.150269 
" clip-path="url(#p443b0a5ada)" style="fill: none; stroke: #000000; stroke-width: 0.941667"/>
    <path d="M 491.353043 117.752899 
L 491.353043 116.832373 
" clip-path="url(#p443b0a5ada)" style="fill: none; stroke: #000000; stroke-width: 0.941667"/>
    <path d="M 130.726957 151.812361 
L 130.726957 152.732887 
" clip-path="url(#p443b0a5ada)" style="fill: none; stroke: #000000; stroke-width: 0.941667"/>
    <path d="M 139.11361 133.401841 
L 139.11361 134.322367 
" clip-path="url(#p443b0a5ada)" style="fill: none; stroke: #000000; stroke-width: 0.941667"/>
    <path d="M 147.500263 140.766049 
L 147.500263 141.686575 
" clip-path="url(#p443b0a5ada)" style="fill: none; stroke: #000000; stroke-width: 0.941667"/>
    <path d="M 155.886916 145.368679 
L 155.886916 147.209731 
" clip-path="url(#p443b0a5ada)" style="fill: none; stroke: #000000; stroke-width: 0.941667"/>
    <path d="M 164.273569 149.971309 
L 164.273569 150.891835 
" clip-path="url(#p443b0a5ada)" style="fill: none; stroke: #000000; stroke-width: 0.941667"/>
    <path d="M 172.660222 148.130257 
L 172.660222 148.130257 
" clip-path="url(#p443b0a5ada)" style="fill: none; stroke: #000000; stroke-width: 0.941667"/>
    <path d="M 181.046876 148.130257 
L 181.046876 148.130257 
" clip-path="url(#p443b0a5ada)" style="fill: none; stroke: #000000; stroke-width: 0.941667"/>
    <path d="M 189.433529 150.891835 
L 189.433529 155.494465 
" clip-path="url(#p443b0a5ada)" style="fill: none; stroke: #000000; stroke-width: 0.941667"/>
    <path d="M 197.820182 152.732887 
L 197.820182 155.494465 
" clip-path="url(#p443b0a5ada)" style="fill: none; stroke: #000000; stroke-width: 0.941667"/>
    <path d="M 206.206835 161.017621 
L 206.206835 161.017621 
" clip-path="url(#p443b0a5ada)" style="fill: none; stroke: #000000; stroke-width: 0.941667"/>
    <path d="M 214.593488 161.938148 
L 214.593488 170.222882 
" clip-path="url(#p443b0a5ada)" style="fill: none; stroke: #000000; stroke-width: 0.941667"/>
    <path d="M 222.980142 162.858674 
L 222.980142 163.7792 
" clip-path="url(#p443b0a5ada)" style="fill: none; stroke: #000000; stroke-width: 0.941667"/>
    <path d="M 231.366795 162.858674 
L 231.366795 163.7792 
" clip-path="url(#p443b0a5ada)" style="fill: none; stroke: #000000; stroke-width: 0.941667"/>
    <path d="M 239.753448 165.620252 
L 239.753448 172.98446 
" clip-path="url(#p443b0a5ada)" style="fill: none; stroke: #000000; stroke-width: 0.941667"/>
    <path d="M 248.140101 167.461304 
L 248.140101 167.461304 
" clip-path="url(#p443b0a5ada)" style="fill: none; stroke: #000000; stroke-width: 0.941667"/>
    <path d="M 256.526754 164.699726 
L 256.526754 166.540778 
" clip-path="url(#p443b0a5ada)" style="fill: none; stroke: #000000; stroke-width: 0.941667"/>
    <path d="M 264.913407 162.858674 
L 264.913407 166.540778 
" clip-path="url(#p443b0a5ada)" style="fill: none; stroke: #000000; stroke-width: 0.941667"/>
    <path d="M 273.300061 167.461304 
L 273.300061 169.302356 
" clip-path="url(#p443b0a5ada)" style="fill: none; stroke: #000000; stroke-width: 0.941667"/>
    <path d="M 281.686714 176.666564 
L 281.686714 177.58709 
" clip-path="url(#p443b0a5ada)" style="fill: none; stroke: #000000; stroke-width: 0.941667"/>
    <path d="M 290.073367 179.428142 
L 290.073367 179.428142 
" clip-path="url(#p443b0a5ada)" style="fill: none; stroke: #000000; stroke-width: 0.941667"/>
    <path d="M 298.46002 182.18972 
L 298.46002 184.030772 
" clip-path="url(#p443b0a5ada)" style="fill: none; stroke: #000000; stroke-width: 0.941667"/>
    <path d="M 306.846673 181.269194 
L 306.846673 184.030772 
" clip-path="url(#p443b0a5ada)" style="fill: none; stroke: #000000; stroke-width: 0.941667"/>
    <path d="M 315.233327 170.222882 
L 315.233327 171.143408 
" clip-path="url(#p443b0a5ada)" style="fill: none; stroke: #000000; stroke-width: 0.941667"/>
    <path d="M 323.61998 169.302356 
L 323.61998 170.222882 
" clip-path="url(#p443b0a5ada)" style="fill: none; stroke: #000000; stroke-width: 0.941667"/>
    <path d="M 332.006633 171.143408 
L 332.006633 172.98446 
" clip-path="url(#p443b0a5ada)" style="fill: none; stroke: #000000; stroke-width: 0.941667"/>
    <path d="M 340.393286 177.58709 
L 340.393286 180.348668 
" clip-path="url(#p443b0a5ada)" style="fill: none; stroke: #000000; stroke-width: 0.941667"/>
    <path d="M 348.779939 180.348668 
L 348.779939 180.348668 
" clip-path="url(#p443b0a5ada)" style="fill: none; stroke: #000000; stroke-width: 0.941667"/>
    <path d="M 357.166593 182.18972 
L 357.166593 184.030772 
" clip-path="url(#p443b0a5ada)" style="fill: none; stroke: #000000; stroke-width: 0.941667"/>
    <path d="M 365.553246 182.18972 
L 365.553246 184.951298 
" clip-path="url(#p443b0a5ada)" style="fill: none; stroke: #000000; stroke-width: 0.941667"/>
    <path d="M 373.939899 184.030772 
L 373.939899 184.951298 
" clip-path="url(#p443b0a5ada)" style="fill: none; stroke: #000000; stroke-width: 0.941667"/>
    <path d="M 382.326552 184.951298 
L 382.326552 187.712876 
" clip-path="url(#p443b0a5ada)" style="fill: none; stroke: #000000; stroke-width: 0.941667"/>
    <path d="M 390.713205 193.236032 
L 390.713205 196.918136 
" clip-path="url(#p443b0a5ada)" style="fill: none; stroke: #000000; stroke-width: 0.941667"/>
    <path d="M 399.099858 192.315506 
L 399.099858 195.99761 
" clip-path="url(#p443b0a5ada)" style="fill: none; stroke: #000000; stroke-width: 0.941667"/>
    <path d="M 407.486512 159.176569 
L 407.486512 159.176569 
" clip-path="url(#p443b0a5ada)" style="fill: none; stroke: #000000; stroke-width: 0.941667"/>
    <path d="M 415.873165 119.593951 
L 415.873165 147.209731 
" clip-path="url(#p443b0a5ada)" style="fill: none; stroke: #000000; stroke-width: 0.941667"/>
    <path d="M 424.259818 104.865535 
L 424.259818 108.547639 
" clip-path="url(#p443b0a5ada)" style="fill: none; stroke: #000000; stroke-width: 0.941667"/>
    <path d="M 432.646471 81.852384 
L 432.646471 103.945009 
" clip-path="url(#p443b0a5ada)" style="fill: none; stroke: #000000; stroke-width: 0.941667"/>
    <path d="M 441.033124 57.918708 
L 441.033124 74.488176 
" clip-path="url(#p443b0a5ada)" style="fill: none; stroke: #000000; stroke-width: 0.941667"/>
    <path d="M 449.419778 56.998182 
L 449.419778 80.931858 
" clip-path="url(#p443b0a5ada)" style="fill: none; stroke: #000000; stroke-width: 0.941667"/>
    <path d="M 457.806431 96.5808 
L 457.806431 102.103957 
" clip-path="url(#p443b0a5ada)" style="fill: none; stroke: #000000; stroke-width: 0.941667"/>
    <path d="M 466.193084 83.693436 
L 466.193084 83.693436 
" clip-path="url(#p443b0a5ada)" style="fill: none; stroke: #000000; stroke-width: 0.941667"/>
    <path d="M 474.579737 75.408702 
L 474.579737 81.852384 
" clip-path="url(#p443b0a5ada)" style="fill: none; stroke: #000000; stroke-width: 0.941667"/>
    <path d="M 482.96639 100.262905 
L 482.96639 100.262905 
" clip-path="url(#p443b0a5ada)" style="fill: none; stroke: #000000; stroke-width: 0.941667"/>
    <path d="M 491.353043 91.97817 
L 491.353043 113.150269 
" clip-path="url(#p443b0a5ada)" style="fill: none; stroke: #000000; stroke-width: 0.941667"/>
   </g>
   <g id="line2d_25">
    <path d="M 164.273569 148.498468 
L 172.660222 146.657416 
L 181.046876 150.70773 
L 189.433529 152.180572 
L 197.820182 154.758045 
L 206.206835 158.256043 
L 214.593488 162.674568 
L 222.980142 164.51562 
L 231.366795 168.013619 
L 239.753448 170.591092 
L 248.140101 169.486461 
L 256.526754 168.75004 
L 264.913407 169.670566 
L 273.300061 171.327513 
L 281.686714 172.248039 
L 290.073367 176.298353 
L 298.46002 179.796352 
L 306.846673 183.478456 
L 315.233327 181.453299 
L 323.61998 180.164563 
L 332.006633 178.139405 
L 340.393286 177.58709 
L 348.779939 177.218879 
L 357.166593 179.796352 
L 365.553246 182.55793 
L 373.939899 184.583087 
L 382.326552 187.528771 
L 390.713205 190.658559 
L 399.099858 193.051927 
L 407.486512 187.896981 
L 415.873165 179.796352 
L 424.259818 162.306358 
L 432.646471 142.975312 
L 441.033124 118.673425 
L 449.419778 105.41785 
L 457.806431 101.551641 
L 466.193084 96.5808 
L 474.579737 95.660274 
L 482.96639 103.392693 
L 491.353043 107.443007 
" clip-path="url(#p443b0a5ada)" style="fill: none; stroke: #0000ff; stroke-linecap: square"/>
   </g>
   <g id="line2d_26">
    <path d="M 206.206835 153.377256 
L 214.593488 154.665992 
L 222.980142 157.611675 
L 231.366795 160.097095 
L 239.753448 162.674568 
L 248.140101 163.871252 
L 256.526754 165.712304 
L 264.913407 167.093093 
L 273.300061 169.670566 
L 281.686714 171.419565 
L 290.073367 172.892407 
L 298.46002 174.273196 
L 306.846673 176.574511 
L 315.233327 176.390406 
L 323.61998 176.206301 
L 332.006633 177.218879 
L 340.393286 178.691721 
L 348.779939 180.348668 
L 357.166593 180.624826 
L 365.553246 181.361246 
L 373.939899 181.361246 
L 382.326552 182.55793 
L 390.713205 183.938719 
L 399.099858 186.42414 
L 407.486512 185.227456 
L 415.873165 182.18972 
L 424.259818 174.917564 
L 432.646471 166.816935 
L 441.033124 155.862676 
L 449.419778 146.657416 
L 457.806431 140.673997 
L 466.193084 129.443579 
L 474.579737 119.317793 
L 482.96639 111.033059 
L 491.353043 106.430429 
" clip-path="url(#p443b0a5ada)" style="fill: none; stroke: #ffa500; stroke-linecap: square"/>
   </g>
   <g id="line2d_27">
    <path d="M 290.073367 163.134831 
L 298.46002 164.469594 
L 306.846673 167.093093 
L 315.233327 168.243751 
L 323.61998 169.440435 
L 332.006633 170.545066 
L 340.393286 172.202013 
L 348.779939 173.720881 
L 357.166593 175.147696 
L 365.553246 176.390406 
L 373.939899 177.126827 
L 382.326552 178.415563 
L 390.713205 180.256615 
L 399.099858 181.407273 
L 407.486512 180.716878 
L 415.873165 179.7043 
L 424.259818 176.804643 
L 432.646471 173.582802 
L 441.033124 168.243751 
L 449.419778 164.009331 
L 457.806431 161.017621 
L 466.193084 156.000755 
L 474.579737 151.628256 
L 482.96639 148.728599 
L 491.353043 145.828942 
" clip-path="url(#p443b0a5ada)" style="fill: none; stroke: #008000; stroke-linecap: square"/>
   </g>
   <g id="patch_3">
    <path d="M 103.68 210.68 
L 103.68 49.68 
" style="fill: none; stroke: #f0f0f0; stroke-width: 0.8; stroke-linejoin: miter; stroke-linecap: square"/>
   </g>
   <g id="patch_4">
    <path d="M 518.4 210.68 
L 518.4 49.68 
" style="fill: none; stroke: #f0f0f0; stroke-width: 0.8; stroke-linejoin: miter; stroke-linecap: square"/>
   </g>
   <g id="patch_5">
    <path d="M 103.68 210.68 
L 518.4 210.68 
" style="fill: none; stroke: #f0f0f0; stroke-width: 0.8; stroke-linejoin: miter; stroke-linecap: square"/>
   </g>
   <g id="patch_6">
    <path d="M 103.68 49.68 
L 518.4 49.68 
" style="fill: none; stroke: #f0f0f0; stroke-width: 0.8; stroke-linejoin: miter; stroke-linecap: square"/>
   </g>
   <g id="legend_1">
    <g id="patch_7">
     <path d="M 110.68 205.68 
L 162.68 205.68 
Q 164.68 205.68 164.68 203.68 
L 164.68 164.93 
Q 164.68 162.93 162.68 162.93 
L 110.68 162.93 
Q 108.68 162.93 108.68 164.93 
L 108.68 203.68 
Q 108.68 205.68 110.68 205.68 
z
" style="fill: #fafafa; opacity: 0.8; stroke: #cccccc; stroke-linejoin: miter"/>
    </g>
    <g id="line2d_28">
     <path d="M 112.68 170.43 
L 122.68 170.43 
L 132.68 170.43 
" style="fill: none; stroke: #0000ff; stroke-width: 2; stroke-linecap: square"/>
    </g>
    <g id="text_9">
     <!-- MA5 -->
     <g transform="translate(140.68 173.93) scale(0.1 -0.1)">
      <defs>
       <path id="SimHei-4d" d="M 2925 125 
L 2425 125 
L 2425 3175 
L 2375 3175 
L 1775 125 
L 1375 125 
L 775 3175 
L 725 3175 
L 725 125 
L 225 125 
L 225 4400 
L 1000 4400 
L 1550 1575 
L 1600 1575 
L 2150 4400 
L 2925 4400 
L 2925 125 
z
" transform="scale(0.015625)"/>
       <path id="SimHei-41" d="M 3075 125 
L 2475 125 
L 2125 1450 
L 1025 1450 
L 675 125 
L 75 125 
L 1325 4450 
L 1825 4450 
L 3075 125 
z
M 2000 1925 
L 1600 3450 
L 1550 3450 
L 1150 1925 
L 2000 1925 
z
" transform="scale(0.015625)"/>
      </defs>
      <use xlink:href="#SimHei-4d"/>
      <use xlink:href="#SimHei-41" x="50"/>
      <use xlink:href="#SimHei-35" x="100"/>
     </g>
    </g>
    <g id="line2d_29">
     <path d="M 112.68 183.68 
L 122.68 183.68 
L 132.68 183.68 
" style="fill: none; stroke: #ffa500; stroke-width: 2; stroke-linecap: square"/>
    </g>
    <g id="text_10">
     <!-- MA10 -->
     <g transform="translate(140.68 187.18) scale(0.1 -0.1)">
      <defs>
       <path id="SimHei-31" d="M 1400 3600 
Q 1075 3275 575 2975 
L 575 3450 
Q 1200 3875 1600 4450 
L 1900 4450 
L 1900 150 
L 1400 150 
L 1400 3600 
z
" transform="scale(0.015625)"/>
      </defs>
      <use xlink:href="#SimHei-4d"/>
      <use xlink:href="#SimHei-41" x="50"/>
      <use xlink:href="#SimHei-31" x="100"/>
      <use xlink:href="#SimHei-30" x="150"/>
     </g>
    </g>
    <g id="line2d_30">
     <path d="M 112.68 196.93 
L 122.68 196.93 
L 132.68 196.93 
" style="fill: none; stroke: #008000; stroke-width: 2; stroke-linecap: square"/>
    </g>
    <g id="text_11">
     <!-- MA20 -->
     <g transform="translate(140.68 200.43) scale(0.1 -0.1)">
      <use xlink:href="#SimHei-4d"/>
      <use xlink:href="#SimHei-41" x="50"/>
      <use xlink:href="#SimHei-32" x="100"/>
      <use xlink:href="#SimHei-30" x="150"/>
     </g>
    </g>
   </g>
  </g>
  <g id="axes_2">
   <g id="patch_8">
    <path d="M 103.68 275.08 
L 518.4 275.08 
L 518.4 210.68 
L 103.68 210.68 
z
" style="fill: #fafafa"/>
   </g>
   <g id="matplotlib.axis_3">
    <g id="xtick_6">
     <g id="line2d_31">
      <path d="M 130.726957 275.08 
L 130.726957 210.68 
" clip-path="url(#pa784964928)" style="fill: none; stroke: #d0d0d0; stroke-width: 0.8; stroke-linecap: square"/>
     </g>
     <g id="line2d_32">
      <g>
       <use xlink:href="#m28f7cefd25" x="130.726957" y="275.08" style="fill: #101010; stroke: #101010; stroke-width: 0.8"/>
      </g>
     </g>
    </g>
    <g id="xtick_7">
     <g id="line2d_33">
      <path d="M 214.593488 275.08 
L 214.593488 210.68 
" clip-path="url(#pa784964928)" style="fill: none; stroke: #d0d0d0; stroke-width: 0.8; stroke-linecap: square"/>
     </g>
     <g id="line2d_34">
      <g>
       <use xlink:href="#m28f7cefd25" x="214.593488" y="275.08" style="fill: #101010; stroke: #101010; stroke-width: 0.8"/>
      </g>
     </g>
    </g>
    <g id="xtick_8">
     <g id="line2d_35">
      <path d="M 298.46002 275.08 
L 298.46002 210.68 
" clip-path="url(#pa784964928)" style="fill: none; stroke: #d0d0d0; stroke-width: 0.8; stroke-linecap: square"/>
     </g>
     <g id="line2d_36">
      <g>
       <use xlink:href="#m28f7cefd25" x="298.46002" y="275.08" style="fill: #101010; stroke: #101010; stroke-width: 0.8"/>
      </g>
     </g>
    </g>
    <g id="xtick_9">
     <g id="line2d_37">
      <path d="M 382.326552 275.08 
L 382.326552 210.68 
" clip-path="url(#pa784964928)" style="fill: none; stroke: #d0d0d0; stroke-width: 0.8; stroke-linecap: square"/>
     </g>
     <g id="line2d_38">
      <g>
       <use xlink:href="#m28f7cefd25" x="382.326552" y="275.08" style="fill: #101010; stroke: #101010; stroke-width: 0.8"/>
      </g>
     </g>
    </g>
    <g id="xtick_10">
     <g id="line2d_39">
      <path d="M 466.193084 275.08 
L 466.193084 210.68 
" clip-path="url(#pa784964928)" style="fill: none; stroke: #d0d0d0; stroke-width: 0.8; stroke-linecap: square"/>
     </g>
     <g id="line2d_40">
      <g>
       <use xlink:href="#m28f7cefd25" x="466.193084" y="275.08" style="fill: #101010; stroke: #101010; stroke-width: 0.8"/>
      </g>
     </g>
    </g>
   </g>
   <g id="matplotlib.axis_4">
    <g id="ytick_8">
     <g id="line2d_41">
      <path d="M 103.68 255.406836 
L 518.4 255.406836 
" clip-path="url(#pa784964928)" style="fill: none; stroke: #d0d0d0; stroke-width: 0.8; stroke-linecap: square"/>
     </g>
     <g id="line2d_42">
      <g>
       <use xlink:href="#m04a6dc0970" x="518.4" y="255.406836" style="fill: #101010; stroke: #101010; stroke-width: 0.8"/>
      </g>
     </g>
     <g id="text_12">
      <!-- 250000 -->
      <g style="fill: #101010" transform="translate(525.4 258.844336) scale(0.1 -0.1)">
       <use xlink:href="#SimHei-32"/>
       <use xlink:href="#SimHei-35" x="50"/>
       <use xlink:href="#SimHei-30" x="100"/>
       <use xlink:href="#SimHei-30" x="150"/>
       <use xlink:href="#SimHei-30" x="200"/>
       <use xlink:href="#SimHei-30" x="250"/>
      </g>
     </g>
    </g>
    <g id="ytick_9">
     <g id="line2d_43">
      <path d="M 103.68 235.047598 
L 518.4 235.047598 
" clip-path="url(#pa784964928)" style="fill: none; stroke: #d0d0d0; stroke-width: 0.8; stroke-linecap: square"/>
     </g>
     <g id="line2d_44">
      <g>
       <use xlink:href="#m04a6dc0970" x="518.4" y="235.047598" style="fill: #101010; stroke: #101010; stroke-width: 0.8"/>
      </g>
     </g>
     <g id="text_13">
      <!-- 500000 -->
      <g style="fill: #101010" transform="translate(525.4 238.485098) scale(0.1 -0.1)">
       <use xlink:href="#SimHei-35"/>
       <use xlink:href="#SimHei-30" x="50"/>
       <use xlink:href="#SimHei-30" x="100"/>
       <use xlink:href="#SimHei-30" x="150"/>
       <use xlink:href="#SimHei-30" x="200"/>
       <use xlink:href="#SimHei-30" x="250"/>
      </g>
     </g>
    </g>
    <g id="ytick_10">
     <g id="line2d_45">
      <path d="M 103.68 214.688359 
L 518.4 214.688359 
" clip-path="url(#pa784964928)" style="fill: none; stroke: #d0d0d0; stroke-width: 0.8; stroke-linecap: square"/>
     </g>
     <g id="line2d_46">
      <g>
       <use xlink:href="#m04a6dc0970" x="518.4" y="214.688359" style="fill: #101010; stroke: #101010; stroke-width: 0.8"/>
      </g>
     </g>
     <g id="text_14">
      <!-- 750000 -->
      <g style="fill: #101010" transform="translate(525.4 218.125859) scale(0.1 -0.1)">
       <use xlink:href="#SimHei-37"/>
       <use xlink:href="#SimHei-35" x="50"/>
       <use xlink:href="#SimHei-30" x="100"/>
       <use xlink:href="#SimHei-30" x="150"/>
       <use xlink:href="#SimHei-30" x="200"/>
       <use xlink:href="#SimHei-30" x="250"/>
      </g>
     </g>
    </g>
    <g id="text_15">
     <!-- volume -->
     <g style="fill: #101010" transform="translate(566.275 257.88) rotate(-90) scale(0.1 -0.1)">
      <defs>
       <path id="SimHei-76" d="M 2875 2925 
L 1825 75 
L 1275 75 
L 225 2925 
L 750 2925 
L 1525 750 
L 1575 750 
L 2350 2925 
L 2875 2925 
z
" transform="scale(0.015625)"/>
       <path id="SimHei-6f" d="M 2925 1525 
Q 2925 875 2525 475 
Q 2125 75 1575 75 
Q 1025 75 625 475 
Q 225 875 225 1525 
Q 225 2175 625 2575 
Q 1025 2975 1575 2975 
Q 2125 2975 2525 2575 
Q 2925 2175 2925 1525 
z
M 2375 1525 
Q 2375 2025 2125 2275 
Q 1875 2525 1575 2525 
Q 1275 2525 1025 2275 
Q 775 2025 775 1525 
Q 775 1025 1025 775 
Q 1275 525 1575 525 
Q 1875 525 2125 775 
Q 2375 1025 2375 1525 
z
" transform="scale(0.015625)"/>
       <path id="SimHei-6c" d="M 1825 125 
L 1325 125 
L 1325 4400 
L 1825 4400 
L 1825 125 
z
" transform="scale(0.015625)"/>
       <path id="SimHei-75" d="M 2800 125 
L 2300 125 
L 2300 650 
Q 2100 375 1862 225 
Q 1625 75 1250 75 
Q 800 75 575 325 
Q 350 575 350 950 
L 350 2925 
L 850 2925 
L 850 1125 
Q 850 825 1000 650 
Q 1150 475 1400 475 
Q 1725 475 2012 812 
Q 2300 1150 2300 1650 
L 2300 2925 
L 2800 2925 
L 2800 125 
z
" transform="scale(0.015625)"/>
       <path id="SimHei-6d" d="M 3050 125 
L 2550 125 
L 2550 2150 
Q 2550 2300 2500 2400 
Q 2450 2500 2300 2500 
Q 2125 2500 1975 2312 
Q 1825 2125 1825 1825 
L 1825 125 
L 1325 125 
L 1325 2150 
Q 1325 2300 1275 2400 
Q 1225 2500 1075 2500 
Q 900 2500 750 2312 
Q 600 2125 600 1825 
L 600 125 
L 100 125 
L 100 2925 
L 600 2925 
L 600 2550 
Q 725 2750 900 2862 
Q 1075 2975 1275 2975 
Q 1475 2975 1612 2862 
Q 1750 2750 1800 2550 
Q 1925 2750 2087 2862 
Q 2250 2975 2450 2975 
Q 2750 2975 2900 2812 
Q 3050 2650 3050 2350 
L 3050 125 
z
" transform="scale(0.015625)"/>
      </defs>
      <use xlink:href="#SimHei-76"/>
      <use xlink:href="#SimHei-6f" x="50"/>
      <use xlink:href="#SimHei-6c" x="100"/>
      <use xlink:href="#SimHei-75" x="150"/>
      <use xlink:href="#SimHei-6d" x="200"/>
      <use xlink:href="#SimHei-65" x="250"/>
     </g>
     <!--  -->
     <g style="fill: #101010" transform="translate(575.775 242.88) rotate(-90) scale(0.1 -0.1)"/>
    </g>
   </g>
   <g id="patch_9">
    <path d="M 128.691795 275.766074 
L 132.762118 275.766074 
L 132.762118 271.567429 
L 128.691795 271.567429 
z
" clip-path="url(#pa784964928)" style="fill: #008000; stroke: #007300; stroke-width: 0.65; stroke-linejoin: miter"/>
   </g>
   <g id="patch_10">
    <path d="M 137.078449 275.766074 
L 141.148771 275.766074 
L 141.148771 263.398895 
L 137.078449 263.398895 
z
" clip-path="url(#pa784964928)" style="fill: #ff0000; stroke: #e60000; stroke-width: 0.65; stroke-linejoin: miter"/>
   </g>
   <g id="patch_11">
    <path d="M 145.465102 275.766074 
L 149.535424 275.766074 
L 149.535424 265.876777 
L 145.465102 265.876777 
z
" clip-path="url(#pa784964928)" style="fill: #008000; stroke: #007300; stroke-width: 0.65; stroke-linejoin: miter"/>
   </g>
   <g id="patch_12">
    <path d="M 153.851755 275.766074 
L 157.922077 275.766074 
L 157.922077 269.753746 
L 153.851755 269.753746 
z
" clip-path="url(#pa784964928)" style="fill: #ff0000; stroke: #e60000; stroke-width: 0.65; stroke-linejoin: miter"/>
   </g>
   <g id="patch_13">
    <path d="M 162.238408 275.766074 
L 166.30873 275.766074 
L 166.30873 270.372016 
L 162.238408 270.372016 
z
" clip-path="url(#pa784964928)" style="fill: #008000; stroke: #007300; stroke-width: 0.65; stroke-linejoin: miter"/>
   </g>
   <g id="patch_14">
    <path d="M 170.625061 275.766074 
L 174.695384 275.766074 
L 174.695384 271.560425 
L 170.625061 271.560425 
z
" clip-path="url(#pa784964928)" style="fill: #ff0000; stroke: #e60000; stroke-width: 0.65; stroke-linejoin: miter"/>
   </g>
   <g id="patch_15">
    <path d="M 179.011714 275.766074 
L 183.082037 275.766074 
L 183.082037 272.308342 
L 179.011714 272.308342 
z
" clip-path="url(#pa784964928)" style="fill: #008000; stroke: #007300; stroke-width: 0.65; stroke-linejoin: miter"/>
   </g>
   <g id="patch_16">
    <path d="M 187.398368 275.766074 
L 191.46869 275.766074 
L 191.46869 270.905183 
L 187.398368 270.905183 
z
" clip-path="url(#pa784964928)" style="fill: #008000; stroke: #007300; stroke-width: 0.65; stroke-linejoin: miter"/>
   </g>
   <g id="patch_17">
    <path d="M 195.785021 275.766074 
L 199.855343 275.766074 
L 199.855343 272.267624 
L 195.785021 272.267624 
z
" clip-path="url(#pa784964928)" style="fill: #008000; stroke: #007300; stroke-width: 0.65; stroke-linejoin: miter"/>
   </g>
   <g id="patch_18">
    <path d="M 204.171674 275.766074 
L 208.241996 275.766074 
L 208.241996 271.516286 
L 204.171674 271.516286 
z
" clip-path="url(#pa784964928)" style="fill: #008000; stroke: #007300; stroke-width: 0.65; stroke-linejoin: miter"/>
   </g>
   <g id="patch_19">
    <path d="M 212.558327 275.766074 
L 216.62865 275.766074 
L 216.62865 271.813694 
L 212.558327 271.813694 
z
" clip-path="url(#pa784964928)" style="fill: #ff0000; stroke: #e60000; stroke-width: 0.65; stroke-linejoin: miter"/>
   </g>
   <g id="patch_20">
    <path d="M 220.94498 275.766074 
L 225.015303 275.766074 
L 225.015303 272.501836 
L 220.94498 272.501836 
z
" clip-path="url(#pa784964928)" style="fill: #ff0000; stroke: #e60000; stroke-width: 0.65; stroke-linejoin: miter"/>
   </g>
   <g id="patch_21">
    <path d="M 229.331634 275.766074 
L 233.401956 275.766074 
L 233.401956 272.517879 
L 229.331634 272.517879 
z
" clip-path="url(#pa784964928)" style="fill: #008000; stroke: #007300; stroke-width: 0.65; stroke-linejoin: miter"/>
   </g>
   <g id="patch_22">
    <path d="M 237.718287 275.766074 
L 241.788609 275.766074 
L 241.788609 271.101528 
L 237.718287 271.101528 
z
" clip-path="url(#pa784964928)" style="fill: #ff0000; stroke: #e60000; stroke-width: 0.65; stroke-linejoin: miter"/>
   </g>
   <g id="patch_23">
    <path d="M 246.10494 275.766074 
L 250.175262 275.766074 
L 250.175262 272.574478 
L 246.10494 272.574478 
z
" clip-path="url(#pa784964928)" style="fill: #ff0000; stroke: #e60000; stroke-width: 0.65; stroke-linejoin: miter"/>
   </g>
   <g id="patch_24">
    <path d="M 254.491593 275.766074 
L 258.561915 275.766074 
L 258.561915 272.92881 
L 254.491593 272.92881 
z
" clip-path="url(#pa784964928)" style="fill: #ff0000; stroke: #e60000; stroke-width: 0.65; stroke-linejoin: miter"/>
   </g>
   <g id="patch_25">
    <path d="M 262.878246 275.766074 
L 266.948569 275.766074 
L 266.948569 272.861136 
L 262.878246 272.861136 
z
" clip-path="url(#pa784964928)" style="fill: #008000; stroke: #007300; stroke-width: 0.65; stroke-linejoin: miter"/>
   </g>
   <g id="patch_26">
    <path d="M 271.264899 275.766074 
L 275.335222 275.766074 
L 275.335222 271.18777 
L 271.264899 271.18777 
z
" clip-path="url(#pa784964928)" style="fill: #008000; stroke: #007300; stroke-width: 0.65; stroke-linejoin: miter"/>
   </g>
   <g id="patch_27">
    <path d="M 279.651553 275.766074 
L 283.721875 275.766074 
L 283.721875 272.871723 
L 279.651553 272.871723 
z
" clip-path="url(#pa784964928)" style="fill: #ff0000; stroke: #e60000; stroke-width: 0.65; stroke-linejoin: miter"/>
   </g>
   <g id="patch_28">
    <path d="M 288.038206 275.766074 
L 292.108528 275.766074 
L 292.108528 272.184395 
L 288.038206 272.184395 
z
" clip-path="url(#pa784964928)" style="fill: #008000; stroke: #007300; stroke-width: 0.65; stroke-linejoin: miter"/>
   </g>
   <g id="patch_29">
    <path d="M 296.424859 275.766074 
L 300.495181 275.766074 
L 300.495181 271.109346 
L 296.424859 271.109346 
z
" clip-path="url(#pa784964928)" style="fill: #ff0000; stroke: #e60000; stroke-width: 0.65; stroke-linejoin: miter"/>
   </g>
   <g id="patch_30">
    <path d="M 304.811512 275.766074 
L 308.881835 275.766074 
L 308.881835 272.629122 
L 304.811512 272.629122 
z
" clip-path="url(#pa784964928)" style="fill: #008000; stroke: #007300; stroke-width: 0.65; stroke-linejoin: miter"/>
   </g>
   <g id="patch_31">
    <path d="M 313.198165 275.766074 
L 317.268488 275.766074 
L 317.268488 270.671704 
L 313.198165 270.671704 
z
" clip-path="url(#pa784964928)" style="fill: #ff0000; stroke: #e60000; stroke-width: 0.65; stroke-linejoin: miter"/>
   </g>
   <g id="patch_32">
    <path d="M 321.584819 275.766074 
L 325.655141 275.766074 
L 325.655141 272.822942 
L 321.584819 272.822942 
z
" clip-path="url(#pa784964928)" style="fill: #008000; stroke: #007300; stroke-width: 0.65; stroke-linejoin: miter"/>
   </g>
   <g id="patch_33">
    <path d="M 329.971472 275.766074 
L 334.041794 275.766074 
L 334.041794 273.479161 
L 329.971472 273.479161 
z
" clip-path="url(#pa784964928)" style="fill: #008000; stroke: #007300; stroke-width: 0.65; stroke-linejoin: miter"/>
   </g>
   <g id="patch_34">
    <path d="M 338.358125 275.766074 
L 342.428447 275.766074 
L 342.428447 273.235583 
L 338.358125 273.235583 
z
" clip-path="url(#pa784964928)" style="fill: #008000; stroke: #007300; stroke-width: 0.65; stroke-linejoin: miter"/>
   </g>
   <g id="patch_35">
    <path d="M 346.744778 275.766074 
L 350.815101 275.766074 
L 350.815101 273.253174 
L 346.744778 273.253174 
z
" clip-path="url(#pa784964928)" style="fill: #008000; stroke: #007300; stroke-width: 0.65; stroke-linejoin: miter"/>
   </g>
   <g id="patch_36">
    <path d="M 355.131431 275.766074 
L 359.201754 275.766074 
L 359.201754 273.32378 
L 355.131431 273.32378 
z
" clip-path="url(#pa784964928)" style="fill: #008000; stroke: #007300; stroke-width: 0.65; stroke-linejoin: miter"/>
   </g>
   <g id="patch_37">
    <path d="M 363.518085 275.766074 
L 367.588407 275.766074 
L 367.588407 273.260503 
L 363.518085 273.260503 
z
" clip-path="url(#pa784964928)" style="fill: #ff0000; stroke: #e60000; stroke-width: 0.65; stroke-linejoin: miter"/>
   </g>
   <g id="patch_38">
    <path d="M 371.904738 275.766074 
L 375.97506 275.766074 
L 375.97506 273.241854 
L 371.904738 273.241854 
z
" clip-path="url(#pa784964928)" style="fill: #008000; stroke: #007300; stroke-width: 0.65; stroke-linejoin: miter"/>
   </g>
   <g id="patch_39">
    <path d="M 380.291391 275.766074 
L 384.361713 275.766074 
L 384.361713 272.659417 
L 380.291391 272.659417 
z
" clip-path="url(#pa784964928)" style="fill: #008000; stroke: #007300; stroke-width: 0.65; stroke-linejoin: miter"/>
   </g>
   <g id="patch_40">
    <path d="M 388.678044 275.766074 
L 392.748366 275.766074 
L 392.748366 271.911256 
L 388.678044 271.911256 
z
" clip-path="url(#pa784964928)" style="fill: #008000; stroke: #007300; stroke-width: 0.65; stroke-linejoin: miter"/>
   </g>
   <g id="patch_41">
    <path d="M 397.064697 275.766074 
L 401.13502 275.766074 
L 401.13502 273.123852 
L 397.064697 273.123852 
z
" clip-path="url(#pa784964928)" style="fill: #ff0000; stroke: #e60000; stroke-width: 0.65; stroke-linejoin: miter"/>
   </g>
   <g id="patch_42">
    <path d="M 405.45135 275.766074 
L 409.521673 275.766074 
L 409.521673 251.383932 
L 405.45135 251.383932 
z
" clip-path="url(#pa784964928)" style="fill: #ff0000; stroke: #e60000; stroke-width: 0.65; stroke-linejoin: miter"/>
   </g>
   <g id="patch_43">
    <path d="M 413.838004 275.766074 
L 417.908326 275.766074 
L 417.908326 240.872538 
L 413.838004 240.872538 
z
" clip-path="url(#pa784964928)" style="fill: #ff0000; stroke: #e60000; stroke-width: 0.65; stroke-linejoin: miter"/>
   </g>
   <g id="patch_44">
    <path d="M 422.224657 275.766074 
L 426.294979 275.766074 
L 426.294979 237.793244 
L 422.224657 237.793244 
z
" clip-path="url(#pa784964928)" style="fill: #ff0000; stroke: #e60000; stroke-width: 0.65; stroke-linejoin: miter"/>
   </g>
   <g id="patch_45">
    <path d="M 430.61131 275.766074 
L 434.681632 275.766074 
L 434.681632 234.826496 
L 430.61131 234.826496 
z
" clip-path="url(#pa784964928)" style="fill: #ff0000; stroke: #e60000; stroke-width: 0.65; stroke-linejoin: miter"/>
   </g>
   <g id="patch_46">
    <path d="M 438.997963 275.766074 
L 443.068286 275.766074 
L 443.068286 216.596916 
L 438.997963 216.596916 
z
" clip-path="url(#pa784964928)" style="fill: #ff0000; stroke: #e60000; stroke-width: 0.65; stroke-linejoin: miter"/>
   </g>
   <g id="patch_47">
    <path d="M 447.384616 275.766074 
L 451.454939 275.766074 
L 451.454939 228.471726 
L 447.384616 228.471726 
z
" clip-path="url(#pa784964928)" style="fill: #008000; stroke: #007300; stroke-width: 0.65; stroke-linejoin: miter"/>
   </g>
   <g id="patch_48">
    <path d="M 455.77127 275.766074 
L 459.841592 275.766074 
L 459.841592 240.224545 
L 455.77127 240.224545 
z
" clip-path="url(#pa784964928)" style="fill: #008000; stroke: #007300; stroke-width: 0.65; stroke-linejoin: miter"/>
   </g>
   <g id="patch_49">
    <path d="M 464.157923 275.766074 
L 468.228245 275.766074 
L 468.228245 248.449595 
L 464.157923 248.449595 
z
" clip-path="url(#pa784964928)" style="fill: #ff0000; stroke: #e60000; stroke-width: 0.65; stroke-linejoin: miter"/>
   </g>
   <g id="patch_50">
    <path d="M 472.544576 275.766074 
L 476.614898 275.766074 
L 476.614898 245.18772 
L 472.544576 245.18772 
z
" clip-path="url(#pa784964928)" style="fill: #008000; stroke: #007300; stroke-width: 0.65; stroke-linejoin: miter"/>
   </g>
   <g id="patch_51">
    <path d="M 480.931229 275.766074 
L 485.001551 275.766074 
L 485.001551 258.203381 
L 480.931229 258.203381 
z
" clip-path="url(#pa784964928)" style="fill: #008000; stroke: #007300; stroke-width: 0.65; stroke-linejoin: miter"/>
   </g>
   <g id="patch_52">
    <path d="M 489.317882 275.766074 
L 493.388205 275.766074 
L 493.388205 254.457525 
L 489.317882 254.457525 
z
" clip-path="url(#pa784964928)" style="fill: #ff0000; stroke: #e60000; stroke-width: 0.65; stroke-linejoin: miter"/>
   </g>
   <g id="patch_53">
    <path d="M 103.68 275.08 
L 103.68 210.68 
" style="fill: none; stroke: #f0f0f0; stroke-width: 0.8; stroke-linejoin: miter; stroke-linecap: square"/>
   </g>
   <g id="patch_54">
    <path d="M 518.4 275.08 
L 518.4 210.68 
" style="fill: none; stroke: #f0f0f0; stroke-width: 0.8; stroke-linejoin: miter; stroke-linecap: square"/>
   </g>
   <g id="patch_55">
    <path d="M 103.68 275.08 
L 518.4 275.08 
" style="fill: none; stroke: #f0f0f0; stroke-width: 0.8; stroke-linejoin: miter; stroke-linecap: square"/>
   </g>
   <g id="patch_56">
    <path d="M 103.68 210.68 
L 518.4 210.68 
" style="fill: none; stroke: #f0f0f0; stroke-width: 0.8; stroke-linejoin: miter; stroke-linecap: square"/>
   </g>
  </g>
  <g id="axes_3">
   <g id="patch_57">
    <path d="M 103.68 339.48 
L 518.4 339.48 
L 518.4 275.08 
L 103.68 275.08 
z
" style="fill: #fafafa"/>
   </g>
   <g id="matplotlib.axis_5">
    <g id="xtick_11">
     <g id="line2d_47">
      <path d="M 130.726957 339.48 
L 130.726957 275.08 
" clip-path="url(#p8926651be4)" style="fill: none; stroke: #d0d0d0; stroke-width: 0.8; stroke-linecap: square"/>
     </g>
     <g id="line2d_48">
      <g>
       <use xlink:href="#m28f7cefd25" x="130.726957" y="339.48" style="fill: #101010; stroke: #101010; stroke-width: 0.8"/>
      </g>
     </g>
     <g id="text_16">
      <!-- 0611 -->
      <g style="fill: #101010" transform="translate(121.795627 358.297121) rotate(-15) scale(0.1 -0.1)">
       <defs>
        <path id="SimHei-36" d="M 250 1612 
Q 275 1975 387 2225 
Q 500 2475 725 2850 
L 1750 4450 
L 2325 4450 
L 1275 2800 
Q 1950 2975 2350 2750 
Q 2750 2525 2887 2237 
Q 3025 1950 3037 1612 
Q 3050 1275 2937 950 
Q 2825 625 2537 362 
Q 2250 100 1737 75 
Q 1225 50 862 262 
Q 500 475 362 862 
Q 225 1250 250 1612 
z
M 1025 787 
Q 1250 550 1625 525 
Q 2000 500 2250 775 
Q 2500 1050 2500 1575 
Q 2500 2100 2187 2300 
Q 1875 2500 1487 2450 
Q 1100 2400 925 2075 
Q 750 1750 775 1387 
Q 800 1025 1025 787 
z
" transform="scale(0.015625)"/>
       </defs>
       <use xlink:href="#SimHei-30"/>
       <use xlink:href="#SimHei-36" x="50"/>
       <use xlink:href="#SimHei-31" x="100"/>
       <use xlink:href="#SimHei-31" x="150"/>
      </g>
     </g>
    </g>
    <g id="xtick_12">
     <g id="line2d_49">
      <path d="M 214.593488 339.48 
L 214.593488 275.08 
" clip-path="url(#p8926651be4)" style="fill: none; stroke: #d0d0d0; stroke-width: 0.8; stroke-linecap: square"/>
     </g>
     <g id="line2d_50">
      <g>
       <use xlink:href="#m28f7cefd25" x="214.593488" y="339.48" style="fill: #101010; stroke: #101010; stroke-width: 0.8"/>
      </g>
     </g>
     <g id="text_17">
      <!-- 0625 -->
      <g style="fill: #101010" transform="translate(205.662159 358.297121) rotate(-15) scale(0.1 -0.1)">
       <use xlink:href="#SimHei-30"/>
       <use xlink:href="#SimHei-36" x="50"/>
       <use xlink:href="#SimHei-32" x="100"/>
       <use xlink:href="#SimHei-35" x="150"/>
      </g>
     </g>
    </g>
    <g id="xtick_13">
     <g id="line2d_51">
      <path d="M 298.46002 339.48 
L 298.46002 275.08 
" clip-path="url(#p8926651be4)" style="fill: none; stroke: #d0d0d0; stroke-width: 0.8; stroke-linecap: square"/>
     </g>
     <g id="line2d_52">
      <g>
       <use xlink:href="#m28f7cefd25" x="298.46002" y="339.48" style="fill: #101010; stroke: #101010; stroke-width: 0.8"/>
      </g>
     </g>
     <g id="text_18">
      <!-- 0709 -->
      <g style="fill: #101010" transform="translate(289.528691 358.297121) rotate(-15) scale(0.1 -0.1)">
       <defs>
        <path id="SimHei-39" d="M 800 75 
Q 1350 1000 1700 1750 
Q 1075 1650 662 1912 
Q 250 2175 162 2625 
Q 75 3075 175 3437 
Q 275 3800 487 4037 
Q 700 4275 1000 4375 
Q 1300 4475 1537 4475 
Q 1775 4475 2025 4375 
Q 2275 4275 2475 4075 
Q 2675 3875 2750 3662 
Q 2825 3450 2825 3112 
Q 2825 2775 2575 2250 
Q 2325 1725 1350 75 
L 800 75 
z
M 662 2875 
Q 700 2550 937 2337 
Q 1175 2125 1450 2150 
Q 1725 2175 1887 2300 
Q 2050 2425 2200 2725 
Q 2300 3100 2250 3362 
Q 2200 3625 1987 3800 
Q 1775 3975 1525 3975 
Q 1375 4000 1137 3900 
Q 900 3800 762 3500 
Q 625 3200 662 2875 
z
" transform="scale(0.015625)"/>
       </defs>
       <use xlink:href="#SimHei-30"/>
       <use xlink:href="#SimHei-37" x="50"/>
       <use xlink:href="#SimHei-30" x="100"/>
       <use xlink:href="#SimHei-39" x="150"/>
      </g>
     </g>
    </g>
    <g id="xtick_14">
     <g id="line2d_53">
      <path d="M 382.326552 339.48 
L 382.326552 275.08 
" clip-path="url(#p8926651be4)" style="fill: none; stroke: #d0d0d0; stroke-width: 0.8; stroke-linecap: square"/>
     </g>
     <g id="line2d_54">
      <g>
       <use xlink:href="#m28f7cefd25" x="382.326552" y="339.48" style="fill: #101010; stroke: #101010; stroke-width: 0.8"/>
      </g>
     </g>
     <g id="text_19">
      <!-- 0723 -->
      <g style="fill: #101010" transform="translate(373.395222 358.297121) rotate(-15) scale(0.1 -0.1)">
       <defs>
        <path id="SimHei-33" d="M 250 1225 
L 700 1300 
Q 800 975 1025 762 
Q 1250 550 1587 562 
Q 1925 575 2125 837 
Q 2325 1100 2300 1437 
Q 2275 1775 2037 1962 
Q 1800 2150 1275 2225 
L 1275 2550 
Q 1800 2600 2037 2825 
Q 2275 3050 2250 3412 
Q 2225 3775 1925 3937 
Q 1625 4100 1287 3975 
Q 950 3850 750 3275 
L 300 3350 
Q 450 3800 712 4100 
Q 975 4400 1425 4450 
Q 1875 4500 2212 4337 
Q 2550 4175 2687 3837 
Q 2825 3500 2725 3100 
Q 2625 2700 2150 2400 
Q 2500 2250 2687 1950 
Q 2875 1650 2812 1162 
Q 2750 675 2375 375 
Q 2000 75 1525 87 
Q 1050 100 700 387 
Q 350 675 250 1225 
z
" transform="scale(0.015625)"/>
       </defs>
       <use xlink:href="#SimHei-30"/>
       <use xlink:href="#SimHei-37" x="50"/>
       <use xlink:href="#SimHei-32" x="100"/>
       <use xlink:href="#SimHei-33" x="150"/>
      </g>
     </g>
    </g>
    <g id="xtick_15">
     <g id="line2d_55">
      <path d="M 466.193084 339.48 
L 466.193084 275.08 
" clip-path="url(#p8926651be4)" style="fill: none; stroke: #d0d0d0; stroke-width: 0.8; stroke-linecap: square"/>
     </g>
     <g id="line2d_56">
      <g>
       <use xlink:href="#m28f7cefd25" x="466.193084" y="339.48" style="fill: #101010; stroke: #101010; stroke-width: 0.8"/>
      </g>
     </g>
     <g id="text_20">
      <!-- 0806 -->
      <g style="fill: #101010" transform="translate(457.261754 358.297121) rotate(-15) scale(0.1 -0.1)">
       <defs>
        <path id="SimHei-38" d="M 175 1375 
Q 175 1675 325 1962 
Q 475 2250 825 2425 
Q 525 2600 425 2812 
Q 325 3025 312 3300 
Q 300 3575 387 3775 
Q 475 3975 650 4150 
Q 825 4325 1037 4387 
Q 1250 4450 1500 4450 
Q 1750 4450 1950 4400 
Q 2150 4350 2375 4187 
Q 2600 4025 2700 3725 
Q 2800 3425 2687 3025 
Q 2575 2625 2100 2400 
Q 2525 2275 2700 2012 
Q 2875 1750 2875 1375 
Q 2875 1000 2762 775 
Q 2650 550 2512 400 
Q 2375 250 2137 162 
Q 1900 75 1537 75 
Q 1175 75 912 162 
Q 650 250 475 425 
Q 300 600 237 837 
Q 175 1075 175 1375 
z
M 687 1400 
Q 675 1100 787 875 
Q 900 650 1200 587 
Q 1500 525 1825 600 
Q 2150 675 2275 950 
Q 2400 1225 2362 1500 
Q 2325 1775 2050 1962 
Q 1775 2150 1450 2125 
Q 1125 2100 912 1900 
Q 700 1700 687 1400 
z
M 775 3350 
Q 775 3100 950 2875 
Q 1125 2650 1500 2650 
Q 1875 2650 2062 2875 
Q 2250 3100 2237 3412 
Q 2225 3725 2012 3875 
Q 1800 4025 1437 4000 
Q 1075 3975 925 3787 
Q 775 3600 775 3350 
z
" transform="scale(0.015625)"/>
       </defs>
       <use xlink:href="#SimHei-30"/>
       <use xlink:href="#SimHei-38" x="50"/>
       <use xlink:href="#SimHei-30" x="100"/>
       <use xlink:href="#SimHei-36" x="150"/>
      </g>
     </g>
    </g>
   </g>
   <g id="matplotlib.axis_6">
    <g id="ytick_11">
     <g id="line2d_57">
      <path d="M 103.68 334.896562 
L 518.4 334.896562 
" clip-path="url(#p8926651be4)" style="fill: none; stroke: #d0d0d0; stroke-width: 0.8; stroke-linecap: square"/>
     </g>
     <g id="line2d_58">
      <g>
       <use xlink:href="#m04a6dc0970" x="518.4" y="334.896562" style="fill: #101010; stroke: #101010; stroke-width: 0.8"/>
      </g>
     </g>
     <g id="text_21">
      <!-- 10 -->
      <g style="fill: #101010" transform="translate(525.4 338.334062) scale(0.1 -0.1)">
       <use xlink:href="#SimHei-31"/>
       <use xlink:href="#SimHei-30" x="50"/>
      </g>
     </g>
    </g>
    <g id="ytick_12">
     <g id="line2d_59">
      <path d="M 103.68 312.761238 
L 518.4 312.761238 
" clip-path="url(#p8926651be4)" style="fill: none; stroke: #d0d0d0; stroke-width: 0.8; stroke-linecap: square"/>
     </g>
     <g id="line2d_60">
      <g>
       <use xlink:href="#m04a6dc0970" x="518.4" y="312.761238" style="fill: #101010; stroke: #101010; stroke-width: 0.8"/>
      </g>
     </g>
     <g id="text_22">
      <!-- 20 -->
      <g style="fill: #101010" transform="translate(525.4 316.198738) scale(0.1 -0.1)">
       <use xlink:href="#SimHei-32"/>
       <use xlink:href="#SimHei-30" x="50"/>
      </g>
     </g>
    </g>
    <g id="ytick_13">
     <g id="line2d_61">
      <path d="M 103.68 290.625913 
L 518.4 290.625913 
" clip-path="url(#p8926651be4)" style="fill: none; stroke: #d0d0d0; stroke-width: 0.8; stroke-linecap: square"/>
     </g>
     <g id="line2d_62">
      <g>
       <use xlink:href="#m04a6dc0970" x="518.4" y="290.625913" style="fill: #101010; stroke: #101010; stroke-width: 0.8"/>
      </g>
     </g>
     <g id="text_23">
      <!-- 30 -->
      <g style="fill: #101010" transform="translate(525.4 294.063413) scale(0.1 -0.1)">
       <use xlink:href="#SimHei-33"/>
       <use xlink:href="#SimHei-30" x="50"/>
      </g>
     </g>
    </g>
    <g id="text_24">
     <!-- control trend -->
     <g style="fill: #101010" transform="translate(546.275 339.78) rotate(-90) scale(0.1 -0.1)">
      <defs>
       <path id="SimHei-6e" d="M 2800 125 
L 2300 125 
L 2300 1925 
Q 2300 2225 2150 2400 
Q 2000 2575 1750 2575 
Q 1425 2575 1137 2237 
Q 850 1900 850 1400 
L 850 125 
L 350 125 
L 350 2925 
L 850 2925 
L 850 2400 
Q 1050 2675 1287 2825 
Q 1525 2975 1900 2975 
Q 2350 2975 2575 2725 
Q 2800 2475 2800 2100 
L 2800 125 
z
" transform="scale(0.015625)"/>
       <path id="SimHei-74" d="M 2750 200 
Q 2625 150 2462 112 
Q 2300 75 2025 75 
Q 1575 75 1300 325 
Q 1025 575 1025 1025 
L 1025 2525 
L 175 2525 
L 175 2925 
L 1025 2925 
L 1025 3900 
L 1525 3900 
L 1525 2925 
L 2550 2925 
L 2550 2525 
L 1525 2525 
L 1525 1000 
Q 1525 800 1625 662 
Q 1725 525 2000 525 
Q 2275 525 2450 575 
Q 2625 625 2750 700 
L 2750 200 
z
" transform="scale(0.015625)"/>
       <path id="SimHei-20" transform="scale(0.015625)"/>
       <path id="SimHei-64" d="M 2750 125 
L 2250 125 
L 2250 500 
Q 2100 275 1900 175 
Q 1700 75 1425 75 
Q 925 75 575 437 
Q 225 800 225 1525 
Q 225 2250 575 2625 
Q 925 3000 1425 3000 
Q 1700 3000 1900 2887 
Q 2100 2775 2250 2550 
L 2250 4400 
L 2750 4400 
L 2750 125 
z
M 2250 1525 
Q 2250 2000 2037 2275 
Q 1825 2550 1525 2550 
Q 1150 2550 962 2275 
Q 775 2000 775 1525 
Q 775 1050 962 787 
Q 1150 525 1525 525 
Q 1825 525 2037 787 
Q 2250 1050 2250 1525 
z
" transform="scale(0.015625)"/>
      </defs>
      <use xlink:href="#SimHei-63"/>
      <use xlink:href="#SimHei-6f" x="50"/>
      <use xlink:href="#SimHei-6e" x="100"/>
      <use xlink:href="#SimHei-74" x="150"/>
      <use xlink:href="#SimHei-72" x="200"/>
      <use xlink:href="#SimHei-6f" x="250"/>
      <use xlink:href="#SimHei-6c" x="300"/>
      <use xlink:href="#SimHei-20" x="350"/>
      <use xlink:href="#SimHei-74" x="400"/>
      <use xlink:href="#SimHei-72" x="450"/>
      <use xlink:href="#SimHei-65" x="500"/>
      <use xlink:href="#SimHei-6e" x="550"/>
      <use xlink:href="#SimHei-64" x="600"/>
     </g>
    </g>
   </g>
   <g id="line2d_63">
    <path d="M 130.726957 324.698907 
L 139.11361 305.330763 
L 147.500263 311.64305 
L 155.886916 316.852731 
L 164.273569 315.736225 
L 172.660222 323.853514 
L 181.046876 329.302169 
L 189.433529 327.58252 
L 197.820182 323.807119 
L 206.206835 324.414512 
L 214.593488 324.909989 
L 222.980142 322.679988 
L 231.366795 336.552727 
L 239.753448 296.244213 
L 248.140101 314.929171 
L 256.526754 324.312955 
L 264.913407 317.721675 
L 273.300061 329.151914 
L 281.686714 316.956147 
L 290.073367 325.710845 
L 298.46002 320.80185 
L 306.846673 314.658323 
L 315.233327 310.277123 
L 323.61998 328.039836 
L 332.006633 322.965976 
L 340.393286 329.963749 
L 348.779939 327.397468 
L 357.166593 323.535828 
L 365.553246 321.32265 
L 373.939899 335.048411 
L 382.326552 334.407195 
L 390.713205 325.080431 
L 399.099858 318.715463 
L 407.486512 283.979383 
L 415.873165 300.123827 
L 424.259818 293.521036 
L 432.646471 306.693414 
L 441.033124 289.47523 
L 449.419778 308.661244 
L 457.806431 316.431717 
L 466.193084 278.007273 
L 474.579737 305.867501 
L 482.96639 313.809212 
L 491.353043 303.411719 
" clip-path="url(#p8926651be4)" style="fill: none; stroke: #0000ff; stroke-linecap: square"/>
   </g>
   <g id="patch_58">
    <path d="M 103.68 339.48 
L 103.68 275.08 
" style="fill: none; stroke: #f0f0f0; stroke-width: 0.8; stroke-linejoin: miter; stroke-linecap: square"/>
   </g>
   <g id="patch_59">
    <path d="M 518.4 339.48 
L 518.4 275.08 
" style="fill: none; stroke: #f0f0f0; stroke-width: 0.8; stroke-linejoin: miter; stroke-linecap: square"/>
   </g>
   <g id="patch_60">
    <path d="M 103.68 339.48 
L 518.4 339.48 
" style="fill: none; stroke: #f0f0f0; stroke-width: 0.8; stroke-linejoin: miter; stroke-linecap: square"/>
   </g>
   <g id="patch_61">
    <path d="M 103.68 275.08 
L 518.4 275.08 
" style="fill: none; stroke: #f0f0f0; stroke-width: 0.8; stroke-linejoin: miter; stroke-linecap: square"/>
   </g>
  </g>
  <g id="text_25">
   <!-- -20240809 -->
   <g transform="translate(234 13.201875) scale(0.144 -0.144)">
    <defs>
     <path id="SimHei-6fb3" d="M 2125 1250 
Q 2150 1650 2150 2050 
L 2150 3650 
Q 2150 4125 2125 4525 
L 3150 4525 
Q 3275 4825 3375 5300 
Q 3675 5175 3900 5125 
Q 3725 4900 3575 4525 
L 5675 4525 
Q 5650 4125 5650 3700 
L 5650 2175 
Q 5650 1725 5675 1275 
L 5225 1275 
L 5225 4200 
L 2550 4200 
L 2550 1250 
L 2125 1250 
z
M 4225 1375 
Q 4125 1150 4075 1025 
L 5425 1025 
Q 5650 1025 6075 1050 
L 6075 650 
Q 5675 675 5450 675 
L 4250 675 
Q 4550 350 5062 100 
Q 5575 -150 6100 -225 
Q 5900 -475 5825 -675 
Q 5425 -600 4875 -300 
Q 4325 0 3900 525 
Q 3575 25 3050 -237 
Q 2525 -500 1825 -675 
Q 1750 -475 1525 -250 
Q 2150 -200 2725 50 
Q 3300 300 3500 675 
L 2800 675 
Q 2375 675 1775 650 
L 1775 1050 
Q 2350 1025 2800 1025 
L 3625 1025 
Q 3675 1175 3725 1475 
Q 3950 1400 4225 1375 
z
M 4100 4050 
Q 4075 3700 4075 3450 
L 4075 3050 
L 5075 3050 
L 5075 2725 
L 4075 2725 
Q 4075 2150 4100 1625 
L 3650 1625 
Q 3675 2150 3675 2450 
Q 3400 2025 2925 1575 
Q 2775 1750 2575 1875 
Q 3100 2200 3400 2725 
L 2700 2725 
L 2700 3050 
L 3675 3050 
L 3675 3425 
Q 3675 3725 3650 4050 
L 4100 4050 
z
M 1675 1725 
Q 1425 1100 1212 487 
Q 1000 -125 825 -525 
Q 650 -375 350 -250 
Q 525 0 762 562 
Q 1000 1125 1250 2025 
Q 1475 1800 1675 1725 
z
M 650 3450 
Q 1125 3150 1650 2750 
Q 1450 2550 1325 2350 
Q 925 2725 375 3050 
Q 500 3225 650 3450 
z
M 1000 4925 
Q 1425 4600 1925 4100 
Q 1725 3950 1575 3750 
Q 1150 4250 675 4575 
Q 825 4700 1000 4925 
z
M 4500 2650 
Q 4750 2350 5075 1875 
Q 4900 1800 4700 1625 
Q 4450 2075 4175 2400 
Q 4350 2525 4500 2650 
z
M 4625 3175 
Q 4425 3300 4275 3350 
Q 4500 3675 4625 4025 
Q 4850 3900 5025 3825 
Q 4825 3525 4625 3175 
z
M 3150 4000 
Q 3325 3650 3475 3375 
Q 3250 3275 3100 3175 
Q 2950 3550 2775 3825 
Q 2975 3875 3150 4000 
z
" transform="scale(0.015625)"/>
     <path id="SimHei-67ef" d="M 200 1175 
Q 625 1675 912 2337 
Q 1200 3000 1300 3425 
Q 825 3425 425 3400 
L 425 3850 
Q 850 3825 1325 3825 
L 1325 4475 
Q 1325 4825 1300 5125 
L 1825 5125 
Q 1775 4875 1775 4475 
L 1775 3825 
Q 2125 3825 2475 3850 
L 2475 3400 
Q 2125 3425 1775 3425 
L 1775 2475 
Q 1900 2550 2125 2725 
Q 2500 2100 2650 1875 
Q 2450 1775 2200 1600 
Q 2075 1925 1775 2350 
L 1775 600 
Q 1775 100 1800 -500 
L 1275 -500 
Q 1325 125 1325 600 
L 1325 2275 
Q 1250 2050 1100 1737 
Q 950 1425 575 825 
Q 400 1025 200 1175 
z
M 4550 3475 
Q 4525 3250 4525 2800 
L 4525 1825 
Q 4525 1400 4550 1000 
L 2850 1000 
Q 2875 1325 2875 1650 
L 2875 2850 
Q 2875 3250 2850 3475 
L 4550 3475 
z
M 5500 4650 
Q 5775 4650 6100 4675 
L 6100 4225 
Q 5750 4250 5600 4250 
L 5600 325 
Q 5600 -250 5275 -375 
Q 4950 -500 4600 -525 
Q 4600 -375 4537 -225 
Q 4475 -75 4425 75 
Q 5150 -50 5150 350 
L 5150 4250 
L 3425 4250 
Q 2875 4250 2450 4200 
L 2450 4675 
Q 2800 4650 3425 4650 
L 5500 4650 
z
M 4075 1400 
L 4075 3075 
L 3300 3075 
L 3300 1400 
L 4075 1400 
z
" transform="scale(0.015625)"/>
     <path id="SimHei-739b" d="M 4725 2300 
Q 4875 3925 4950 4375 
L 3625 4375 
Q 3225 4375 2850 4350 
L 2850 4825 
Q 3225 4800 3625 4800 
L 5500 4800 
Q 5450 4550 5350 3662 
Q 5250 2775 5200 2300 
L 6000 2300 
Q 5950 1975 5912 1250 
Q 5875 525 5812 125 
Q 5750 -275 5512 -400 
Q 5275 -525 4500 -625 
Q 4400 -300 4250 -75 
Q 4950 -75 5150 -12 
Q 5350 50 5387 462 
Q 5425 875 5475 1875 
L 3050 1875 
Q 3125 2375 3187 2887 
Q 3250 3400 3275 4000 
L 3825 3925 
Q 3725 3650 3550 2300 
L 4725 2300 
z
M 1950 4700 
Q 2250 4700 2650 4725 
L 2650 4275 
Q 2250 4300 1775 4300 
L 1775 2925 
Q 2125 2925 2500 2950 
L 2500 2475 
Q 2075 2500 1775 2500 
L 1775 950 
Q 2225 1075 2625 1200 
Q 2600 1050 2625 750 
Q 2100 600 1575 425 
Q 1050 250 500 50 
Q 425 325 275 575 
Q 700 650 1300 825 
L 1300 2500 
Q 950 2500 550 2475 
L 550 2950 
Q 950 2925 1300 2925 
L 1300 4300 
Q 775 4300 450 4275 
L 450 4725 
Q 825 4700 1075 4700 
L 1950 4700 
z
M 4375 1200 
Q 4725 1200 5250 1225 
L 5250 750 
Q 4725 775 4350 775 
L 3375 775 
Q 3125 775 2800 750 
L 2800 1225 
Q 3100 1200 3375 1200 
L 4375 1200 
z
" transform="scale(0.015625)"/>
     <path id="SimHei-2d" d="M 2975 2125 
L 125 2125 
L 125 2525 
L 2975 2525 
L 2975 2125 
z
" transform="scale(0.015625)"/>
    </defs>
    <use xlink:href="#SimHei-6fb3"/>
    <use xlink:href="#SimHei-67ef" x="100"/>
    <use xlink:href="#SimHei-739b" x="200"/>
    <use xlink:href="#SimHei-2d" x="300"/>
    <use xlink:href="#SimHei-32" x="350"/>
    <use xlink:href="#SimHei-30" x="400"/>
    <use xlink:href="#SimHei-32" x="450"/>
    <use xlink:href="#SimHei-34" x="500"/>
    <use xlink:href="#SimHei-30" x="550"/>
    <use xlink:href="#SimHei-38" x="600"/>
    <use xlink:href="#SimHei-30" x="650"/>
    <use xlink:href="#SimHei-39" x="700"/>
   </g>
  </g>
 </g>
 <defs>
  <clipPath id="p443b0a5ada">
   <rect x="103.68" y="49.68" width="414.72" height="161"/>
  </clipPath>
  <clipPath id="pa784964928">
   <rect x="103.68" y="210.68" width="414.72" height="64.4"/>
  </clipPath>
  <clipPath id="p8926651be4">
   <rect x="103.68" y="275.08" width="414.72" height="64.4"/>
  </clipPath>
 </defs>
</svg>
