<?xml version="1.0" encoding="utf-8" standalone="no"?>
<!DOCTYPE svg PUBLIC "-//W3C//DTD SVG 1.1//EN"
  "http://www.w3.org/Graphics/SVG/1.1/DTD/svg11.dtd">
<svg xmlns:xlink="http://www.w3.org/1999/xlink" width="576pt" height="414pt" viewBox="0 0 576 414" xmlns="http://www.w3.org/2000/svg" version="1.1">
 <metadata>
  <rdf:RDF xmlns:dc="http://purl.org/dc/elements/1.1/" xmlns:cc="http://creativecommons.org/ns#" xmlns:rdf="http://www.w3.org/1999/02/22-rdf-syntax-ns#">
   <cc:Work>
    <dc:type rdf:resource="http://purl.org/dc/dcmitype/StillImage"/>
    <dc:date>2024-08-09T18:06:57.599114</dc:date>
    <dc:format>image/svg+xml</dc:format>
    <dc:creator>
     <cc:Agent>
      <dc:title>Matplotlib v3.8.4, https://matplotlib.org/</dc:title>
     </cc:Agent>
    </dc:creator>
   </cc:Work>
  </rdf:RDF>
 </metadata>
 <defs>
  <style type="text/css">*{stroke-linejoin: round; stroke-linecap: butt}</style>
 </defs>
 <g id="figure_1">
  <g id="patch_1">
   <path d="M 0 414 
L 576 414 
L 576 0 
L 0 0 
z
" style="fill: #ffffff"/>
  </g>
  <g id="axes_1">
   <g id="patch_2">
    <path d="M 103.68 210.68 
L 518.4 210.68 
L 518.4 49.68 
L 103.68 49.68 
z
" style="fill: #fafafa"/>
   </g>
   <g id="matplotlib.axis_1">
    <g id="xtick_1">
     <g id="line2d_1">
      <path d="M 130.726957 210.68 
L 130.726957 49.68 
" clip-path="url(#p9e63f169e1)" style="fill: none; stroke: #d0d0d0; stroke-width: 0.8; stroke-linecap: square"/>
     </g>
     <g id="line2d_2">
      <defs>
       <path id="m798a21b49f" d="M 0 0 
L 0 3.5 
" style="stroke: #101010; stroke-width: 0.8"/>
      </defs>
      <g>
       <use xlink:href="#m798a21b49f" x="130.726957" y="210.68" style="fill: #101010; stroke: #101010; stroke-width: 0.8"/>
      </g>
     </g>
    </g>
    <g id="xtick_2">
     <g id="line2d_3">
      <path d="M 214.593488 210.68 
L 214.593488 49.68 
" clip-path="url(#p9e63f169e1)" style="fill: none; stroke: #d0d0d0; stroke-width: 0.8; stroke-linecap: square"/>
     </g>
     <g id="line2d_4">
      <g>
       <use xlink:href="#m798a21b49f" x="214.593488" y="210.68" style="fill: #101010; stroke: #101010; stroke-width: 0.8"/>
      </g>
     </g>
    </g>
    <g id="xtick_3">
     <g id="line2d_5">
      <path d="M 298.46002 210.68 
L 298.46002 49.68 
" clip-path="url(#p9e63f169e1)" style="fill: none; stroke: #d0d0d0; stroke-width: 0.8; stroke-linecap: square"/>
     </g>
     <g id="line2d_6">
      <g>
       <use xlink:href="#m798a21b49f" x="298.46002" y="210.68" style="fill: #101010; stroke: #101010; stroke-width: 0.8"/>
      </g>
     </g>
    </g>
    <g id="xtick_4">
     <g id="line2d_7">
      <path d="M 382.326552 210.68 
L 382.326552 49.68 
" clip-path="url(#p9e63f169e1)" style="fill: none; stroke: #d0d0d0; stroke-width: 0.8; stroke-linecap: square"/>
     </g>
     <g id="line2d_8">
      <g>
       <use xlink:href="#m798a21b49f" x="382.326552" y="210.68" style="fill: #101010; stroke: #101010; stroke-width: 0.8"/>
      </g>
     </g>
    </g>
    <g id="xtick_5">
     <g id="line2d_9">
      <path d="M 466.193084 210.68 
L 466.193084 49.68 
" clip-path="url(#p9e63f169e1)" style="fill: none; stroke: #d0d0d0; stroke-width: 0.8; stroke-linecap: square"/>
     </g>
     <g id="line2d_10">
      <g>
       <use xlink:href="#m798a21b49f" x="466.193084" y="210.68" style="fill: #101010; stroke: #101010; stroke-width: 0.8"/>
      </g>
     </g>
    </g>
   </g>
   <g id="matplotlib.axis_2">
    <g id="ytick_1">
     <g id="line2d_11">
      <path d="M 103.68 194.062823 
L 518.4 194.062823 
" clip-path="url(#p9e63f169e1)" style="fill: none; stroke: #d0d0d0; stroke-width: 0.8; stroke-linecap: square"/>
     </g>
     <g id="line2d_12">
      <defs>
       <path id="m538e1de140" d="M 0 0 
L 3.5 0 
" style="stroke: #101010; stroke-width: 0.8"/>
      </defs>
      <g>
       <use xlink:href="#m538e1de140" x="518.4" y="194.062823" style="fill: #101010; stroke: #101010; stroke-width: 0.8"/>
      </g>
     </g>
     <g id="text_1">
      <!-- 28 -->
      <g style="fill: #101010" transform="translate(525.4 197.500323) scale(0.1 -0.1)">
       <defs>
        <path id="SimHei-32" d="M 300 250 
Q 325 625 650 925 
Q 975 1225 1475 1862 
Q 1975 2500 2125 2850 
Q 2275 3200 2237 3450 
Q 2200 3700 2000 3862 
Q 1800 4025 1537 4000 
Q 1275 3975 1037 3800 
Q 800 3625 675 3275 
L 200 3350 
Q 400 3925 712 4187 
Q 1025 4450 1450 4475 
Q 1700 4500 1900 4462 
Q 2100 4425 2312 4287 
Q 2525 4150 2662 3875 
Q 2800 3600 2762 3212 
Q 2725 2825 2375 2287 
Q 2025 1750 1025 600 
L 2825 600 
L 2825 150 
L 300 150 
L 300 250 
z
" transform="scale(0.015625)"/>
        <path id="SimHei-38" d="M 175 1375 
Q 175 1675 325 1962 
Q 475 2250 825 2425 
Q 525 2600 425 2812 
Q 325 3025 312 3300 
Q 300 3575 387 3775 
Q 475 3975 650 4150 
Q 825 4325 1037 4387 
Q 1250 4450 1500 4450 
Q 1750 4450 1950 4400 
Q 2150 4350 2375 4187 
Q 2600 4025 2700 3725 
Q 2800 3425 2687 3025 
Q 2575 2625 2100 2400 
Q 2525 2275 2700 2012 
Q 2875 1750 2875 1375 
Q 2875 1000 2762 775 
Q 2650 550 2512 400 
Q 2375 250 2137 162 
Q 1900 75 1537 75 
Q 1175 75 912 162 
Q 650 250 475 425 
Q 300 600 237 837 
Q 175 1075 175 1375 
z
M 687 1400 
Q 675 1100 787 875 
Q 900 650 1200 587 
Q 1500 525 1825 600 
Q 2150 675 2275 950 
Q 2400 1225 2362 1500 
Q 2325 1775 2050 1962 
Q 1775 2150 1450 2125 
Q 1125 2100 912 1900 
Q 700 1700 687 1400 
z
M 775 3350 
Q 775 3100 950 2875 
Q 1125 2650 1500 2650 
Q 1875 2650 2062 2875 
Q 2250 3100 2237 3412 
Q 2225 3725 2012 3875 
Q 1800 4025 1437 4000 
Q 1075 3975 925 3787 
Q 775 3600 775 3350 
z
" transform="scale(0.015625)"/>
       </defs>
       <use xlink:href="#SimHei-32"/>
       <use xlink:href="#SimHei-38" x="50"/>
      </g>
     </g>
    </g>
    <g id="ytick_2">
     <g id="line2d_13">
      <path d="M 103.68 168.586124 
L 518.4 168.586124 
" clip-path="url(#p9e63f169e1)" style="fill: none; stroke: #d0d0d0; stroke-width: 0.8; stroke-linecap: square"/>
     </g>
     <g id="line2d_14">
      <g>
       <use xlink:href="#m538e1de140" x="518.4" y="168.586124" style="fill: #101010; stroke: #101010; stroke-width: 0.8"/>
      </g>
     </g>
     <g id="text_2">
      <!-- 30 -->
      <g style="fill: #101010" transform="translate(525.4 172.023624) scale(0.1 -0.1)">
       <defs>
        <path id="SimHei-33" d="M 250 1225 
L 700 1300 
Q 800 975 1025 762 
Q 1250 550 1587 562 
Q 1925 575 2125 837 
Q 2325 1100 2300 1437 
Q 2275 1775 2037 1962 
Q 1800 2150 1275 2225 
L 1275 2550 
Q 1800 2600 2037 2825 
Q 2275 3050 2250 3412 
Q 2225 3775 1925 3937 
Q 1625 4100 1287 3975 
Q 950 3850 750 3275 
L 300 3350 
Q 450 3800 712 4100 
Q 975 4400 1425 4450 
Q 1875 4500 2212 4337 
Q 2550 4175 2687 3837 
Q 2825 3500 2725 3100 
Q 2625 2700 2150 2400 
Q 2500 2250 2687 1950 
Q 2875 1650 2812 1162 
Q 2750 675 2375 375 
Q 2000 75 1525 87 
Q 1050 100 700 387 
Q 350 675 250 1225 
z
" transform="scale(0.015625)"/>
        <path id="SimHei-30" d="M 225 2537 
Q 250 3200 412 3587 
Q 575 3975 875 4225 
Q 1175 4475 1612 4475 
Q 2050 4475 2375 4112 
Q 2700 3750 2800 3200 
Q 2900 2650 2862 1937 
Q 2825 1225 2612 775 
Q 2400 325 1975 150 
Q 1550 -25 1125 187 
Q 700 400 525 750 
Q 350 1100 275 1487 
Q 200 1875 225 2537 
z
M 750 2687 
Q 675 2000 800 1462 
Q 925 925 1212 700 
Q 1500 475 1800 612 
Q 2100 750 2237 1162 
Q 2375 1575 2375 2062 
Q 2375 2550 2337 2950 
Q 2300 3350 2112 3675 
Q 1925 4000 1612 4012 
Q 1300 4025 1062 3700 
Q 825 3375 750 2687 
z
" transform="scale(0.015625)"/>
       </defs>
       <use xlink:href="#SimHei-33"/>
       <use xlink:href="#SimHei-30" x="50"/>
      </g>
     </g>
    </g>
    <g id="ytick_3">
     <g id="line2d_15">
      <path d="M 103.68 143.109425 
L 518.4 143.109425 
" clip-path="url(#p9e63f169e1)" style="fill: none; stroke: #d0d0d0; stroke-width: 0.8; stroke-linecap: square"/>
     </g>
     <g id="line2d_16">
      <g>
       <use xlink:href="#m538e1de140" x="518.4" y="143.109425" style="fill: #101010; stroke: #101010; stroke-width: 0.8"/>
      </g>
     </g>
     <g id="text_3">
      <!-- 32 -->
      <g style="fill: #101010" transform="translate(525.4 146.546925) scale(0.1 -0.1)">
       <use xlink:href="#SimHei-33"/>
       <use xlink:href="#SimHei-32" x="50"/>
      </g>
     </g>
    </g>
    <g id="ytick_4">
     <g id="line2d_17">
      <path d="M 103.68 117.632726 
L 518.4 117.632726 
" clip-path="url(#p9e63f169e1)" style="fill: none; stroke: #d0d0d0; stroke-width: 0.8; stroke-linecap: square"/>
     </g>
     <g id="line2d_18">
      <g>
       <use xlink:href="#m538e1de140" x="518.4" y="117.632726" style="fill: #101010; stroke: #101010; stroke-width: 0.8"/>
      </g>
     </g>
     <g id="text_4">
      <!-- 34 -->
      <g style="fill: #101010" transform="translate(525.4 121.070226) scale(0.1 -0.1)">
       <defs>
        <path id="SimHei-34" d="M 2000 1100 
L 75 1100 
L 75 1525 
L 2100 4450 
L 2475 4450 
L 2475 1525 
L 3075 1525 
L 3075 1100 
L 2475 1100 
L 2475 150 
L 2000 150 
L 2000 1100 
z
M 2000 1525 
L 2000 3500 
L 600 1525 
L 2000 1525 
z
" transform="scale(0.015625)"/>
       </defs>
       <use xlink:href="#SimHei-33"/>
       <use xlink:href="#SimHei-34" x="50"/>
      </g>
     </g>
    </g>
    <g id="ytick_5">
     <g id="line2d_19">
      <path d="M 103.68 92.156027 
L 518.4 92.156027 
" clip-path="url(#p9e63f169e1)" style="fill: none; stroke: #d0d0d0; stroke-width: 0.8; stroke-linecap: square"/>
     </g>
     <g id="line2d_20">
      <g>
       <use xlink:href="#m538e1de140" x="518.4" y="92.156027" style="fill: #101010; stroke: #101010; stroke-width: 0.8"/>
      </g>
     </g>
     <g id="text_5">
      <!-- 36 -->
      <g style="fill: #101010" transform="translate(525.4 95.593527) scale(0.1 -0.1)">
       <defs>
        <path id="SimHei-36" d="M 250 1612 
Q 275 1975 387 2225 
Q 500 2475 725 2850 
L 1750 4450 
L 2325 4450 
L 1275 2800 
Q 1950 2975 2350 2750 
Q 2750 2525 2887 2237 
Q 3025 1950 3037 1612 
Q 3050 1275 2937 950 
Q 2825 625 2537 362 
Q 2250 100 1737 75 
Q 1225 50 862 262 
Q 500 475 362 862 
Q 225 1250 250 1612 
z
M 1025 787 
Q 1250 550 1625 525 
Q 2000 500 2250 775 
Q 2500 1050 2500 1575 
Q 2500 2100 2187 2300 
Q 1875 2500 1487 2450 
Q 1100 2400 925 2075 
Q 750 1750 775 1387 
Q 800 1025 1025 787 
z
" transform="scale(0.015625)"/>
       </defs>
       <use xlink:href="#SimHei-33"/>
       <use xlink:href="#SimHei-36" x="50"/>
      </g>
     </g>
    </g>
    <g id="ytick_6">
     <g id="line2d_21">
      <path d="M 103.68 66.679327 
L 518.4 66.679327 
" clip-path="url(#p9e63f169e1)" style="fill: none; stroke: #d0d0d0; stroke-width: 0.8; stroke-linecap: square"/>
     </g>
     <g id="line2d_22">
      <g>
       <use xlink:href="#m538e1de140" x="518.4" y="66.679327" style="fill: #101010; stroke: #101010; stroke-width: 0.8"/>
      </g>
     </g>
     <g id="text_6">
      <!-- 38 -->
      <g style="fill: #101010" transform="translate(525.4 70.116827) scale(0.1 -0.1)">
       <use xlink:href="#SimHei-33"/>
       <use xlink:href="#SimHei-38" x="50"/>
      </g>
     </g>
    </g>
    <g id="text_7">
     <!-- price -->
     <g style="fill: #101010" transform="translate(546.275 142.68) rotate(-90) scale(0.1 -0.1)">
      <defs>
       <path id="SimHei-70" d="M 2825 1525 
Q 2825 800 2475 425 
Q 2125 50 1625 50 
Q 1350 50 1150 162 
Q 950 275 800 500 
L 800 -800 
L 300 -800 
L 300 2925 
L 800 2925 
L 800 2550 
Q 950 2775 1150 2875 
Q 1350 2975 1625 2975 
Q 2125 2975 2475 2612 
Q 2825 2250 2825 1525 
z
M 2275 1525 
Q 2275 2000 2087 2262 
Q 1900 2525 1525 2525 
Q 1225 2525 1012 2262 
Q 800 2000 800 1525 
Q 800 1050 1012 775 
Q 1225 500 1525 500 
Q 1900 500 2087 775 
Q 2275 1050 2275 1525 
z
" transform="scale(0.015625)"/>
       <path id="SimHei-72" d="M 2500 2425 
Q 2025 2500 1700 2287 
Q 1375 2075 1150 1550 
L 1150 125 
L 650 125 
L 650 2925 
L 1150 2925 
L 1150 2200 
Q 1375 2600 1712 2787 
Q 2050 2975 2500 2975 
L 2500 2425 
z
" transform="scale(0.015625)"/>
       <path id="SimHei-69" d="M 1800 3725 
L 1300 3725 
L 1300 4375 
L 1800 4375 
L 1800 3725 
z
M 1800 125 
L 1300 125 
L 1300 2925 
L 1800 2925 
L 1800 125 
z
" transform="scale(0.015625)"/>
       <path id="SimHei-63" d="M 2850 1250 
Q 2850 725 2487 400 
Q 2125 75 1575 75 
Q 1025 75 625 462 
Q 225 850 225 1525 
Q 225 2200 625 2587 
Q 1025 2975 1575 2975 
Q 2125 2975 2450 2687 
Q 2775 2400 2775 2000 
L 2225 2000 
Q 2200 2300 2012 2412 
Q 1825 2525 1575 2525 
Q 1275 2525 1025 2287 
Q 775 2050 775 1525 
Q 775 1000 1025 762 
Q 1275 525 1575 525 
Q 1900 525 2100 700 
Q 2300 875 2300 1250 
L 2850 1250 
z
" transform="scale(0.015625)"/>
       <path id="SimHei-65" d="M 2850 1075 
Q 2800 625 2450 350 
Q 2100 75 1625 75 
Q 1025 75 637 462 
Q 250 850 250 1525 
Q 250 2200 637 2587 
Q 1025 2975 1625 2975 
Q 2150 2975 2487 2637 
Q 2825 2300 2825 1525 
L 800 1525 
Q 800 975 1037 750 
Q 1275 525 1625 525 
Q 1900 525 2075 662 
Q 2250 800 2300 1075 
L 2850 1075 
z
M 2250 1925 
Q 2200 2275 2025 2412 
Q 1850 2550 1575 2550 
Q 1325 2550 1125 2412 
Q 925 2275 825 1925 
L 2250 1925 
z
" transform="scale(0.015625)"/>
      </defs>
      <use xlink:href="#SimHei-70"/>
      <use xlink:href="#SimHei-72" x="50"/>
      <use xlink:href="#SimHei-69" x="100"/>
      <use xlink:href="#SimHei-63" x="150"/>
      <use xlink:href="#SimHei-65" x="200"/>
     </g>
    </g>
   </g>
   <g id="PolyCollection_1">
    <path d="M 127.761226 162.98125 
L 127.761226 158.268061 
L 133.692687 158.268061 
L 133.692687 162.98125 
z
" clip-path="url(#p9e63f169e1)" style="fill: #ff0000; fill-opacity: 0.9; stroke: #000000; stroke-width: 0.941667"/>
    <path d="M 136.147879 157.758527 
L 136.147879 150.879818 
L 142.07934 150.879818 
L 142.07934 157.758527 
z
" clip-path="url(#p9e63f169e1)" style="fill: #ff0000; fill-opacity: 0.9; stroke: #000000; stroke-width: 0.941667"/>
    <path d="M 144.534533 151.007202 
L 144.534533 155.720391 
L 150.465993 155.720391 
L 150.465993 151.007202 
z
" clip-path="url(#p9e63f169e1)" style="fill: #008000; fill-opacity: 0.9; stroke: #000000; stroke-width: 0.941667"/>
    <path d="M 152.921186 148.077381 
L 152.921186 116.104124 
L 158.852646 116.104124 
L 158.852646 148.077381 
z
" clip-path="url(#p9e63f169e1)" style="fill: #ff0000; fill-opacity: 0.9; stroke: #000000; stroke-width: 0.941667"/>
    <path d="M 161.307839 93.812012 
L 161.307839 95.085847 
L 167.239299 95.085847 
L 167.239299 93.812012 
z
" clip-path="url(#p9e63f169e1)" style="fill: #008000; fill-opacity: 0.9; stroke: #000000; stroke-width: 0.941667"/>
    <path d="M 169.694492 95.085847 
L 169.694492 77.252158 
L 175.625953 77.252158 
L 175.625953 95.085847 
z
" clip-path="url(#p9e63f169e1)" style="fill: #ff0000; fill-opacity: 0.9; stroke: #000000; stroke-width: 0.941667"/>
    <path d="M 178.081145 78.653376 
L 178.081145 96.996599 
L 184.012606 96.996599 
L 184.012606 78.653376 
z
" clip-path="url(#p9e63f169e1)" style="fill: #008000; fill-opacity: 0.9; stroke: #000000; stroke-width: 0.941667"/>
    <path d="M 186.467799 96.359682 
L 186.467799 113.811221 
L 192.399259 113.811221 
L 192.399259 96.359682 
z
" clip-path="url(#p9e63f169e1)" style="fill: #008000; fill-opacity: 0.9; stroke: #000000; stroke-width: 0.941667"/>
    <path d="M 194.854452 120.562546 
L 194.854452 109.989716 
L 200.785912 109.989716 
L 200.785912 120.562546 
z
" clip-path="url(#p9e63f169e1)" style="fill: #ff0000; fill-opacity: 0.9; stroke: #000000; stroke-width: 0.941667"/>
    <path d="M 203.241105 118.779177 
L 203.241105 138.014085 
L 209.172565 138.014085 
L 209.172565 118.779177 
z
" clip-path="url(#p9e63f169e1)" style="fill: #008000; fill-opacity: 0.9; stroke: #000000; stroke-width: 0.941667"/>
    <path d="M 211.627758 139.797454 
L 211.627758 144.001109 
L 217.559219 144.001109 
L 217.559219 139.797454 
z
" clip-path="url(#p9e63f169e1)" style="fill: #008000; fill-opacity: 0.9; stroke: #000000; stroke-width: 0.941667"/>
    <path d="M 220.014411 138.268852 
L 220.014411 131.517527 
L 225.945872 131.517527 
L 225.945872 138.268852 
z
" clip-path="url(#p9e63f169e1)" style="fill: #ff0000; fill-opacity: 0.9; stroke: #000000; stroke-width: 0.941667"/>
    <path d="M 228.401065 136.230716 
L 228.401065 148.841682 
L 234.332525 148.841682 
L 234.332525 136.230716 
z
" clip-path="url(#p9e63f169e1)" style="fill: #008000; fill-opacity: 0.9; stroke: #000000; stroke-width: 0.941667"/>
    <path d="M 236.787718 148.841682 
L 236.787718 141.198672 
L 242.719178 141.198672 
L 242.719178 148.841682 
z
" clip-path="url(#p9e63f169e1)" style="fill: #ff0000; fill-opacity: 0.9; stroke: #000000; stroke-width: 0.941667"/>
    <path d="M 245.174371 142.982041 
L 245.174371 132.281828 
L 251.105831 132.281828 
L 251.105831 142.982041 
z
" clip-path="url(#p9e63f169e1)" style="fill: #ff0000; fill-opacity: 0.9; stroke: #000000; stroke-width: 0.941667"/>
    <path d="M 253.561024 135.721182 
L 253.561024 138.778386 
L 259.492485 138.778386 
L 259.492485 135.721182 
z
" clip-path="url(#p9e63f169e1)" style="fill: #008000; fill-opacity: 0.9; stroke: #000000; stroke-width: 0.941667"/>
    <path d="M 261.947677 143.236808 
L 261.947677 146.93093 
L 267.879138 146.93093 
L 267.879138 143.236808 
z
" clip-path="url(#p9e63f169e1)" style="fill: #008000; fill-opacity: 0.9; stroke: #000000; stroke-width: 0.941667"/>
    <path d="M 270.33433 145.402328 
L 270.33433 159.287129 
L 276.265791 159.287129 
L 276.265791 145.402328 
z
" clip-path="url(#p9e63f169e1)" style="fill: #008000; fill-opacity: 0.9; stroke: #000000; stroke-width: 0.941667"/>
    <path d="M 278.720984 159.287129 
L 278.720984 154.064405 
L 284.652444 154.064405 
L 284.652444 159.287129 
z
" clip-path="url(#p9e63f169e1)" style="fill: #ff0000; fill-opacity: 0.9; stroke: #000000; stroke-width: 0.941667"/>
    <path d="M 287.107637 155.593007 
L 287.107637 166.547988 
L 293.039097 166.547988 
L 293.039097 155.593007 
z
" clip-path="url(#p9e63f169e1)" style="fill: #008000; fill-opacity: 0.9; stroke: #000000; stroke-width: 0.941667"/>
    <path d="M 295.49429 166.293221 
L 295.49429 151.007202 
L 301.42575 151.007202 
L 301.42575 166.293221 
z
" clip-path="url(#p9e63f169e1)" style="fill: #ff0000; fill-opacity: 0.9; stroke: #000000; stroke-width: 0.941667"/>
    <path d="M 303.880943 154.95609 
L 303.880943 154.064405 
L 309.812404 154.064405 
L 309.812404 154.95609 
z
" clip-path="url(#p9e63f169e1)" style="fill: #ff0000; fill-opacity: 0.9; stroke: #000000; stroke-width: 0.941667"/>
    <path d="M 312.267596 148.332148 
L 312.267596 142.090357 
L 318.199057 142.090357 
L 318.199057 148.332148 
z
" clip-path="url(#p9e63f169e1)" style="fill: #ff0000; fill-opacity: 0.9; stroke: #000000; stroke-width: 0.941667"/>
    <path d="M 320.65425 148.204765 
L 320.65425 154.828706 
L 326.58571 154.828706 
L 326.58571 148.204765 
z
" clip-path="url(#p9e63f169e1)" style="fill: #008000; fill-opacity: 0.9; stroke: #000000; stroke-width: 0.941667"/>
    <path d="M 329.040903 152.281036 
L 329.040903 158.777595 
L 334.972363 158.777595 
L 334.972363 152.281036 
z
" clip-path="url(#p9e63f169e1)" style="fill: #008000; fill-opacity: 0.9; stroke: #000000; stroke-width: 0.941667"/>
    <path d="M 337.427556 159.159745 
L 337.427556 154.573939 
L 343.359016 154.573939 
L 343.359016 159.159745 
z
" clip-path="url(#p9e63f169e1)" style="fill: #ff0000; fill-opacity: 0.9; stroke: #000000; stroke-width: 0.941667"/>
    <path d="M 345.814209 156.102541 
L 345.814209 161.962182 
L 351.74567 161.962182 
L 351.74567 156.102541 
z
" clip-path="url(#p9e63f169e1)" style="fill: #008000; fill-opacity: 0.9; stroke: #000000; stroke-width: 0.941667"/>
    <path d="M 354.200862 168.203973 
L 354.200862 170.369493 
L 360.132323 170.369493 
L 360.132323 168.203973 
z
" clip-path="url(#p9e63f169e1)" style="fill: #008000; fill-opacity: 0.9; stroke: #000000; stroke-width: 0.941667"/>
    <path d="M 362.587515 172.535012 
L 362.587515 165.019386 
L 368.518976 165.019386 
L 368.518976 172.535012 
z
" clip-path="url(#p9e63f169e1)" style="fill: #ff0000; fill-opacity: 0.9; stroke: #000000; stroke-width: 0.941667"/>
    <path d="M 370.974169 166.802755 
L 370.974169 162.853867 
L 376.905629 162.853867 
L 376.905629 166.802755 
z
" clip-path="url(#p9e63f169e1)" style="fill: #ff0000; fill-opacity: 0.9; stroke: #000000; stroke-width: 0.941667"/>
    <path d="M 379.360822 160.943114 
L 379.360822 176.229134 
L 385.292282 176.229134 
L 385.292282 160.943114 
z
" clip-path="url(#p9e63f169e1)" style="fill: #008000; fill-opacity: 0.9; stroke: #000000; stroke-width: 0.941667"/>
    <path d="M 387.747475 178.012503 
L 387.747475 175.846983 
L 393.678935 175.846983 
L 393.678935 178.012503 
z
" clip-path="url(#p9e63f169e1)" style="fill: #ff0000; fill-opacity: 0.9; stroke: #000000; stroke-width: 0.941667"/>
    <path d="M 396.134128 179.923255 
L 396.134128 187.438881 
L 402.065589 187.438881 
L 402.065589 179.923255 
z
" clip-path="url(#p9e63f169e1)" style="fill: #008000; fill-opacity: 0.9; stroke: #000000; stroke-width: 0.941667"/>
    <path d="M 404.520781 187.438881 
L 404.520781 186.037663 
L 410.452242 186.037663 
L 410.452242 187.438881 
z
" clip-path="url(#p9e63f169e1)" style="fill: #ff0000; fill-opacity: 0.9; stroke: #000000; stroke-width: 0.941667"/>
    <path d="M 412.907435 185.910279 
L 412.907435 184.254294 
L 418.838895 184.254294 
L 418.838895 185.910279 
z
" clip-path="url(#p9e63f169e1)" style="fill: #ff0000; fill-opacity: 0.9; stroke: #000000; stroke-width: 0.941667"/>
    <path d="M 421.294088 186.67458 
L 421.294088 182.088774 
L 427.225548 182.088774 
L 427.225548 186.67458 
z
" clip-path="url(#p9e63f169e1)" style="fill: #ff0000; fill-opacity: 0.9; stroke: #000000; stroke-width: 0.941667"/>
    <path d="M 429.680741 183.235226 
L 429.680741 162.853867 
L 435.612201 162.853867 
L 435.612201 183.235226 
z
" clip-path="url(#p9e63f169e1)" style="fill: #ff0000; fill-opacity: 0.9; stroke: #000000; stroke-width: 0.941667"/>
    <path d="M 438.067394 169.605192 
L 438.067394 170.879027 
L 443.998855 170.879027 
L 443.998855 169.605192 
z
" clip-path="url(#p9e63f169e1)" style="fill: #008000; fill-opacity: 0.9; stroke: #000000; stroke-width: 0.941667"/>
    <path d="M 446.454047 175.464833 
L 446.454047 182.598308 
L 452.385508 182.598308 
L 452.385508 175.464833 
z
" clip-path="url(#p9e63f169e1)" style="fill: #008000; fill-opacity: 0.9; stroke: #000000; stroke-width: 0.941667"/>
    <path d="M 454.840701 188.712716 
L 454.840701 203.361818 
L 460.772161 203.361818 
L 460.772161 188.712716 
z
" clip-path="url(#p9e63f169e1)" style="fill: #008000; fill-opacity: 0.9; stroke: #000000; stroke-width: 0.941667"/>
    <path d="M 463.227354 195.591425 
L 463.227354 198.139095 
L 469.158814 198.139095 
L 469.158814 195.591425 
z
" clip-path="url(#p9e63f169e1)" style="fill: #008000; fill-opacity: 0.9; stroke: #000000; stroke-width: 0.941667"/>
    <path d="M 471.614007 198.011711 
L 471.614007 194.062823 
L 477.545467 194.062823 
L 477.545467 198.011711 
z
" clip-path="url(#p9e63f169e1)" style="fill: #ff0000; fill-opacity: 0.9; stroke: #000000; stroke-width: 0.941667"/>
    <path d="M 480.00066 197.884328 
L 480.00066 194.31759 
L 485.932121 194.31759 
L 485.932121 197.884328 
z
" clip-path="url(#p9e63f169e1)" style="fill: #ff0000; fill-opacity: 0.9; stroke: #000000; stroke-width: 0.941667"/>
    <path d="M 488.387313 193.425906 
L 488.387313 201.196299 
L 494.318774 201.196299 
L 494.318774 193.425906 
z
" clip-path="url(#p9e63f169e1)" style="fill: #008000; fill-opacity: 0.9; stroke: #000000; stroke-width: 0.941667"/>
   </g>
   <g id="LineCollection_1">
    <path d="M 130.726957 170.242109 
L 130.726957 162.98125 
" clip-path="url(#p9e63f169e1)" style="fill: none; stroke: #000000; stroke-width: 0.941667"/>
    <path d="M 139.11361 159.032362 
L 139.11361 157.758527 
" clip-path="url(#p9e63f169e1)" style="fill: none; stroke: #000000; stroke-width: 0.941667"/>
    <path d="M 147.500263 155.975158 
L 147.500263 155.720391 
" clip-path="url(#p9e63f169e1)" style="fill: none; stroke: #000000; stroke-width: 0.941667"/>
    <path d="M 155.886916 154.95609 
L 155.886916 148.077381 
" clip-path="url(#p9e63f169e1)" style="fill: none; stroke: #000000; stroke-width: 0.941667"/>
    <path d="M 164.273569 101.709789 
L 164.273569 95.085847 
" clip-path="url(#p9e63f169e1)" style="fill: none; stroke: #000000; stroke-width: 0.941667"/>
    <path d="M 172.660222 95.085847 
L 172.660222 95.085847 
" clip-path="url(#p9e63f169e1)" style="fill: none; stroke: #000000; stroke-width: 0.941667"/>
    <path d="M 181.046876 96.996599 
L 181.046876 96.996599 
" clip-path="url(#p9e63f169e1)" style="fill: none; stroke: #000000; stroke-width: 0.941667"/>
    <path d="M 189.433529 114.193371 
L 189.433529 113.811221 
" clip-path="url(#p9e63f169e1)" style="fill: none; stroke: #000000; stroke-width: 0.941667"/>
    <path d="M 197.820182 125.657886 
L 197.820182 120.562546 
" clip-path="url(#p9e63f169e1)" style="fill: none; stroke: #000000; stroke-width: 0.941667"/>
    <path d="M 206.206835 139.415303 
L 206.206835 138.014085 
" clip-path="url(#p9e63f169e1)" style="fill: none; stroke: #000000; stroke-width: 0.941667"/>
    <path d="M 214.593488 147.949998 
L 214.593488 144.001109 
" clip-path="url(#p9e63f169e1)" style="fill: none; stroke: #000000; stroke-width: 0.941667"/>
    <path d="M 222.980142 147.31308 
L 222.980142 138.268852 
" clip-path="url(#p9e63f169e1)" style="fill: none; stroke: #000000; stroke-width: 0.941667"/>
    <path d="M 231.366795 149.605983 
L 231.366795 148.841682 
" clip-path="url(#p9e63f169e1)" style="fill: none; stroke: #000000; stroke-width: 0.941667"/>
    <path d="M 239.753448 149.86075 
L 239.753448 148.841682 
" clip-path="url(#p9e63f169e1)" style="fill: none; stroke: #000000; stroke-width: 0.941667"/>
    <path d="M 248.140101 144.638027 
L 248.140101 142.982041 
" clip-path="url(#p9e63f169e1)" style="fill: none; stroke: #000000; stroke-width: 0.941667"/>
    <path d="M 256.526754 142.090357 
L 256.526754 138.778386 
" clip-path="url(#p9e63f169e1)" style="fill: none; stroke: #000000; stroke-width: 0.941667"/>
    <path d="M 264.913407 149.4786 
L 264.913407 146.93093 
" clip-path="url(#p9e63f169e1)" style="fill: none; stroke: #000000; stroke-width: 0.941667"/>
    <path d="M 273.300061 160.05143 
L 273.300061 159.287129 
" clip-path="url(#p9e63f169e1)" style="fill: none; stroke: #000000; stroke-width: 0.941667"/>
    <path d="M 281.686714 169.605192 
L 281.686714 159.287129 
" clip-path="url(#p9e63f169e1)" style="fill: none; stroke: #000000; stroke-width: 0.941667"/>
    <path d="M 290.073367 167.057522 
L 290.073367 166.547988 
" clip-path="url(#p9e63f169e1)" style="fill: none; stroke: #000000; stroke-width: 0.941667"/>
    <path d="M 298.46002 174.063614 
L 298.46002 166.293221 
" clip-path="url(#p9e63f169e1)" style="fill: none; stroke: #000000; stroke-width: 0.941667"/>
    <path d="M 306.846673 155.847774 
L 306.846673 154.95609 
" clip-path="url(#p9e63f169e1)" style="fill: none; stroke: #000000; stroke-width: 0.941667"/>
    <path d="M 315.233327 153.682255 
L 315.233327 148.332148 
" clip-path="url(#p9e63f169e1)" style="fill: none; stroke: #000000; stroke-width: 0.941667"/>
    <path d="M 323.61998 154.828706 
L 323.61998 154.828706 
" clip-path="url(#p9e63f169e1)" style="fill: none; stroke: #000000; stroke-width: 0.941667"/>
    <path d="M 332.006633 161.580032 
L 332.006633 158.777595 
" clip-path="url(#p9e63f169e1)" style="fill: none; stroke: #000000; stroke-width: 0.941667"/>
    <path d="M 340.393286 160.560964 
L 340.393286 159.159745 
" clip-path="url(#p9e63f169e1)" style="fill: none; stroke: #000000; stroke-width: 0.941667"/>
    <path d="M 348.779939 162.216949 
L 348.779939 161.962182 
" clip-path="url(#p9e63f169e1)" style="fill: none; stroke: #000000; stroke-width: 0.941667"/>
    <path d="M 357.166593 177.630352 
L 357.166593 170.369493 
" clip-path="url(#p9e63f169e1)" style="fill: none; stroke: #000000; stroke-width: 0.941667"/>
    <path d="M 365.553246 174.190998 
L 365.553246 172.535012 
" clip-path="url(#p9e63f169e1)" style="fill: none; stroke: #000000; stroke-width: 0.941667"/>
    <path d="M 373.939899 166.802755 
L 373.939899 166.802755 
" clip-path="url(#p9e63f169e1)" style="fill: none; stroke: #000000; stroke-width: 0.941667"/>
    <path d="M 382.326552 176.483901 
L 382.326552 176.229134 
" clip-path="url(#p9e63f169e1)" style="fill: none; stroke: #000000; stroke-width: 0.941667"/>
    <path d="M 390.713205 178.64942 
L 390.713205 178.012503 
" clip-path="url(#p9e63f169e1)" style="fill: none; stroke: #000000; stroke-width: 0.941667"/>
    <path d="M 399.099858 192.279454 
L 399.099858 187.438881 
" clip-path="url(#p9e63f169e1)" style="fill: none; stroke: #000000; stroke-width: 0.941667"/>
    <path d="M 407.486512 188.330566 
L 407.486512 187.438881 
" clip-path="url(#p9e63f169e1)" style="fill: none; stroke: #000000; stroke-width: 0.941667"/>
    <path d="M 415.873165 188.8401 
L 415.873165 185.910279 
" clip-path="url(#p9e63f169e1)" style="fill: none; stroke: #000000; stroke-width: 0.941667"/>
    <path d="M 424.259818 190.241318 
L 424.259818 186.67458 
" clip-path="url(#p9e63f169e1)" style="fill: none; stroke: #000000; stroke-width: 0.941667"/>
    <path d="M 432.646471 184.12691 
L 432.646471 183.235226 
" clip-path="url(#p9e63f169e1)" style="fill: none; stroke: #000000; stroke-width: 0.941667"/>
    <path d="M 441.033124 172.662396 
L 441.033124 170.879027 
" clip-path="url(#p9e63f169e1)" style="fill: none; stroke: #000000; stroke-width: 0.941667"/>
    <path d="M 449.419778 182.598308 
L 449.419778 182.598308 
" clip-path="url(#p9e63f169e1)" style="fill: none; stroke: #000000; stroke-width: 0.941667"/>
    <path d="M 457.806431 203.361818 
L 457.806431 203.361818 
" clip-path="url(#p9e63f169e1)" style="fill: none; stroke: #000000; stroke-width: 0.941667"/>
    <path d="M 466.193084 202.852284 
L 466.193084 198.139095 
" clip-path="url(#p9e63f169e1)" style="fill: none; stroke: #000000; stroke-width: 0.941667"/>
    <path d="M 474.579737 198.903396 
L 474.579737 198.011711 
" clip-path="url(#p9e63f169e1)" style="fill: none; stroke: #000000; stroke-width: 0.941667"/>
    <path d="M 482.96639 203.107051 
L 482.96639 197.884328 
" clip-path="url(#p9e63f169e1)" style="fill: none; stroke: #000000; stroke-width: 0.941667"/>
    <path d="M 491.353043 201.196299 
L 491.353043 201.196299 
" clip-path="url(#p9e63f169e1)" style="fill: none; stroke: #000000; stroke-width: 0.941667"/>
    <path d="M 130.726957 158.013294 
L 130.726957 158.268061 
" clip-path="url(#p9e63f169e1)" style="fill: none; stroke: #000000; stroke-width: 0.941667"/>
    <path d="M 139.11361 150.242901 
L 139.11361 150.879818 
" clip-path="url(#p9e63f169e1)" style="fill: none; stroke: #000000; stroke-width: 0.941667"/>
    <path d="M 147.500263 146.676163 
L 147.500263 151.007202 
" clip-path="url(#p9e63f169e1)" style="fill: none; stroke: #000000; stroke-width: 0.941667"/>
    <path d="M 155.886916 116.104124 
L 155.886916 116.104124 
" clip-path="url(#p9e63f169e1)" style="fill: none; stroke: #000000; stroke-width: 0.941667"/>
    <path d="M 164.273569 88.334522 
L 164.273569 93.812012 
" clip-path="url(#p9e63f169e1)" style="fill: none; stroke: #000000; stroke-width: 0.941667"/>
    <path d="M 172.660222 56.998182 
L 172.660222 77.252158 
" clip-path="url(#p9e63f169e1)" style="fill: none; stroke: #000000; stroke-width: 0.941667"/>
    <path d="M 181.046876 75.341405 
L 181.046876 78.653376 
" clip-path="url(#p9e63f169e1)" style="fill: none; stroke: #000000; stroke-width: 0.941667"/>
    <path d="M 189.433529 90.245274 
L 189.433529 96.359682 
" clip-path="url(#p9e63f169e1)" style="fill: none; stroke: #000000; stroke-width: 0.941667"/>
    <path d="M 197.820182 100.435954 
L 197.820182 109.989716 
" clip-path="url(#p9e63f169e1)" style="fill: none; stroke: #000000; stroke-width: 0.941667"/>
    <path d="M 206.206835 111.008784 
L 206.206835 118.779177 
" clip-path="url(#p9e63f169e1)" style="fill: none; stroke: #000000; stroke-width: 0.941667"/>
    <path d="M 214.593488 128.460323 
L 214.593488 139.797454 
" clip-path="url(#p9e63f169e1)" style="fill: none; stroke: #000000; stroke-width: 0.941667"/>
    <path d="M 222.980142 129.352007 
L 222.980142 131.517527 
" clip-path="url(#p9e63f169e1)" style="fill: none; stroke: #000000; stroke-width: 0.941667"/>
    <path d="M 231.366795 134.319964 
L 231.366795 136.230716 
" clip-path="url(#p9e63f169e1)" style="fill: none; stroke: #000000; stroke-width: 0.941667"/>
    <path d="M 239.753448 132.154444 
L 239.753448 141.198672 
" clip-path="url(#p9e63f169e1)" style="fill: none; stroke: #000000; stroke-width: 0.941667"/>
    <path d="M 248.140101 127.313871 
L 248.140101 132.281828 
" clip-path="url(#p9e63f169e1)" style="fill: none; stroke: #000000; stroke-width: 0.941667"/>
    <path d="M 256.526754 133.300896 
L 256.526754 135.721182 
" clip-path="url(#p9e63f169e1)" style="fill: none; stroke: #000000; stroke-width: 0.941667"/>
    <path d="M 264.913407 141.071289 
L 264.913407 143.236808 
" clip-path="url(#p9e63f169e1)" style="fill: none; stroke: #000000; stroke-width: 0.941667"/>
    <path d="M 273.300061 142.599891 
L 273.300061 145.402328 
" clip-path="url(#p9e63f169e1)" style="fill: none; stroke: #000000; stroke-width: 0.941667"/>
    <path d="M 281.686714 151.898886 
L 281.686714 154.064405 
" clip-path="url(#p9e63f169e1)" style="fill: none; stroke: #000000; stroke-width: 0.941667"/>
    <path d="M 290.073367 152.663187 
L 290.073367 155.593007 
" clip-path="url(#p9e63f169e1)" style="fill: none; stroke: #000000; stroke-width: 0.941667"/>
    <path d="M 298.46002 147.567847 
L 298.46002 151.007202 
" clip-path="url(#p9e63f169e1)" style="fill: none; stroke: #000000; stroke-width: 0.941667"/>
    <path d="M 306.846673 147.822614 
L 306.846673 154.064405 
" clip-path="url(#p9e63f169e1)" style="fill: none; stroke: #000000; stroke-width: 0.941667"/>
    <path d="M 315.233327 136.485483 
L 315.233327 142.090357 
" clip-path="url(#p9e63f169e1)" style="fill: none; stroke: #000000; stroke-width: 0.941667"/>
    <path d="M 323.61998 146.294012 
L 323.61998 148.204765 
" clip-path="url(#p9e63f169e1)" style="fill: none; stroke: #000000; stroke-width: 0.941667"/>
    <path d="M 332.006633 152.281036 
L 332.006633 152.281036 
" clip-path="url(#p9e63f169e1)" style="fill: none; stroke: #000000; stroke-width: 0.941667"/>
    <path d="M 340.393286 152.663187 
L 340.393286 154.573939 
" clip-path="url(#p9e63f169e1)" style="fill: none; stroke: #000000; stroke-width: 0.941667"/>
    <path d="M 348.779939 153.045337 
L 348.779939 156.102541 
" clip-path="url(#p9e63f169e1)" style="fill: none; stroke: #000000; stroke-width: 0.941667"/>
    <path d="M 357.166593 166.420604 
L 357.166593 168.203973 
" clip-path="url(#p9e63f169e1)" style="fill: none; stroke: #000000; stroke-width: 0.941667"/>
    <path d="M 365.553246 161.070498 
L 365.553246 165.019386 
" clip-path="url(#p9e63f169e1)" style="fill: none; stroke: #000000; stroke-width: 0.941667"/>
    <path d="M 373.939899 158.650211 
L 373.939899 162.853867 
" clip-path="url(#p9e63f169e1)" style="fill: none; stroke: #000000; stroke-width: 0.941667"/>
    <path d="M 382.326552 158.904978 
L 382.326552 160.943114 
" clip-path="url(#p9e63f169e1)" style="fill: none; stroke: #000000; stroke-width: 0.941667"/>
    <path d="M 390.713205 163.490784 
L 390.713205 175.846983 
" clip-path="url(#p9e63f169e1)" style="fill: none; stroke: #000000; stroke-width: 0.941667"/>
    <path d="M 399.099858 179.031571 
L 399.099858 179.923255 
" clip-path="url(#p9e63f169e1)" style="fill: none; stroke: #000000; stroke-width: 0.941667"/>
    <path d="M 407.486512 181.57924 
L 407.486512 186.037663 
" clip-path="url(#p9e63f169e1)" style="fill: none; stroke: #000000; stroke-width: 0.941667"/>
    <path d="M 415.873165 179.923255 
L 415.873165 184.254294 
" clip-path="url(#p9e63f169e1)" style="fill: none; stroke: #000000; stroke-width: 0.941667"/>
    <path d="M 424.259818 178.776804 
L 424.259818 182.088774 
" clip-path="url(#p9e63f169e1)" style="fill: none; stroke: #000000; stroke-width: 0.941667"/>
    <path d="M 432.646471 156.739459 
L 432.646471 162.853867 
" clip-path="url(#p9e63f169e1)" style="fill: none; stroke: #000000; stroke-width: 0.941667"/>
    <path d="M 441.033124 163.236017 
L 441.033124 169.605192 
" clip-path="url(#p9e63f169e1)" style="fill: none; stroke: #000000; stroke-width: 0.941667"/>
    <path d="M 449.419778 169.859959 
L 449.419778 175.464833 
" clip-path="url(#p9e63f169e1)" style="fill: none; stroke: #000000; stroke-width: 0.941667"/>
    <path d="M 457.806431 180.687556 
L 457.806431 188.712716 
" clip-path="url(#p9e63f169e1)" style="fill: none; stroke: #000000; stroke-width: 0.941667"/>
    <path d="M 466.193084 193.680673 
L 466.193084 195.591425 
" clip-path="url(#p9e63f169e1)" style="fill: none; stroke: #000000; stroke-width: 0.941667"/>
    <path d="M 474.579737 189.604401 
L 474.579737 194.062823 
" clip-path="url(#p9e63f169e1)" style="fill: none; stroke: #000000; stroke-width: 0.941667"/>
    <path d="M 482.96639 193.043755 
L 482.96639 194.31759 
" clip-path="url(#p9e63f169e1)" style="fill: none; stroke: #000000; stroke-width: 0.941667"/>
    <path d="M 491.353043 191.260386 
L 491.353043 193.425906 
" clip-path="url(#p9e63f169e1)" style="fill: none; stroke: #000000; stroke-width: 0.941667"/>
   </g>
   <g id="line2d_23">
    <path d="M 164.273569 135.211648 
L 172.660222 119.008467 
L 181.046876 108.231824 
L 189.433529 99.84999 
L 197.820182 98.627108 
L 206.206835 107.212756 
L 214.593488 120.562546 
L 222.980142 127.466732 
L 231.366795 134.472824 
L 239.753448 140.714615 
L 248.140101 139.568164 
L 256.526754 138.523619 
L 264.913407 141.6063 
L 273.300061 143.695389 
L 281.686714 146.268535 
L 290.073367 153.121768 
L 298.46002 155.567531 
L 306.846673 156.994226 
L 315.233327 153.554871 
L 323.61998 153.707732 
L 332.006633 152.153653 
L 340.393286 152.867001 
L 348.779939 154.446556 
L 357.166593 160.102383 
L 365.553246 162.140519 
L 373.939899 162.955773 
L 382.326552 167.286812 
L 390.713205 170.063772 
L 399.099858 173.47765 
L 407.486512 177.681305 
L 415.873165 181.961391 
L 424.259818 183.133319 
L 432.646471 180.534696 
L 441.033124 177.222725 
L 449.419778 176.534854 
L 457.806431 180.356359 
L 466.193084 183.566423 
L 474.579737 189.808214 
L 482.96639 194.495927 
L 491.353043 198.215525 
" clip-path="url(#p9e63f169e1)" style="fill: none; stroke: #0000ff; stroke-linecap: square"/>
   </g>
   <g id="line2d_24">
    <path d="M 206.206835 121.212202 
L 214.593488 119.785507 
L 222.980142 117.849278 
L 231.366795 117.161407 
L 239.753448 119.670862 
L 248.140101 123.39046 
L 256.526754 129.543083 
L 264.913407 134.536516 
L 273.300061 139.084106 
L 281.686714 143.491575 
L 290.073367 146.344966 
L 298.46002 147.045575 
L 306.846673 149.300263 
L 315.233327 148.62513 
L 323.61998 149.988134 
L 332.006633 152.63771 
L 340.393286 154.217266 
L 348.779939 155.720391 
L 357.166593 156.828627 
L 365.553246 157.924125 
L 373.939899 157.554713 
L 382.326552 160.076906 
L 390.713205 162.255164 
L 399.099858 166.790017 
L 407.486512 169.910912 
L 415.873165 172.458582 
L 424.259818 175.210066 
L 432.646471 175.299234 
L 441.033124 175.350188 
L 449.419778 177.10808 
L 457.806431 181.158875 
L 466.193084 183.349871 
L 474.579737 185.171455 
L 482.96639 185.859326 
L 491.353043 187.375189 
" clip-path="url(#p9e63f169e1)" style="fill: none; stroke: #ffa500; stroke-linecap: square"/>
   </g>
   <g id="line2d_25">
    <path d="M 290.073367 133.778584 
L 298.46002 133.415541 
L 306.846673 133.57477 
L 315.233327 132.893268 
L 323.61998 134.829498 
L 332.006633 138.014085 
L 340.393286 141.880174 
L 348.779939 145.128453 
L 357.166593 147.956367 
L 365.553246 150.70785 
L 373.939899 151.949839 
L 382.326552 153.561241 
L 390.713205 155.777713 
L 399.099858 157.707573 
L 407.486512 159.949523 
L 415.873165 162.548146 
L 424.259818 164.713666 
L 432.646471 165.509812 
L 441.033124 166.089407 
L 449.419778 167.516103 
L 457.806431 169.356794 
L 466.193084 171.713389 
L 474.579737 173.71331 
L 482.96639 176.324671 
L 491.353043 178.643051 
" clip-path="url(#p9e63f169e1)" style="fill: none; stroke: #008000; stroke-linecap: square"/>
   </g>
   <g id="patch_3">
    <path d="M 103.68 210.68 
L 103.68 49.68 
" style="fill: none; stroke: #f0f0f0; stroke-width: 0.8; stroke-linejoin: miter; stroke-linecap: square"/>
   </g>
   <g id="patch_4">
    <path d="M 518.4 210.68 
L 518.4 49.68 
" style="fill: none; stroke: #f0f0f0; stroke-width: 0.8; stroke-linejoin: miter; stroke-linecap: square"/>
   </g>
   <g id="patch_5">
    <path d="M 103.68 210.68 
L 518.4 210.68 
" style="fill: none; stroke: #f0f0f0; stroke-width: 0.8; stroke-linejoin: miter; stroke-linecap: square"/>
   </g>
   <g id="patch_6">
    <path d="M 103.68 49.68 
L 518.4 49.68 
" style="fill: none; stroke: #f0f0f0; stroke-width: 0.8; stroke-linejoin: miter; stroke-linecap: square"/>
   </g>
   <g id="legend_1">
    <g id="patch_7">
     <path d="M 110.68 205.68 
L 162.68 205.68 
Q 164.68 205.68 164.68 203.68 
L 164.68 164.93 
Q 164.68 162.93 162.68 162.93 
L 110.68 162.93 
Q 108.68 162.93 108.68 164.93 
L 108.68 203.68 
Q 108.68 205.68 110.68 205.68 
z
" style="fill: #fafafa; opacity: 0.8; stroke: #cccccc; stroke-linejoin: miter"/>
    </g>
    <g id="line2d_26">
     <path d="M 112.68 170.43 
L 122.68 170.43 
L 132.68 170.43 
" style="fill: none; stroke: #0000ff; stroke-width: 2; stroke-linecap: square"/>
    </g>
    <g id="text_8">
     <!-- MA5 -->
     <g transform="translate(140.68 173.93) scale(0.1 -0.1)">
      <defs>
       <path id="SimHei-4d" d="M 2925 125 
L 2425 125 
L 2425 3175 
L 2375 3175 
L 1775 125 
L 1375 125 
L 775 3175 
L 725 3175 
L 725 125 
L 225 125 
L 225 4400 
L 1000 4400 
L 1550 1575 
L 1600 1575 
L 2150 4400 
L 2925 4400 
L 2925 125 
z
" transform="scale(0.015625)"/>
       <path id="SimHei-41" d="M 3075 125 
L 2475 125 
L 2125 1450 
L 1025 1450 
L 675 125 
L 75 125 
L 1325 4450 
L 1825 4450 
L 3075 125 
z
M 2000 1925 
L 1600 3450 
L 1550 3450 
L 1150 1925 
L 2000 1925 
z
" transform="scale(0.015625)"/>
       <path id="SimHei-35" d="M 550 1325 
Q 725 650 1150 575 
Q 1575 500 1837 662 
Q 2100 825 2212 1087 
Q 2325 1350 2312 1675 
Q 2300 2000 2137 2225 
Q 1975 2450 1725 2525 
Q 1475 2600 1162 2525 
Q 850 2450 650 2175 
L 225 2225 
Q 275 2375 700 4375 
L 2675 4375 
L 2675 3925 
L 1075 3925 
Q 950 3250 825 2850 
Q 1200 3025 1525 3012 
Q 1850 3000 2150 2862 
Q 2450 2725 2587 2487 
Q 2725 2250 2787 2012 
Q 2850 1775 2837 1500 
Q 2825 1225 2725 937 
Q 2625 650 2425 462 
Q 2225 275 1937 162 
Q 1650 50 1275 75 
Q 900 100 562 350 
Q 225 600 100 1200 
L 550 1325 
z
" transform="scale(0.015625)"/>
      </defs>
      <use xlink:href="#SimHei-4d"/>
      <use xlink:href="#SimHei-41" x="50"/>
      <use xlink:href="#SimHei-35" x="100"/>
     </g>
    </g>
    <g id="line2d_27">
     <path d="M 112.68 183.68 
L 122.68 183.68 
L 132.68 183.68 
" style="fill: none; stroke: #ffa500; stroke-width: 2; stroke-linecap: square"/>
    </g>
    <g id="text_9">
     <!-- MA10 -->
     <g transform="translate(140.68 187.18) scale(0.1 -0.1)">
      <defs>
       <path id="SimHei-31" d="M 1400 3600 
Q 1075 3275 575 2975 
L 575 3450 
Q 1200 3875 1600 4450 
L 1900 4450 
L 1900 150 
L 1400 150 
L 1400 3600 
z
" transform="scale(0.015625)"/>
      </defs>
      <use xlink:href="#SimHei-4d"/>
      <use xlink:href="#SimHei-41" x="50"/>
      <use xlink:href="#SimHei-31" x="100"/>
      <use xlink:href="#SimHei-30" x="150"/>
     </g>
    </g>
    <g id="line2d_28">
     <path d="M 112.68 196.93 
L 122.68 196.93 
L 132.68 196.93 
" style="fill: none; stroke: #008000; stroke-width: 2; stroke-linecap: square"/>
    </g>
    <g id="text_10">
     <!-- MA20 -->
     <g transform="translate(140.68 200.43) scale(0.1 -0.1)">
      <use xlink:href="#SimHei-4d"/>
      <use xlink:href="#SimHei-41" x="50"/>
      <use xlink:href="#SimHei-32" x="100"/>
      <use xlink:href="#SimHei-30" x="150"/>
     </g>
    </g>
   </g>
  </g>
  <g id="axes_2">
   <g id="patch_8">
    <path d="M 103.68 275.08 
L 518.4 275.08 
L 518.4 210.68 
L 103.68 210.68 
z
" style="fill: #fafafa"/>
   </g>
   <g id="matplotlib.axis_3">
    <g id="xtick_6">
     <g id="line2d_29">
      <path d="M 130.726957 275.08 
L 130.726957 210.68 
" clip-path="url(#pb2c79cae12)" style="fill: none; stroke: #d0d0d0; stroke-width: 0.8; stroke-linecap: square"/>
     </g>
     <g id="line2d_30">
      <g>
       <use xlink:href="#m798a21b49f" x="130.726957" y="275.08" style="fill: #101010; stroke: #101010; stroke-width: 0.8"/>
      </g>
     </g>
    </g>
    <g id="xtick_7">
     <g id="line2d_31">
      <path d="M 214.593488 275.08 
L 214.593488 210.68 
" clip-path="url(#pb2c79cae12)" style="fill: none; stroke: #d0d0d0; stroke-width: 0.8; stroke-linecap: square"/>
     </g>
     <g id="line2d_32">
      <g>
       <use xlink:href="#m798a21b49f" x="214.593488" y="275.08" style="fill: #101010; stroke: #101010; stroke-width: 0.8"/>
      </g>
     </g>
    </g>
    <g id="xtick_8">
     <g id="line2d_33">
      <path d="M 298.46002 275.08 
L 298.46002 210.68 
" clip-path="url(#pb2c79cae12)" style="fill: none; stroke: #d0d0d0; stroke-width: 0.8; stroke-linecap: square"/>
     </g>
     <g id="line2d_34">
      <g>
       <use xlink:href="#m798a21b49f" x="298.46002" y="275.08" style="fill: #101010; stroke: #101010; stroke-width: 0.8"/>
      </g>
     </g>
    </g>
    <g id="xtick_9">
     <g id="line2d_35">
      <path d="M 382.326552 275.08 
L 382.326552 210.68 
" clip-path="url(#pb2c79cae12)" style="fill: none; stroke: #d0d0d0; stroke-width: 0.8; stroke-linecap: square"/>
     </g>
     <g id="line2d_36">
      <g>
       <use xlink:href="#m798a21b49f" x="382.326552" y="275.08" style="fill: #101010; stroke: #101010; stroke-width: 0.8"/>
      </g>
     </g>
    </g>
    <g id="xtick_10">
     <g id="line2d_37">
      <path d="M 466.193084 275.08 
L 466.193084 210.68 
" clip-path="url(#pb2c79cae12)" style="fill: none; stroke: #d0d0d0; stroke-width: 0.8; stroke-linecap: square"/>
     </g>
     <g id="line2d_38">
      <g>
       <use xlink:href="#m798a21b49f" x="466.193084" y="275.08" style="fill: #101010; stroke: #101010; stroke-width: 0.8"/>
      </g>
     </g>
    </g>
   </g>
   <g id="matplotlib.axis_4">
    <g id="ytick_7">
     <g id="line2d_39">
      <path d="M 103.68 251.076131 
L 518.4 251.076131 
" clip-path="url(#pb2c79cae12)" style="fill: none; stroke: #d0d0d0; stroke-width: 0.8; stroke-linecap: square"/>
     </g>
     <g id="line2d_40">
      <g>
       <use xlink:href="#m538e1de140" x="518.4" y="251.076131" style="fill: #101010; stroke: #101010; stroke-width: 0.8"/>
      </g>
     </g>
     <g id="text_11">
      <!-- 200000 -->
      <g style="fill: #101010" transform="translate(525.4 254.513631) scale(0.1 -0.1)">
       <use xlink:href="#SimHei-32"/>
       <use xlink:href="#SimHei-30" x="50"/>
       <use xlink:href="#SimHei-30" x="100"/>
       <use xlink:href="#SimHei-30" x="150"/>
       <use xlink:href="#SimHei-30" x="200"/>
       <use xlink:href="#SimHei-30" x="250"/>
      </g>
     </g>
    </g>
    <g id="ytick_8">
     <g id="line2d_41">
      <path d="M 103.68 224.951505 
L 518.4 224.951505 
" clip-path="url(#pb2c79cae12)" style="fill: none; stroke: #d0d0d0; stroke-width: 0.8; stroke-linecap: square"/>
     </g>
     <g id="line2d_42">
      <g>
       <use xlink:href="#m538e1de140" x="518.4" y="224.951505" style="fill: #101010; stroke: #101010; stroke-width: 0.8"/>
      </g>
     </g>
     <g id="text_12">
      <!-- 400000 -->
      <g style="fill: #101010" transform="translate(525.4 228.389005) scale(0.1 -0.1)">
       <use xlink:href="#SimHei-34"/>
       <use xlink:href="#SimHei-30" x="50"/>
       <use xlink:href="#SimHei-30" x="100"/>
       <use xlink:href="#SimHei-30" x="150"/>
       <use xlink:href="#SimHei-30" x="200"/>
       <use xlink:href="#SimHei-30" x="250"/>
      </g>
     </g>
    </g>
    <g id="text_13">
     <!-- volume -->
     <g style="fill: #101010" transform="translate(566.275 257.88) rotate(-90) scale(0.1 -0.1)">
      <defs>
       <path id="SimHei-76" d="M 2875 2925 
L 1825 75 
L 1275 75 
L 225 2925 
L 750 2925 
L 1525 750 
L 1575 750 
L 2350 2925 
L 2875 2925 
z
" transform="scale(0.015625)"/>
       <path id="SimHei-6f" d="M 2925 1525 
Q 2925 875 2525 475 
Q 2125 75 1575 75 
Q 1025 75 625 475 
Q 225 875 225 1525 
Q 225 2175 625 2575 
Q 1025 2975 1575 2975 
Q 2125 2975 2525 2575 
Q 2925 2175 2925 1525 
z
M 2375 1525 
Q 2375 2025 2125 2275 
Q 1875 2525 1575 2525 
Q 1275 2525 1025 2275 
Q 775 2025 775 1525 
Q 775 1025 1025 775 
Q 1275 525 1575 525 
Q 1875 525 2125 775 
Q 2375 1025 2375 1525 
z
" transform="scale(0.015625)"/>
       <path id="SimHei-6c" d="M 1825 125 
L 1325 125 
L 1325 4400 
L 1825 4400 
L 1825 125 
z
" transform="scale(0.015625)"/>
       <path id="SimHei-75" d="M 2800 125 
L 2300 125 
L 2300 650 
Q 2100 375 1862 225 
Q 1625 75 1250 75 
Q 800 75 575 325 
Q 350 575 350 950 
L 350 2925 
L 850 2925 
L 850 1125 
Q 850 825 1000 650 
Q 1150 475 1400 475 
Q 1725 475 2012 812 
Q 2300 1150 2300 1650 
L 2300 2925 
L 2800 2925 
L 2800 125 
z
" transform="scale(0.015625)"/>
       <path id="SimHei-6d" d="M 3050 125 
L 2550 125 
L 2550 2150 
Q 2550 2300 2500 2400 
Q 2450 2500 2300 2500 
Q 2125 2500 1975 2312 
Q 1825 2125 1825 1825 
L 1825 125 
L 1325 125 
L 1325 2150 
Q 1325 2300 1275 2400 
Q 1225 2500 1075 2500 
Q 900 2500 750 2312 
Q 600 2125 600 1825 
L 600 125 
L 100 125 
L 100 2925 
L 600 2925 
L 600 2550 
Q 725 2750 900 2862 
Q 1075 2975 1275 2975 
Q 1475 2975 1612 2862 
Q 1750 2750 1800 2550 
Q 1925 2750 2087 2862 
Q 2250 2975 2450 2975 
Q 2750 2975 2900 2812 
Q 3050 2650 3050 2350 
L 3050 125 
z
" transform="scale(0.015625)"/>
      </defs>
      <use xlink:href="#SimHei-76"/>
      <use xlink:href="#SimHei-6f" x="50"/>
      <use xlink:href="#SimHei-6c" x="100"/>
      <use xlink:href="#SimHei-75" x="150"/>
      <use xlink:href="#SimHei-6d" x="200"/>
      <use xlink:href="#SimHei-65" x="250"/>
     </g>
     <!--  -->
     <g style="fill: #101010" transform="translate(575.775 242.88) rotate(-90) scale(0.1 -0.1)"/>
    </g>
   </g>
   <g id="patch_9">
    <path d="M 128.691795 277.200758 
L 132.762118 277.200758 
L 132.762118 266.890282 
L 128.691795 266.890282 
z
" clip-path="url(#pb2c79cae12)" style="fill: #ff0000; stroke: #e60000; stroke-width: 0.65; stroke-linejoin: miter"/>
   </g>
   <g id="patch_10">
    <path d="M 137.078449 277.200758 
L 141.148771 277.200758 
L 141.148771 266.306136 
L 137.078449 266.306136 
z
" clip-path="url(#pb2c79cae12)" style="fill: #ff0000; stroke: #e60000; stroke-width: 0.65; stroke-linejoin: miter"/>
   </g>
   <g id="patch_11">
    <path d="M 145.465102 277.200758 
L 149.535424 277.200758 
L 149.535424 267.278625 
L 145.465102 267.278625 
z
" clip-path="url(#pb2c79cae12)" style="fill: #008000; stroke: #007300; stroke-width: 0.65; stroke-linejoin: miter"/>
   </g>
   <g id="patch_12">
    <path d="M 153.851755 277.200758 
L 157.922077 277.200758 
L 157.922077 252.100478 
L 153.851755 252.100478 
z
" clip-path="url(#pb2c79cae12)" style="fill: #ff0000; stroke: #e60000; stroke-width: 0.65; stroke-linejoin: miter"/>
   </g>
   <g id="patch_13">
    <path d="M 162.238408 277.200758 
L 166.30873 277.200758 
L 166.30873 219.836303 
L 162.238408 219.836303 
z
" clip-path="url(#pb2c79cae12)" style="fill: #008000; stroke: #007300; stroke-width: 0.65; stroke-linejoin: miter"/>
   </g>
   <g id="patch_14">
    <path d="M 170.625061 277.200758 
L 174.695384 277.200758 
L 174.695384 216.727342 
L 170.625061 216.727342 
z
" clip-path="url(#pb2c79cae12)" style="fill: #ff0000; stroke: #e60000; stroke-width: 0.65; stroke-linejoin: miter"/>
   </g>
   <g id="patch_15">
    <path d="M 179.011714 277.200758 
L 183.082037 277.200758 
L 183.082037 237.84858 
L 179.011714 237.84858 
z
" clip-path="url(#pb2c79cae12)" style="fill: #008000; stroke: #007300; stroke-width: 0.65; stroke-linejoin: miter"/>
   </g>
   <g id="patch_16">
    <path d="M 187.398368 277.200758 
L 191.46869 277.200758 
L 191.46869 247.253707 
L 187.398368 247.253707 
z
" clip-path="url(#pb2c79cae12)" style="fill: #008000; stroke: #007300; stroke-width: 0.65; stroke-linejoin: miter"/>
   </g>
   <g id="patch_17">
    <path d="M 195.785021 277.200758 
L 199.855343 277.200758 
L 199.855343 247.395302 
L 195.785021 247.395302 
z
" clip-path="url(#pb2c79cae12)" style="fill: #ff0000; stroke: #e60000; stroke-width: 0.65; stroke-linejoin: miter"/>
   </g>
   <g id="patch_18">
    <path d="M 204.171674 277.200758 
L 208.241996 277.200758 
L 208.241996 253.898375 
L 204.171674 253.898375 
z
" clip-path="url(#pb2c79cae12)" style="fill: #008000; stroke: #007300; stroke-width: 0.65; stroke-linejoin: miter"/>
   </g>
   <g id="patch_19">
    <path d="M 212.558327 277.200758 
L 216.62865 277.200758 
L 216.62865 259.807504 
L 212.558327 259.807504 
z
" clip-path="url(#pb2c79cae12)" style="fill: #008000; stroke: #007300; stroke-width: 0.65; stroke-linejoin: miter"/>
   </g>
   <g id="patch_20">
    <path d="M 220.94498 277.200758 
L 225.015303 277.200758 
L 225.015303 258.717062 
L 220.94498 258.717062 
z
" clip-path="url(#pb2c79cae12)" style="fill: #ff0000; stroke: #e60000; stroke-width: 0.65; stroke-linejoin: miter"/>
   </g>
   <g id="patch_21">
    <path d="M 229.331634 277.200758 
L 233.401956 277.200758 
L 233.401956 262.098895 
L 229.331634 262.098895 
z
" clip-path="url(#pb2c79cae12)" style="fill: #008000; stroke: #007300; stroke-width: 0.65; stroke-linejoin: miter"/>
   </g>
   <g id="patch_22">
    <path d="M 237.718287 277.200758 
L 241.788609 277.200758 
L 241.788609 258.350534 
L 237.718287 258.350534 
z
" clip-path="url(#pb2c79cae12)" style="fill: #ff0000; stroke: #e60000; stroke-width: 0.65; stroke-linejoin: miter"/>
   </g>
   <g id="patch_23">
    <path d="M 246.10494 277.200758 
L 250.175262 277.200758 
L 250.175262 259.14851 
L 246.10494 259.14851 
z
" clip-path="url(#pb2c79cae12)" style="fill: #ff0000; stroke: #e60000; stroke-width: 0.65; stroke-linejoin: miter"/>
   </g>
   <g id="patch_24">
    <path d="M 254.491593 277.200758 
L 258.561915 277.200758 
L 258.561915 265.019498 
L 254.491593 265.019498 
z
" clip-path="url(#pb2c79cae12)" style="fill: #008000; stroke: #007300; stroke-width: 0.65; stroke-linejoin: miter"/>
   </g>
   <g id="patch_25">
    <path d="M 262.878246 277.200758 
L 266.948569 277.200758 
L 266.948569 267.292601 
L 262.878246 267.292601 
z
" clip-path="url(#pb2c79cae12)" style="fill: #008000; stroke: #007300; stroke-width: 0.65; stroke-linejoin: miter"/>
   </g>
   <g id="patch_26">
    <path d="M 271.264899 277.200758 
L 275.335222 277.200758 
L 275.335222 264.683404 
L 271.264899 264.683404 
z
" clip-path="url(#pb2c79cae12)" style="fill: #008000; stroke: #007300; stroke-width: 0.65; stroke-linejoin: miter"/>
   </g>
   <g id="patch_27">
    <path d="M 279.651553 277.200758 
L 283.721875 277.200758 
L 283.721875 266.040971 
L 279.651553 266.040971 
z
" clip-path="url(#pb2c79cae12)" style="fill: #ff0000; stroke: #e60000; stroke-width: 0.65; stroke-linejoin: miter"/>
   </g>
   <g id="patch_28">
    <path d="M 288.038206 277.200758 
L 292.108528 277.200758 
L 292.108528 268.41805 
L 288.038206 268.41805 
z
" clip-path="url(#pb2c79cae12)" style="fill: #008000; stroke: #007300; stroke-width: 0.65; stroke-linejoin: miter"/>
   </g>
   <g id="patch_29">
    <path d="M 296.424859 277.200758 
L 300.495181 277.200758 
L 300.495181 259.492702 
L 296.424859 259.492702 
z
" clip-path="url(#pb2c79cae12)" style="fill: #ff0000; stroke: #e60000; stroke-width: 0.65; stroke-linejoin: miter"/>
   </g>
   <g id="patch_30">
    <path d="M 304.811512 277.200758 
L 308.881835 277.200758 
L 308.881835 265.474719 
L 304.811512 265.474719 
z
" clip-path="url(#pb2c79cae12)" style="fill: #ff0000; stroke: #e60000; stroke-width: 0.65; stroke-linejoin: miter"/>
   </g>
   <g id="patch_31">
    <path d="M 313.198165 277.200758 
L 317.268488 277.200758 
L 317.268488 258.671344 
L 313.198165 258.671344 
z
" clip-path="url(#pb2c79cae12)" style="fill: #ff0000; stroke: #e60000; stroke-width: 0.65; stroke-linejoin: miter"/>
   </g>
   <g id="patch_32">
    <path d="M 321.584819 277.200758 
L 325.655141 277.200758 
L 325.655141 265.920405 
L 321.584819 265.920405 
z
" clip-path="url(#pb2c79cae12)" style="fill: #008000; stroke: #007300; stroke-width: 0.65; stroke-linejoin: miter"/>
   </g>
   <g id="patch_33">
    <path d="M 329.971472 277.200758 
L 334.041794 277.200758 
L 334.041794 270.085716 
L 329.971472 270.085716 
z
" clip-path="url(#pb2c79cae12)" style="fill: #008000; stroke: #007300; stroke-width: 0.65; stroke-linejoin: miter"/>
   </g>
   <g id="patch_34">
    <path d="M 338.358125 277.200758 
L 342.428447 277.200758 
L 342.428447 268.23139 
L 338.358125 268.23139 
z
" clip-path="url(#pb2c79cae12)" style="fill: #ff0000; stroke: #e60000; stroke-width: 0.65; stroke-linejoin: miter"/>
   </g>
   <g id="patch_35">
    <path d="M 346.744778 277.200758 
L 350.815101 277.200758 
L 350.815101 269.185461 
L 346.744778 269.185461 
z
" clip-path="url(#pb2c79cae12)" style="fill: #008000; stroke: #007300; stroke-width: 0.65; stroke-linejoin: miter"/>
   </g>
   <g id="patch_36">
    <path d="M 355.131431 277.200758 
L 359.201754 277.200758 
L 359.201754 264.31152 
L 355.131431 264.31152 
z
" clip-path="url(#pb2c79cae12)" style="fill: #008000; stroke: #007300; stroke-width: 0.65; stroke-linejoin: miter"/>
   </g>
   <g id="patch_37">
    <path d="M 363.518085 277.200758 
L 367.588407 277.200758 
L 367.588407 267.582715 
L 363.518085 267.582715 
z
" clip-path="url(#pb2c79cae12)" style="fill: #ff0000; stroke: #e60000; stroke-width: 0.65; stroke-linejoin: miter"/>
   </g>
   <g id="patch_38">
    <path d="M 371.904738 277.200758 
L 375.97506 277.200758 
L 375.97506 270.131565 
L 371.904738 270.131565 
z
" clip-path="url(#pb2c79cae12)" style="fill: #ff0000; stroke: #e60000; stroke-width: 0.65; stroke-linejoin: miter"/>
   </g>
   <g id="patch_39">
    <path d="M 380.291391 277.200758 
L 384.361713 277.200758 
L 384.361713 267.861465 
L 380.291391 267.861465 
z
" clip-path="url(#pb2c79cae12)" style="fill: #008000; stroke: #007300; stroke-width: 0.65; stroke-linejoin: miter"/>
   </g>
   <g id="patch_40">
    <path d="M 388.678044 277.200758 
L 392.748366 277.200758 
L 392.748366 267.381948 
L 388.678044 267.381948 
z
" clip-path="url(#pb2c79cae12)" style="fill: #ff0000; stroke: #e60000; stroke-width: 0.65; stroke-linejoin: miter"/>
   </g>
   <g id="patch_41">
    <path d="M 397.064697 277.200758 
L 401.13502 277.200758 
L 401.13502 264.451287 
L 397.064697 264.451287 
z
" clip-path="url(#pb2c79cae12)" style="fill: #008000; stroke: #007300; stroke-width: 0.65; stroke-linejoin: miter"/>
   </g>
   <g id="patch_42">
    <path d="M 405.45135 277.200758 
L 409.521673 277.200758 
L 409.521673 269.163778 
L 405.45135 269.163778 
z
" clip-path="url(#pb2c79cae12)" style="fill: #ff0000; stroke: #e60000; stroke-width: 0.65; stroke-linejoin: miter"/>
   </g>
   <g id="patch_43">
    <path d="M 413.838004 277.200758 
L 417.908326 277.200758 
L 417.908326 269.082138 
L 413.838004 269.082138 
z
" clip-path="url(#pb2c79cae12)" style="fill: #ff0000; stroke: #e60000; stroke-width: 0.65; stroke-linejoin: miter"/>
   </g>
   <g id="patch_44">
    <path d="M 422.224657 277.200758 
L 426.294979 277.200758 
L 426.294979 268.142174 
L 422.224657 268.142174 
z
" clip-path="url(#pb2c79cae12)" style="fill: #ff0000; stroke: #e60000; stroke-width: 0.65; stroke-linejoin: miter"/>
   </g>
   <g id="patch_45">
    <path d="M 430.61131 277.200758 
L 434.681632 277.200758 
L 434.681632 255.845182 
L 430.61131 255.845182 
z
" clip-path="url(#pb2c79cae12)" style="fill: #ff0000; stroke: #e60000; stroke-width: 0.65; stroke-linejoin: miter"/>
   </g>
   <g id="patch_46">
    <path d="M 438.997963 277.200758 
L 443.068286 277.200758 
L 443.068286 259.497927 
L 438.997963 259.497927 
z
" clip-path="url(#pb2c79cae12)" style="fill: #008000; stroke: #007300; stroke-width: 0.65; stroke-linejoin: miter"/>
   </g>
   <g id="patch_47">
    <path d="M 447.384616 277.200758 
L 451.454939 277.200758 
L 451.454939 265.785341 
L 447.384616 265.785341 
z
" clip-path="url(#pb2c79cae12)" style="fill: #008000; stroke: #007300; stroke-width: 0.65; stroke-linejoin: miter"/>
   </g>
   <g id="patch_48">
    <path d="M 455.77127 277.200758 
L 459.841592 277.200758 
L 459.841592 262.05801 
L 455.77127 262.05801 
z
" clip-path="url(#pb2c79cae12)" style="fill: #008000; stroke: #007300; stroke-width: 0.65; stroke-linejoin: miter"/>
   </g>
   <g id="patch_49">
    <path d="M 464.157923 277.200758 
L 468.228245 277.200758 
L 468.228245 267.758142 
L 464.157923 267.758142 
z
" clip-path="url(#pb2c79cae12)" style="fill: #008000; stroke: #007300; stroke-width: 0.65; stroke-linejoin: miter"/>
   </g>
   <g id="patch_50">
    <path d="M 472.544576 277.200758 
L 476.614898 277.200758 
L 476.614898 265.614878 
L 472.544576 265.614878 
z
" clip-path="url(#pb2c79cae12)" style="fill: #ff0000; stroke: #e60000; stroke-width: 0.65; stroke-linejoin: miter"/>
   </g>
   <g id="patch_51">
    <path d="M 480.931229 277.200758 
L 485.001551 277.200758 
L 485.001551 266.843127 
L 480.931229 266.843127 
z
" clip-path="url(#pb2c79cae12)" style="fill: #ff0000; stroke: #e60000; stroke-width: 0.65; stroke-linejoin: miter"/>
   </g>
   <g id="patch_52">
    <path d="M 489.317882 277.200758 
L 493.388205 277.200758 
L 493.388205 266.489269 
L 489.317882 266.489269 
z
" clip-path="url(#pb2c79cae12)" style="fill: #008000; stroke: #007300; stroke-width: 0.65; stroke-linejoin: miter"/>
   </g>
   <g id="patch_53">
    <path d="M 103.68 275.08 
L 103.68 210.68 
" style="fill: none; stroke: #f0f0f0; stroke-width: 0.8; stroke-linejoin: miter; stroke-linecap: square"/>
   </g>
   <g id="patch_54">
    <path d="M 518.4 275.08 
L 518.4 210.68 
" style="fill: none; stroke: #f0f0f0; stroke-width: 0.8; stroke-linejoin: miter; stroke-linecap: square"/>
   </g>
   <g id="patch_55">
    <path d="M 103.68 275.08 
L 518.4 275.08 
" style="fill: none; stroke: #f0f0f0; stroke-width: 0.8; stroke-linejoin: miter; stroke-linecap: square"/>
   </g>
   <g id="patch_56">
    <path d="M 103.68 210.68 
L 518.4 210.68 
" style="fill: none; stroke: #f0f0f0; stroke-width: 0.8; stroke-linejoin: miter; stroke-linecap: square"/>
   </g>
  </g>
  <g id="axes_3">
   <g id="patch_57">
    <path d="M 103.68 339.48 
L 518.4 339.48 
L 518.4 275.08 
L 103.68 275.08 
z
" style="fill: #fafafa"/>
   </g>
   <g id="matplotlib.axis_5">
    <g id="xtick_11">
     <g id="line2d_43">
      <path d="M 130.726957 339.48 
L 130.726957 275.08 
" clip-path="url(#p3d8db081da)" style="fill: none; stroke: #d0d0d0; stroke-width: 0.8; stroke-linecap: square"/>
     </g>
     <g id="line2d_44">
      <g>
       <use xlink:href="#m798a21b49f" x="130.726957" y="339.48" style="fill: #101010; stroke: #101010; stroke-width: 0.8"/>
      </g>
     </g>
     <g id="text_14">
      <!-- 0611 -->
      <g style="fill: #101010" transform="translate(121.795627 358.297121) rotate(-15) scale(0.1 -0.1)">
       <use xlink:href="#SimHei-30"/>
       <use xlink:href="#SimHei-36" x="50"/>
       <use xlink:href="#SimHei-31" x="100"/>
       <use xlink:href="#SimHei-31" x="150"/>
      </g>
     </g>
    </g>
    <g id="xtick_12">
     <g id="line2d_45">
      <path d="M 214.593488 339.48 
L 214.593488 275.08 
" clip-path="url(#p3d8db081da)" style="fill: none; stroke: #d0d0d0; stroke-width: 0.8; stroke-linecap: square"/>
     </g>
     <g id="line2d_46">
      <g>
       <use xlink:href="#m798a21b49f" x="214.593488" y="339.48" style="fill: #101010; stroke: #101010; stroke-width: 0.8"/>
      </g>
     </g>
     <g id="text_15">
      <!-- 0625 -->
      <g style="fill: #101010" transform="translate(205.662159 358.297121) rotate(-15) scale(0.1 -0.1)">
       <use xlink:href="#SimHei-30"/>
       <use xlink:href="#SimHei-36" x="50"/>
       <use xlink:href="#SimHei-32" x="100"/>
       <use xlink:href="#SimHei-35" x="150"/>
      </g>
     </g>
    </g>
    <g id="xtick_13">
     <g id="line2d_47">
      <path d="M 298.46002 339.48 
L 298.46002 275.08 
" clip-path="url(#p3d8db081da)" style="fill: none; stroke: #d0d0d0; stroke-width: 0.8; stroke-linecap: square"/>
     </g>
     <g id="line2d_48">
      <g>
       <use xlink:href="#m798a21b49f" x="298.46002" y="339.48" style="fill: #101010; stroke: #101010; stroke-width: 0.8"/>
      </g>
     </g>
     <g id="text_16">
      <!-- 0709 -->
      <g style="fill: #101010" transform="translate(289.528691 358.297121) rotate(-15) scale(0.1 -0.1)">
       <defs>
        <path id="SimHei-37" d="M 850 150 
Q 1300 2050 2425 3925 
L 275 3925 
L 275 4375 
L 2950 4375 
L 2950 3950 
Q 1775 2050 1400 150 
L 850 150 
z
" transform="scale(0.015625)"/>
        <path id="SimHei-39" d="M 800 75 
Q 1350 1000 1700 1750 
Q 1075 1650 662 1912 
Q 250 2175 162 2625 
Q 75 3075 175 3437 
Q 275 3800 487 4037 
Q 700 4275 1000 4375 
Q 1300 4475 1537 4475 
Q 1775 4475 2025 4375 
Q 2275 4275 2475 4075 
Q 2675 3875 2750 3662 
Q 2825 3450 2825 3112 
Q 2825 2775 2575 2250 
Q 2325 1725 1350 75 
L 800 75 
z
M 662 2875 
Q 700 2550 937 2337 
Q 1175 2125 1450 2150 
Q 1725 2175 1887 2300 
Q 2050 2425 2200 2725 
Q 2300 3100 2250 3362 
Q 2200 3625 1987 3800 
Q 1775 3975 1525 3975 
Q 1375 4000 1137 3900 
Q 900 3800 762 3500 
Q 625 3200 662 2875 
z
" transform="scale(0.015625)"/>
       </defs>
       <use xlink:href="#SimHei-30"/>
       <use xlink:href="#SimHei-37" x="50"/>
       <use xlink:href="#SimHei-30" x="100"/>
       <use xlink:href="#SimHei-39" x="150"/>
      </g>
     </g>
    </g>
    <g id="xtick_14">
     <g id="line2d_49">
      <path d="M 382.326552 339.48 
L 382.326552 275.08 
" clip-path="url(#p3d8db081da)" style="fill: none; stroke: #d0d0d0; stroke-width: 0.8; stroke-linecap: square"/>
     </g>
     <g id="line2d_50">
      <g>
       <use xlink:href="#m798a21b49f" x="382.326552" y="339.48" style="fill: #101010; stroke: #101010; stroke-width: 0.8"/>
      </g>
     </g>
     <g id="text_17">
      <!-- 0723 -->
      <g style="fill: #101010" transform="translate(373.395222 358.297121) rotate(-15) scale(0.1 -0.1)">
       <use xlink:href="#SimHei-30"/>
       <use xlink:href="#SimHei-37" x="50"/>
       <use xlink:href="#SimHei-32" x="100"/>
       <use xlink:href="#SimHei-33" x="150"/>
      </g>
     </g>
    </g>
    <g id="xtick_15">
     <g id="line2d_51">
      <path d="M 466.193084 339.48 
L 466.193084 275.08 
" clip-path="url(#p3d8db081da)" style="fill: none; stroke: #d0d0d0; stroke-width: 0.8; stroke-linecap: square"/>
     </g>
     <g id="line2d_52">
      <g>
       <use xlink:href="#m798a21b49f" x="466.193084" y="339.48" style="fill: #101010; stroke: #101010; stroke-width: 0.8"/>
      </g>
     </g>
     <g id="text_18">
      <!-- 0806 -->
      <g style="fill: #101010" transform="translate(457.261754 358.297121) rotate(-15) scale(0.1 -0.1)">
       <use xlink:href="#SimHei-30"/>
       <use xlink:href="#SimHei-38" x="50"/>
       <use xlink:href="#SimHei-30" x="100"/>
       <use xlink:href="#SimHei-36" x="150"/>
      </g>
     </g>
    </g>
   </g>
   <g id="matplotlib.axis_6">
    <g id="ytick_9">
     <g id="line2d_53">
      <path d="M 103.68 331.281635 
L 518.4 331.281635 
" clip-path="url(#p3d8db081da)" style="fill: none; stroke: #d0d0d0; stroke-width: 0.8; stroke-linecap: square"/>
     </g>
     <g id="line2d_54">
      <g>
       <use xlink:href="#m538e1de140" x="518.4" y="331.281635" style="fill: #101010; stroke: #101010; stroke-width: 0.8"/>
      </g>
     </g>
     <g id="text_19">
      <!-- 20 -->
      <g style="fill: #101010" transform="translate(525.4 334.719135) scale(0.1 -0.1)">
       <use xlink:href="#SimHei-32"/>
       <use xlink:href="#SimHei-30" x="50"/>
      </g>
     </g>
    </g>
    <g id="ytick_10">
     <g id="line2d_55">
      <path d="M 103.68 293.563083 
L 518.4 293.563083 
" clip-path="url(#p3d8db081da)" style="fill: none; stroke: #d0d0d0; stroke-width: 0.8; stroke-linecap: square"/>
     </g>
     <g id="line2d_56">
      <g>
       <use xlink:href="#m538e1de140" x="518.4" y="293.563083" style="fill: #101010; stroke: #101010; stroke-width: 0.8"/>
      </g>
     </g>
     <g id="text_20">
      <!-- 40 -->
      <g style="fill: #101010" transform="translate(525.4 297.000583) scale(0.1 -0.1)">
       <use xlink:href="#SimHei-34"/>
       <use xlink:href="#SimHei-30" x="50"/>
      </g>
     </g>
    </g>
    <g id="text_21">
     <!-- control trend -->
     <g style="fill: #101010" transform="translate(546.275 339.78) rotate(-90) scale(0.1 -0.1)">
      <defs>
       <path id="SimHei-6e" d="M 2800 125 
L 2300 125 
L 2300 1925 
Q 2300 2225 2150 2400 
Q 2000 2575 1750 2575 
Q 1425 2575 1137 2237 
Q 850 1900 850 1400 
L 850 125 
L 350 125 
L 350 2925 
L 850 2925 
L 850 2400 
Q 1050 2675 1287 2825 
Q 1525 2975 1900 2975 
Q 2350 2975 2575 2725 
Q 2800 2475 2800 2100 
L 2800 125 
z
" transform="scale(0.015625)"/>
       <path id="SimHei-74" d="M 2750 200 
Q 2625 150 2462 112 
Q 2300 75 2025 75 
Q 1575 75 1300 325 
Q 1025 575 1025 1025 
L 1025 2525 
L 175 2525 
L 175 2925 
L 1025 2925 
L 1025 3900 
L 1525 3900 
L 1525 2925 
L 2550 2925 
L 2550 2525 
L 1525 2525 
L 1525 1000 
Q 1525 800 1625 662 
Q 1725 525 2000 525 
Q 2275 525 2450 575 
Q 2625 625 2750 700 
L 2750 200 
z
" transform="scale(0.015625)"/>
       <path id="SimHei-20" transform="scale(0.015625)"/>
       <path id="SimHei-64" d="M 2750 125 
L 2250 125 
L 2250 500 
Q 2100 275 1900 175 
Q 1700 75 1425 75 
Q 925 75 575 437 
Q 225 800 225 1525 
Q 225 2250 575 2625 
Q 925 3000 1425 3000 
Q 1700 3000 1900 2887 
Q 2100 2775 2250 2550 
L 2250 4400 
L 2750 4400 
L 2750 125 
z
M 2250 1525 
Q 2250 2000 2037 2275 
Q 1825 2550 1525 2550 
Q 1150 2550 962 2275 
Q 775 2000 775 1525 
Q 775 1050 962 787 
Q 1150 525 1525 525 
Q 1825 525 2037 787 
Q 2250 1050 2250 1525 
z
" transform="scale(0.015625)"/>
      </defs>
      <use xlink:href="#SimHei-63"/>
      <use xlink:href="#SimHei-6f" x="50"/>
      <use xlink:href="#SimHei-6e" x="100"/>
      <use xlink:href="#SimHei-74" x="150"/>
      <use xlink:href="#SimHei-72" x="200"/>
      <use xlink:href="#SimHei-6f" x="250"/>
      <use xlink:href="#SimHei-6c" x="300"/>
      <use xlink:href="#SimHei-20" x="350"/>
      <use xlink:href="#SimHei-74" x="400"/>
      <use xlink:href="#SimHei-72" x="450"/>
      <use xlink:href="#SimHei-65" x="500"/>
      <use xlink:href="#SimHei-6e" x="550"/>
      <use xlink:href="#SimHei-64" x="600"/>
     </g>
    </g>
   </g>
   <g id="line2d_57">
    <path d="M 130.726957 334.031921 
L 139.11361 322.584189 
L 147.500263 328.081216 
L 155.886916 278.007273 
L 164.273569 309.053262 
L 172.660222 304.640795 
L 181.046876 322.790736 
L 189.433529 322.601766 
L 197.820182 323.363983 
L 206.206835 329.582641 
L 214.593488 329.432973 
L 222.980142 325.6667 
L 231.366795 334.176081 
L 239.753448 326.93246 
L 248.140101 321.255139 
L 256.526754 331.404975 
L 264.913407 331.447069 
L 273.300061 333.210562 
L 281.686714 327.858073 
L 290.073367 332.137846 
L 298.46002 321.519621 
L 306.846673 326.297581 
L 315.233327 319.258243 
L 323.61998 324.72698 
L 332.006633 329.114327 
L 340.393286 324.737315 
L 348.779939 333.075605 
L 357.166593 331.827649 
L 365.553246 327.608602 
L 373.939899 331.68296 
L 382.326552 334.798965 
L 390.713205 327.142477 
L 399.099858 331.700386 
L 407.486512 330.525755 
L 415.873165 327.755478 
L 424.259818 328.291082 
L 432.646471 315.50917 
L 441.033124 325.601296 
L 449.419778 330.974757 
L 457.806431 336.552727 
L 466.193084 331.175344 
L 474.579737 330.567774 
L 482.96639 329.25977 
L 491.353043 335.75068 
" clip-path="url(#p3d8db081da)" style="fill: none; stroke: #0000ff; stroke-linecap: square"/>
   </g>
   <g id="patch_58">
    <path d="M 103.68 339.48 
L 103.68 275.08 
" style="fill: none; stroke: #f0f0f0; stroke-width: 0.8; stroke-linejoin: miter; stroke-linecap: square"/>
   </g>
   <g id="patch_59">
    <path d="M 518.4 339.48 
L 518.4 275.08 
" style="fill: none; stroke: #f0f0f0; stroke-width: 0.8; stroke-linejoin: miter; stroke-linecap: square"/>
   </g>
   <g id="patch_60">
    <path d="M 103.68 339.48 
L 518.4 339.48 
" style="fill: none; stroke: #f0f0f0; stroke-width: 0.8; stroke-linejoin: miter; stroke-linecap: square"/>
   </g>
   <g id="patch_61">
    <path d="M 103.68 275.08 
L 518.4 275.08 
" style="fill: none; stroke: #f0f0f0; stroke-width: 0.8; stroke-linejoin: miter; stroke-linecap: square"/>
   </g>
  </g>
  <g id="text_22">
   <!-- -20240809 -->
   <g transform="translate(226.8 13.201875) scale(0.144 -0.144)">
    <defs>
     <path id="SimHei-5251" d="M 5800 5000 
Q 5775 4675 5750 4225 
L 5750 -25 
Q 5750 -375 5550 -500 
Q 5350 -625 4825 -675 
Q 4750 -350 4625 -75 
Q 5050 -100 5175 -75 
Q 5300 -50 5300 175 
L 5300 4225 
Q 5300 4725 5275 5000 
L 5800 5000 
z
M 3800 100 
Q 3450 50 2987 -25 
Q 2525 -100 2112 -175 
Q 1700 -250 1325 -312 
Q 950 -375 700 -450 
Q 625 -150 525 100 
Q 1075 125 1575 200 
L 2575 350 
Q 2650 550 2712 800 
Q 2775 1050 2825 1287 
Q 2875 1525 2937 1850 
Q 3000 2175 3050 2500 
Q 3300 2425 3650 2350 
Q 3500 2175 3362 1600 
Q 3225 1025 3050 425 
Q 3525 500 3825 575 
Q 3800 375 3800 100 
z
M 2425 4725 
Q 2800 4525 3225 4275 
Q 3650 4025 3950 3825 
Q 3775 3625 3625 3375 
Q 3350 3625 2962 3887 
Q 2575 4150 2150 4400 
Q 1800 3900 1412 3487 
Q 1025 3075 650 2750 
Q 450 2950 200 3100 
Q 550 3325 837 3600 
Q 1125 3875 1350 4162 
Q 1575 4450 1762 4737 
Q 1950 5025 2075 5300 
Q 2325 5125 2675 4975 
Q 2525 4850 2425 4725 
z
M 4650 4300 
Q 4625 3975 4625 3425 
L 4625 1600 
Q 4625 1225 4650 875 
L 4150 875 
Q 4175 1225 4175 1600 
L 4175 3500 
Q 4175 3925 4150 4300 
L 4650 4300 
z
M 2750 3350 
Q 3050 3350 3325 3375 
L 3325 2900 
Q 3000 2925 2700 2925 
L 2075 2925 
Q 1700 2925 1375 2900 
L 1375 3375 
Q 1725 3350 2050 3350 
L 2750 3350 
z
M 1150 2375 
Q 1225 2075 1350 1625 
Q 1475 1175 1550 850 
Q 1350 825 1050 725 
Q 975 1175 875 1550 
Q 775 1925 675 2225 
Q 950 2325 1150 2375 
z
M 2200 2450 
Q 2275 2175 2375 1762 
Q 2475 1350 2525 1125 
Q 2325 1100 2075 1000 
Q 2000 1425 1912 1737 
Q 1825 2050 1750 2325 
Q 1950 2400 2200 2450 
z
" transform="scale(0.015625)"/>
     <path id="SimHei-6865" d="M 5550 4725 
Q 5250 4750 4300 4600 
Q 4250 4225 4175 3800 
L 5075 3800 
Q 5375 3800 5800 3825 
L 5800 3400 
Q 5375 3425 4775 3425 
Q 4850 2975 5187 2612 
Q 5525 2250 6200 2025 
Q 5950 1875 5800 1575 
Q 5425 1775 5100 2075 
Q 5050 1800 5050 1425 
L 5050 275 
Q 5050 -75 5075 -525 
L 4600 -525 
Q 4625 -225 4625 275 
L 4625 1425 
Q 4625 1800 4600 2100 
L 5075 2100 
Q 4500 2650 4350 3425 
L 4075 3425 
Q 3800 2625 3425 2225 
Q 3800 2175 3975 2175 
Q 3900 1900 3850 1337 
Q 3800 775 3637 312 
Q 3475 -150 3050 -550 
Q 2800 -325 2500 -250 
Q 3175 200 3312 1025 
Q 3450 1850 3400 2175 
Q 3025 1750 2625 1450 
Q 2500 1625 2175 1800 
Q 2850 2175 3162 2600 
Q 3475 3025 3625 3425 
Q 3075 3425 2650 3400 
L 2650 3825 
Q 3100 3800 3750 3800 
Q 3800 4250 3825 4550 
Q 3175 4475 2825 4450 
Q 2750 4675 2625 4850 
Q 2875 4850 3725 4937 
Q 4575 5025 5275 5250 
Q 5375 5000 5550 4725 
z
M 2050 2050 
Q 1900 2450 1675 2850 
L 1675 400 
Q 1675 -75 1700 -575 
L 1225 -575 
Q 1250 -75 1250 400 
L 1250 2425 
Q 1075 1725 600 1000 
Q 450 1225 250 1375 
Q 650 1950 850 2437 
Q 1050 2925 1125 3425 
Q 775 3425 450 3375 
L 450 3825 
Q 800 3800 1250 3800 
L 1250 4425 
Q 1250 4800 1225 5175 
L 1725 5175 
Q 1675 4875 1675 4425 
L 1675 3800 
Q 2000 3800 2325 3825 
L 2325 3400 
Q 2000 3425 1675 3425 
L 1675 3000 
Q 1850 3100 1950 3175 
Q 2200 2725 2450 2250 
Q 2250 2200 2050 2050 
z
" transform="scale(0.015625)"/>
     <path id="SimHei-79d1" d="M 2900 2850 
Q 2725 2875 2225 2875 
L 1975 2875 
L 1975 200 
Q 1975 -125 2000 -650 
L 1475 -650 
Q 1500 -125 1500 200 
L 1500 1850 
Q 1325 1450 1150 1125 
Q 975 800 650 325 
Q 475 525 275 725 
Q 725 1250 987 1750 
Q 1250 2250 1450 2875 
L 1275 2875 
Q 825 2875 400 2850 
L 400 3325 
Q 825 3300 1275 3300 
L 1500 3300 
L 1500 4300 
Q 1200 4250 675 4125 
Q 575 4350 425 4550 
Q 650 4575 1200 4687 
Q 1750 4800 2050 4875 
Q 2350 4950 2575 5075 
Q 2700 4825 2875 4600 
Q 2650 4575 2412 4512 
Q 2175 4450 1975 4425 
L 1975 3300 
L 2250 3300 
Q 2725 3300 2900 3325 
L 2900 2850 
z
M 4750 4425 
Q 4750 4925 4725 5125 
L 5275 5125 
Q 5250 4950 5250 4525 
L 5250 1725 
Q 5900 1850 6075 1900 
L 6150 1450 
Q 5775 1400 5250 1275 
L 5250 325 
Q 5250 -175 5275 -650 
L 4725 -650 
Q 4750 -175 4750 325 
L 4750 1175 
Q 4175 1075 3737 987 
Q 3300 900 2825 750 
L 2650 1250 
Q 3400 1375 4750 1625 
L 4750 4425 
z
M 3400 3125 
Q 3650 2900 3875 2700 
Q 4100 2500 4450 2125 
Q 4225 1950 4050 1775 
Q 3600 2350 3100 2800 
Q 3250 2950 3400 3125 
z
M 3650 4625 
Q 3750 4525 3975 4275 
Q 4200 4025 4575 3550 
Q 4325 3400 4150 3250 
Q 3825 3725 3625 3950 
Q 3425 4175 3300 4325 
Q 3500 4450 3650 4625 
z
M 2400 2600 
Q 2525 2450 2725 2250 
Q 2925 2050 3150 1800 
Q 2975 1675 2750 1450 
Q 2500 1850 2075 2275 
Q 2250 2375 2400 2600 
z
" transform="scale(0.015625)"/>
     <path id="SimHei-6280" d="M 2725 2800 
Q 3250 2775 3950 2775 
L 3950 3775 
L 3375 3775 
Q 2925 3775 2625 3750 
L 2625 4200 
Q 3000 4175 3325 4175 
L 3950 4175 
Q 3950 4550 3925 5100 
L 4450 5100 
Q 4425 4650 4425 4175 
L 5300 4175 
Q 5575 4175 5925 4200 
L 5925 3750 
Q 5575 3775 5300 3775 
L 4425 3775 
L 4425 2775 
L 5700 2775 
Q 5575 2275 5300 1675 
Q 5025 1075 4575 550 
Q 4975 250 5400 75 
Q 5825 -100 6175 -175 
Q 6000 -400 5875 -650 
Q 5050 -400 4225 250 
Q 3700 -175 2475 -625 
Q 2375 -475 2100 -150 
Q 2475 -100 2925 75 
Q 3375 250 3875 550 
Q 3300 1375 3050 2375 
L 2725 2375 
L 2725 2800 
z
M 2375 2775 
Q 2400 2600 2450 2325 
Q 2100 2150 1725 1975 
L 1725 100 
Q 1750 -200 1550 -350 
Q 1350 -500 750 -600 
Q 700 -350 550 -50 
Q 1050 -75 1162 37 
Q 1275 150 1275 300 
L 1275 1750 
Q 875 1575 500 1350 
Q 425 1625 250 1825 
Q 500 1875 1275 2225 
L 1275 3450 
Q 750 3450 400 3425 
L 400 3875 
Q 750 3850 1275 3850 
Q 1275 4750 1250 5175 
L 1750 5175 
Q 1725 4800 1725 3850 
Q 2000 3850 2400 3875 
L 2400 3425 
Q 2000 3450 1725 3450 
L 1725 2425 
Q 2075 2575 2375 2775 
z
M 3500 2400 
Q 3825 1325 4225 875 
Q 4450 1075 4687 1500 
Q 4925 1925 5075 2400 
L 3500 2400 
z
" transform="scale(0.015625)"/>
     <path id="SimHei-2d" d="M 2975 2125 
L 125 2125 
L 125 2525 
L 2975 2525 
L 2975 2125 
z
" transform="scale(0.015625)"/>
    </defs>
    <use xlink:href="#SimHei-5251"/>
    <use xlink:href="#SimHei-6865" x="100"/>
    <use xlink:href="#SimHei-79d1" x="200"/>
    <use xlink:href="#SimHei-6280" x="300"/>
    <use xlink:href="#SimHei-2d" x="400"/>
    <use xlink:href="#SimHei-32" x="450"/>
    <use xlink:href="#SimHei-30" x="500"/>
    <use xlink:href="#SimHei-32" x="550"/>
    <use xlink:href="#SimHei-34" x="600"/>
    <use xlink:href="#SimHei-30" x="650"/>
    <use xlink:href="#SimHei-38" x="700"/>
    <use xlink:href="#SimHei-30" x="750"/>
    <use xlink:href="#SimHei-39" x="800"/>
   </g>
  </g>
 </g>
 <defs>
  <clipPath id="p9e63f169e1">
   <rect x="103.68" y="49.68" width="414.72" height="161"/>
  </clipPath>
  <clipPath id="pb2c79cae12">
   <rect x="103.68" y="210.68" width="414.72" height="64.4"/>
  </clipPath>
  <clipPath id="p3d8db081da">
   <rect x="103.68" y="275.08" width="414.72" height="64.4"/>
  </clipPath>
 </defs>
</svg>
