<?xml version="1.0" encoding="utf-8" standalone="no"?>
<!DOCTYPE svg PUBLIC "-//W3C//DTD SVG 1.1//EN"
  "http://www.w3.org/Graphics/SVG/1.1/DTD/svg11.dtd">
<svg xmlns:xlink="http://www.w3.org/1999/xlink" width="576pt" height="414pt" viewBox="0 0 576 414" xmlns="http://www.w3.org/2000/svg" version="1.1">
 <metadata>
  <rdf:RDF xmlns:dc="http://purl.org/dc/elements/1.1/" xmlns:cc="http://creativecommons.org/ns#" xmlns:rdf="http://www.w3.org/1999/02/22-rdf-syntax-ns#">
   <cc:Work>
    <dc:type rdf:resource="http://purl.org/dc/dcmitype/StillImage"/>
    <dc:date>2024-08-09T18:06:57.168174</dc:date>
    <dc:format>image/svg+xml</dc:format>
    <dc:creator>
     <cc:Agent>
      <dc:title>Matplotlib v3.8.4, https://matplotlib.org/</dc:title>
     </cc:Agent>
    </dc:creator>
   </cc:Work>
  </rdf:RDF>
 </metadata>
 <defs>
  <style type="text/css">*{stroke-linejoin: round; stroke-linecap: butt}</style>
 </defs>
 <g id="figure_1">
  <g id="patch_1">
   <path d="M 0 414 
L 576 414 
L 576 0 
L 0 0 
z
" style="fill: #ffffff"/>
  </g>
  <g id="axes_1">
   <g id="patch_2">
    <path d="M 103.68 210.68 
L 518.4 210.68 
L 518.4 49.68 
L 103.68 49.68 
z
" style="fill: #fafafa"/>
   </g>
   <g id="matplotlib.axis_1">
    <g id="xtick_1">
     <g id="line2d_1">
      <path d="M 130.726957 210.68 
L 130.726957 49.68 
" clip-path="url(#p9e52f29c42)" style="fill: none; stroke: #d0d0d0; stroke-width: 0.8; stroke-linecap: square"/>
     </g>
     <g id="line2d_2">
      <defs>
       <path id="m0d39ec75f6" d="M 0 0 
L 0 3.5 
" style="stroke: #101010; stroke-width: 0.8"/>
      </defs>
      <g>
       <use xlink:href="#m0d39ec75f6" x="130.726957" y="210.68" style="fill: #101010; stroke: #101010; stroke-width: 0.8"/>
      </g>
     </g>
    </g>
    <g id="xtick_2">
     <g id="line2d_3">
      <path d="M 214.593488 210.68 
L 214.593488 49.68 
" clip-path="url(#p9e52f29c42)" style="fill: none; stroke: #d0d0d0; stroke-width: 0.8; stroke-linecap: square"/>
     </g>
     <g id="line2d_4">
      <g>
       <use xlink:href="#m0d39ec75f6" x="214.593488" y="210.68" style="fill: #101010; stroke: #101010; stroke-width: 0.8"/>
      </g>
     </g>
    </g>
    <g id="xtick_3">
     <g id="line2d_5">
      <path d="M 298.46002 210.68 
L 298.46002 49.68 
" clip-path="url(#p9e52f29c42)" style="fill: none; stroke: #d0d0d0; stroke-width: 0.8; stroke-linecap: square"/>
     </g>
     <g id="line2d_6">
      <g>
       <use xlink:href="#m0d39ec75f6" x="298.46002" y="210.68" style="fill: #101010; stroke: #101010; stroke-width: 0.8"/>
      </g>
     </g>
    </g>
    <g id="xtick_4">
     <g id="line2d_7">
      <path d="M 382.326552 210.68 
L 382.326552 49.68 
" clip-path="url(#p9e52f29c42)" style="fill: none; stroke: #d0d0d0; stroke-width: 0.8; stroke-linecap: square"/>
     </g>
     <g id="line2d_8">
      <g>
       <use xlink:href="#m0d39ec75f6" x="382.326552" y="210.68" style="fill: #101010; stroke: #101010; stroke-width: 0.8"/>
      </g>
     </g>
    </g>
    <g id="xtick_5">
     <g id="line2d_9">
      <path d="M 466.193084 210.68 
L 466.193084 49.68 
" clip-path="url(#p9e52f29c42)" style="fill: none; stroke: #d0d0d0; stroke-width: 0.8; stroke-linecap: square"/>
     </g>
     <g id="line2d_10">
      <g>
       <use xlink:href="#m0d39ec75f6" x="466.193084" y="210.68" style="fill: #101010; stroke: #101010; stroke-width: 0.8"/>
      </g>
     </g>
    </g>
   </g>
   <g id="matplotlib.axis_2">
    <g id="ytick_1">
     <g id="line2d_11">
      <path d="M 103.68 198.823411 
L 518.4 198.823411 
" clip-path="url(#p9e52f29c42)" style="fill: none; stroke: #d0d0d0; stroke-width: 0.8; stroke-linecap: square"/>
     </g>
     <g id="line2d_12">
      <defs>
       <path id="m2494d026af" d="M 0 0 
L 3.5 0 
" style="stroke: #101010; stroke-width: 0.8"/>
      </defs>
      <g>
       <use xlink:href="#m2494d026af" x="518.4" y="198.823411" style="fill: #101010; stroke: #101010; stroke-width: 0.8"/>
      </g>
     </g>
     <g id="text_1">
      <!-- 2.0 -->
      <g style="fill: #101010" transform="translate(525.4 202.260911) scale(0.1 -0.1)">
       <defs>
        <path id="SimHei-32" d="M 300 250 
Q 325 625 650 925 
Q 975 1225 1475 1862 
Q 1975 2500 2125 2850 
Q 2275 3200 2237 3450 
Q 2200 3700 2000 3862 
Q 1800 4025 1537 4000 
Q 1275 3975 1037 3800 
Q 800 3625 675 3275 
L 200 3350 
Q 400 3925 712 4187 
Q 1025 4450 1450 4475 
Q 1700 4500 1900 4462 
Q 2100 4425 2312 4287 
Q 2525 4150 2662 3875 
Q 2800 3600 2762 3212 
Q 2725 2825 2375 2287 
Q 2025 1750 1025 600 
L 2825 600 
L 2825 150 
L 300 150 
L 300 250 
z
" transform="scale(0.015625)"/>
        <path id="SimHei-2e" d="M 1075 125 
L 500 125 
L 500 675 
L 1075 675 
L 1075 125 
z
" transform="scale(0.015625)"/>
        <path id="SimHei-30" d="M 225 2537 
Q 250 3200 412 3587 
Q 575 3975 875 4225 
Q 1175 4475 1612 4475 
Q 2050 4475 2375 4112 
Q 2700 3750 2800 3200 
Q 2900 2650 2862 1937 
Q 2825 1225 2612 775 
Q 2400 325 1975 150 
Q 1550 -25 1125 187 
Q 700 400 525 750 
Q 350 1100 275 1487 
Q 200 1875 225 2537 
z
M 750 2687 
Q 675 2000 800 1462 
Q 925 925 1212 700 
Q 1500 475 1800 612 
Q 2100 750 2237 1162 
Q 2375 1575 2375 2062 
Q 2375 2550 2337 2950 
Q 2300 3350 2112 3675 
Q 1925 4000 1612 4012 
Q 1300 4025 1062 3700 
Q 825 3375 750 2687 
z
" transform="scale(0.015625)"/>
       </defs>
       <use xlink:href="#SimHei-32"/>
       <use xlink:href="#SimHei-2e" x="50"/>
       <use xlink:href="#SimHei-30" x="100"/>
      </g>
     </g>
    </g>
    <g id="ytick_2">
     <g id="line2d_13">
      <path d="M 103.68 176.131374 
L 518.4 176.131374 
" clip-path="url(#p9e52f29c42)" style="fill: none; stroke: #d0d0d0; stroke-width: 0.8; stroke-linecap: square"/>
     </g>
     <g id="line2d_14">
      <g>
       <use xlink:href="#m2494d026af" x="518.4" y="176.131374" style="fill: #101010; stroke: #101010; stroke-width: 0.8"/>
      </g>
     </g>
     <g id="text_2">
      <!-- 2.2 -->
      <g style="fill: #101010" transform="translate(525.4 179.568874) scale(0.1 -0.1)">
       <use xlink:href="#SimHei-32"/>
       <use xlink:href="#SimHei-2e" x="50"/>
       <use xlink:href="#SimHei-32" x="100"/>
      </g>
     </g>
    </g>
    <g id="ytick_3">
     <g id="line2d_15">
      <path d="M 103.68 153.439338 
L 518.4 153.439338 
" clip-path="url(#p9e52f29c42)" style="fill: none; stroke: #d0d0d0; stroke-width: 0.8; stroke-linecap: square"/>
     </g>
     <g id="line2d_16">
      <g>
       <use xlink:href="#m2494d026af" x="518.4" y="153.439338" style="fill: #101010; stroke: #101010; stroke-width: 0.8"/>
      </g>
     </g>
     <g id="text_3">
      <!-- 2.4 -->
      <g style="fill: #101010" transform="translate(525.4 156.876838) scale(0.1 -0.1)">
       <defs>
        <path id="SimHei-34" d="M 2000 1100 
L 75 1100 
L 75 1525 
L 2100 4450 
L 2475 4450 
L 2475 1525 
L 3075 1525 
L 3075 1100 
L 2475 1100 
L 2475 150 
L 2000 150 
L 2000 1100 
z
M 2000 1525 
L 2000 3500 
L 600 1525 
L 2000 1525 
z
" transform="scale(0.015625)"/>
       </defs>
       <use xlink:href="#SimHei-32"/>
       <use xlink:href="#SimHei-2e" x="50"/>
       <use xlink:href="#SimHei-34" x="100"/>
      </g>
     </g>
    </g>
    <g id="ytick_4">
     <g id="line2d_17">
      <path d="M 103.68 130.747301 
L 518.4 130.747301 
" clip-path="url(#p9e52f29c42)" style="fill: none; stroke: #d0d0d0; stroke-width: 0.8; stroke-linecap: square"/>
     </g>
     <g id="line2d_18">
      <g>
       <use xlink:href="#m2494d026af" x="518.4" y="130.747301" style="fill: #101010; stroke: #101010; stroke-width: 0.8"/>
      </g>
     </g>
     <g id="text_4">
      <!-- 2.6 -->
      <g style="fill: #101010" transform="translate(525.4 134.184801) scale(0.1 -0.1)">
       <defs>
        <path id="SimHei-36" d="M 250 1612 
Q 275 1975 387 2225 
Q 500 2475 725 2850 
L 1750 4450 
L 2325 4450 
L 1275 2800 
Q 1950 2975 2350 2750 
Q 2750 2525 2887 2237 
Q 3025 1950 3037 1612 
Q 3050 1275 2937 950 
Q 2825 625 2537 362 
Q 2250 100 1737 75 
Q 1225 50 862 262 
Q 500 475 362 862 
Q 225 1250 250 1612 
z
M 1025 787 
Q 1250 550 1625 525 
Q 2000 500 2250 775 
Q 2500 1050 2500 1575 
Q 2500 2100 2187 2300 
Q 1875 2500 1487 2450 
Q 1100 2400 925 2075 
Q 750 1750 775 1387 
Q 800 1025 1025 787 
z
" transform="scale(0.015625)"/>
       </defs>
       <use xlink:href="#SimHei-32"/>
       <use xlink:href="#SimHei-2e" x="50"/>
       <use xlink:href="#SimHei-36" x="100"/>
      </g>
     </g>
    </g>
    <g id="ytick_5">
     <g id="line2d_19">
      <path d="M 103.68 108.055264 
L 518.4 108.055264 
" clip-path="url(#p9e52f29c42)" style="fill: none; stroke: #d0d0d0; stroke-width: 0.8; stroke-linecap: square"/>
     </g>
     <g id="line2d_20">
      <g>
       <use xlink:href="#m2494d026af" x="518.4" y="108.055264" style="fill: #101010; stroke: #101010; stroke-width: 0.8"/>
      </g>
     </g>
     <g id="text_5">
      <!-- 2.8 -->
      <g style="fill: #101010" transform="translate(525.4 111.492764) scale(0.1 -0.1)">
       <defs>
        <path id="SimHei-38" d="M 175 1375 
Q 175 1675 325 1962 
Q 475 2250 825 2425 
Q 525 2600 425 2812 
Q 325 3025 312 3300 
Q 300 3575 387 3775 
Q 475 3975 650 4150 
Q 825 4325 1037 4387 
Q 1250 4450 1500 4450 
Q 1750 4450 1950 4400 
Q 2150 4350 2375 4187 
Q 2600 4025 2700 3725 
Q 2800 3425 2687 3025 
Q 2575 2625 2100 2400 
Q 2525 2275 2700 2012 
Q 2875 1750 2875 1375 
Q 2875 1000 2762 775 
Q 2650 550 2512 400 
Q 2375 250 2137 162 
Q 1900 75 1537 75 
Q 1175 75 912 162 
Q 650 250 475 425 
Q 300 600 237 837 
Q 175 1075 175 1375 
z
M 687 1400 
Q 675 1100 787 875 
Q 900 650 1200 587 
Q 1500 525 1825 600 
Q 2150 675 2275 950 
Q 2400 1225 2362 1500 
Q 2325 1775 2050 1962 
Q 1775 2150 1450 2125 
Q 1125 2100 912 1900 
Q 700 1700 687 1400 
z
M 775 3350 
Q 775 3100 950 2875 
Q 1125 2650 1500 2650 
Q 1875 2650 2062 2875 
Q 2250 3100 2237 3412 
Q 2225 3725 2012 3875 
Q 1800 4025 1437 4000 
Q 1075 3975 925 3787 
Q 775 3600 775 3350 
z
" transform="scale(0.015625)"/>
       </defs>
       <use xlink:href="#SimHei-32"/>
       <use xlink:href="#SimHei-2e" x="50"/>
       <use xlink:href="#SimHei-38" x="100"/>
      </g>
     </g>
    </g>
    <g id="ytick_6">
     <g id="line2d_21">
      <path d="M 103.68 85.363228 
L 518.4 85.363228 
" clip-path="url(#p9e52f29c42)" style="fill: none; stroke: #d0d0d0; stroke-width: 0.8; stroke-linecap: square"/>
     </g>
     <g id="line2d_22">
      <g>
       <use xlink:href="#m2494d026af" x="518.4" y="85.363228" style="fill: #101010; stroke: #101010; stroke-width: 0.8"/>
      </g>
     </g>
     <g id="text_6">
      <!-- 3.0 -->
      <g style="fill: #101010" transform="translate(525.4 88.800728) scale(0.1 -0.1)">
       <defs>
        <path id="SimHei-33" d="M 250 1225 
L 700 1300 
Q 800 975 1025 762 
Q 1250 550 1587 562 
Q 1925 575 2125 837 
Q 2325 1100 2300 1437 
Q 2275 1775 2037 1962 
Q 1800 2150 1275 2225 
L 1275 2550 
Q 1800 2600 2037 2825 
Q 2275 3050 2250 3412 
Q 2225 3775 1925 3937 
Q 1625 4100 1287 3975 
Q 950 3850 750 3275 
L 300 3350 
Q 450 3800 712 4100 
Q 975 4400 1425 4450 
Q 1875 4500 2212 4337 
Q 2550 4175 2687 3837 
Q 2825 3500 2725 3100 
Q 2625 2700 2150 2400 
Q 2500 2250 2687 1950 
Q 2875 1650 2812 1162 
Q 2750 675 2375 375 
Q 2000 75 1525 87 
Q 1050 100 700 387 
Q 350 675 250 1225 
z
" transform="scale(0.015625)"/>
       </defs>
       <use xlink:href="#SimHei-33"/>
       <use xlink:href="#SimHei-2e" x="50"/>
       <use xlink:href="#SimHei-30" x="100"/>
      </g>
     </g>
    </g>
    <g id="ytick_7">
     <g id="line2d_23">
      <path d="M 103.68 62.671191 
L 518.4 62.671191 
" clip-path="url(#p9e52f29c42)" style="fill: none; stroke: #d0d0d0; stroke-width: 0.8; stroke-linecap: square"/>
     </g>
     <g id="line2d_24">
      <g>
       <use xlink:href="#m2494d026af" x="518.4" y="62.671191" style="fill: #101010; stroke: #101010; stroke-width: 0.8"/>
      </g>
     </g>
     <g id="text_7">
      <!-- 3.2 -->
      <g style="fill: #101010" transform="translate(525.4 66.108691) scale(0.1 -0.1)">
       <use xlink:href="#SimHei-33"/>
       <use xlink:href="#SimHei-2e" x="50"/>
       <use xlink:href="#SimHei-32" x="100"/>
      </g>
     </g>
    </g>
    <g id="text_8">
     <!-- price -->
     <g style="fill: #101010" transform="translate(551.275 142.68) rotate(-90) scale(0.1 -0.1)">
      <defs>
       <path id="SimHei-70" d="M 2825 1525 
Q 2825 800 2475 425 
Q 2125 50 1625 50 
Q 1350 50 1150 162 
Q 950 275 800 500 
L 800 -800 
L 300 -800 
L 300 2925 
L 800 2925 
L 800 2550 
Q 950 2775 1150 2875 
Q 1350 2975 1625 2975 
Q 2125 2975 2475 2612 
Q 2825 2250 2825 1525 
z
M 2275 1525 
Q 2275 2000 2087 2262 
Q 1900 2525 1525 2525 
Q 1225 2525 1012 2262 
Q 800 2000 800 1525 
Q 800 1050 1012 775 
Q 1225 500 1525 500 
Q 1900 500 2087 775 
Q 2275 1050 2275 1525 
z
" transform="scale(0.015625)"/>
       <path id="SimHei-72" d="M 2500 2425 
Q 2025 2500 1700 2287 
Q 1375 2075 1150 1550 
L 1150 125 
L 650 125 
L 650 2925 
L 1150 2925 
L 1150 2200 
Q 1375 2600 1712 2787 
Q 2050 2975 2500 2975 
L 2500 2425 
z
" transform="scale(0.015625)"/>
       <path id="SimHei-69" d="M 1800 3725 
L 1300 3725 
L 1300 4375 
L 1800 4375 
L 1800 3725 
z
M 1800 125 
L 1300 125 
L 1300 2925 
L 1800 2925 
L 1800 125 
z
" transform="scale(0.015625)"/>
       <path id="SimHei-63" d="M 2850 1250 
Q 2850 725 2487 400 
Q 2125 75 1575 75 
Q 1025 75 625 462 
Q 225 850 225 1525 
Q 225 2200 625 2587 
Q 1025 2975 1575 2975 
Q 2125 2975 2450 2687 
Q 2775 2400 2775 2000 
L 2225 2000 
Q 2200 2300 2012 2412 
Q 1825 2525 1575 2525 
Q 1275 2525 1025 2287 
Q 775 2050 775 1525 
Q 775 1000 1025 762 
Q 1275 525 1575 525 
Q 1900 525 2100 700 
Q 2300 875 2300 1250 
L 2850 1250 
z
" transform="scale(0.015625)"/>
       <path id="SimHei-65" d="M 2850 1075 
Q 2800 625 2450 350 
Q 2100 75 1625 75 
Q 1025 75 637 462 
Q 250 850 250 1525 
Q 250 2200 637 2587 
Q 1025 2975 1625 2975 
Q 2150 2975 2487 2637 
Q 2825 2300 2825 1525 
L 800 1525 
Q 800 975 1037 750 
Q 1275 525 1625 525 
Q 1900 525 2075 662 
Q 2250 800 2300 1075 
L 2850 1075 
z
M 2250 1925 
Q 2200 2275 2025 2412 
Q 1850 2550 1575 2550 
Q 1325 2550 1125 2412 
Q 925 2275 825 1925 
L 2250 1925 
z
" transform="scale(0.015625)"/>
      </defs>
      <use xlink:href="#SimHei-70"/>
      <use xlink:href="#SimHei-72" x="50"/>
      <use xlink:href="#SimHei-69" x="100"/>
      <use xlink:href="#SimHei-63" x="150"/>
      <use xlink:href="#SimHei-65" x="200"/>
     </g>
    </g>
   </g>
   <g id="PolyCollection_1">
    <path d="M 127.761226 163.650754 
L 127.761226 156.843143 
L 133.692687 156.843143 
L 133.692687 163.650754 
z
" clip-path="url(#p9e52f29c42)" style="fill: #ff0000; fill-opacity: 0.9; stroke: #000000; stroke-width: 0.941667"/>
    <path d="M 136.147879 157.977745 
L 136.147879 150.035532 
L 142.07934 150.035532 
L 142.07934 157.977745 
z
" clip-path="url(#p9e52f29c42)" style="fill: #ff0000; fill-opacity: 0.9; stroke: #000000; stroke-width: 0.941667"/>
    <path d="M 144.534533 152.304736 
L 144.534533 157.977745 
L 150.465993 157.977745 
L 150.465993 152.304736 
z
" clip-path="url(#p9e52f29c42)" style="fill: #008000; fill-opacity: 0.9; stroke: #000000; stroke-width: 0.941667"/>
    <path d="M 152.921186 155.708541 
L 152.921186 156.843143 
L 158.852646 156.843143 
L 158.852646 155.708541 
z
" clip-path="url(#p9e52f29c42)" style="fill: #008000; fill-opacity: 0.9; stroke: #000000; stroke-width: 0.941667"/>
    <path d="M 161.307839 153.439338 
L 161.307839 159.112347 
L 167.239299 159.112347 
L 167.239299 153.439338 
z
" clip-path="url(#p9e52f29c42)" style="fill: #008000; fill-opacity: 0.9; stroke: #000000; stroke-width: 0.941667"/>
    <path d="M 169.694492 159.112347 
L 169.694492 156.843143 
L 175.625953 156.843143 
L 175.625953 159.112347 
z
" clip-path="url(#p9e52f29c42)" style="fill: #ff0000; fill-opacity: 0.9; stroke: #000000; stroke-width: 0.941667"/>
    <path d="M 178.081145 155.708541 
L 178.081145 161.38155 
L 184.012606 161.38155 
L 184.012606 155.708541 
z
" clip-path="url(#p9e52f29c42)" style="fill: #008000; fill-opacity: 0.9; stroke: #000000; stroke-width: 0.941667"/>
    <path d="M 186.467799 161.38155 
L 186.467799 170.458365 
L 192.399259 170.458365 
L 192.399259 161.38155 
z
" clip-path="url(#p9e52f29c42)" style="fill: #008000; fill-opacity: 0.9; stroke: #000000; stroke-width: 0.941667"/>
    <path d="M 194.854452 170.458365 
L 194.854452 172.727569 
L 200.785912 172.727569 
L 200.785912 170.458365 
z
" clip-path="url(#p9e52f29c42)" style="fill: #008000; fill-opacity: 0.9; stroke: #000000; stroke-width: 0.941667"/>
    <path d="M 203.241105 170.458365 
L 203.241105 184.073587 
L 209.172565 184.073587 
L 209.172565 170.458365 
z
" clip-path="url(#p9e52f29c42)" style="fill: #008000; fill-opacity: 0.9; stroke: #000000; stroke-width: 0.941667"/>
    <path d="M 211.627758 184.073587 
L 211.627758 179.53518 
L 217.559219 179.53518 
L 217.559219 184.073587 
z
" clip-path="url(#p9e52f29c42)" style="fill: #ff0000; fill-opacity: 0.9; stroke: #000000; stroke-width: 0.941667"/>
    <path d="M 220.014411 179.53518 
L 220.014411 170.458365 
L 225.945872 170.458365 
L 225.945872 179.53518 
z
" clip-path="url(#p9e52f29c42)" style="fill: #ff0000; fill-opacity: 0.9; stroke: #000000; stroke-width: 0.941667"/>
    <path d="M 228.401065 165.919958 
L 228.401065 174.996772 
L 234.332525 174.996772 
L 234.332525 165.919958 
z
" clip-path="url(#p9e52f29c42)" style="fill: #008000; fill-opacity: 0.9; stroke: #000000; stroke-width: 0.941667"/>
    <path d="M 236.787718 173.862171 
L 236.787718 172.727569 
L 242.719178 172.727569 
L 242.719178 173.862171 
z
" clip-path="url(#p9e52f29c42)" style="fill: #ff0000; fill-opacity: 0.9; stroke: #000000; stroke-width: 0.941667"/>
    <path d="M 245.174371 170.458365 
L 245.174371 172.727569 
L 251.105831 172.727569 
L 251.105831 170.458365 
z
" clip-path="url(#p9e52f29c42)" style="fill: #008000; fill-opacity: 0.9; stroke: #000000; stroke-width: 0.941667"/>
    <path d="M 253.561024 174.996772 
L 253.561024 168.189161 
L 259.492485 168.189161 
L 259.492485 174.996772 
z
" clip-path="url(#p9e52f29c42)" style="fill: #ff0000; fill-opacity: 0.9; stroke: #000000; stroke-width: 0.941667"/>
    <path d="M 261.947677 164.785356 
L 261.947677 169.323763 
L 267.879138 169.323763 
L 267.879138 164.785356 
z
" clip-path="url(#p9e52f29c42)" style="fill: #008000; fill-opacity: 0.9; stroke: #000000; stroke-width: 0.941667"/>
    <path d="M 270.33433 169.323763 
L 270.33433 180.669782 
L 276.265791 180.669782 
L 276.265791 169.323763 
z
" clip-path="url(#p9e52f29c42)" style="fill: #008000; fill-opacity: 0.9; stroke: #000000; stroke-width: 0.941667"/>
    <path d="M 278.720984 180.669782 
L 278.720984 177.265976 
L 284.652444 177.265976 
L 284.652444 180.669782 
z
" clip-path="url(#p9e52f29c42)" style="fill: #ff0000; fill-opacity: 0.9; stroke: #000000; stroke-width: 0.941667"/>
    <path d="M 287.107637 177.265976 
L 287.107637 187.477393 
L 293.039097 187.477393 
L 293.039097 177.265976 
z
" clip-path="url(#p9e52f29c42)" style="fill: #008000; fill-opacity: 0.9; stroke: #000000; stroke-width: 0.941667"/>
    <path d="M 295.49429 186.342791 
L 295.49429 193.150402 
L 301.42575 193.150402 
L 301.42575 186.342791 
z
" clip-path="url(#p9e52f29c42)" style="fill: #008000; fill-opacity: 0.9; stroke: #000000; stroke-width: 0.941667"/>
    <path d="M 303.880943 195.419605 
L 303.880943 202.227216 
L 309.812404 202.227216 
L 309.812404 195.419605 
z
" clip-path="url(#p9e52f29c42)" style="fill: #008000; fill-opacity: 0.9; stroke: #000000; stroke-width: 0.941667"/>
    <path d="M 312.267596 198.823411 
L 312.267596 185.208189 
L 318.199057 185.208189 
L 318.199057 198.823411 
z
" clip-path="url(#p9e52f29c42)" style="fill: #ff0000; fill-opacity: 0.9; stroke: #000000; stroke-width: 0.941667"/>
    <path d="M 320.65425 178.400578 
L 320.65425 186.342791 
L 326.58571 186.342791 
L 326.58571 178.400578 
z
" clip-path="url(#p9e52f29c42)" style="fill: #008000; fill-opacity: 0.9; stroke: #000000; stroke-width: 0.941667"/>
    <path d="M 329.040903 185.208189 
L 329.040903 194.285004 
L 334.972363 194.285004 
L 334.972363 185.208189 
z
" clip-path="url(#p9e52f29c42)" style="fill: #008000; fill-opacity: 0.9; stroke: #000000; stroke-width: 0.941667"/>
    <path d="M 337.427556 194.285004 
L 337.427556 195.419605 
L 343.359016 195.419605 
L 343.359016 194.285004 
z
" clip-path="url(#p9e52f29c42)" style="fill: #008000; fill-opacity: 0.9; stroke: #000000; stroke-width: 0.941667"/>
    <path d="M 345.814209 196.554207 
L 345.814209 172.727569 
L 351.74567 172.727569 
L 351.74567 196.554207 
z
" clip-path="url(#p9e52f29c42)" style="fill: #ff0000; fill-opacity: 0.9; stroke: #000000; stroke-width: 0.941667"/>
    <path d="M 354.200862 164.785356 
L 354.200862 147.766328 
L 360.132323 147.766328 
L 360.132323 164.785356 
z
" clip-path="url(#p9e52f29c42)" style="fill: #ff0000; fill-opacity: 0.9; stroke: #000000; stroke-width: 0.941667"/>
    <path d="M 362.587515 146.631727 
L 362.587515 119.401283 
L 368.518976 119.401283 
L 368.518976 146.631727 
z
" clip-path="url(#p9e52f29c42)" style="fill: #ff0000; fill-opacity: 0.9; stroke: #000000; stroke-width: 0.941667"/>
    <path d="M 370.974169 100.113051 
L 370.974169 88.767033 
L 376.905629 88.767033 
L 376.905629 100.113051 
z
" clip-path="url(#p9e52f29c42)" style="fill: #ff0000; fill-opacity: 0.9; stroke: #000000; stroke-width: 0.941667"/>
    <path d="M 379.360822 88.767033 
L 379.360822 109.189866 
L 385.292282 109.189866 
L 385.292282 88.767033 
z
" clip-path="url(#p9e52f29c42)" style="fill: #008000; fill-opacity: 0.9; stroke: #000000; stroke-width: 0.941667"/>
    <path d="M 387.747475 140.958717 
L 387.747475 140.958717 
L 393.678935 140.958717 
L 393.678935 140.958717 
z
" clip-path="url(#p9e52f29c42)" style="fill: #008000; fill-opacity: 0.9; stroke: #000000; stroke-width: 0.941667"/>
    <path d="M 396.134128 154.573939 
L 396.134128 155.708541 
L 402.065589 155.708541 
L 402.065589 154.573939 
z
" clip-path="url(#p9e52f29c42)" style="fill: #008000; fill-opacity: 0.9; stroke: #000000; stroke-width: 0.941667"/>
    <path d="M 404.520781 159.112347 
L 404.520781 152.304736 
L 410.452242 152.304736 
L 410.452242 159.112347 
z
" clip-path="url(#p9e52f29c42)" style="fill: #ff0000; fill-opacity: 0.9; stroke: #000000; stroke-width: 0.941667"/>
    <path d="M 412.907435 147.766328 
L 412.907435 146.631727 
L 418.838895 146.631727 
L 418.838895 147.766328 
z
" clip-path="url(#p9e52f29c42)" style="fill: #ff0000; fill-opacity: 0.9; stroke: #000000; stroke-width: 0.941667"/>
    <path d="M 421.294088 153.439338 
L 421.294088 145.497125 
L 427.225548 145.497125 
L 427.225548 153.439338 
z
" clip-path="url(#p9e52f29c42)" style="fill: #ff0000; fill-opacity: 0.9; stroke: #000000; stroke-width: 0.941667"/>
    <path d="M 429.680741 148.90093 
L 429.680741 142.093319 
L 435.612201 142.093319 
L 435.612201 148.90093 
z
" clip-path="url(#p9e52f29c42)" style="fill: #ff0000; fill-opacity: 0.9; stroke: #000000; stroke-width: 0.941667"/>
    <path d="M 438.067394 143.227921 
L 438.067394 134.151106 
L 443.998855 134.151106 
L 443.998855 143.227921 
z
" clip-path="url(#p9e52f29c42)" style="fill: #ff0000; fill-opacity: 0.9; stroke: #000000; stroke-width: 0.941667"/>
    <path d="M 446.454047 138.689514 
L 446.454047 147.766328 
L 452.385508 147.766328 
L 452.385508 138.689514 
z
" clip-path="url(#p9e52f29c42)" style="fill: #008000; fill-opacity: 0.9; stroke: #000000; stroke-width: 0.941667"/>
    <path d="M 454.840701 152.304736 
L 454.840701 119.401283 
L 460.772161 119.401283 
L 460.772161 152.304736 
z
" clip-path="url(#p9e52f29c42)" style="fill: #ff0000; fill-opacity: 0.9; stroke: #000000; stroke-width: 0.941667"/>
    <path d="M 463.227354 106.920662 
L 463.227354 92.170839 
L 469.158814 92.170839 
L 469.158814 106.920662 
z
" clip-path="url(#p9e52f29c42)" style="fill: #ff0000; fill-opacity: 0.9; stroke: #000000; stroke-width: 0.941667"/>
    <path d="M 471.614007 114.862875 
L 471.614007 125.074292 
L 477.545467 125.074292 
L 477.545467 114.862875 
z
" clip-path="url(#p9e52f29c42)" style="fill: #008000; fill-opacity: 0.9; stroke: #000000; stroke-width: 0.941667"/>
    <path d="M 480.00066 126.208894 
L 480.00066 110.324468 
L 485.932121 110.324468 
L 485.932121 126.208894 
z
" clip-path="url(#p9e52f29c42)" style="fill: #ff0000; fill-opacity: 0.9; stroke: #000000; stroke-width: 0.941667"/>
    <path d="M 488.387313 118.266681 
L 488.387313 126.208894 
L 494.318774 126.208894 
L 494.318774 118.266681 
z
" clip-path="url(#p9e52f29c42)" style="fill: #008000; fill-opacity: 0.9; stroke: #000000; stroke-width: 0.941667"/>
   </g>
   <g id="LineCollection_1">
    <path d="M 130.726957 170.458365 
L 130.726957 163.650754 
" clip-path="url(#p9e52f29c42)" style="fill: none; stroke: #000000; stroke-width: 0.941667"/>
    <path d="M 139.11361 160.246949 
L 139.11361 157.977745 
" clip-path="url(#p9e52f29c42)" style="fill: none; stroke: #000000; stroke-width: 0.941667"/>
    <path d="M 147.500263 157.977745 
L 147.500263 157.977745 
" clip-path="url(#p9e52f29c42)" style="fill: none; stroke: #000000; stroke-width: 0.941667"/>
    <path d="M 155.886916 163.650754 
L 155.886916 156.843143 
" clip-path="url(#p9e52f29c42)" style="fill: none; stroke: #000000; stroke-width: 0.941667"/>
    <path d="M 164.273569 161.38155 
L 164.273569 159.112347 
" clip-path="url(#p9e52f29c42)" style="fill: none; stroke: #000000; stroke-width: 0.941667"/>
    <path d="M 172.660222 161.38155 
L 172.660222 159.112347 
" clip-path="url(#p9e52f29c42)" style="fill: none; stroke: #000000; stroke-width: 0.941667"/>
    <path d="M 181.046876 162.516152 
L 181.046876 161.38155 
" clip-path="url(#p9e52f29c42)" style="fill: none; stroke: #000000; stroke-width: 0.941667"/>
    <path d="M 189.433529 172.727569 
L 189.433529 170.458365 
" clip-path="url(#p9e52f29c42)" style="fill: none; stroke: #000000; stroke-width: 0.941667"/>
    <path d="M 197.820182 178.400578 
L 197.820182 172.727569 
" clip-path="url(#p9e52f29c42)" style="fill: none; stroke: #000000; stroke-width: 0.941667"/>
    <path d="M 206.206835 187.477393 
L 206.206835 184.073587 
" clip-path="url(#p9e52f29c42)" style="fill: none; stroke: #000000; stroke-width: 0.941667"/>
    <path d="M 214.593488 186.342791 
L 214.593488 184.073587 
" clip-path="url(#p9e52f29c42)" style="fill: none; stroke: #000000; stroke-width: 0.941667"/>
    <path d="M 222.980142 184.073587 
L 222.980142 179.53518 
" clip-path="url(#p9e52f29c42)" style="fill: none; stroke: #000000; stroke-width: 0.941667"/>
    <path d="M 231.366795 174.996772 
L 231.366795 174.996772 
" clip-path="url(#p9e52f29c42)" style="fill: none; stroke: #000000; stroke-width: 0.941667"/>
    <path d="M 239.753448 177.265976 
L 239.753448 173.862171 
" clip-path="url(#p9e52f29c42)" style="fill: none; stroke: #000000; stroke-width: 0.941667"/>
    <path d="M 248.140101 178.400578 
L 248.140101 172.727569 
" clip-path="url(#p9e52f29c42)" style="fill: none; stroke: #000000; stroke-width: 0.941667"/>
    <path d="M 256.526754 174.996772 
L 256.526754 174.996772 
" clip-path="url(#p9e52f29c42)" style="fill: none; stroke: #000000; stroke-width: 0.941667"/>
    <path d="M 264.913407 170.458365 
L 264.913407 169.323763 
" clip-path="url(#p9e52f29c42)" style="fill: none; stroke: #000000; stroke-width: 0.941667"/>
    <path d="M 273.300061 180.669782 
L 273.300061 180.669782 
" clip-path="url(#p9e52f29c42)" style="fill: none; stroke: #000000; stroke-width: 0.941667"/>
    <path d="M 281.686714 185.208189 
L 281.686714 180.669782 
" clip-path="url(#p9e52f29c42)" style="fill: none; stroke: #000000; stroke-width: 0.941667"/>
    <path d="M 290.073367 188.611994 
L 290.073367 187.477393 
" clip-path="url(#p9e52f29c42)" style="fill: none; stroke: #000000; stroke-width: 0.941667"/>
    <path d="M 298.46002 202.227216 
L 298.46002 193.150402 
" clip-path="url(#p9e52f29c42)" style="fill: none; stroke: #000000; stroke-width: 0.941667"/>
    <path d="M 306.846673 203.361818 
L 306.846673 202.227216 
" clip-path="url(#p9e52f29c42)" style="fill: none; stroke: #000000; stroke-width: 0.941667"/>
    <path d="M 315.233327 202.227216 
L 315.233327 198.823411 
" clip-path="url(#p9e52f29c42)" style="fill: none; stroke: #000000; stroke-width: 0.941667"/>
    <path d="M 323.61998 187.477393 
L 323.61998 186.342791 
" clip-path="url(#p9e52f29c42)" style="fill: none; stroke: #000000; stroke-width: 0.941667"/>
    <path d="M 332.006633 195.419605 
L 332.006633 194.285004 
" clip-path="url(#p9e52f29c42)" style="fill: none; stroke: #000000; stroke-width: 0.941667"/>
    <path d="M 340.393286 198.823411 
L 340.393286 195.419605 
" clip-path="url(#p9e52f29c42)" style="fill: none; stroke: #000000; stroke-width: 0.941667"/>
    <path d="M 348.779939 196.554207 
L 348.779939 196.554207 
" clip-path="url(#p9e52f29c42)" style="fill: none; stroke: #000000; stroke-width: 0.941667"/>
    <path d="M 357.166593 178.400578 
L 357.166593 164.785356 
" clip-path="url(#p9e52f29c42)" style="fill: none; stroke: #000000; stroke-width: 0.941667"/>
    <path d="M 365.553246 163.650754 
L 365.553246 146.631727 
" clip-path="url(#p9e52f29c42)" style="fill: none; stroke: #000000; stroke-width: 0.941667"/>
    <path d="M 373.939899 114.862875 
L 373.939899 100.113051 
" clip-path="url(#p9e52f29c42)" style="fill: none; stroke: #000000; stroke-width: 0.941667"/>
    <path d="M 382.326552 122.805088 
L 382.326552 109.189866 
" clip-path="url(#p9e52f29c42)" style="fill: none; stroke: #000000; stroke-width: 0.941667"/>
    <path d="M 390.713205 140.958717 
L 390.713205 140.958717 
" clip-path="url(#p9e52f29c42)" style="fill: none; stroke: #000000; stroke-width: 0.941667"/>
    <path d="M 399.099858 163.650754 
L 399.099858 155.708541 
" clip-path="url(#p9e52f29c42)" style="fill: none; stroke: #000000; stroke-width: 0.941667"/>
    <path d="M 407.486512 161.38155 
L 407.486512 159.112347 
" clip-path="url(#p9e52f29c42)" style="fill: none; stroke: #000000; stroke-width: 0.941667"/>
    <path d="M 415.873165 155.708541 
L 415.873165 147.766328 
" clip-path="url(#p9e52f29c42)" style="fill: none; stroke: #000000; stroke-width: 0.941667"/>
    <path d="M 424.259818 153.439338 
L 424.259818 153.439338 
" clip-path="url(#p9e52f29c42)" style="fill: none; stroke: #000000; stroke-width: 0.941667"/>
    <path d="M 432.646471 153.439338 
L 432.646471 148.90093 
" clip-path="url(#p9e52f29c42)" style="fill: none; stroke: #000000; stroke-width: 0.941667"/>
    <path d="M 441.033124 148.90093 
L 441.033124 143.227921 
" clip-path="url(#p9e52f29c42)" style="fill: none; stroke: #000000; stroke-width: 0.941667"/>
    <path d="M 449.419778 150.035532 
L 449.419778 147.766328 
" clip-path="url(#p9e52f29c42)" style="fill: none; stroke: #000000; stroke-width: 0.941667"/>
    <path d="M 457.806431 152.304736 
L 457.806431 152.304736 
" clip-path="url(#p9e52f29c42)" style="fill: none; stroke: #000000; stroke-width: 0.941667"/>
    <path d="M 466.193084 114.862875 
L 466.193084 106.920662 
" clip-path="url(#p9e52f29c42)" style="fill: none; stroke: #000000; stroke-width: 0.941667"/>
    <path d="M 474.579737 125.074292 
L 474.579737 125.074292 
" clip-path="url(#p9e52f29c42)" style="fill: none; stroke: #000000; stroke-width: 0.941667"/>
    <path d="M 482.96639 131.881903 
L 482.96639 126.208894 
" clip-path="url(#p9e52f29c42)" style="fill: none; stroke: #000000; stroke-width: 0.941667"/>
    <path d="M 491.353043 134.151106 
L 491.353043 126.208894 
" clip-path="url(#p9e52f29c42)" style="fill: none; stroke: #000000; stroke-width: 0.941667"/>
    <path d="M 130.726957 155.708541 
L 130.726957 156.843143 
" clip-path="url(#p9e52f29c42)" style="fill: none; stroke: #000000; stroke-width: 0.941667"/>
    <path d="M 139.11361 147.766328 
L 139.11361 150.035532 
" clip-path="url(#p9e52f29c42)" style="fill: none; stroke: #000000; stroke-width: 0.941667"/>
    <path d="M 147.500263 145.497125 
L 147.500263 152.304736 
" clip-path="url(#p9e52f29c42)" style="fill: none; stroke: #000000; stroke-width: 0.941667"/>
    <path d="M 155.886916 150.035532 
L 155.886916 155.708541 
" clip-path="url(#p9e52f29c42)" style="fill: none; stroke: #000000; stroke-width: 0.941667"/>
    <path d="M 164.273569 153.439338 
L 164.273569 153.439338 
" clip-path="url(#p9e52f29c42)" style="fill: none; stroke: #000000; stroke-width: 0.941667"/>
    <path d="M 172.660222 153.439338 
L 172.660222 156.843143 
" clip-path="url(#p9e52f29c42)" style="fill: none; stroke: #000000; stroke-width: 0.941667"/>
    <path d="M 181.046876 154.573939 
L 181.046876 155.708541 
" clip-path="url(#p9e52f29c42)" style="fill: none; stroke: #000000; stroke-width: 0.941667"/>
    <path d="M 189.433529 160.246949 
L 189.433529 161.38155 
" clip-path="url(#p9e52f29c42)" style="fill: none; stroke: #000000; stroke-width: 0.941667"/>
    <path d="M 197.820182 168.189161 
L 197.820182 170.458365 
" clip-path="url(#p9e52f29c42)" style="fill: none; stroke: #000000; stroke-width: 0.941667"/>
    <path d="M 206.206835 170.458365 
L 206.206835 170.458365 
" clip-path="url(#p9e52f29c42)" style="fill: none; stroke: #000000; stroke-width: 0.941667"/>
    <path d="M 214.593488 174.996772 
L 214.593488 179.53518 
" clip-path="url(#p9e52f29c42)" style="fill: none; stroke: #000000; stroke-width: 0.941667"/>
    <path d="M 222.980142 169.323763 
L 222.980142 170.458365 
" clip-path="url(#p9e52f29c42)" style="fill: none; stroke: #000000; stroke-width: 0.941667"/>
    <path d="M 231.366795 161.38155 
L 231.366795 165.919958 
" clip-path="url(#p9e52f29c42)" style="fill: none; stroke: #000000; stroke-width: 0.941667"/>
    <path d="M 239.753448 164.785356 
L 239.753448 172.727569 
" clip-path="url(#p9e52f29c42)" style="fill: none; stroke: #000000; stroke-width: 0.941667"/>
    <path d="M 248.140101 168.189161 
L 248.140101 170.458365 
" clip-path="url(#p9e52f29c42)" style="fill: none; stroke: #000000; stroke-width: 0.941667"/>
    <path d="M 256.526754 162.516152 
L 256.526754 168.189161 
" clip-path="url(#p9e52f29c42)" style="fill: none; stroke: #000000; stroke-width: 0.941667"/>
    <path d="M 264.913407 163.650754 
L 264.913407 164.785356 
" clip-path="url(#p9e52f29c42)" style="fill: none; stroke: #000000; stroke-width: 0.941667"/>
    <path d="M 273.300061 167.05456 
L 273.300061 169.323763 
" clip-path="url(#p9e52f29c42)" style="fill: none; stroke: #000000; stroke-width: 0.941667"/>
    <path d="M 281.686714 176.131374 
L 281.686714 177.265976 
" clip-path="url(#p9e52f29c42)" style="fill: none; stroke: #000000; stroke-width: 0.941667"/>
    <path d="M 290.073367 176.131374 
L 290.073367 177.265976 
" clip-path="url(#p9e52f29c42)" style="fill: none; stroke: #000000; stroke-width: 0.941667"/>
    <path d="M 298.46002 185.208189 
L 298.46002 186.342791 
" clip-path="url(#p9e52f29c42)" style="fill: none; stroke: #000000; stroke-width: 0.941667"/>
    <path d="M 306.846673 192.0158 
L 306.846673 195.419605 
" clip-path="url(#p9e52f29c42)" style="fill: none; stroke: #000000; stroke-width: 0.941667"/>
    <path d="M 315.233327 184.073587 
L 315.233327 185.208189 
" clip-path="url(#p9e52f29c42)" style="fill: none; stroke: #000000; stroke-width: 0.941667"/>
    <path d="M 323.61998 174.996772 
L 323.61998 178.400578 
" clip-path="url(#p9e52f29c42)" style="fill: none; stroke: #000000; stroke-width: 0.941667"/>
    <path d="M 332.006633 185.208189 
L 332.006633 185.208189 
" clip-path="url(#p9e52f29c42)" style="fill: none; stroke: #000000; stroke-width: 0.941667"/>
    <path d="M 340.393286 192.0158 
L 340.393286 194.285004 
" clip-path="url(#p9e52f29c42)" style="fill: none; stroke: #000000; stroke-width: 0.941667"/>
    <path d="M 348.779939 172.727569 
L 348.779939 172.727569 
" clip-path="url(#p9e52f29c42)" style="fill: none; stroke: #000000; stroke-width: 0.941667"/>
    <path d="M 357.166593 147.766328 
L 357.166593 147.766328 
" clip-path="url(#p9e52f29c42)" style="fill: none; stroke: #000000; stroke-width: 0.941667"/>
    <path d="M 365.553246 119.401283 
L 365.553246 119.401283 
" clip-path="url(#p9e52f29c42)" style="fill: none; stroke: #000000; stroke-width: 0.941667"/>
    <path d="M 373.939899 88.767033 
L 373.939899 88.767033 
" clip-path="url(#p9e52f29c42)" style="fill: none; stroke: #000000; stroke-width: 0.941667"/>
    <path d="M 382.326552 56.998182 
L 382.326552 88.767033 
" clip-path="url(#p9e52f29c42)" style="fill: none; stroke: #000000; stroke-width: 0.941667"/>
    <path d="M 390.713205 117.132079 
L 390.713205 140.958717 
" clip-path="url(#p9e52f29c42)" style="fill: none; stroke: #000000; stroke-width: 0.941667"/>
    <path d="M 399.099858 146.631727 
L 399.099858 154.573939 
" clip-path="url(#p9e52f29c42)" style="fill: none; stroke: #000000; stroke-width: 0.941667"/>
    <path d="M 407.486512 138.689514 
L 407.486512 152.304736 
" clip-path="url(#p9e52f29c42)" style="fill: none; stroke: #000000; stroke-width: 0.941667"/>
    <path d="M 415.873165 134.151106 
L 415.873165 146.631727 
" clip-path="url(#p9e52f29c42)" style="fill: none; stroke: #000000; stroke-width: 0.941667"/>
    <path d="M 424.259818 139.824116 
L 424.259818 145.497125 
" clip-path="url(#p9e52f29c42)" style="fill: none; stroke: #000000; stroke-width: 0.941667"/>
    <path d="M 432.646471 140.958717 
L 432.646471 142.093319 
" clip-path="url(#p9e52f29c42)" style="fill: none; stroke: #000000; stroke-width: 0.941667"/>
    <path d="M 441.033124 123.93969 
L 441.033124 134.151106 
" clip-path="url(#p9e52f29c42)" style="fill: none; stroke: #000000; stroke-width: 0.941667"/>
    <path d="M 449.419778 135.285708 
L 449.419778 138.689514 
" clip-path="url(#p9e52f29c42)" style="fill: none; stroke: #000000; stroke-width: 0.941667"/>
    <path d="M 457.806431 119.401283 
L 457.806431 119.401283 
" clip-path="url(#p9e52f29c42)" style="fill: none; stroke: #000000; stroke-width: 0.941667"/>
    <path d="M 466.193084 88.767033 
L 466.193084 92.170839 
" clip-path="url(#p9e52f29c42)" style="fill: none; stroke: #000000; stroke-width: 0.941667"/>
    <path d="M 474.579737 108.055264 
L 474.579737 114.862875 
" clip-path="url(#p9e52f29c42)" style="fill: none; stroke: #000000; stroke-width: 0.941667"/>
    <path d="M 482.96639 106.920662 
L 482.96639 110.324468 
" clip-path="url(#p9e52f29c42)" style="fill: none; stroke: #000000; stroke-width: 0.941667"/>
    <path d="M 491.353043 113.728273 
L 491.353043 118.266681 
" clip-path="url(#p9e52f29c42)" style="fill: none; stroke: #000000; stroke-width: 0.941667"/>
   </g>
   <g id="line2d_25">
    <path d="M 164.273569 156.162382 
L 172.660222 156.162382 
L 181.046876 158.431586 
L 189.433529 160.92771 
L 197.820182 164.104595 
L 206.206835 169.096843 
L 214.593488 173.63525 
L 222.980142 175.450613 
L 231.366795 176.358295 
L 239.753448 176.358295 
L 248.140101 174.089091 
L 256.526754 171.819887 
L 264.913407 171.592967 
L 273.300061 172.727569 
L 281.686714 173.63525 
L 290.073367 176.585215 
L 298.46002 181.577463 
L 306.846673 188.158154 
L 315.233327 189.065835 
L 323.61998 190.881198 
L 332.006633 192.24272 
L 340.393286 192.696561 
L 348.779939 186.796631 
L 357.166593 179.308259 
L 365.553246 165.919958 
L 373.939899 144.816364 
L 382.326552 127.570416 
L 390.713205 121.216646 
L 399.099858 122.805088 
L 407.486512 129.385779 
L 415.873165 140.958717 
L 424.259818 148.220169 
L 432.646471 148.447089 
L 441.033124 144.135603 
L 449.419778 143.227921 
L 457.806431 137.781832 
L 466.193084 127.116575 
L 474.579737 123.71277 
L 482.96639 118.947442 
L 491.353043 114.635955 
" clip-path="url(#p9e52f29c42)" style="fill: none; stroke: #0000ff; stroke-linecap: square"/>
   </g>
   <g id="line2d_26">
    <path d="M 206.206835 162.629612 
L 214.593488 164.898816 
L 222.980142 166.941099 
L 231.366795 168.643002 
L 239.753448 170.231445 
L 248.140101 171.592967 
L 256.526754 172.727569 
L 264.913407 173.52179 
L 273.300061 174.542932 
L 281.686714 174.996772 
L 290.073367 175.337153 
L 298.46002 176.698675 
L 306.846673 179.87556 
L 315.233327 180.896702 
L 323.61998 182.258224 
L 332.006633 184.413968 
L 340.393286 187.137012 
L 348.779939 187.477393 
L 357.166593 184.187047 
L 365.553246 178.400578 
L 373.939899 168.529542 
L 382.326552 160.133488 
L 390.713205 154.006638 
L 399.099858 151.056674 
L 407.486512 147.652868 
L 415.873165 142.887541 
L 424.259818 137.895292 
L 432.646471 134.831868 
L 441.033124 133.470345 
L 449.419778 136.30685 
L 457.806431 139.370275 
L 466.193084 137.668372 
L 474.579737 136.07993 
L 482.96639 131.541522 
L 491.353043 128.931938 
" clip-path="url(#p9e52f29c42)" style="fill: none; stroke: #ffa500; stroke-linecap: square"/>
   </g>
   <g id="line2d_27">
    <path d="M 290.073367 168.983383 
L 298.46002 170.798746 
L 306.846673 173.40833 
L 315.233327 174.769852 
L 323.61998 176.244834 
L 332.006633 178.003467 
L 340.393286 179.93229 
L 348.779939 180.499591 
L 357.166593 179.364989 
L 365.553246 176.698675 
L 373.939899 171.933347 
L 382.326552 168.416082 
L 390.713205 166.941099 
L 399.099858 165.976688 
L 407.486512 164.955546 
L 415.873165 163.650754 
L 424.259818 162.516152 
L 432.646471 161.15463 
L 441.033124 158.828696 
L 449.419778 157.353714 
L 457.806431 153.949908 
L 466.193084 148.90093 
L 474.579737 145.043284 
L 482.96639 141.299098 
L 491.353043 138.292403 
" clip-path="url(#p9e52f29c42)" style="fill: none; stroke: #008000; stroke-linecap: square"/>
   </g>
   <g id="patch_3">
    <path d="M 103.68 210.68 
L 103.68 49.68 
" style="fill: none; stroke: #f0f0f0; stroke-width: 0.8; stroke-linejoin: miter; stroke-linecap: square"/>
   </g>
   <g id="patch_4">
    <path d="M 518.4 210.68 
L 518.4 49.68 
" style="fill: none; stroke: #f0f0f0; stroke-width: 0.8; stroke-linejoin: miter; stroke-linecap: square"/>
   </g>
   <g id="patch_5">
    <path d="M 103.68 210.68 
L 518.4 210.68 
" style="fill: none; stroke: #f0f0f0; stroke-width: 0.8; stroke-linejoin: miter; stroke-linecap: square"/>
   </g>
   <g id="patch_6">
    <path d="M 103.68 49.68 
L 518.4 49.68 
" style="fill: none; stroke: #f0f0f0; stroke-width: 0.8; stroke-linejoin: miter; stroke-linecap: square"/>
   </g>
   <g id="legend_1">
    <g id="patch_7">
     <path d="M 110.68 205.68 
L 162.68 205.68 
Q 164.68 205.68 164.68 203.68 
L 164.68 164.93 
Q 164.68 162.93 162.68 162.93 
L 110.68 162.93 
Q 108.68 162.93 108.68 164.93 
L 108.68 203.68 
Q 108.68 205.68 110.68 205.68 
z
" style="fill: #fafafa; opacity: 0.8; stroke: #cccccc; stroke-linejoin: miter"/>
    </g>
    <g id="line2d_28">
     <path d="M 112.68 170.43 
L 122.68 170.43 
L 132.68 170.43 
" style="fill: none; stroke: #0000ff; stroke-width: 2; stroke-linecap: square"/>
    </g>
    <g id="text_9">
     <!-- MA5 -->
     <g transform="translate(140.68 173.93) scale(0.1 -0.1)">
      <defs>
       <path id="SimHei-4d" d="M 2925 125 
L 2425 125 
L 2425 3175 
L 2375 3175 
L 1775 125 
L 1375 125 
L 775 3175 
L 725 3175 
L 725 125 
L 225 125 
L 225 4400 
L 1000 4400 
L 1550 1575 
L 1600 1575 
L 2150 4400 
L 2925 4400 
L 2925 125 
z
" transform="scale(0.015625)"/>
       <path id="SimHei-41" d="M 3075 125 
L 2475 125 
L 2125 1450 
L 1025 1450 
L 675 125 
L 75 125 
L 1325 4450 
L 1825 4450 
L 3075 125 
z
M 2000 1925 
L 1600 3450 
L 1550 3450 
L 1150 1925 
L 2000 1925 
z
" transform="scale(0.015625)"/>
       <path id="SimHei-35" d="M 550 1325 
Q 725 650 1150 575 
Q 1575 500 1837 662 
Q 2100 825 2212 1087 
Q 2325 1350 2312 1675 
Q 2300 2000 2137 2225 
Q 1975 2450 1725 2525 
Q 1475 2600 1162 2525 
Q 850 2450 650 2175 
L 225 2225 
Q 275 2375 700 4375 
L 2675 4375 
L 2675 3925 
L 1075 3925 
Q 950 3250 825 2850 
Q 1200 3025 1525 3012 
Q 1850 3000 2150 2862 
Q 2450 2725 2587 2487 
Q 2725 2250 2787 2012 
Q 2850 1775 2837 1500 
Q 2825 1225 2725 937 
Q 2625 650 2425 462 
Q 2225 275 1937 162 
Q 1650 50 1275 75 
Q 900 100 562 350 
Q 225 600 100 1200 
L 550 1325 
z
" transform="scale(0.015625)"/>
      </defs>
      <use xlink:href="#SimHei-4d"/>
      <use xlink:href="#SimHei-41" x="50"/>
      <use xlink:href="#SimHei-35" x="100"/>
     </g>
    </g>
    <g id="line2d_29">
     <path d="M 112.68 183.68 
L 122.68 183.68 
L 132.68 183.68 
" style="fill: none; stroke: #ffa500; stroke-width: 2; stroke-linecap: square"/>
    </g>
    <g id="text_10">
     <!-- MA10 -->
     <g transform="translate(140.68 187.18) scale(0.1 -0.1)">
      <defs>
       <path id="SimHei-31" d="M 1400 3600 
Q 1075 3275 575 2975 
L 575 3450 
Q 1200 3875 1600 4450 
L 1900 4450 
L 1900 150 
L 1400 150 
L 1400 3600 
z
" transform="scale(0.015625)"/>
      </defs>
      <use xlink:href="#SimHei-4d"/>
      <use xlink:href="#SimHei-41" x="50"/>
      <use xlink:href="#SimHei-31" x="100"/>
      <use xlink:href="#SimHei-30" x="150"/>
     </g>
    </g>
    <g id="line2d_30">
     <path d="M 112.68 196.93 
L 122.68 196.93 
L 132.68 196.93 
" style="fill: none; stroke: #008000; stroke-width: 2; stroke-linecap: square"/>
    </g>
    <g id="text_11">
     <!-- MA20 -->
     <g transform="translate(140.68 200.43) scale(0.1 -0.1)">
      <use xlink:href="#SimHei-4d"/>
      <use xlink:href="#SimHei-41" x="50"/>
      <use xlink:href="#SimHei-32" x="100"/>
      <use xlink:href="#SimHei-30" x="150"/>
     </g>
    </g>
   </g>
  </g>
  <g id="axes_2">
   <g id="patch_8">
    <path d="M 103.68 275.08 
L 518.4 275.08 
L 518.4 210.68 
L 103.68 210.68 
z
" style="fill: #fafafa"/>
   </g>
   <g id="matplotlib.axis_3">
    <g id="xtick_6">
     <g id="line2d_31">
      <path d="M 130.726957 275.08 
L 130.726957 210.68 
" clip-path="url(#pae436abbf3)" style="fill: none; stroke: #d0d0d0; stroke-width: 0.8; stroke-linecap: square"/>
     </g>
     <g id="line2d_32">
      <g>
       <use xlink:href="#m0d39ec75f6" x="130.726957" y="275.08" style="fill: #101010; stroke: #101010; stroke-width: 0.8"/>
      </g>
     </g>
    </g>
    <g id="xtick_7">
     <g id="line2d_33">
      <path d="M 214.593488 275.08 
L 214.593488 210.68 
" clip-path="url(#pae436abbf3)" style="fill: none; stroke: #d0d0d0; stroke-width: 0.8; stroke-linecap: square"/>
     </g>
     <g id="line2d_34">
      <g>
       <use xlink:href="#m0d39ec75f6" x="214.593488" y="275.08" style="fill: #101010; stroke: #101010; stroke-width: 0.8"/>
      </g>
     </g>
    </g>
    <g id="xtick_8">
     <g id="line2d_35">
      <path d="M 298.46002 275.08 
L 298.46002 210.68 
" clip-path="url(#pae436abbf3)" style="fill: none; stroke: #d0d0d0; stroke-width: 0.8; stroke-linecap: square"/>
     </g>
     <g id="line2d_36">
      <g>
       <use xlink:href="#m0d39ec75f6" x="298.46002" y="275.08" style="fill: #101010; stroke: #101010; stroke-width: 0.8"/>
      </g>
     </g>
    </g>
    <g id="xtick_9">
     <g id="line2d_37">
      <path d="M 382.326552 275.08 
L 382.326552 210.68 
" clip-path="url(#pae436abbf3)" style="fill: none; stroke: #d0d0d0; stroke-width: 0.8; stroke-linecap: square"/>
     </g>
     <g id="line2d_38">
      <g>
       <use xlink:href="#m0d39ec75f6" x="382.326552" y="275.08" style="fill: #101010; stroke: #101010; stroke-width: 0.8"/>
      </g>
     </g>
    </g>
    <g id="xtick_10">
     <g id="line2d_39">
      <path d="M 466.193084 275.08 
L 466.193084 210.68 
" clip-path="url(#pae436abbf3)" style="fill: none; stroke: #d0d0d0; stroke-width: 0.8; stroke-linecap: square"/>
     </g>
     <g id="line2d_40">
      <g>
       <use xlink:href="#m0d39ec75f6" x="466.193084" y="275.08" style="fill: #101010; stroke: #101010; stroke-width: 0.8"/>
      </g>
     </g>
    </g>
   </g>
   <g id="matplotlib.axis_4">
    <g id="ytick_8">
     <g id="line2d_41">
      <path d="M 103.68 255.962225 
L 518.4 255.962225 
" clip-path="url(#pae436abbf3)" style="fill: none; stroke: #d0d0d0; stroke-width: 0.8; stroke-linecap: square"/>
     </g>
     <g id="line2d_42">
      <g>
       <use xlink:href="#m2494d026af" x="518.4" y="255.962225" style="fill: #101010; stroke: #101010; stroke-width: 0.8"/>
      </g>
     </g>
     <g id="text_12">
      <!-- 0.5 -->
      <g style="fill: #101010" transform="translate(525.4 259.399725) scale(0.1 -0.1)">
       <use xlink:href="#SimHei-30"/>
       <use xlink:href="#SimHei-2e" x="50"/>
       <use xlink:href="#SimHei-35" x="100"/>
      </g>
     </g>
    </g>
    <g id="ytick_9">
     <g id="line2d_43">
      <path d="M 103.68 236.095924 
L 518.4 236.095924 
" clip-path="url(#pae436abbf3)" style="fill: none; stroke: #d0d0d0; stroke-width: 0.8; stroke-linecap: square"/>
     </g>
     <g id="line2d_44">
      <g>
       <use xlink:href="#m2494d026af" x="518.4" y="236.095924" style="fill: #101010; stroke: #101010; stroke-width: 0.8"/>
      </g>
     </g>
     <g id="text_13">
      <!-- 1.0 -->
      <g style="fill: #101010" transform="translate(525.4 239.533424) scale(0.1 -0.1)">
       <use xlink:href="#SimHei-31"/>
       <use xlink:href="#SimHei-2e" x="50"/>
       <use xlink:href="#SimHei-30" x="100"/>
      </g>
     </g>
    </g>
    <g id="ytick_10">
     <g id="line2d_45">
      <path d="M 103.68 216.229623 
L 518.4 216.229623 
" clip-path="url(#pae436abbf3)" style="fill: none; stroke: #d0d0d0; stroke-width: 0.8; stroke-linecap: square"/>
     </g>
     <g id="line2d_46">
      <g>
       <use xlink:href="#m2494d026af" x="518.4" y="216.229623" style="fill: #101010; stroke: #101010; stroke-width: 0.8"/>
      </g>
     </g>
     <g id="text_14">
      <!-- 1.5 -->
      <g style="fill: #101010" transform="translate(525.4 219.667123) scale(0.1 -0.1)">
       <use xlink:href="#SimHei-31"/>
       <use xlink:href="#SimHei-2e" x="50"/>
       <use xlink:href="#SimHei-35" x="100"/>
      </g>
     </g>
    </g>
    <g id="text_15">
     <!-- volume -->
     <g style="fill: #101010" transform="translate(551.275 257.88) rotate(-90) scale(0.1 -0.1)">
      <defs>
       <path id="SimHei-76" d="M 2875 2925 
L 1825 75 
L 1275 75 
L 225 2925 
L 750 2925 
L 1525 750 
L 1575 750 
L 2350 2925 
L 2875 2925 
z
" transform="scale(0.015625)"/>
       <path id="SimHei-6f" d="M 2925 1525 
Q 2925 875 2525 475 
Q 2125 75 1575 75 
Q 1025 75 625 475 
Q 225 875 225 1525 
Q 225 2175 625 2575 
Q 1025 2975 1575 2975 
Q 2125 2975 2525 2575 
Q 2925 2175 2925 1525 
z
M 2375 1525 
Q 2375 2025 2125 2275 
Q 1875 2525 1575 2525 
Q 1275 2525 1025 2275 
Q 775 2025 775 1525 
Q 775 1025 1025 775 
Q 1275 525 1575 525 
Q 1875 525 2125 775 
Q 2375 1025 2375 1525 
z
" transform="scale(0.015625)"/>
       <path id="SimHei-6c" d="M 1825 125 
L 1325 125 
L 1325 4400 
L 1825 4400 
L 1825 125 
z
" transform="scale(0.015625)"/>
       <path id="SimHei-75" d="M 2800 125 
L 2300 125 
L 2300 650 
Q 2100 375 1862 225 
Q 1625 75 1250 75 
Q 800 75 575 325 
Q 350 575 350 950 
L 350 2925 
L 850 2925 
L 850 1125 
Q 850 825 1000 650 
Q 1150 475 1400 475 
Q 1725 475 2012 812 
Q 2300 1150 2300 1650 
L 2300 2925 
L 2800 2925 
L 2800 125 
z
" transform="scale(0.015625)"/>
       <path id="SimHei-6d" d="M 3050 125 
L 2550 125 
L 2550 2150 
Q 2550 2300 2500 2400 
Q 2450 2500 2300 2500 
Q 2125 2500 1975 2312 
Q 1825 2125 1825 1825 
L 1825 125 
L 1325 125 
L 1325 2150 
Q 1325 2300 1275 2400 
Q 1225 2500 1075 2500 
Q 900 2500 750 2312 
Q 600 2125 600 1825 
L 600 125 
L 100 125 
L 100 2925 
L 600 2925 
L 600 2550 
Q 725 2750 900 2862 
Q 1075 2975 1275 2975 
Q 1475 2975 1612 2862 
Q 1750 2750 1800 2550 
Q 1925 2750 2087 2862 
Q 2250 2975 2450 2975 
Q 2750 2975 2900 2812 
Q 3050 2650 3050 2350 
L 3050 125 
z
" transform="scale(0.015625)"/>
      </defs>
      <use xlink:href="#SimHei-76"/>
      <use xlink:href="#SimHei-6f" x="50"/>
      <use xlink:href="#SimHei-6c" x="100"/>
      <use xlink:href="#SimHei-75" x="150"/>
      <use xlink:href="#SimHei-6d" x="200"/>
      <use xlink:href="#SimHei-65" x="250"/>
     </g>
     <!--  -->
     <g style="fill: #101010" transform="translate(560.775 242.88) rotate(-90) scale(0.1 -0.1)"/>
     <!--   $10^{6}$ -->
     <g style="fill: #101010" transform="translate(571.685 256.68) rotate(-90) scale(0.1 -0.1)">
      <defs>
       <path id="SimHei-20" transform="scale(0.015625)"/>
       <path id="DejaVuSans-31" d="M 794 531 
L 1825 531 
L 1825 4091 
L 703 3866 
L 703 4441 
L 1819 4666 
L 2450 4666 
L 2450 531 
L 3481 531 
L 3481 0 
L 794 0 
L 794 531 
z
" transform="scale(0.015625)"/>
       <path id="DejaVuSans-30" d="M 2034 4250 
Q 1547 4250 1301 3770 
Q 1056 3291 1056 2328 
Q 1056 1369 1301 889 
Q 1547 409 2034 409 
Q 2525 409 2770 889 
Q 3016 1369 3016 2328 
Q 3016 3291 2770 3770 
Q 2525 4250 2034 4250 
z
M 2034 4750 
Q 2819 4750 3233 4129 
Q 3647 3509 3647 2328 
Q 3647 1150 3233 529 
Q 2819 -91 2034 -91 
Q 1250 -91 836 529 
Q 422 1150 422 2328 
Q 422 3509 836 4129 
Q 1250 4750 2034 4750 
z
" transform="scale(0.015625)"/>
       <path id="DejaVuSans-36" d="M 2113 2584 
Q 1688 2584 1439 2293 
Q 1191 2003 1191 1497 
Q 1191 994 1439 701 
Q 1688 409 2113 409 
Q 2538 409 2786 701 
Q 3034 994 3034 1497 
Q 3034 2003 2786 2293 
Q 2538 2584 2113 2584 
z
M 3366 4563 
L 3366 3988 
Q 3128 4100 2886 4159 
Q 2644 4219 2406 4219 
Q 1781 4219 1451 3797 
Q 1122 3375 1075 2522 
Q 1259 2794 1537 2939 
Q 1816 3084 2150 3084 
Q 2853 3084 3261 2657 
Q 3669 2231 3669 1497 
Q 3669 778 3244 343 
Q 2819 -91 2113 -91 
Q 1303 -91 875 529 
Q 447 1150 447 2328 
Q 447 3434 972 4092 
Q 1497 4750 2381 4750 
Q 2619 4750 2861 4703 
Q 3103 4656 3366 4563 
z
" transform="scale(0.015625)"/>
      </defs>
      <use xlink:href="#SimHei-20" transform="translate(0 0.765625)"/>
      <use xlink:href="#SimHei-20" transform="translate(50 0.765625)"/>
      <use xlink:href="#DejaVuSans-31" transform="translate(100 0.765625)"/>
      <use xlink:href="#DejaVuSans-30" transform="translate(163.623047 0.765625)"/>
      <use xlink:href="#DejaVuSans-36" transform="translate(228.203125 39.046875) scale(0.7)"/>
     </g>
    </g>
   </g>
   <g id="patch_9">
    <path d="M 128.691795 275.828526 
L 132.762118 275.828526 
L 132.762118 269.941585 
L 128.691795 269.941585 
z
" clip-path="url(#pae436abbf3)" style="fill: #ff0000; stroke: #e60000; stroke-width: 0.65; stroke-linejoin: miter"/>
   </g>
   <g id="patch_10">
    <path d="M 137.078449 275.828526 
L 141.148771 275.828526 
L 141.148771 271.738174 
L 137.078449 271.738174 
z
" clip-path="url(#pae436abbf3)" style="fill: #ff0000; stroke: #e60000; stroke-width: 0.65; stroke-linejoin: miter"/>
   </g>
   <g id="patch_11">
    <path d="M 145.465102 275.828526 
L 149.535424 275.828526 
L 149.535424 272.137924 
L 145.465102 272.137924 
z
" clip-path="url(#pae436abbf3)" style="fill: #008000; stroke: #007300; stroke-width: 0.65; stroke-linejoin: miter"/>
   </g>
   <g id="patch_12">
    <path d="M 153.851755 275.828526 
L 157.922077 275.828526 
L 157.922077 272.572638 
L 153.851755 272.572638 
z
" clip-path="url(#pae436abbf3)" style="fill: #008000; stroke: #007300; stroke-width: 0.65; stroke-linejoin: miter"/>
   </g>
   <g id="patch_13">
    <path d="M 162.238408 275.828526 
L 166.30873 275.828526 
L 166.30873 271.886536 
L 162.238408 271.886536 
z
" clip-path="url(#pae436abbf3)" style="fill: #008000; stroke: #007300; stroke-width: 0.65; stroke-linejoin: miter"/>
   </g>
   <g id="patch_14">
    <path d="M 170.625061 275.828526 
L 174.695384 275.828526 
L 174.695384 272.640859 
L 170.625061 272.640859 
z
" clip-path="url(#pae436abbf3)" style="fill: #ff0000; stroke: #e60000; stroke-width: 0.65; stroke-linejoin: miter"/>
   </g>
   <g id="patch_15">
    <path d="M 179.011714 275.828526 
L 183.082037 275.828526 
L 183.082037 273.255205 
L 179.011714 273.255205 
z
" clip-path="url(#pae436abbf3)" style="fill: #008000; stroke: #007300; stroke-width: 0.65; stroke-linejoin: miter"/>
   </g>
   <g id="patch_16">
    <path d="M 187.398368 275.828526 
L 191.46869 275.828526 
L 191.46869 271.567602 
L 187.398368 271.567602 
z
" clip-path="url(#pae436abbf3)" style="fill: #008000; stroke: #007300; stroke-width: 0.65; stroke-linejoin: miter"/>
   </g>
   <g id="patch_17">
    <path d="M 195.785021 275.828526 
L 199.855343 275.828526 
L 199.855343 273.333438 
L 195.785021 273.333438 
z
" clip-path="url(#pae436abbf3)" style="fill: #008000; stroke: #007300; stroke-width: 0.65; stroke-linejoin: miter"/>
   </g>
   <g id="patch_18">
    <path d="M 204.171674 275.828526 
L 208.241996 275.828526 
L 208.241996 270.210813 
L 204.171674 270.210813 
z
" clip-path="url(#pae436abbf3)" style="fill: #008000; stroke: #007300; stroke-width: 0.65; stroke-linejoin: miter"/>
   </g>
   <g id="patch_19">
    <path d="M 212.558327 275.828526 
L 216.62865 275.828526 
L 216.62865 271.178501 
L 212.558327 271.178501 
z
" clip-path="url(#pae436abbf3)" style="fill: #ff0000; stroke: #e60000; stroke-width: 0.65; stroke-linejoin: miter"/>
   </g>
   <g id="patch_20">
    <path d="M 220.94498 275.828526 
L 225.015303 275.828526 
L 225.015303 272.08655 
L 220.94498 272.08655 
z
" clip-path="url(#pae436abbf3)" style="fill: #ff0000; stroke: #e60000; stroke-width: 0.65; stroke-linejoin: miter"/>
   </g>
   <g id="patch_21">
    <path d="M 229.331634 275.828526 
L 233.401956 275.828526 
L 233.401956 272.35991 
L 229.331634 272.35991 
z
" clip-path="url(#pae436abbf3)" style="fill: #008000; stroke: #007300; stroke-width: 0.65; stroke-linejoin: miter"/>
   </g>
   <g id="patch_22">
    <path d="M 237.718287 275.828526 
L 241.788609 275.828526 
L 241.788609 272.517648 
L 237.718287 272.517648 
z
" clip-path="url(#pae436abbf3)" style="fill: #ff0000; stroke: #e60000; stroke-width: 0.65; stroke-linejoin: miter"/>
   </g>
   <g id="patch_23">
    <path d="M 246.10494 275.828526 
L 250.175262 275.828526 
L 250.175262 272.712577 
L 246.10494 272.712577 
z
" clip-path="url(#pae436abbf3)" style="fill: #008000; stroke: #007300; stroke-width: 0.65; stroke-linejoin: miter"/>
   </g>
   <g id="patch_24">
    <path d="M 254.491593 275.828526 
L 258.561915 275.828526 
L 258.561915 271.887728 
L 254.491593 271.887728 
z
" clip-path="url(#pae436abbf3)" style="fill: #ff0000; stroke: #e60000; stroke-width: 0.65; stroke-linejoin: miter"/>
   </g>
   <g id="patch_25">
    <path d="M 262.878246 275.828526 
L 266.948569 275.828526 
L 266.948569 272.979023 
L 262.878246 272.979023 
z
" clip-path="url(#pae436abbf3)" style="fill: #008000; stroke: #007300; stroke-width: 0.65; stroke-linejoin: miter"/>
   </g>
   <g id="patch_26">
    <path d="M 271.264899 275.828526 
L 275.335222 275.828526 
L 275.335222 271.776914 
L 271.264899 271.776914 
z
" clip-path="url(#pae436abbf3)" style="fill: #008000; stroke: #007300; stroke-width: 0.65; stroke-linejoin: miter"/>
   </g>
   <g id="patch_27">
    <path d="M 279.651553 275.828526 
L 283.721875 275.828526 
L 283.721875 273.065402 
L 279.651553 273.065402 
z
" clip-path="url(#pae436abbf3)" style="fill: #ff0000; stroke: #e60000; stroke-width: 0.65; stroke-linejoin: miter"/>
   </g>
   <g id="patch_28">
    <path d="M 288.038206 275.828526 
L 292.108528 275.828526 
L 292.108528 271.758835 
L 288.038206 271.758835 
z
" clip-path="url(#pae436abbf3)" style="fill: #008000; stroke: #007300; stroke-width: 0.65; stroke-linejoin: miter"/>
   </g>
   <g id="patch_29">
    <path d="M 296.424859 275.828526 
L 300.495181 275.828526 
L 300.495181 269.607235 
L 296.424859 269.607235 
z
" clip-path="url(#pae436abbf3)" style="fill: #008000; stroke: #007300; stroke-width: 0.65; stroke-linejoin: miter"/>
   </g>
   <g id="patch_30">
    <path d="M 304.811512 275.828526 
L 308.881835 275.828526 
L 308.881835 270.5665 
L 304.811512 270.5665 
z
" clip-path="url(#pae436abbf3)" style="fill: #008000; stroke: #007300; stroke-width: 0.65; stroke-linejoin: miter"/>
   </g>
   <g id="patch_31">
    <path d="M 313.198165 275.828526 
L 317.268488 275.828526 
L 317.268488 267.691886 
L 313.198165 267.691886 
z
" clip-path="url(#pae436abbf3)" style="fill: #ff0000; stroke: #e60000; stroke-width: 0.65; stroke-linejoin: miter"/>
   </g>
   <g id="patch_32">
    <path d="M 321.584819 275.828526 
L 325.655141 275.828526 
L 325.655141 269.036993 
L 321.584819 269.036993 
z
" clip-path="url(#pae436abbf3)" style="fill: #008000; stroke: #007300; stroke-width: 0.65; stroke-linejoin: miter"/>
   </g>
   <g id="patch_33">
    <path d="M 329.971472 275.828526 
L 334.041794 275.828526 
L 334.041794 272.320177 
L 329.971472 272.320177 
z
" clip-path="url(#pae436abbf3)" style="fill: #008000; stroke: #007300; stroke-width: 0.65; stroke-linejoin: miter"/>
   </g>
   <g id="patch_34">
    <path d="M 338.358125 275.828526 
L 342.428447 275.828526 
L 342.428447 273.023087 
L 338.358125 273.023087 
z
" clip-path="url(#pae436abbf3)" style="fill: #008000; stroke: #007300; stroke-width: 0.65; stroke-linejoin: miter"/>
   </g>
   <g id="patch_35">
    <path d="M 346.744778 275.828526 
L 350.815101 275.828526 
L 350.815101 266.366843 
L 346.744778 266.366843 
z
" clip-path="url(#pae436abbf3)" style="fill: #ff0000; stroke: #e60000; stroke-width: 0.65; stroke-linejoin: miter"/>
   </g>
   <g id="patch_36">
    <path d="M 355.131431 275.828526 
L 359.201754 275.828526 
L 359.201754 256.949104 
L 355.131431 256.949104 
z
" clip-path="url(#pae436abbf3)" style="fill: #ff0000; stroke: #e60000; stroke-width: 0.65; stroke-linejoin: miter"/>
   </g>
   <g id="patch_37">
    <path d="M 363.518085 275.828526 
L 367.588407 275.828526 
L 367.588407 244.526388 
L 363.518085 244.526388 
z
" clip-path="url(#pae436abbf3)" style="fill: #ff0000; stroke: #e60000; stroke-width: 0.65; stroke-linejoin: miter"/>
   </g>
   <g id="patch_38">
    <path d="M 371.904738 275.828526 
L 375.97506 275.828526 
L 375.97506 237.092617 
L 371.904738 237.092617 
z
" clip-path="url(#pae436abbf3)" style="fill: #ff0000; stroke: #e60000; stroke-width: 0.65; stroke-linejoin: miter"/>
   </g>
   <g id="patch_39">
    <path d="M 380.291391 275.828526 
L 384.361713 275.828526 
L 384.361713 216.602593 
L 380.291391 216.602593 
z
" clip-path="url(#pae436abbf3)" style="fill: #008000; stroke: #007300; stroke-width: 0.65; stroke-linejoin: miter"/>
   </g>
   <g id="patch_40">
    <path d="M 388.678044 275.828526 
L 392.748366 275.828526 
L 392.748366 239.794275 
L 388.678044 239.794275 
z
" clip-path="url(#pae436abbf3)" style="fill: #008000; stroke: #007300; stroke-width: 0.65; stroke-linejoin: miter"/>
   </g>
   <g id="patch_41">
    <path d="M 397.064697 275.828526 
L 401.13502 275.828526 
L 401.13502 248.447996 
L 397.064697 248.447996 
z
" clip-path="url(#pae436abbf3)" style="fill: #008000; stroke: #007300; stroke-width: 0.65; stroke-linejoin: miter"/>
   </g>
   <g id="patch_42">
    <path d="M 405.45135 275.828526 
L 409.521673 275.828526 
L 409.521673 254.12495 
L 405.45135 254.12495 
z
" clip-path="url(#pae436abbf3)" style="fill: #ff0000; stroke: #e60000; stroke-width: 0.65; stroke-linejoin: miter"/>
   </g>
   <g id="patch_43">
    <path d="M 413.838004 275.828526 
L 417.908326 275.828526 
L 417.908326 256.701967 
L 413.838004 256.701967 
z
" clip-path="url(#pae436abbf3)" style="fill: #ff0000; stroke: #e60000; stroke-width: 0.65; stroke-linejoin: miter"/>
   </g>
   <g id="patch_44">
    <path d="M 422.224657 275.828526 
L 426.294979 275.828526 
L 426.294979 260.887042 
L 422.224657 260.887042 
z
" clip-path="url(#pae436abbf3)" style="fill: #ff0000; stroke: #e60000; stroke-width: 0.65; stroke-linejoin: miter"/>
   </g>
   <g id="patch_45">
    <path d="M 430.61131 275.828526 
L 434.681632 275.828526 
L 434.681632 259.6183 
L 430.61131 259.6183 
z
" clip-path="url(#pae436abbf3)" style="fill: #ff0000; stroke: #e60000; stroke-width: 0.65; stroke-linejoin: miter"/>
   </g>
   <g id="patch_46">
    <path d="M 438.997963 275.828526 
L 443.068286 275.828526 
L 443.068286 255.384672 
L 438.997963 255.384672 
z
" clip-path="url(#pae436abbf3)" style="fill: #ff0000; stroke: #e60000; stroke-width: 0.65; stroke-linejoin: miter"/>
   </g>
   <g id="patch_47">
    <path d="M 447.384616 275.828526 
L 451.454939 275.828526 
L 451.454939 260.906034 
L 447.384616 260.906034 
z
" clip-path="url(#pae436abbf3)" style="fill: #008000; stroke: #007300; stroke-width: 0.65; stroke-linejoin: miter"/>
   </g>
   <g id="patch_48">
    <path d="M 455.77127 275.828526 
L 459.841592 275.828526 
L 459.841592 255.577813 
L 455.77127 255.577813 
z
" clip-path="url(#pae436abbf3)" style="fill: #ff0000; stroke: #e60000; stroke-width: 0.65; stroke-linejoin: miter"/>
   </g>
   <g id="patch_49">
    <path d="M 464.157923 275.828526 
L 468.228245 275.828526 
L 468.228245 228.354663 
L 464.157923 228.354663 
z
" clip-path="url(#pae436abbf3)" style="fill: #ff0000; stroke: #e60000; stroke-width: 0.65; stroke-linejoin: miter"/>
   </g>
   <g id="patch_50">
    <path d="M 472.544576 275.828526 
L 476.614898 275.828526 
L 476.614898 243.965523 
L 472.544576 243.965523 
z
" clip-path="url(#pae436abbf3)" style="fill: #008000; stroke: #007300; stroke-width: 0.65; stroke-linejoin: miter"/>
   </g>
   <g id="patch_51">
    <path d="M 480.931229 275.828526 
L 485.001551 275.828526 
L 485.001551 252.461505 
L 480.931229 252.461505 
z
" clip-path="url(#pae436abbf3)" style="fill: #ff0000; stroke: #e60000; stroke-width: 0.65; stroke-linejoin: miter"/>
   </g>
   <g id="patch_52">
    <path d="M 489.317882 275.828526 
L 493.388205 275.828526 
L 493.388205 259.57964 
L 489.317882 259.57964 
z
" clip-path="url(#pae436abbf3)" style="fill: #008000; stroke: #007300; stroke-width: 0.65; stroke-linejoin: miter"/>
   </g>
   <g id="patch_53">
    <path d="M 103.68 275.08 
L 103.68 210.68 
" style="fill: none; stroke: #f0f0f0; stroke-width: 0.8; stroke-linejoin: miter; stroke-linecap: square"/>
   </g>
   <g id="patch_54">
    <path d="M 518.4 275.08 
L 518.4 210.68 
" style="fill: none; stroke: #f0f0f0; stroke-width: 0.8; stroke-linejoin: miter; stroke-linecap: square"/>
   </g>
   <g id="patch_55">
    <path d="M 103.68 275.08 
L 518.4 275.08 
" style="fill: none; stroke: #f0f0f0; stroke-width: 0.8; stroke-linejoin: miter; stroke-linecap: square"/>
   </g>
   <g id="patch_56">
    <path d="M 103.68 210.68 
L 518.4 210.68 
" style="fill: none; stroke: #f0f0f0; stroke-width: 0.8; stroke-linejoin: miter; stroke-linecap: square"/>
   </g>
  </g>
  <g id="axes_3">
   <g id="patch_57">
    <path d="M 103.68 339.48 
L 518.4 339.48 
L 518.4 275.08 
L 103.68 275.08 
z
" style="fill: #fafafa"/>
   </g>
   <g id="matplotlib.axis_5">
    <g id="xtick_11">
     <g id="line2d_47">
      <path d="M 130.726957 339.48 
L 130.726957 275.08 
" clip-path="url(#p709c0061a5)" style="fill: none; stroke: #d0d0d0; stroke-width: 0.8; stroke-linecap: square"/>
     </g>
     <g id="line2d_48">
      <g>
       <use xlink:href="#m0d39ec75f6" x="130.726957" y="339.48" style="fill: #101010; stroke: #101010; stroke-width: 0.8"/>
      </g>
     </g>
     <g id="text_16">
      <!-- 0611 -->
      <g style="fill: #101010" transform="translate(121.795627 358.297121) rotate(-15) scale(0.1 -0.1)">
       <use xlink:href="#SimHei-30"/>
       <use xlink:href="#SimHei-36" x="50"/>
       <use xlink:href="#SimHei-31" x="100"/>
       <use xlink:href="#SimHei-31" x="150"/>
      </g>
     </g>
    </g>
    <g id="xtick_12">
     <g id="line2d_49">
      <path d="M 214.593488 339.48 
L 214.593488 275.08 
" clip-path="url(#p709c0061a5)" style="fill: none; stroke: #d0d0d0; stroke-width: 0.8; stroke-linecap: square"/>
     </g>
     <g id="line2d_50">
      <g>
       <use xlink:href="#m0d39ec75f6" x="214.593488" y="339.48" style="fill: #101010; stroke: #101010; stroke-width: 0.8"/>
      </g>
     </g>
     <g id="text_17">
      <!-- 0625 -->
      <g style="fill: #101010" transform="translate(205.662159 358.297121) rotate(-15) scale(0.1 -0.1)">
       <use xlink:href="#SimHei-30"/>
       <use xlink:href="#SimHei-36" x="50"/>
       <use xlink:href="#SimHei-32" x="100"/>
       <use xlink:href="#SimHei-35" x="150"/>
      </g>
     </g>
    </g>
    <g id="xtick_13">
     <g id="line2d_51">
      <path d="M 298.46002 339.48 
L 298.46002 275.08 
" clip-path="url(#p709c0061a5)" style="fill: none; stroke: #d0d0d0; stroke-width: 0.8; stroke-linecap: square"/>
     </g>
     <g id="line2d_52">
      <g>
       <use xlink:href="#m0d39ec75f6" x="298.46002" y="339.48" style="fill: #101010; stroke: #101010; stroke-width: 0.8"/>
      </g>
     </g>
     <g id="text_18">
      <!-- 0709 -->
      <g style="fill: #101010" transform="translate(289.528691 358.297121) rotate(-15) scale(0.1 -0.1)">
       <defs>
        <path id="SimHei-37" d="M 850 150 
Q 1300 2050 2425 3925 
L 275 3925 
L 275 4375 
L 2950 4375 
L 2950 3950 
Q 1775 2050 1400 150 
L 850 150 
z
" transform="scale(0.015625)"/>
        <path id="SimHei-39" d="M 800 75 
Q 1350 1000 1700 1750 
Q 1075 1650 662 1912 
Q 250 2175 162 2625 
Q 75 3075 175 3437 
Q 275 3800 487 4037 
Q 700 4275 1000 4375 
Q 1300 4475 1537 4475 
Q 1775 4475 2025 4375 
Q 2275 4275 2475 4075 
Q 2675 3875 2750 3662 
Q 2825 3450 2825 3112 
Q 2825 2775 2575 2250 
Q 2325 1725 1350 75 
L 800 75 
z
M 662 2875 
Q 700 2550 937 2337 
Q 1175 2125 1450 2150 
Q 1725 2175 1887 2300 
Q 2050 2425 2200 2725 
Q 2300 3100 2250 3362 
Q 2200 3625 1987 3800 
Q 1775 3975 1525 3975 
Q 1375 4000 1137 3900 
Q 900 3800 762 3500 
Q 625 3200 662 2875 
z
" transform="scale(0.015625)"/>
       </defs>
       <use xlink:href="#SimHei-30"/>
       <use xlink:href="#SimHei-37" x="50"/>
       <use xlink:href="#SimHei-30" x="100"/>
       <use xlink:href="#SimHei-39" x="150"/>
      </g>
     </g>
    </g>
    <g id="xtick_14">
     <g id="line2d_53">
      <path d="M 382.326552 339.48 
L 382.326552 275.08 
" clip-path="url(#p709c0061a5)" style="fill: none; stroke: #d0d0d0; stroke-width: 0.8; stroke-linecap: square"/>
     </g>
     <g id="line2d_54">
      <g>
       <use xlink:href="#m0d39ec75f6" x="382.326552" y="339.48" style="fill: #101010; stroke: #101010; stroke-width: 0.8"/>
      </g>
     </g>
     <g id="text_19">
      <!-- 0723 -->
      <g style="fill: #101010" transform="translate(373.395222 358.297121) rotate(-15) scale(0.1 -0.1)">
       <use xlink:href="#SimHei-30"/>
       <use xlink:href="#SimHei-37" x="50"/>
       <use xlink:href="#SimHei-32" x="100"/>
       <use xlink:href="#SimHei-33" x="150"/>
      </g>
     </g>
    </g>
    <g id="xtick_15">
     <g id="line2d_55">
      <path d="M 466.193084 339.48 
L 466.193084 275.08 
" clip-path="url(#p709c0061a5)" style="fill: none; stroke: #d0d0d0; stroke-width: 0.8; stroke-linecap: square"/>
     </g>
     <g id="line2d_56">
      <g>
       <use xlink:href="#m0d39ec75f6" x="466.193084" y="339.48" style="fill: #101010; stroke: #101010; stroke-width: 0.8"/>
      </g>
     </g>
     <g id="text_20">
      <!-- 0806 -->
      <g style="fill: #101010" transform="translate(457.261754 358.297121) rotate(-15) scale(0.1 -0.1)">
       <use xlink:href="#SimHei-30"/>
       <use xlink:href="#SimHei-38" x="50"/>
       <use xlink:href="#SimHei-30" x="100"/>
       <use xlink:href="#SimHei-36" x="150"/>
      </g>
     </g>
    </g>
   </g>
   <g id="matplotlib.axis_6">
    <g id="ytick_11">
     <g id="line2d_57">
      <path d="M 103.68 314.093874 
L 518.4 314.093874 
" clip-path="url(#p709c0061a5)" style="fill: none; stroke: #d0d0d0; stroke-width: 0.8; stroke-linecap: square"/>
     </g>
     <g id="line2d_58">
      <g>
       <use xlink:href="#m2494d026af" x="518.4" y="314.093874" style="fill: #101010; stroke: #101010; stroke-width: 0.8"/>
      </g>
     </g>
     <g id="text_21">
      <!-- 20 -->
      <g style="fill: #101010" transform="translate(525.4 317.531374) scale(0.1 -0.1)">
       <use xlink:href="#SimHei-32"/>
       <use xlink:href="#SimHei-30" x="50"/>
      </g>
     </g>
    </g>
    <g id="ytick_12">
     <g id="line2d_59">
      <path d="M 103.68 280.146884 
L 518.4 280.146884 
" clip-path="url(#p709c0061a5)" style="fill: none; stroke: #d0d0d0; stroke-width: 0.8; stroke-linecap: square"/>
     </g>
     <g id="line2d_60">
      <g>
       <use xlink:href="#m2494d026af" x="518.4" y="280.146884" style="fill: #101010; stroke: #101010; stroke-width: 0.8"/>
      </g>
     </g>
     <g id="text_22">
      <!-- 40 -->
      <g style="fill: #101010" transform="translate(525.4 283.584384) scale(0.1 -0.1)">
       <use xlink:href="#SimHei-34"/>
       <use xlink:href="#SimHei-30" x="50"/>
      </g>
     </g>
    </g>
    <g id="text_23">
     <!-- control trend -->
     <g style="fill: #101010" transform="translate(546.275 339.78) rotate(-90) scale(0.1 -0.1)">
      <defs>
       <path id="SimHei-6e" d="M 2800 125 
L 2300 125 
L 2300 1925 
Q 2300 2225 2150 2400 
Q 2000 2575 1750 2575 
Q 1425 2575 1137 2237 
Q 850 1900 850 1400 
L 850 125 
L 350 125 
L 350 2925 
L 850 2925 
L 850 2400 
Q 1050 2675 1287 2825 
Q 1525 2975 1900 2975 
Q 2350 2975 2575 2725 
Q 2800 2475 2800 2100 
L 2800 125 
z
" transform="scale(0.015625)"/>
       <path id="SimHei-74" d="M 2750 200 
Q 2625 150 2462 112 
Q 2300 75 2025 75 
Q 1575 75 1300 325 
Q 1025 575 1025 1025 
L 1025 2525 
L 175 2525 
L 175 2925 
L 1025 2925 
L 1025 3900 
L 1525 3900 
L 1525 2925 
L 2550 2925 
L 2550 2525 
L 1525 2525 
L 1525 1000 
Q 1525 800 1625 662 
Q 1725 525 2000 525 
Q 2275 525 2450 575 
Q 2625 625 2750 700 
L 2750 200 
z
" transform="scale(0.015625)"/>
       <path id="SimHei-64" d="M 2750 125 
L 2250 125 
L 2250 500 
Q 2100 275 1900 175 
Q 1700 75 1425 75 
Q 925 75 575 437 
Q 225 800 225 1525 
Q 225 2250 575 2625 
Q 925 3000 1425 3000 
Q 1700 3000 1900 2887 
Q 2100 2775 2250 2550 
L 2250 4400 
L 2750 4400 
L 2750 125 
z
M 2250 1525 
Q 2250 2000 2037 2275 
Q 1825 2550 1525 2550 
Q 1150 2550 962 2275 
Q 775 2000 775 1525 
Q 775 1050 962 787 
Q 1150 525 1525 525 
Q 1825 525 2037 787 
Q 2250 1050 2250 1525 
z
" transform="scale(0.015625)"/>
      </defs>
      <use xlink:href="#SimHei-63"/>
      <use xlink:href="#SimHei-6f" x="50"/>
      <use xlink:href="#SimHei-6e" x="100"/>
      <use xlink:href="#SimHei-74" x="150"/>
      <use xlink:href="#SimHei-72" x="200"/>
      <use xlink:href="#SimHei-6f" x="250"/>
      <use xlink:href="#SimHei-6c" x="300"/>
      <use xlink:href="#SimHei-20" x="350"/>
      <use xlink:href="#SimHei-74" x="400"/>
      <use xlink:href="#SimHei-72" x="450"/>
      <use xlink:href="#SimHei-65" x="500"/>
      <use xlink:href="#SimHei-6e" x="550"/>
      <use xlink:href="#SimHei-64" x="600"/>
     </g>
    </g>
   </g>
   <g id="line2d_61">
    <path d="M 130.726957 321.120765 
L 139.11361 315.104612 
L 147.500263 331.160519 
L 155.886916 323.332411 
L 164.273569 320.965491 
L 172.660222 327.149818 
L 181.046876 332.575226 
L 189.433529 326.703212 
L 197.820182 332.637553 
L 206.206835 321.303875 
L 214.593488 307.206165 
L 222.980142 308.938005 
L 231.366795 319.241731 
L 239.753448 322.203131 
L 248.140101 332.621734 
L 256.526754 326.035067 
L 264.913407 330.024925 
L 273.300061 326.836895 
L 281.686714 336.552727 
L 290.073367 330.288082 
L 298.46002 313.732338 
L 306.846673 329.296626 
L 315.233327 313.857535 
L 323.61998 329.921454 
L 332.006633 328.275704 
L 340.393286 325.90376 
L 348.779939 284.579478 
L 357.166593 297.329832 
L 365.553246 295.00874 
L 373.939899 293.025964 
L 382.326552 308.535462 
L 390.713205 316.094098 
L 399.099858 321.314806 
L 407.486512 317.560473 
L 415.873165 315.10047 
L 424.259818 316.011471 
L 432.646471 315.462549 
L 441.033124 315.251941 
L 449.419778 314.974595 
L 457.806431 278.007273 
L 466.193084 304.68146 
L 474.579737 309.376668 
L 482.96639 311.664627 
L 491.353043 319.827928 
" clip-path="url(#p709c0061a5)" style="fill: none; stroke: #0000ff; stroke-linecap: square"/>
   </g>
   <g id="patch_58">
    <path d="M 103.68 339.48 
L 103.68 275.08 
" style="fill: none; stroke: #f0f0f0; stroke-width: 0.8; stroke-linejoin: miter; stroke-linecap: square"/>
   </g>
   <g id="patch_59">
    <path d="M 518.4 339.48 
L 518.4 275.08 
" style="fill: none; stroke: #f0f0f0; stroke-width: 0.8; stroke-linejoin: miter; stroke-linecap: square"/>
   </g>
   <g id="patch_60">
    <path d="M 103.68 339.48 
L 518.4 339.48 
" style="fill: none; stroke: #f0f0f0; stroke-width: 0.8; stroke-linejoin: miter; stroke-linecap: square"/>
   </g>
   <g id="patch_61">
    <path d="M 103.68 275.08 
L 518.4 275.08 
" style="fill: none; stroke: #f0f0f0; stroke-width: 0.8; stroke-linejoin: miter; stroke-linecap: square"/>
   </g>
  </g>
  <g id="text_24">
   <!-- -20240809 -->
   <g transform="translate(226.8 13.17375) scale(0.144 -0.144)">
    <defs>
     <path id="SimHei-60e0" d="M 3450 5175 
Q 3425 4825 3425 4600 
L 5175 4600 
Q 5450 4600 5925 4625 
L 5925 4225 
Q 5550 4250 5200 4250 
L 3425 4250 
L 3425 3850 
L 5400 3850 
Q 5375 3475 5362 2962 
Q 5350 2450 5400 2025 
L 4950 2025 
Q 5075 1900 5875 1300 
Q 5700 1175 5475 975 
Q 5250 1150 5050 1325 
Q 4575 1300 3337 1250 
Q 2100 1200 775 1050 
Q 675 1300 625 1575 
Q 1200 1575 1737 1587 
Q 2275 1600 2950 1600 
L 2950 2025 
L 1150 2025 
Q 1175 2700 1175 2975 
Q 1175 3250 1150 3850 
L 2950 3850 
L 2950 4250 
L 1500 4250 
Q 950 4250 475 4200 
L 475 4625 
Q 950 4600 1475 4600 
L 2950 4600 
Q 2950 4850 2925 5175 
L 3450 5175 
z
M 2250 825 
Q 2225 575 2225 375 
Q 2225 175 2250 -12 
Q 2275 -200 2625 -200 
L 3825 -200 
Q 4075 -200 4150 -87 
Q 4225 25 4300 375 
Q 4525 225 4825 150 
Q 4675 -375 4537 -462 
Q 4400 -550 4200 -550 
L 2275 -550 
Q 1825 -550 1787 -325 
Q 1750 -100 1750 200 
Q 1750 525 1725 825 
L 2250 825 
z
M 5225 950 
Q 5950 200 6125 -25 
Q 5875 -175 5675 -325 
Q 5450 50 4850 650 
Q 5000 775 5225 950 
z
M 1275 550 
Q 975 -200 775 -575 
Q 500 -425 300 -350 
Q 500 -75 800 725 
Q 1050 625 1275 550 
z
M 4875 2375 
L 4875 2775 
L 3425 2775 
L 3425 2375 
L 4875 2375 
z
M 4875 3125 
L 4875 3500 
L 3425 3500 
L 3425 3125 
L 4875 3125 
z
M 2950 2375 
L 2950 2775 
L 1650 2775 
L 1650 2375 
L 2950 2375 
z
M 3425 1600 
Q 3900 1625 4725 1650 
L 4550 1775 
L 4800 2025 
L 3425 2025 
L 3425 1600 
z
M 2950 3125 
L 2950 3500 
L 1650 3500 
L 1650 3125 
L 2950 3125 
z
M 3175 1050 
Q 3550 575 3725 350 
L 3275 125 
Q 3150 300 2800 800 
Q 2975 925 3175 1050 
z
" transform="scale(0.015625)"/>
     <path id="SimHei-7a0b" d="M 5825 4975 
Q 5800 4425 5800 3975 
Q 5800 3550 5825 3125 
L 3025 3125 
Q 3050 3600 3050 4025 
Q 3050 4450 3025 4975 
L 5825 4975 
z
M 400 4825 
Q 825 4875 1362 4987 
Q 1900 5100 2275 5275 
Q 2450 4950 2625 4725 
Q 2450 4750 2262 4712 
Q 2075 4675 1850 4650 
L 1850 3425 
Q 2200 3425 2600 3450 
L 2600 2975 
Q 2200 3000 1850 3000 
L 1850 800 
Q 1850 250 1875 -675 
L 1375 -675 
Q 1400 250 1400 775 
L 1400 1925 
Q 1050 1225 625 600 
Q 450 850 225 1050 
Q 575 1400 850 1850 
Q 1125 2300 1350 3000 
Q 725 3000 425 2975 
L 425 3450 
Q 850 3425 1050 3425 
L 1400 3425 
L 1400 4550 
Q 1075 4475 575 4400 
Q 500 4625 400 4825 
z
M 5100 2500 
Q 5500 2500 5950 2525 
L 5950 2075 
Q 5500 2100 5100 2100 
L 4625 2100 
L 4625 1300 
L 4900 1300 
Q 5275 1300 5775 1325 
L 5775 850 
Q 5275 875 4975 875 
L 4625 875 
L 4625 0 
L 5225 0 
Q 5675 0 6175 25 
L 6175 -450 
Q 5775 -425 5225 -425 
L 3550 -425 
Q 3000 -425 2600 -475 
L 2600 25 
Q 3000 0 3550 0 
L 4150 0 
L 4150 875 
L 3800 875 
Q 3400 875 3050 825 
L 3050 1325 
Q 3400 1300 3800 1300 
L 4150 1300 
L 4150 2100 
L 3750 2100 
Q 3300 2100 2900 2075 
L 2900 2525 
Q 3300 2500 3750 2500 
L 5100 2500 
z
M 5275 3575 
L 5275 4550 
L 3500 4550 
L 3500 3575 
L 5275 3575 
z
M 2300 2400 
Q 2550 2025 2825 1525 
Q 2675 1425 2425 1225 
Q 2175 1775 1925 2125 
Q 2075 2250 2300 2400 
z
" transform="scale(0.015625)"/>
     <path id="SimHei-79d1" d="M 2900 2850 
Q 2725 2875 2225 2875 
L 1975 2875 
L 1975 200 
Q 1975 -125 2000 -650 
L 1475 -650 
Q 1500 -125 1500 200 
L 1500 1850 
Q 1325 1450 1150 1125 
Q 975 800 650 325 
Q 475 525 275 725 
Q 725 1250 987 1750 
Q 1250 2250 1450 2875 
L 1275 2875 
Q 825 2875 400 2850 
L 400 3325 
Q 825 3300 1275 3300 
L 1500 3300 
L 1500 4300 
Q 1200 4250 675 4125 
Q 575 4350 425 4550 
Q 650 4575 1200 4687 
Q 1750 4800 2050 4875 
Q 2350 4950 2575 5075 
Q 2700 4825 2875 4600 
Q 2650 4575 2412 4512 
Q 2175 4450 1975 4425 
L 1975 3300 
L 2250 3300 
Q 2725 3300 2900 3325 
L 2900 2850 
z
M 4750 4425 
Q 4750 4925 4725 5125 
L 5275 5125 
Q 5250 4950 5250 4525 
L 5250 1725 
Q 5900 1850 6075 1900 
L 6150 1450 
Q 5775 1400 5250 1275 
L 5250 325 
Q 5250 -175 5275 -650 
L 4725 -650 
Q 4750 -175 4750 325 
L 4750 1175 
Q 4175 1075 3737 987 
Q 3300 900 2825 750 
L 2650 1250 
Q 3400 1375 4750 1625 
L 4750 4425 
z
M 3400 3125 
Q 3650 2900 3875 2700 
Q 4100 2500 4450 2125 
Q 4225 1950 4050 1775 
Q 3600 2350 3100 2800 
Q 3250 2950 3400 3125 
z
M 3650 4625 
Q 3750 4525 3975 4275 
Q 4200 4025 4575 3550 
Q 4325 3400 4150 3250 
Q 3825 3725 3625 3950 
Q 3425 4175 3300 4325 
Q 3500 4450 3650 4625 
z
M 2400 2600 
Q 2525 2450 2725 2250 
Q 2925 2050 3150 1800 
Q 2975 1675 2750 1450 
Q 2500 1850 2075 2275 
Q 2250 2375 2400 2600 
z
" transform="scale(0.015625)"/>
     <path id="SimHei-6280" d="M 2725 2800 
Q 3250 2775 3950 2775 
L 3950 3775 
L 3375 3775 
Q 2925 3775 2625 3750 
L 2625 4200 
Q 3000 4175 3325 4175 
L 3950 4175 
Q 3950 4550 3925 5100 
L 4450 5100 
Q 4425 4650 4425 4175 
L 5300 4175 
Q 5575 4175 5925 4200 
L 5925 3750 
Q 5575 3775 5300 3775 
L 4425 3775 
L 4425 2775 
L 5700 2775 
Q 5575 2275 5300 1675 
Q 5025 1075 4575 550 
Q 4975 250 5400 75 
Q 5825 -100 6175 -175 
Q 6000 -400 5875 -650 
Q 5050 -400 4225 250 
Q 3700 -175 2475 -625 
Q 2375 -475 2100 -150 
Q 2475 -100 2925 75 
Q 3375 250 3875 550 
Q 3300 1375 3050 2375 
L 2725 2375 
L 2725 2800 
z
M 2375 2775 
Q 2400 2600 2450 2325 
Q 2100 2150 1725 1975 
L 1725 100 
Q 1750 -200 1550 -350 
Q 1350 -500 750 -600 
Q 700 -350 550 -50 
Q 1050 -75 1162 37 
Q 1275 150 1275 300 
L 1275 1750 
Q 875 1575 500 1350 
Q 425 1625 250 1825 
Q 500 1875 1275 2225 
L 1275 3450 
Q 750 3450 400 3425 
L 400 3875 
Q 750 3850 1275 3850 
Q 1275 4750 1250 5175 
L 1750 5175 
Q 1725 4800 1725 3850 
Q 2000 3850 2400 3875 
L 2400 3425 
Q 2000 3450 1725 3450 
L 1725 2425 
Q 2075 2575 2375 2775 
z
M 3500 2400 
Q 3825 1325 4225 875 
Q 4450 1075 4687 1500 
Q 4925 1925 5075 2400 
L 3500 2400 
z
" transform="scale(0.015625)"/>
     <path id="SimHei-2d" d="M 2975 2125 
L 125 2125 
L 125 2525 
L 2975 2525 
L 2975 2125 
z
" transform="scale(0.015625)"/>
    </defs>
    <use xlink:href="#SimHei-60e0"/>
    <use xlink:href="#SimHei-7a0b" x="100"/>
    <use xlink:href="#SimHei-79d1" x="200"/>
    <use xlink:href="#SimHei-6280" x="300"/>
    <use xlink:href="#SimHei-2d" x="400"/>
    <use xlink:href="#SimHei-32" x="450"/>
    <use xlink:href="#SimHei-30" x="500"/>
    <use xlink:href="#SimHei-32" x="550"/>
    <use xlink:href="#SimHei-34" x="600"/>
    <use xlink:href="#SimHei-30" x="650"/>
    <use xlink:href="#SimHei-38" x="700"/>
    <use xlink:href="#SimHei-30" x="750"/>
    <use xlink:href="#SimHei-39" x="800"/>
   </g>
  </g>
 </g>
 <defs>
  <clipPath id="p9e52f29c42">
   <rect x="103.68" y="49.68" width="414.72" height="161"/>
  </clipPath>
  <clipPath id="pae436abbf3">
   <rect x="103.68" y="210.68" width="414.72" height="64.4"/>
  </clipPath>
  <clipPath id="p709c0061a5">
   <rect x="103.68" y="275.08" width="414.72" height="64.4"/>
  </clipPath>
 </defs>
</svg>
