<?xml version="1.0" encoding="utf-8" standalone="no"?>
<!DOCTYPE svg PUBLIC "-//W3C//DTD SVG 1.1//EN"
  "http://www.w3.org/Graphics/SVG/1.1/DTD/svg11.dtd">
<svg xmlns:xlink="http://www.w3.org/1999/xlink" width="576pt" height="414pt" viewBox="0 0 576 414" xmlns="http://www.w3.org/2000/svg" version="1.1">
 <metadata>
  <rdf:RDF xmlns:dc="http://purl.org/dc/elements/1.1/" xmlns:cc="http://creativecommons.org/ns#" xmlns:rdf="http://www.w3.org/1999/02/22-rdf-syntax-ns#">
   <cc:Work>
    <dc:type rdf:resource="http://purl.org/dc/dcmitype/StillImage"/>
    <dc:date>2024-08-09T18:06:56.167234</dc:date>
    <dc:format>image/svg+xml</dc:format>
    <dc:creator>
     <cc:Agent>
      <dc:title>Matplotlib v3.8.4, https://matplotlib.org/</dc:title>
     </cc:Agent>
    </dc:creator>
   </cc:Work>
  </rdf:RDF>
 </metadata>
 <defs>
  <style type="text/css">*{stroke-linejoin: round; stroke-linecap: butt}</style>
 </defs>
 <g id="figure_1">
  <g id="patch_1">
   <path d="M 0 414 
L 576 414 
L 576 0 
L 0 0 
z
" style="fill: #ffffff"/>
  </g>
  <g id="axes_1">
   <g id="patch_2">
    <path d="M 103.68 210.68 
L 518.4 210.68 
L 518.4 49.68 
L 103.68 49.68 
z
" style="fill: #fafafa"/>
   </g>
   <g id="matplotlib.axis_1">
    <g id="xtick_1">
     <g id="line2d_1">
      <path d="M 130.726957 210.68 
L 130.726957 49.68 
" clip-path="url(#p010ee8d2dd)" style="fill: none; stroke: #d0d0d0; stroke-width: 0.8; stroke-linecap: square"/>
     </g>
     <g id="line2d_2">
      <defs>
       <path id="m26adc7e723" d="M 0 0 
L 0 3.5 
" style="stroke: #101010; stroke-width: 0.8"/>
      </defs>
      <g>
       <use xlink:href="#m26adc7e723" x="130.726957" y="210.68" style="fill: #101010; stroke: #101010; stroke-width: 0.8"/>
      </g>
     </g>
    </g>
    <g id="xtick_2">
     <g id="line2d_3">
      <path d="M 214.593488 210.68 
L 214.593488 49.68 
" clip-path="url(#p010ee8d2dd)" style="fill: none; stroke: #d0d0d0; stroke-width: 0.8; stroke-linecap: square"/>
     </g>
     <g id="line2d_4">
      <g>
       <use xlink:href="#m26adc7e723" x="214.593488" y="210.68" style="fill: #101010; stroke: #101010; stroke-width: 0.8"/>
      </g>
     </g>
    </g>
    <g id="xtick_3">
     <g id="line2d_5">
      <path d="M 298.46002 210.68 
L 298.46002 49.68 
" clip-path="url(#p010ee8d2dd)" style="fill: none; stroke: #d0d0d0; stroke-width: 0.8; stroke-linecap: square"/>
     </g>
     <g id="line2d_6">
      <g>
       <use xlink:href="#m26adc7e723" x="298.46002" y="210.68" style="fill: #101010; stroke: #101010; stroke-width: 0.8"/>
      </g>
     </g>
    </g>
    <g id="xtick_4">
     <g id="line2d_7">
      <path d="M 382.326552 210.68 
L 382.326552 49.68 
" clip-path="url(#p010ee8d2dd)" style="fill: none; stroke: #d0d0d0; stroke-width: 0.8; stroke-linecap: square"/>
     </g>
     <g id="line2d_8">
      <g>
       <use xlink:href="#m26adc7e723" x="382.326552" y="210.68" style="fill: #101010; stroke: #101010; stroke-width: 0.8"/>
      </g>
     </g>
    </g>
    <g id="xtick_5">
     <g id="line2d_9">
      <path d="M 466.193084 210.68 
L 466.193084 49.68 
" clip-path="url(#p010ee8d2dd)" style="fill: none; stroke: #d0d0d0; stroke-width: 0.8; stroke-linecap: square"/>
     </g>
     <g id="line2d_10">
      <g>
       <use xlink:href="#m26adc7e723" x="466.193084" y="210.68" style="fill: #101010; stroke: #101010; stroke-width: 0.8"/>
      </g>
     </g>
    </g>
   </g>
   <g id="matplotlib.axis_2">
    <g id="ytick_1">
     <g id="line2d_11">
      <path d="M 103.68 199.900516 
L 518.4 199.900516 
" clip-path="url(#p010ee8d2dd)" style="fill: none; stroke: #d0d0d0; stroke-width: 0.8; stroke-linecap: square"/>
     </g>
     <g id="line2d_12">
      <defs>
       <path id="m1b4c6b46e2" d="M 0 0 
L 3.5 0 
" style="stroke: #101010; stroke-width: 0.8"/>
      </defs>
      <g>
       <use xlink:href="#m1b4c6b46e2" x="518.4" y="199.900516" style="fill: #101010; stroke: #101010; stroke-width: 0.8"/>
      </g>
     </g>
     <g id="text_1">
      <!-- 3.5 -->
      <g style="fill: #101010" transform="translate(525.4 203.338016) scale(0.1 -0.1)">
       <defs>
        <path id="SimHei-33" d="M 250 1225 
L 700 1300 
Q 800 975 1025 762 
Q 1250 550 1587 562 
Q 1925 575 2125 837 
Q 2325 1100 2300 1437 
Q 2275 1775 2037 1962 
Q 1800 2150 1275 2225 
L 1275 2550 
Q 1800 2600 2037 2825 
Q 2275 3050 2250 3412 
Q 2225 3775 1925 3937 
Q 1625 4100 1287 3975 
Q 950 3850 750 3275 
L 300 3350 
Q 450 3800 712 4100 
Q 975 4400 1425 4450 
Q 1875 4500 2212 4337 
Q 2550 4175 2687 3837 
Q 2825 3500 2725 3100 
Q 2625 2700 2150 2400 
Q 2500 2250 2687 1950 
Q 2875 1650 2812 1162 
Q 2750 675 2375 375 
Q 2000 75 1525 87 
Q 1050 100 700 387 
Q 350 675 250 1225 
z
" transform="scale(0.015625)"/>
        <path id="SimHei-2e" d="M 1075 125 
L 500 125 
L 500 675 
L 1075 675 
L 1075 125 
z
" transform="scale(0.015625)"/>
        <path id="SimHei-35" d="M 550 1325 
Q 725 650 1150 575 
Q 1575 500 1837 662 
Q 2100 825 2212 1087 
Q 2325 1350 2312 1675 
Q 2300 2000 2137 2225 
Q 1975 2450 1725 2525 
Q 1475 2600 1162 2525 
Q 850 2450 650 2175 
L 225 2225 
Q 275 2375 700 4375 
L 2675 4375 
L 2675 3925 
L 1075 3925 
Q 950 3250 825 2850 
Q 1200 3025 1525 3012 
Q 1850 3000 2150 2862 
Q 2450 2725 2587 2487 
Q 2725 2250 2787 2012 
Q 2850 1775 2837 1500 
Q 2825 1225 2725 937 
Q 2625 650 2425 462 
Q 2225 275 1937 162 
Q 1650 50 1275 75 
Q 900 100 562 350 
Q 225 600 100 1200 
L 550 1325 
z
" transform="scale(0.015625)"/>
       </defs>
       <use xlink:href="#SimHei-33"/>
       <use xlink:href="#SimHei-2e" x="50"/>
       <use xlink:href="#SimHei-35" x="100"/>
      </g>
     </g>
    </g>
    <g id="ytick_2">
     <g id="line2d_13">
      <path d="M 103.68 175.176929 
L 518.4 175.176929 
" clip-path="url(#p010ee8d2dd)" style="fill: none; stroke: #d0d0d0; stroke-width: 0.8; stroke-linecap: square"/>
     </g>
     <g id="line2d_14">
      <g>
       <use xlink:href="#m1b4c6b46e2" x="518.4" y="175.176929" style="fill: #101010; stroke: #101010; stroke-width: 0.8"/>
      </g>
     </g>
     <g id="text_2">
      <!-- 4.0 -->
      <g style="fill: #101010" transform="translate(525.4 178.614429) scale(0.1 -0.1)">
       <defs>
        <path id="SimHei-34" d="M 2000 1100 
L 75 1100 
L 75 1525 
L 2100 4450 
L 2475 4450 
L 2475 1525 
L 3075 1525 
L 3075 1100 
L 2475 1100 
L 2475 150 
L 2000 150 
L 2000 1100 
z
M 2000 1525 
L 2000 3500 
L 600 1525 
L 2000 1525 
z
" transform="scale(0.015625)"/>
        <path id="SimHei-30" d="M 225 2537 
Q 250 3200 412 3587 
Q 575 3975 875 4225 
Q 1175 4475 1612 4475 
Q 2050 4475 2375 4112 
Q 2700 3750 2800 3200 
Q 2900 2650 2862 1937 
Q 2825 1225 2612 775 
Q 2400 325 1975 150 
Q 1550 -25 1125 187 
Q 700 400 525 750 
Q 350 1100 275 1487 
Q 200 1875 225 2537 
z
M 750 2687 
Q 675 2000 800 1462 
Q 925 925 1212 700 
Q 1500 475 1800 612 
Q 2100 750 2237 1162 
Q 2375 1575 2375 2062 
Q 2375 2550 2337 2950 
Q 2300 3350 2112 3675 
Q 1925 4000 1612 4012 
Q 1300 4025 1062 3700 
Q 825 3375 750 2687 
z
" transform="scale(0.015625)"/>
       </defs>
       <use xlink:href="#SimHei-34"/>
       <use xlink:href="#SimHei-2e" x="50"/>
       <use xlink:href="#SimHei-30" x="100"/>
      </g>
     </g>
    </g>
    <g id="ytick_3">
     <g id="line2d_15">
      <path d="M 103.68 150.453342 
L 518.4 150.453342 
" clip-path="url(#p010ee8d2dd)" style="fill: none; stroke: #d0d0d0; stroke-width: 0.8; stroke-linecap: square"/>
     </g>
     <g id="line2d_16">
      <g>
       <use xlink:href="#m1b4c6b46e2" x="518.4" y="150.453342" style="fill: #101010; stroke: #101010; stroke-width: 0.8"/>
      </g>
     </g>
     <g id="text_3">
      <!-- 4.5 -->
      <g style="fill: #101010" transform="translate(525.4 153.890842) scale(0.1 -0.1)">
       <use xlink:href="#SimHei-34"/>
       <use xlink:href="#SimHei-2e" x="50"/>
       <use xlink:href="#SimHei-35" x="100"/>
      </g>
     </g>
    </g>
    <g id="ytick_4">
     <g id="line2d_17">
      <path d="M 103.68 125.729754 
L 518.4 125.729754 
" clip-path="url(#p010ee8d2dd)" style="fill: none; stroke: #d0d0d0; stroke-width: 0.8; stroke-linecap: square"/>
     </g>
     <g id="line2d_18">
      <g>
       <use xlink:href="#m1b4c6b46e2" x="518.4" y="125.729754" style="fill: #101010; stroke: #101010; stroke-width: 0.8"/>
      </g>
     </g>
     <g id="text_4">
      <!-- 5.0 -->
      <g style="fill: #101010" transform="translate(525.4 129.167254) scale(0.1 -0.1)">
       <use xlink:href="#SimHei-35"/>
       <use xlink:href="#SimHei-2e" x="50"/>
       <use xlink:href="#SimHei-30" x="100"/>
      </g>
     </g>
    </g>
    <g id="ytick_5">
     <g id="line2d_19">
      <path d="M 103.68 101.006167 
L 518.4 101.006167 
" clip-path="url(#p010ee8d2dd)" style="fill: none; stroke: #d0d0d0; stroke-width: 0.8; stroke-linecap: square"/>
     </g>
     <g id="line2d_20">
      <g>
       <use xlink:href="#m1b4c6b46e2" x="518.4" y="101.006167" style="fill: #101010; stroke: #101010; stroke-width: 0.8"/>
      </g>
     </g>
     <g id="text_5">
      <!-- 5.5 -->
      <g style="fill: #101010" transform="translate(525.4 104.443667) scale(0.1 -0.1)">
       <use xlink:href="#SimHei-35"/>
       <use xlink:href="#SimHei-2e" x="50"/>
       <use xlink:href="#SimHei-35" x="100"/>
      </g>
     </g>
    </g>
    <g id="ytick_6">
     <g id="line2d_21">
      <path d="M 103.68 76.28258 
L 518.4 76.28258 
" clip-path="url(#p010ee8d2dd)" style="fill: none; stroke: #d0d0d0; stroke-width: 0.8; stroke-linecap: square"/>
     </g>
     <g id="line2d_22">
      <g>
       <use xlink:href="#m1b4c6b46e2" x="518.4" y="76.28258" style="fill: #101010; stroke: #101010; stroke-width: 0.8"/>
      </g>
     </g>
     <g id="text_6">
      <!-- 6.0 -->
      <g style="fill: #101010" transform="translate(525.4 79.72008) scale(0.1 -0.1)">
       <defs>
        <path id="SimHei-36" d="M 250 1612 
Q 275 1975 387 2225 
Q 500 2475 725 2850 
L 1750 4450 
L 2325 4450 
L 1275 2800 
Q 1950 2975 2350 2750 
Q 2750 2525 2887 2237 
Q 3025 1950 3037 1612 
Q 3050 1275 2937 950 
Q 2825 625 2537 362 
Q 2250 100 1737 75 
Q 1225 50 862 262 
Q 500 475 362 862 
Q 225 1250 250 1612 
z
M 1025 787 
Q 1250 550 1625 525 
Q 2000 500 2250 775 
Q 2500 1050 2500 1575 
Q 2500 2100 2187 2300 
Q 1875 2500 1487 2450 
Q 1100 2400 925 2075 
Q 750 1750 775 1387 
Q 800 1025 1025 787 
z
" transform="scale(0.015625)"/>
       </defs>
       <use xlink:href="#SimHei-36"/>
       <use xlink:href="#SimHei-2e" x="50"/>
       <use xlink:href="#SimHei-30" x="100"/>
      </g>
     </g>
    </g>
    <g id="ytick_7">
     <g id="line2d_23">
      <path d="M 103.68 51.558993 
L 518.4 51.558993 
" clip-path="url(#p010ee8d2dd)" style="fill: none; stroke: #d0d0d0; stroke-width: 0.8; stroke-linecap: square"/>
     </g>
     <g id="line2d_24">
      <g>
       <use xlink:href="#m1b4c6b46e2" x="518.4" y="51.558993" style="fill: #101010; stroke: #101010; stroke-width: 0.8"/>
      </g>
     </g>
     <g id="text_7">
      <!-- 6.5 -->
      <g style="fill: #101010" transform="translate(525.4 54.996493) scale(0.1 -0.1)">
       <use xlink:href="#SimHei-36"/>
       <use xlink:href="#SimHei-2e" x="50"/>
       <use xlink:href="#SimHei-35" x="100"/>
      </g>
     </g>
    </g>
    <g id="text_8">
     <!-- price -->
     <g style="fill: #101010" transform="translate(551.275 142.68) rotate(-90) scale(0.1 -0.1)">
      <defs>
       <path id="SimHei-70" d="M 2825 1525 
Q 2825 800 2475 425 
Q 2125 50 1625 50 
Q 1350 50 1150 162 
Q 950 275 800 500 
L 800 -800 
L 300 -800 
L 300 2925 
L 800 2925 
L 800 2550 
Q 950 2775 1150 2875 
Q 1350 2975 1625 2975 
Q 2125 2975 2475 2612 
Q 2825 2250 2825 1525 
z
M 2275 1525 
Q 2275 2000 2087 2262 
Q 1900 2525 1525 2525 
Q 1225 2525 1012 2262 
Q 800 2000 800 1525 
Q 800 1050 1012 775 
Q 1225 500 1525 500 
Q 1900 500 2087 775 
Q 2275 1050 2275 1525 
z
" transform="scale(0.015625)"/>
       <path id="SimHei-72" d="M 2500 2425 
Q 2025 2500 1700 2287 
Q 1375 2075 1150 1550 
L 1150 125 
L 650 125 
L 650 2925 
L 1150 2925 
L 1150 2200 
Q 1375 2600 1712 2787 
Q 2050 2975 2500 2975 
L 2500 2425 
z
" transform="scale(0.015625)"/>
       <path id="SimHei-69" d="M 1800 3725 
L 1300 3725 
L 1300 4375 
L 1800 4375 
L 1800 3725 
z
M 1800 125 
L 1300 125 
L 1300 2925 
L 1800 2925 
L 1800 125 
z
" transform="scale(0.015625)"/>
       <path id="SimHei-63" d="M 2850 1250 
Q 2850 725 2487 400 
Q 2125 75 1575 75 
Q 1025 75 625 462 
Q 225 850 225 1525 
Q 225 2200 625 2587 
Q 1025 2975 1575 2975 
Q 2125 2975 2450 2687 
Q 2775 2400 2775 2000 
L 2225 2000 
Q 2200 2300 2012 2412 
Q 1825 2525 1575 2525 
Q 1275 2525 1025 2287 
Q 775 2050 775 1525 
Q 775 1000 1025 762 
Q 1275 525 1575 525 
Q 1900 525 2100 700 
Q 2300 875 2300 1250 
L 2850 1250 
z
" transform="scale(0.015625)"/>
       <path id="SimHei-65" d="M 2850 1075 
Q 2800 625 2450 350 
Q 2100 75 1625 75 
Q 1025 75 637 462 
Q 250 850 250 1525 
Q 250 2200 637 2587 
Q 1025 2975 1625 2975 
Q 2150 2975 2487 2637 
Q 2825 2300 2825 1525 
L 800 1525 
Q 800 975 1037 750 
Q 1275 525 1625 525 
Q 1900 525 2075 662 
Q 2250 800 2300 1075 
L 2850 1075 
z
M 2250 1925 
Q 2200 2275 2025 2412 
Q 1850 2550 1575 2550 
Q 1325 2550 1125 2412 
Q 925 2275 825 1925 
L 2250 1925 
z
" transform="scale(0.015625)"/>
      </defs>
      <use xlink:href="#SimHei-70"/>
      <use xlink:href="#SimHei-72" x="50"/>
      <use xlink:href="#SimHei-69" x="100"/>
      <use xlink:href="#SimHei-63" x="150"/>
      <use xlink:href="#SimHei-65" x="200"/>
     </g>
    </g>
   </g>
   <g id="PolyCollection_1">
    <path d="M 127.761226 184.571892 
L 127.761226 188.033194 
L 133.692687 188.033194 
L 133.692687 184.571892 
z
" clip-path="url(#p010ee8d2dd)" style="fill: #008000; fill-opacity: 0.9; stroke: #000000; stroke-width: 0.941667"/>
    <path d="M 136.147879 189.516609 
L 136.147879 181.605061 
L 142.07934 181.605061 
L 142.07934 189.516609 
z
" clip-path="url(#p010ee8d2dd)" style="fill: #ff0000; fill-opacity: 0.9; stroke: #000000; stroke-width: 0.941667"/>
    <path d="M 144.534533 180.616118 
L 144.534533 185.560835 
L 150.465993 185.560835 
L 150.465993 180.616118 
z
" clip-path="url(#p010ee8d2dd)" style="fill: #008000; fill-opacity: 0.9; stroke: #000000; stroke-width: 0.941667"/>
    <path d="M 152.921186 185.066364 
L 152.921186 187.044251 
L 158.852646 187.044251 
L 158.852646 185.066364 
z
" clip-path="url(#p010ee8d2dd)" style="fill: #008000; fill-opacity: 0.9; stroke: #000000; stroke-width: 0.941667"/>
    <path d="M 161.307839 187.044251 
L 161.307839 188.033194 
L 167.239299 188.033194 
L 167.239299 187.044251 
z
" clip-path="url(#p010ee8d2dd)" style="fill: #008000; fill-opacity: 0.9; stroke: #000000; stroke-width: 0.941667"/>
    <path d="M 169.694492 187.044251 
L 169.694492 184.07742 
L 175.625953 184.07742 
L 175.625953 187.044251 
z
" clip-path="url(#p010ee8d2dd)" style="fill: #ff0000; fill-opacity: 0.9; stroke: #000000; stroke-width: 0.941667"/>
    <path d="M 178.081145 184.07742 
L 178.081145 183.088477 
L 184.012606 183.088477 
L 184.012606 184.07742 
z
" clip-path="url(#p010ee8d2dd)" style="fill: #ff0000; fill-opacity: 0.9; stroke: #000000; stroke-width: 0.941667"/>
    <path d="M 186.467799 184.07742 
L 186.467799 190.011081 
L 192.399259 190.011081 
L 192.399259 184.07742 
z
" clip-path="url(#p010ee8d2dd)" style="fill: #008000; fill-opacity: 0.9; stroke: #000000; stroke-width: 0.941667"/>
    <path d="M 194.854452 190.011081 
L 194.854452 191.494496 
L 200.785912 191.494496 
L 200.785912 190.011081 
z
" clip-path="url(#p010ee8d2dd)" style="fill: #008000; fill-opacity: 0.9; stroke: #000000; stroke-width: 0.941667"/>
    <path d="M 203.241105 192.48344 
L 203.241105 200.394988 
L 209.172565 200.394988 
L 209.172565 192.48344 
z
" clip-path="url(#p010ee8d2dd)" style="fill: #008000; fill-opacity: 0.9; stroke: #000000; stroke-width: 0.941667"/>
    <path d="M 211.627758 200.394988 
L 211.627758 196.933686 
L 217.559219 196.933686 
L 217.559219 200.394988 
z
" clip-path="url(#p010ee8d2dd)" style="fill: #ff0000; fill-opacity: 0.9; stroke: #000000; stroke-width: 0.941667"/>
    <path d="M 220.014411 196.933686 
L 220.014411 190.505553 
L 225.945872 190.505553 
L 225.945872 196.933686 
z
" clip-path="url(#p010ee8d2dd)" style="fill: #ff0000; fill-opacity: 0.9; stroke: #000000; stroke-width: 0.941667"/>
    <path d="M 228.401065 190.505553 
L 228.401065 192.48344 
L 234.332525 192.48344 
L 234.332525 190.505553 
z
" clip-path="url(#p010ee8d2dd)" style="fill: #008000; fill-opacity: 0.9; stroke: #000000; stroke-width: 0.941667"/>
    <path d="M 236.787718 191.988968 
L 236.787718 192.977912 
L 242.719178 192.977912 
L 242.719178 191.988968 
z
" clip-path="url(#p010ee8d2dd)" style="fill: #008000; fill-opacity: 0.9; stroke: #000000; stroke-width: 0.941667"/>
    <path d="M 245.174371 192.977912 
L 245.174371 191.000025 
L 251.105831 191.000025 
L 251.105831 192.977912 
z
" clip-path="url(#p010ee8d2dd)" style="fill: #ff0000; fill-opacity: 0.9; stroke: #000000; stroke-width: 0.941667"/>
    <path d="M 253.561024 191.494496 
L 253.561024 187.044251 
L 259.492485 187.044251 
L 259.492485 191.494496 
z
" clip-path="url(#p010ee8d2dd)" style="fill: #ff0000; fill-opacity: 0.9; stroke: #000000; stroke-width: 0.941667"/>
    <path d="M 261.947677 187.044251 
L 261.947677 188.033194 
L 267.879138 188.033194 
L 267.879138 187.044251 
z
" clip-path="url(#p010ee8d2dd)" style="fill: #008000; fill-opacity: 0.9; stroke: #000000; stroke-width: 0.941667"/>
    <path d="M 270.33433 187.538722 
L 270.33433 194.955799 
L 276.265791 194.955799 
L 276.265791 187.538722 
z
" clip-path="url(#p010ee8d2dd)" style="fill: #008000; fill-opacity: 0.9; stroke: #000000; stroke-width: 0.941667"/>
    <path d="M 278.720984 196.439214 
L 278.720984 191.988968 
L 284.652444 191.988968 
L 284.652444 196.439214 
z
" clip-path="url(#p010ee8d2dd)" style="fill: #ff0000; fill-opacity: 0.9; stroke: #000000; stroke-width: 0.941667"/>
    <path d="M 287.107637 193.966855 
L 287.107637 199.900516 
L 293.039097 199.900516 
L 293.039097 193.966855 
z
" clip-path="url(#p010ee8d2dd)" style="fill: #008000; fill-opacity: 0.9; stroke: #000000; stroke-width: 0.941667"/>
    <path d="M 295.49429 191.494496 
L 295.49429 195.45027 
L 301.42575 195.45027 
L 301.42575 191.494496 
z
" clip-path="url(#p010ee8d2dd)" style="fill: #008000; fill-opacity: 0.9; stroke: #000000; stroke-width: 0.941667"/>
    <path d="M 303.880943 193.966855 
L 303.880943 190.505553 
L 309.812404 190.505553 
L 309.812404 193.966855 
z
" clip-path="url(#p010ee8d2dd)" style="fill: #ff0000; fill-opacity: 0.9; stroke: #000000; stroke-width: 0.941667"/>
    <path d="M 312.267596 184.571892 
L 312.267596 176.660344 
L 318.199057 176.660344 
L 318.199057 184.571892 
z
" clip-path="url(#p010ee8d2dd)" style="fill: #ff0000; fill-opacity: 0.9; stroke: #000000; stroke-width: 0.941667"/>
    <path d="M 320.65425 181.605061 
L 320.65425 180.616118 
L 326.58571 180.616118 
L 326.58571 181.605061 
z
" clip-path="url(#p010ee8d2dd)" style="fill: #ff0000; fill-opacity: 0.9; stroke: #000000; stroke-width: 0.941667"/>
    <path d="M 329.040903 179.132703 
L 329.040903 176.165872 
L 334.972363 176.165872 
L 334.972363 179.132703 
z
" clip-path="url(#p010ee8d2dd)" style="fill: #ff0000; fill-opacity: 0.9; stroke: #000000; stroke-width: 0.941667"/>
    <path d="M 337.427556 179.132703 
L 337.427556 156.387002 
L 343.359016 156.387002 
L 343.359016 179.132703 
z
" clip-path="url(#p010ee8d2dd)" style="fill: #ff0000; fill-opacity: 0.9; stroke: #000000; stroke-width: 0.941667"/>
    <path d="M 345.814209 155.892531 
L 345.814209 161.33172 
L 351.74567 161.33172 
L 351.74567 155.892531 
z
" clip-path="url(#p010ee8d2dd)" style="fill: #008000; fill-opacity: 0.9; stroke: #000000; stroke-width: 0.941667"/>
    <path d="M 354.200862 171.221155 
L 354.200862 140.069435 
L 360.132323 140.069435 
L 360.132323 171.221155 
z
" clip-path="url(#p010ee8d2dd)" style="fill: #ff0000; fill-opacity: 0.9; stroke: #000000; stroke-width: 0.941667"/>
    <path d="M 362.587515 150.947813 
L 362.587515 146.992039 
L 368.518976 146.992039 
L 368.518976 150.947813 
z
" clip-path="url(#p010ee8d2dd)" style="fill: #ff0000; fill-opacity: 0.9; stroke: #000000; stroke-width: 0.941667"/>
    <path d="M 370.974169 154.409115 
L 370.974169 158.859361 
L 376.905629 158.859361 
L 376.905629 154.409115 
z
" clip-path="url(#p010ee8d2dd)" style="fill: #008000; fill-opacity: 0.9; stroke: #000000; stroke-width: 0.941667"/>
    <path d="M 379.360822 157.375946 
L 379.360822 137.597076 
L 385.292282 137.597076 
L 385.292282 157.375946 
z
" clip-path="url(#p010ee8d2dd)" style="fill: #ff0000; fill-opacity: 0.9; stroke: #000000; stroke-width: 0.941667"/>
    <path d="M 387.747475 145.508624 
L 387.747475 160.837248 
L 393.678935 160.837248 
L 393.678935 145.508624 
z
" clip-path="url(#p010ee8d2dd)" style="fill: #008000; fill-opacity: 0.9; stroke: #000000; stroke-width: 0.941667"/>
    <path d="M 396.134128 167.265381 
L 396.134128 139.574963 
L 402.065589 139.574963 
L 402.065589 167.265381 
z
" clip-path="url(#p010ee8d2dd)" style="fill: #ff0000; fill-opacity: 0.9; stroke: #000000; stroke-width: 0.941667"/>
    <path d="M 404.520781 116.334791 
L 404.520781 132.652359 
L 410.452242 132.652359 
L 410.452242 116.334791 
z
" clip-path="url(#p010ee8d2dd)" style="fill: #008000; fill-opacity: 0.9; stroke: #000000; stroke-width: 0.941667"/>
    <path d="M 412.907435 140.069435 
L 412.907435 113.367961 
L 418.838895 113.367961 
L 418.838895 140.069435 
z
" clip-path="url(#p010ee8d2dd)" style="fill: #ff0000; fill-opacity: 0.9; stroke: #000000; stroke-width: 0.941667"/>
    <path d="M 421.294088 128.696585 
L 421.294088 126.224226 
L 427.225548 126.224226 
L 427.225548 128.696585 
z
" clip-path="url(#p010ee8d2dd)" style="fill: #ff0000; fill-opacity: 0.9; stroke: #000000; stroke-width: 0.941667"/>
    <path d="M 429.680741 130.18 
L 429.680741 135.619189 
L 435.612201 135.619189 
L 435.612201 130.18 
z
" clip-path="url(#p010ee8d2dd)" style="fill: #008000; fill-opacity: 0.9; stroke: #000000; stroke-width: 0.941667"/>
    <path d="M 438.067394 147.486511 
L 438.067394 111.884545 
L 443.998855 111.884545 
L 443.998855 147.486511 
z
" clip-path="url(#p010ee8d2dd)" style="fill: #ff0000; fill-opacity: 0.9; stroke: #000000; stroke-width: 0.941667"/>
    <path d="M 446.454047 109.412187 
L 446.454047 85.677543 
L 452.385508 85.677543 
L 452.385508 109.412187 
z
" clip-path="url(#p010ee8d2dd)" style="fill: #ff0000; fill-opacity: 0.9; stroke: #000000; stroke-width: 0.941667"/>
    <path d="M 454.840701 98.533808 
L 454.840701 56.998182 
L 460.772161 56.998182 
L 460.772161 98.533808 
z
" clip-path="url(#p010ee8d2dd)" style="fill: #ff0000; fill-opacity: 0.9; stroke: #000000; stroke-width: 0.941667"/>
    <path d="M 463.227354 62.437371 
L 463.227354 88.644373 
L 469.158814 88.644373 
L 469.158814 62.437371 
z
" clip-path="url(#p010ee8d2dd)" style="fill: #008000; fill-opacity: 0.9; stroke: #000000; stroke-width: 0.941667"/>
    <path d="M 471.614007 108.423243 
L 471.614007 116.829263 
L 477.545467 116.829263 
L 477.545467 108.423243 
z
" clip-path="url(#p010ee8d2dd)" style="fill: #008000; fill-opacity: 0.9; stroke: #000000; stroke-width: 0.941667"/>
    <path d="M 480.00066 127.707641 
L 480.00066 142.047322 
L 485.932121 142.047322 
L 485.932121 127.707641 
z
" clip-path="url(#p010ee8d2dd)" style="fill: #008000; fill-opacity: 0.9; stroke: #000000; stroke-width: 0.941667"/>
    <path d="M 488.387313 139.574963 
L 488.387313 147.486511 
L 494.318774 147.486511 
L 494.318774 139.574963 
z
" clip-path="url(#p010ee8d2dd)" style="fill: #008000; fill-opacity: 0.9; stroke: #000000; stroke-width: 0.941667"/>
   </g>
   <g id="LineCollection_1">
    <path d="M 130.726957 191.988968 
L 130.726957 188.033194 
" clip-path="url(#p010ee8d2dd)" style="fill: none; stroke: #000000; stroke-width: 0.941667"/>
    <path d="M 139.11361 191.000025 
L 139.11361 189.516609 
" clip-path="url(#p010ee8d2dd)" style="fill: none; stroke: #000000; stroke-width: 0.941667"/>
    <path d="M 147.500263 187.538722 
L 147.500263 185.560835 
" clip-path="url(#p010ee8d2dd)" style="fill: none; stroke: #000000; stroke-width: 0.941667"/>
    <path d="M 155.886916 189.516609 
L 155.886916 187.044251 
" clip-path="url(#p010ee8d2dd)" style="fill: none; stroke: #000000; stroke-width: 0.941667"/>
    <path d="M 164.273569 190.011081 
L 164.273569 188.033194 
" clip-path="url(#p010ee8d2dd)" style="fill: none; stroke: #000000; stroke-width: 0.941667"/>
    <path d="M 172.660222 189.516609 
L 172.660222 187.044251 
" clip-path="url(#p010ee8d2dd)" style="fill: none; stroke: #000000; stroke-width: 0.941667"/>
    <path d="M 181.046876 185.560835 
L 181.046876 184.07742 
" clip-path="url(#p010ee8d2dd)" style="fill: none; stroke: #000000; stroke-width: 0.941667"/>
    <path d="M 189.433529 190.011081 
L 189.433529 190.011081 
" clip-path="url(#p010ee8d2dd)" style="fill: none; stroke: #000000; stroke-width: 0.941667"/>
    <path d="M 197.820182 193.966855 
L 197.820182 191.494496 
" clip-path="url(#p010ee8d2dd)" style="fill: none; stroke: #000000; stroke-width: 0.941667"/>
    <path d="M 206.206835 201.878403 
L 206.206835 200.394988 
" clip-path="url(#p010ee8d2dd)" style="fill: none; stroke: #000000; stroke-width: 0.941667"/>
    <path d="M 214.593488 200.394988 
L 214.593488 200.394988 
" clip-path="url(#p010ee8d2dd)" style="fill: none; stroke: #000000; stroke-width: 0.941667"/>
    <path d="M 222.980142 198.911572 
L 222.980142 196.933686 
" clip-path="url(#p010ee8d2dd)" style="fill: none; stroke: #000000; stroke-width: 0.941667"/>
    <path d="M 231.366795 193.472383 
L 231.366795 192.48344 
" clip-path="url(#p010ee8d2dd)" style="fill: none; stroke: #000000; stroke-width: 0.941667"/>
    <path d="M 239.753448 193.966855 
L 239.753448 192.977912 
" clip-path="url(#p010ee8d2dd)" style="fill: none; stroke: #000000; stroke-width: 0.941667"/>
    <path d="M 248.140101 195.944742 
L 248.140101 192.977912 
" clip-path="url(#p010ee8d2dd)" style="fill: none; stroke: #000000; stroke-width: 0.941667"/>
    <path d="M 256.526754 192.48344 
L 256.526754 191.494496 
" clip-path="url(#p010ee8d2dd)" style="fill: none; stroke: #000000; stroke-width: 0.941667"/>
    <path d="M 264.913407 189.022138 
L 264.913407 188.033194 
" clip-path="url(#p010ee8d2dd)" style="fill: none; stroke: #000000; stroke-width: 0.941667"/>
    <path d="M 273.300061 195.944742 
L 273.300061 194.955799 
" clip-path="url(#p010ee8d2dd)" style="fill: none; stroke: #000000; stroke-width: 0.941667"/>
    <path d="M 281.686714 198.417101 
L 281.686714 196.439214 
" clip-path="url(#p010ee8d2dd)" style="fill: none; stroke: #000000; stroke-width: 0.941667"/>
    <path d="M 290.073367 200.889459 
L 290.073367 199.900516 
" clip-path="url(#p010ee8d2dd)" style="fill: none; stroke: #000000; stroke-width: 0.941667"/>
    <path d="M 298.46002 203.361818 
L 298.46002 195.45027 
" clip-path="url(#p010ee8d2dd)" style="fill: none; stroke: #000000; stroke-width: 0.941667"/>
    <path d="M 306.846673 193.966855 
L 306.846673 193.966855 
" clip-path="url(#p010ee8d2dd)" style="fill: none; stroke: #000000; stroke-width: 0.941667"/>
    <path d="M 315.233327 190.505553 
L 315.233327 184.571892 
" clip-path="url(#p010ee8d2dd)" style="fill: none; stroke: #000000; stroke-width: 0.941667"/>
    <path d="M 323.61998 182.594005 
L 323.61998 181.605061 
" clip-path="url(#p010ee8d2dd)" style="fill: none; stroke: #000000; stroke-width: 0.941667"/>
    <path d="M 332.006633 181.11059 
L 332.006633 179.132703 
" clip-path="url(#p010ee8d2dd)" style="fill: none; stroke: #000000; stroke-width: 0.941667"/>
    <path d="M 340.393286 182.099533 
L 340.393286 179.132703 
" clip-path="url(#p010ee8d2dd)" style="fill: none; stroke: #000000; stroke-width: 0.941667"/>
    <path d="M 348.779939 167.759853 
L 348.779939 161.33172 
" clip-path="url(#p010ee8d2dd)" style="fill: none; stroke: #000000; stroke-width: 0.941667"/>
    <path d="M 357.166593 176.165872 
L 357.166593 171.221155 
" clip-path="url(#p010ee8d2dd)" style="fill: none; stroke: #000000; stroke-width: 0.941667"/>
    <path d="M 365.553246 154.903587 
L 365.553246 150.947813 
" clip-path="url(#p010ee8d2dd)" style="fill: none; stroke: #000000; stroke-width: 0.941667"/>
    <path d="M 373.939899 159.353833 
L 373.939899 158.859361 
" clip-path="url(#p010ee8d2dd)" style="fill: none; stroke: #000000; stroke-width: 0.941667"/>
    <path d="M 382.326552 161.33172 
L 382.326552 157.375946 
" clip-path="url(#p010ee8d2dd)" style="fill: none; stroke: #000000; stroke-width: 0.941667"/>
    <path d="M 390.713205 161.33172 
L 390.713205 160.837248 
" clip-path="url(#p010ee8d2dd)" style="fill: none; stroke: #000000; stroke-width: 0.941667"/>
    <path d="M 399.099858 170.232211 
L 399.099858 167.265381 
" clip-path="url(#p010ee8d2dd)" style="fill: none; stroke: #000000; stroke-width: 0.941667"/>
    <path d="M 407.486512 143.036265 
L 407.486512 132.652359 
" clip-path="url(#p010ee8d2dd)" style="fill: none; stroke: #000000; stroke-width: 0.941667"/>
    <path d="M 415.873165 142.047322 
L 415.873165 140.069435 
" clip-path="url(#p010ee8d2dd)" style="fill: none; stroke: #000000; stroke-width: 0.941667"/>
    <path d="M 424.259818 138.58602 
L 424.259818 128.696585 
" clip-path="url(#p010ee8d2dd)" style="fill: none; stroke: #000000; stroke-width: 0.941667"/>
    <path d="M 432.646471 150.947813 
L 432.646471 135.619189 
" clip-path="url(#p010ee8d2dd)" style="fill: none; stroke: #000000; stroke-width: 0.941667"/>
    <path d="M 441.033124 147.486511 
L 441.033124 147.486511 
" clip-path="url(#p010ee8d2dd)" style="fill: none; stroke: #000000; stroke-width: 0.941667"/>
    <path d="M 449.419778 119.301622 
L 449.419778 109.412187 
" clip-path="url(#p010ee8d2dd)" style="fill: none; stroke: #000000; stroke-width: 0.941667"/>
    <path d="M 457.806431 105.456413 
L 457.806431 98.533808 
" clip-path="url(#p010ee8d2dd)" style="fill: none; stroke: #000000; stroke-width: 0.941667"/>
    <path d="M 466.193084 88.644373 
L 466.193084 88.644373 
" clip-path="url(#p010ee8d2dd)" style="fill: none; stroke: #000000; stroke-width: 0.941667"/>
    <path d="M 474.579737 116.829263 
L 474.579737 116.829263 
" clip-path="url(#p010ee8d2dd)" style="fill: none; stroke: #000000; stroke-width: 0.941667"/>
    <path d="M 482.96639 142.541794 
L 482.96639 142.047322 
" clip-path="url(#p010ee8d2dd)" style="fill: none; stroke: #000000; stroke-width: 0.941667"/>
    <path d="M 491.353043 148.475455 
L 491.353043 147.486511 
" clip-path="url(#p010ee8d2dd)" style="fill: none; stroke: #000000; stroke-width: 0.941667"/>
    <path d="M 130.726957 183.088477 
L 130.726957 184.571892 
" clip-path="url(#p010ee8d2dd)" style="fill: none; stroke: #000000; stroke-width: 0.941667"/>
    <path d="M 139.11361 180.616118 
L 139.11361 181.605061 
" clip-path="url(#p010ee8d2dd)" style="fill: none; stroke: #000000; stroke-width: 0.941667"/>
    <path d="M 147.500263 178.638231 
L 147.500263 180.616118 
" clip-path="url(#p010ee8d2dd)" style="fill: none; stroke: #000000; stroke-width: 0.941667"/>
    <path d="M 155.886916 184.571892 
L 155.886916 185.066364 
" clip-path="url(#p010ee8d2dd)" style="fill: none; stroke: #000000; stroke-width: 0.941667"/>
    <path d="M 164.273569 185.560835 
L 164.273569 187.044251 
" clip-path="url(#p010ee8d2dd)" style="fill: none; stroke: #000000; stroke-width: 0.941667"/>
    <path d="M 172.660222 183.088477 
L 172.660222 184.07742 
" clip-path="url(#p010ee8d2dd)" style="fill: none; stroke: #000000; stroke-width: 0.941667"/>
    <path d="M 181.046876 180.121646 
L 181.046876 183.088477 
" clip-path="url(#p010ee8d2dd)" style="fill: none; stroke: #000000; stroke-width: 0.941667"/>
    <path d="M 189.433529 182.099533 
L 189.433529 184.07742 
" clip-path="url(#p010ee8d2dd)" style="fill: none; stroke: #000000; stroke-width: 0.941667"/>
    <path d="M 197.820182 187.538722 
L 197.820182 190.011081 
" clip-path="url(#p010ee8d2dd)" style="fill: none; stroke: #000000; stroke-width: 0.941667"/>
    <path d="M 206.206835 191.988968 
L 206.206835 192.48344 
" clip-path="url(#p010ee8d2dd)" style="fill: none; stroke: #000000; stroke-width: 0.941667"/>
    <path d="M 214.593488 193.966855 
L 214.593488 196.933686 
" clip-path="url(#p010ee8d2dd)" style="fill: none; stroke: #000000; stroke-width: 0.941667"/>
    <path d="M 222.980142 189.516609 
L 222.980142 190.505553 
" clip-path="url(#p010ee8d2dd)" style="fill: none; stroke: #000000; stroke-width: 0.941667"/>
    <path d="M 231.366795 186.549779 
L 231.366795 190.505553 
" clip-path="url(#p010ee8d2dd)" style="fill: none; stroke: #000000; stroke-width: 0.941667"/>
    <path d="M 239.753448 189.516609 
L 239.753448 191.988968 
" clip-path="url(#p010ee8d2dd)" style="fill: none; stroke: #000000; stroke-width: 0.941667"/>
    <path d="M 248.140101 190.011081 
L 248.140101 191.000025 
" clip-path="url(#p010ee8d2dd)" style="fill: none; stroke: #000000; stroke-width: 0.941667"/>
    <path d="M 256.526754 186.055307 
L 256.526754 187.044251 
" clip-path="url(#p010ee8d2dd)" style="fill: none; stroke: #000000; stroke-width: 0.941667"/>
    <path d="M 264.913407 185.066364 
L 264.913407 187.044251 
" clip-path="url(#p010ee8d2dd)" style="fill: none; stroke: #000000; stroke-width: 0.941667"/>
    <path d="M 273.300061 186.549779 
L 273.300061 187.538722 
" clip-path="url(#p010ee8d2dd)" style="fill: none; stroke: #000000; stroke-width: 0.941667"/>
    <path d="M 281.686714 191.988968 
L 281.686714 191.988968 
" clip-path="url(#p010ee8d2dd)" style="fill: none; stroke: #000000; stroke-width: 0.941667"/>
    <path d="M 290.073367 191.494496 
L 290.073367 193.966855 
" clip-path="url(#p010ee8d2dd)" style="fill: none; stroke: #000000; stroke-width: 0.941667"/>
    <path d="M 298.46002 189.022138 
L 298.46002 191.494496 
" clip-path="url(#p010ee8d2dd)" style="fill: none; stroke: #000000; stroke-width: 0.941667"/>
    <path d="M 306.846673 178.143759 
L 306.846673 190.505553 
" clip-path="url(#p010ee8d2dd)" style="fill: none; stroke: #000000; stroke-width: 0.941667"/>
    <path d="M 315.233327 175.176929 
L 315.233327 176.660344 
" clip-path="url(#p010ee8d2dd)" style="fill: none; stroke: #000000; stroke-width: 0.941667"/>
    <path d="M 323.61998 174.187985 
L 323.61998 180.616118 
" clip-path="url(#p010ee8d2dd)" style="fill: none; stroke: #000000; stroke-width: 0.941667"/>
    <path d="M 332.006633 166.276437 
L 332.006633 176.165872 
" clip-path="url(#p010ee8d2dd)" style="fill: none; stroke: #000000; stroke-width: 0.941667"/>
    <path d="M 340.393286 156.387002 
L 340.393286 156.387002 
" clip-path="url(#p010ee8d2dd)" style="fill: none; stroke: #000000; stroke-width: 0.941667"/>
    <path d="M 348.779939 137.102604 
L 348.779939 155.892531 
" clip-path="url(#p010ee8d2dd)" style="fill: none; stroke: #000000; stroke-width: 0.941667"/>
    <path d="M 357.166593 140.069435 
L 357.166593 140.069435 
" clip-path="url(#p010ee8d2dd)" style="fill: none; stroke: #000000; stroke-width: 0.941667"/>
    <path d="M 365.553246 129.191057 
L 365.553246 146.992039 
" clip-path="url(#p010ee8d2dd)" style="fill: none; stroke: #000000; stroke-width: 0.941667"/>
    <path d="M 373.939899 146.992039 
L 373.939899 154.409115 
" clip-path="url(#p010ee8d2dd)" style="fill: none; stroke: #000000; stroke-width: 0.941667"/>
    <path d="M 382.326552 137.597076 
L 382.326552 137.597076 
" clip-path="url(#p010ee8d2dd)" style="fill: none; stroke: #000000; stroke-width: 0.941667"/>
    <path d="M 390.713205 138.58602 
L 390.713205 145.508624 
" clip-path="url(#p010ee8d2dd)" style="fill: none; stroke: #000000; stroke-width: 0.941667"/>
    <path d="M 399.099858 139.574963 
L 399.099858 139.574963 
" clip-path="url(#p010ee8d2dd)" style="fill: none; stroke: #000000; stroke-width: 0.941667"/>
    <path d="M 407.486512 116.334791 
L 407.486512 116.334791 
" clip-path="url(#p010ee8d2dd)" style="fill: none; stroke: #000000; stroke-width: 0.941667"/>
    <path d="M 415.873165 108.917715 
L 415.873165 113.367961 
" clip-path="url(#p010ee8d2dd)" style="fill: none; stroke: #000000; stroke-width: 0.941667"/>
    <path d="M 424.259818 118.312678 
L 424.259818 126.224226 
" clip-path="url(#p010ee8d2dd)" style="fill: none; stroke: #000000; stroke-width: 0.941667"/>
    <path d="M 432.646471 109.412187 
L 432.646471 130.18 
" clip-path="url(#p010ee8d2dd)" style="fill: none; stroke: #000000; stroke-width: 0.941667"/>
    <path d="M 441.033124 111.884545 
L 441.033124 111.884545 
" clip-path="url(#p010ee8d2dd)" style="fill: none; stroke: #000000; stroke-width: 0.941667"/>
    <path d="M 449.419778 85.677543 
L 449.419778 85.677543 
" clip-path="url(#p010ee8d2dd)" style="fill: none; stroke: #000000; stroke-width: 0.941667"/>
    <path d="M 457.806431 56.998182 
L 457.806431 56.998182 
" clip-path="url(#p010ee8d2dd)" style="fill: none; stroke: #000000; stroke-width: 0.941667"/>
    <path d="M 466.193084 62.437371 
L 466.193084 62.437371 
" clip-path="url(#p010ee8d2dd)" style="fill: none; stroke: #000000; stroke-width: 0.941667"/>
    <path d="M 474.579737 101.995111 
L 474.579737 108.423243 
" clip-path="url(#p010ee8d2dd)" style="fill: none; stroke: #000000; stroke-width: 0.941667"/>
    <path d="M 482.96639 123.257396 
L 482.96639 127.707641 
" clip-path="url(#p010ee8d2dd)" style="fill: none; stroke: #000000; stroke-width: 0.941667"/>
    <path d="M 491.353043 136.113661 
L 491.353043 139.574963 
" clip-path="url(#p010ee8d2dd)" style="fill: none; stroke: #000000; stroke-width: 0.941667"/>
   </g>
   <g id="line2d_25">
    <path d="M 164.273569 186.055307 
L 172.660222 185.264152 
L 181.046876 185.560835 
L 189.433529 186.450885 
L 197.820182 187.340934 
L 206.206835 189.813292 
L 214.593488 192.384545 
L 222.980142 193.867961 
L 231.366795 194.362432 
L 239.753448 194.659115 
L 248.140101 192.780123 
L 256.526754 190.802236 
L 264.913407 190.307764 
L 273.300061 190.802236 
L 281.686714 190.604447 
L 290.073367 192.384545 
L 298.46002 194.065749 
L 306.846673 194.560221 
L 315.233327 190.90113 
L 323.61998 188.62656 
L 332.006633 183.879631 
L 340.393286 176.066978 
L 348.779939 170.232211 
L 357.166593 162.914029 
L 365.553246 156.189214 
L 373.939899 152.727912 
L 382.326552 148.969926 
L 390.713205 148.871032 
L 399.099858 148.772138 
L 407.486512 145.904201 
L 415.873165 136.805921 
L 424.259818 134.531351 
L 432.646471 129.48774 
L 441.033124 123.949656 
L 449.419778 114.554693 
L 457.806431 103.280737 
L 466.193084 95.764767 
L 474.579737 92.006781 
L 482.96639 98.039337 
L 491.353043 110.40113 
" clip-path="url(#p010ee8d2dd)" style="fill: none; stroke: #0000ff; stroke-linecap: square"/>
   </g>
   <g id="line2d_26">
    <path d="M 206.206835 187.9343 
L 214.593488 188.824349 
L 222.980142 189.714398 
L 231.366795 190.406658 
L 239.753448 191.000025 
L 248.140101 191.296708 
L 256.526754 191.593391 
L 264.913407 192.087862 
L 273.300061 192.582334 
L 281.686714 192.631781 
L 290.073367 192.582334 
L 298.46002 192.433993 
L 306.846673 192.433993 
L 315.233327 190.851683 
L 323.61998 189.615504 
L 332.006633 188.132088 
L 340.393286 185.066364 
L 348.779939 182.396216 
L 357.166593 176.90758 
L 365.553246 172.407887 
L 373.939899 168.303771 
L 382.326552 162.518452 
L 390.713205 159.551622 
L 399.099858 155.843084 
L 407.486512 151.046708 
L 415.873165 144.766916 
L 424.259818 141.750639 
L 432.646471 139.179386 
L 441.033124 136.360897 
L 449.419778 130.229447 
L 457.806431 120.043329 
L 466.193084 115.148059 
L 474.579737 110.74726 
L 482.96639 110.994496 
L 491.353043 112.477912 
" clip-path="url(#p010ee8d2dd)" style="fill: none; stroke: #ffa500; stroke-linecap: square"/>
   </g>
   <g id="line2d_27">
    <path d="M 290.073367 190.258317 
L 298.46002 190.629171 
L 306.846673 191.074195 
L 315.233327 190.629171 
L 323.61998 190.307764 
L 332.006633 189.714398 
L 340.393286 188.329877 
L 348.779939 187.242039 
L 357.166593 184.744957 
L 365.553246 182.519834 
L 373.939899 180.443053 
L 382.326552 177.476222 
L 390.713205 175.992807 
L 399.099858 173.347383 
L 407.486512 170.331106 
L 415.873165 166.449502 
L 424.259818 163.408501 
L 432.646471 160.787801 
L 441.033124 156.634238 
L 449.419778 151.318667 
L 457.806431 144.17355 
L 466.193084 138.833256 
L 474.579737 135.149441 
L 482.96639 133.41879 
L 491.353043 131.76231 
" clip-path="url(#p010ee8d2dd)" style="fill: none; stroke: #008000; stroke-linecap: square"/>
   </g>
   <g id="patch_3">
    <path d="M 103.68 210.68 
L 103.68 49.68 
" style="fill: none; stroke: #f0f0f0; stroke-width: 0.8; stroke-linejoin: miter; stroke-linecap: square"/>
   </g>
   <g id="patch_4">
    <path d="M 518.4 210.68 
L 518.4 49.68 
" style="fill: none; stroke: #f0f0f0; stroke-width: 0.8; stroke-linejoin: miter; stroke-linecap: square"/>
   </g>
   <g id="patch_5">
    <path d="M 103.68 210.68 
L 518.4 210.68 
" style="fill: none; stroke: #f0f0f0; stroke-width: 0.8; stroke-linejoin: miter; stroke-linecap: square"/>
   </g>
   <g id="patch_6">
    <path d="M 103.68 49.68 
L 518.4 49.68 
" style="fill: none; stroke: #f0f0f0; stroke-width: 0.8; stroke-linejoin: miter; stroke-linecap: square"/>
   </g>
   <g id="legend_1">
    <g id="patch_7">
     <path d="M 110.68 205.68 
L 162.68 205.68 
Q 164.68 205.68 164.68 203.68 
L 164.68 164.93 
Q 164.68 162.93 162.68 162.93 
L 110.68 162.93 
Q 108.68 162.93 108.68 164.93 
L 108.68 203.68 
Q 108.68 205.68 110.68 205.68 
z
" style="fill: #fafafa; opacity: 0.8; stroke: #cccccc; stroke-linejoin: miter"/>
    </g>
    <g id="line2d_28">
     <path d="M 112.68 170.43 
L 122.68 170.43 
L 132.68 170.43 
" style="fill: none; stroke: #0000ff; stroke-width: 2; stroke-linecap: square"/>
    </g>
    <g id="text_9">
     <!-- MA5 -->
     <g transform="translate(140.68 173.93) scale(0.1 -0.1)">
      <defs>
       <path id="SimHei-4d" d="M 2925 125 
L 2425 125 
L 2425 3175 
L 2375 3175 
L 1775 125 
L 1375 125 
L 775 3175 
L 725 3175 
L 725 125 
L 225 125 
L 225 4400 
L 1000 4400 
L 1550 1575 
L 1600 1575 
L 2150 4400 
L 2925 4400 
L 2925 125 
z
" transform="scale(0.015625)"/>
       <path id="SimHei-41" d="M 3075 125 
L 2475 125 
L 2125 1450 
L 1025 1450 
L 675 125 
L 75 125 
L 1325 4450 
L 1825 4450 
L 3075 125 
z
M 2000 1925 
L 1600 3450 
L 1550 3450 
L 1150 1925 
L 2000 1925 
z
" transform="scale(0.015625)"/>
      </defs>
      <use xlink:href="#SimHei-4d"/>
      <use xlink:href="#SimHei-41" x="50"/>
      <use xlink:href="#SimHei-35" x="100"/>
     </g>
    </g>
    <g id="line2d_29">
     <path d="M 112.68 183.68 
L 122.68 183.68 
L 132.68 183.68 
" style="fill: none; stroke: #ffa500; stroke-width: 2; stroke-linecap: square"/>
    </g>
    <g id="text_10">
     <!-- MA10 -->
     <g transform="translate(140.68 187.18) scale(0.1 -0.1)">
      <defs>
       <path id="SimHei-31" d="M 1400 3600 
Q 1075 3275 575 2975 
L 575 3450 
Q 1200 3875 1600 4450 
L 1900 4450 
L 1900 150 
L 1400 150 
L 1400 3600 
z
" transform="scale(0.015625)"/>
      </defs>
      <use xlink:href="#SimHei-4d"/>
      <use xlink:href="#SimHei-41" x="50"/>
      <use xlink:href="#SimHei-31" x="100"/>
      <use xlink:href="#SimHei-30" x="150"/>
     </g>
    </g>
    <g id="line2d_30">
     <path d="M 112.68 196.93 
L 122.68 196.93 
L 132.68 196.93 
" style="fill: none; stroke: #008000; stroke-width: 2; stroke-linecap: square"/>
    </g>
    <g id="text_11">
     <!-- MA20 -->
     <g transform="translate(140.68 200.43) scale(0.1 -0.1)">
      <defs>
       <path id="SimHei-32" d="M 300 250 
Q 325 625 650 925 
Q 975 1225 1475 1862 
Q 1975 2500 2125 2850 
Q 2275 3200 2237 3450 
Q 2200 3700 2000 3862 
Q 1800 4025 1537 4000 
Q 1275 3975 1037 3800 
Q 800 3625 675 3275 
L 200 3350 
Q 400 3925 712 4187 
Q 1025 4450 1450 4475 
Q 1700 4500 1900 4462 
Q 2100 4425 2312 4287 
Q 2525 4150 2662 3875 
Q 2800 3600 2762 3212 
Q 2725 2825 2375 2287 
Q 2025 1750 1025 600 
L 2825 600 
L 2825 150 
L 300 150 
L 300 250 
z
" transform="scale(0.015625)"/>
      </defs>
      <use xlink:href="#SimHei-4d"/>
      <use xlink:href="#SimHei-41" x="50"/>
      <use xlink:href="#SimHei-32" x="100"/>
      <use xlink:href="#SimHei-30" x="150"/>
     </g>
    </g>
   </g>
  </g>
  <g id="axes_2">
   <g id="patch_8">
    <path d="M 103.68 275.08 
L 518.4 275.08 
L 518.4 210.68 
L 103.68 210.68 
z
" style="fill: #fafafa"/>
   </g>
   <g id="matplotlib.axis_3">
    <g id="xtick_6">
     <g id="line2d_31">
      <path d="M 130.726957 275.08 
L 130.726957 210.68 
" clip-path="url(#p7cf9f4b47b)" style="fill: none; stroke: #d0d0d0; stroke-width: 0.8; stroke-linecap: square"/>
     </g>
     <g id="line2d_32">
      <g>
       <use xlink:href="#m26adc7e723" x="130.726957" y="275.08" style="fill: #101010; stroke: #101010; stroke-width: 0.8"/>
      </g>
     </g>
    </g>
    <g id="xtick_7">
     <g id="line2d_33">
      <path d="M 214.593488 275.08 
L 214.593488 210.68 
" clip-path="url(#p7cf9f4b47b)" style="fill: none; stroke: #d0d0d0; stroke-width: 0.8; stroke-linecap: square"/>
     </g>
     <g id="line2d_34">
      <g>
       <use xlink:href="#m26adc7e723" x="214.593488" y="275.08" style="fill: #101010; stroke: #101010; stroke-width: 0.8"/>
      </g>
     </g>
    </g>
    <g id="xtick_8">
     <g id="line2d_35">
      <path d="M 298.46002 275.08 
L 298.46002 210.68 
" clip-path="url(#p7cf9f4b47b)" style="fill: none; stroke: #d0d0d0; stroke-width: 0.8; stroke-linecap: square"/>
     </g>
     <g id="line2d_36">
      <g>
       <use xlink:href="#m26adc7e723" x="298.46002" y="275.08" style="fill: #101010; stroke: #101010; stroke-width: 0.8"/>
      </g>
     </g>
    </g>
    <g id="xtick_9">
     <g id="line2d_37">
      <path d="M 382.326552 275.08 
L 382.326552 210.68 
" clip-path="url(#p7cf9f4b47b)" style="fill: none; stroke: #d0d0d0; stroke-width: 0.8; stroke-linecap: square"/>
     </g>
     <g id="line2d_38">
      <g>
       <use xlink:href="#m26adc7e723" x="382.326552" y="275.08" style="fill: #101010; stroke: #101010; stroke-width: 0.8"/>
      </g>
     </g>
    </g>
    <g id="xtick_10">
     <g id="line2d_39">
      <path d="M 466.193084 275.08 
L 466.193084 210.68 
" clip-path="url(#p7cf9f4b47b)" style="fill: none; stroke: #d0d0d0; stroke-width: 0.8; stroke-linecap: square"/>
     </g>
     <g id="line2d_40">
      <g>
       <use xlink:href="#m26adc7e723" x="466.193084" y="275.08" style="fill: #101010; stroke: #101010; stroke-width: 0.8"/>
      </g>
     </g>
    </g>
   </g>
   <g id="matplotlib.axis_4">
    <g id="ytick_8">
     <g id="line2d_41">
      <path d="M 103.68 250.280762 
L 518.4 250.280762 
" clip-path="url(#p7cf9f4b47b)" style="fill: none; stroke: #d0d0d0; stroke-width: 0.8; stroke-linecap: square"/>
     </g>
     <g id="line2d_42">
      <g>
       <use xlink:href="#m1b4c6b46e2" x="518.4" y="250.280762" style="fill: #101010; stroke: #101010; stroke-width: 0.8"/>
      </g>
     </g>
     <g id="text_12">
      <!-- 250000 -->
      <g style="fill: #101010" transform="translate(525.4 253.718262) scale(0.1 -0.1)">
       <use xlink:href="#SimHei-32"/>
       <use xlink:href="#SimHei-35" x="50"/>
       <use xlink:href="#SimHei-30" x="100"/>
       <use xlink:href="#SimHei-30" x="150"/>
       <use xlink:href="#SimHei-30" x="200"/>
       <use xlink:href="#SimHei-30" x="250"/>
      </g>
     </g>
    </g>
    <g id="ytick_9">
     <g id="line2d_43">
      <path d="M 103.68 224.753445 
L 518.4 224.753445 
" clip-path="url(#p7cf9f4b47b)" style="fill: none; stroke: #d0d0d0; stroke-width: 0.8; stroke-linecap: square"/>
     </g>
     <g id="line2d_44">
      <g>
       <use xlink:href="#m1b4c6b46e2" x="518.4" y="224.753445" style="fill: #101010; stroke: #101010; stroke-width: 0.8"/>
      </g>
     </g>
     <g id="text_13">
      <!-- 500000 -->
      <g style="fill: #101010" transform="translate(525.4 228.190945) scale(0.1 -0.1)">
       <use xlink:href="#SimHei-35"/>
       <use xlink:href="#SimHei-30" x="50"/>
       <use xlink:href="#SimHei-30" x="100"/>
       <use xlink:href="#SimHei-30" x="150"/>
       <use xlink:href="#SimHei-30" x="200"/>
       <use xlink:href="#SimHei-30" x="250"/>
      </g>
     </g>
    </g>
    <g id="text_14">
     <!-- volume -->
     <g style="fill: #101010" transform="translate(566.275 257.88) rotate(-90) scale(0.1 -0.1)">
      <defs>
       <path id="SimHei-76" d="M 2875 2925 
L 1825 75 
L 1275 75 
L 225 2925 
L 750 2925 
L 1525 750 
L 1575 750 
L 2350 2925 
L 2875 2925 
z
" transform="scale(0.015625)"/>
       <path id="SimHei-6f" d="M 2925 1525 
Q 2925 875 2525 475 
Q 2125 75 1575 75 
Q 1025 75 625 475 
Q 225 875 225 1525 
Q 225 2175 625 2575 
Q 1025 2975 1575 2975 
Q 2125 2975 2525 2575 
Q 2925 2175 2925 1525 
z
M 2375 1525 
Q 2375 2025 2125 2275 
Q 1875 2525 1575 2525 
Q 1275 2525 1025 2275 
Q 775 2025 775 1525 
Q 775 1025 1025 775 
Q 1275 525 1575 525 
Q 1875 525 2125 775 
Q 2375 1025 2375 1525 
z
" transform="scale(0.015625)"/>
       <path id="SimHei-6c" d="M 1825 125 
L 1325 125 
L 1325 4400 
L 1825 4400 
L 1825 125 
z
" transform="scale(0.015625)"/>
       <path id="SimHei-75" d="M 2800 125 
L 2300 125 
L 2300 650 
Q 2100 375 1862 225 
Q 1625 75 1250 75 
Q 800 75 575 325 
Q 350 575 350 950 
L 350 2925 
L 850 2925 
L 850 1125 
Q 850 825 1000 650 
Q 1150 475 1400 475 
Q 1725 475 2012 812 
Q 2300 1150 2300 1650 
L 2300 2925 
L 2800 2925 
L 2800 125 
z
" transform="scale(0.015625)"/>
       <path id="SimHei-6d" d="M 3050 125 
L 2550 125 
L 2550 2150 
Q 2550 2300 2500 2400 
Q 2450 2500 2300 2500 
Q 2125 2500 1975 2312 
Q 1825 2125 1825 1825 
L 1825 125 
L 1325 125 
L 1325 2150 
Q 1325 2300 1275 2400 
Q 1225 2500 1075 2500 
Q 900 2500 750 2312 
Q 600 2125 600 1825 
L 600 125 
L 100 125 
L 100 2925 
L 600 2925 
L 600 2550 
Q 725 2750 900 2862 
Q 1075 2975 1275 2975 
Q 1475 2975 1612 2862 
Q 1750 2750 1800 2550 
Q 1925 2750 2087 2862 
Q 2250 2975 2450 2975 
Q 2750 2975 2900 2812 
Q 3050 2650 3050 2350 
L 3050 125 
z
" transform="scale(0.015625)"/>
      </defs>
      <use xlink:href="#SimHei-76"/>
      <use xlink:href="#SimHei-6f" x="50"/>
      <use xlink:href="#SimHei-6c" x="100"/>
      <use xlink:href="#SimHei-75" x="150"/>
      <use xlink:href="#SimHei-6d" x="200"/>
      <use xlink:href="#SimHei-65" x="250"/>
     </g>
     <!--  -->
     <g style="fill: #101010" transform="translate(575.775 242.88) rotate(-90) scale(0.1 -0.1)"/>
    </g>
   </g>
   <g id="patch_9">
    <path d="M 128.691795 275.80808 
L 132.762118 275.80808 
L 132.762118 267.69172 
L 128.691795 267.69172 
z
" clip-path="url(#p7cf9f4b47b)" style="fill: #008000; stroke: #007300; stroke-width: 0.65; stroke-linejoin: miter"/>
   </g>
   <g id="patch_10">
    <path d="M 137.078449 275.80808 
L 141.148771 275.80808 
L 141.148771 270.640126 
L 137.078449 270.640126 
z
" clip-path="url(#p7cf9f4b47b)" style="fill: #ff0000; stroke: #e60000; stroke-width: 0.65; stroke-linejoin: miter"/>
   </g>
   <g id="patch_11">
    <path d="M 145.465102 275.80808 
L 149.535424 275.80808 
L 149.535424 271.138521 
L 145.465102 271.138521 
z
" clip-path="url(#p7cf9f4b47b)" style="fill: #008000; stroke: #007300; stroke-width: 0.65; stroke-linejoin: miter"/>
   </g>
   <g id="patch_12">
    <path d="M 153.851755 275.80808 
L 157.922077 275.80808 
L 157.922077 272.701303 
L 153.851755 272.701303 
z
" clip-path="url(#p7cf9f4b47b)" style="fill: #008000; stroke: #007300; stroke-width: 0.65; stroke-linejoin: miter"/>
   </g>
   <g id="patch_13">
    <path d="M 162.238408 275.80808 
L 166.30873 275.80808 
L 166.30873 271.621294 
L 162.238408 271.621294 
z
" clip-path="url(#p7cf9f4b47b)" style="fill: #008000; stroke: #007300; stroke-width: 0.65; stroke-linejoin: miter"/>
   </g>
   <g id="patch_14">
    <path d="M 170.625061 275.80808 
L 174.695384 275.80808 
L 174.695384 272.47993 
L 170.625061 272.47993 
z
" clip-path="url(#p7cf9f4b47b)" style="fill: #ff0000; stroke: #e60000; stroke-width: 0.65; stroke-linejoin: miter"/>
   </g>
   <g id="patch_15">
    <path d="M 179.011714 275.80808 
L 183.082037 275.80808 
L 183.082037 272.183711 
L 179.011714 272.183711 
z
" clip-path="url(#p7cf9f4b47b)" style="fill: #ff0000; stroke: #e60000; stroke-width: 0.65; stroke-linejoin: miter"/>
   </g>
   <g id="patch_16">
    <path d="M 187.398368 275.80808 
L 191.46869 275.80808 
L 191.46869 272.583878 
L 187.398368 272.583878 
z
" clip-path="url(#p7cf9f4b47b)" style="fill: #008000; stroke: #007300; stroke-width: 0.65; stroke-linejoin: miter"/>
   </g>
   <g id="patch_17">
    <path d="M 195.785021 275.80808 
L 199.855343 275.80808 
L 199.855343 273.149563 
L 195.785021 273.149563 
z
" clip-path="url(#p7cf9f4b47b)" style="fill: #008000; stroke: #007300; stroke-width: 0.65; stroke-linejoin: miter"/>
   </g>
   <g id="patch_18">
    <path d="M 204.171674 275.80808 
L 208.241996 275.80808 
L 208.241996 271.130046 
L 204.171674 271.130046 
z
" clip-path="url(#p7cf9f4b47b)" style="fill: #008000; stroke: #007300; stroke-width: 0.65; stroke-linejoin: miter"/>
   </g>
   <g id="patch_19">
    <path d="M 212.558327 275.80808 
L 216.62865 275.80808 
L 216.62865 271.896172 
L 212.558327 271.896172 
z
" clip-path="url(#p7cf9f4b47b)" style="fill: #ff0000; stroke: #e60000; stroke-width: 0.65; stroke-linejoin: miter"/>
   </g>
   <g id="patch_20">
    <path d="M 220.94498 275.80808 
L 225.015303 275.80808 
L 225.015303 272.85702 
L 220.94498 272.85702 
z
" clip-path="url(#p7cf9f4b47b)" style="fill: #ff0000; stroke: #e60000; stroke-width: 0.65; stroke-linejoin: miter"/>
   </g>
   <g id="patch_21">
    <path d="M 229.331634 275.80808 
L 233.401956 275.80808 
L 233.401956 271.997873 
L 229.331634 271.997873 
z
" clip-path="url(#p7cf9f4b47b)" style="fill: #008000; stroke: #007300; stroke-width: 0.65; stroke-linejoin: miter"/>
   </g>
   <g id="patch_22">
    <path d="M 237.718287 275.80808 
L 241.788609 275.80808 
L 241.788609 272.492388 
L 237.718287 272.492388 
z
" clip-path="url(#p7cf9f4b47b)" style="fill: #008000; stroke: #007300; stroke-width: 0.65; stroke-linejoin: miter"/>
   </g>
   <g id="patch_23">
    <path d="M 246.10494 275.80808 
L 250.175262 275.80808 
L 250.175262 273.124648 
L 246.10494 273.124648 
z
" clip-path="url(#p7cf9f4b47b)" style="fill: #ff0000; stroke: #e60000; stroke-width: 0.65; stroke-linejoin: miter"/>
   </g>
   <g id="patch_24">
    <path d="M 254.491593 275.80808 
L 258.561915 275.80808 
L 258.561915 271.753219 
L 254.491593 271.753219 
z
" clip-path="url(#p7cf9f4b47b)" style="fill: #ff0000; stroke: #e60000; stroke-width: 0.65; stroke-linejoin: miter"/>
   </g>
   <g id="patch_25">
    <path d="M 262.878246 275.80808 
L 266.948569 275.80808 
L 266.948569 273.381147 
L 262.878246 273.381147 
z
" clip-path="url(#p7cf9f4b47b)" style="fill: #008000; stroke: #007300; stroke-width: 0.65; stroke-linejoin: miter"/>
   </g>
   <g id="patch_26">
    <path d="M 271.264899 275.80808 
L 275.335222 275.80808 
L 275.335222 272.035959 
L 271.264899 272.035959 
z
" clip-path="url(#p7cf9f4b47b)" style="fill: #008000; stroke: #007300; stroke-width: 0.65; stroke-linejoin: miter"/>
   </g>
   <g id="patch_27">
    <path d="M 279.651553 275.80808 
L 283.721875 275.80808 
L 283.721875 272.817402 
L 279.651553 272.817402 
z
" clip-path="url(#p7cf9f4b47b)" style="fill: #ff0000; stroke: #e60000; stroke-width: 0.65; stroke-linejoin: miter"/>
   </g>
   <g id="patch_28">
    <path d="M 288.038206 275.80808 
L 292.108528 275.80808 
L 292.108528 272.419277 
L 288.038206 272.419277 
z
" clip-path="url(#p7cf9f4b47b)" style="fill: #008000; stroke: #007300; stroke-width: 0.65; stroke-linejoin: miter"/>
   </g>
   <g id="patch_29">
    <path d="M 296.424859 275.80808 
L 300.495181 275.80808 
L 300.495181 270.37699 
L 296.424859 270.37699 
z
" clip-path="url(#p7cf9f4b47b)" style="fill: #008000; stroke: #007300; stroke-width: 0.65; stroke-linejoin: miter"/>
   </g>
   <g id="patch_30">
    <path d="M 304.811512 275.80808 
L 308.881835 275.80808 
L 308.881835 264.576979 
L 304.811512 264.576979 
z
" clip-path="url(#p7cf9f4b47b)" style="fill: #ff0000; stroke: #e60000; stroke-width: 0.65; stroke-linejoin: miter"/>
   </g>
   <g id="patch_31">
    <path d="M 313.198165 275.80808 
L 317.268488 275.80808 
L 317.268488 259.871376 
L 313.198165 259.871376 
z
" clip-path="url(#p7cf9f4b47b)" style="fill: #ff0000; stroke: #e60000; stroke-width: 0.65; stroke-linejoin: miter"/>
   </g>
   <g id="patch_32">
    <path d="M 321.584819 275.80808 
L 325.655141 275.80808 
L 325.655141 263.887946 
L 321.584819 263.887946 
z
" clip-path="url(#p7cf9f4b47b)" style="fill: #ff0000; stroke: #e60000; stroke-width: 0.65; stroke-linejoin: miter"/>
   </g>
   <g id="patch_33">
    <path d="M 329.971472 275.80808 
L 334.041794 275.80808 
L 334.041794 261.25659 
L 329.971472 261.25659 
z
" clip-path="url(#p7cf9f4b47b)" style="fill: #ff0000; stroke: #e60000; stroke-width: 0.65; stroke-linejoin: miter"/>
   </g>
   <g id="patch_34">
    <path d="M 338.358125 275.80808 
L 342.428447 275.80808 
L 342.428447 255.033643 
L 338.358125 255.033643 
z
" clip-path="url(#p7cf9f4b47b)" style="fill: #ff0000; stroke: #e60000; stroke-width: 0.65; stroke-linejoin: miter"/>
   </g>
   <g id="patch_35">
    <path d="M 346.744778 275.80808 
L 350.815101 275.80808 
L 350.815101 236.022326 
L 346.744778 236.022326 
z
" clip-path="url(#p7cf9f4b47b)" style="fill: #008000; stroke: #007300; stroke-width: 0.65; stroke-linejoin: miter"/>
   </g>
   <g id="patch_36">
    <path d="M 355.131431 275.80808 
L 359.201754 275.80808 
L 359.201754 237.876835 
L 355.131431 237.876835 
z
" clip-path="url(#p7cf9f4b47b)" style="fill: #ff0000; stroke: #e60000; stroke-width: 0.65; stroke-linejoin: miter"/>
   </g>
   <g id="patch_37">
    <path d="M 363.518085 275.80808 
L 367.588407 275.80808 
L 367.588407 236.442404 
L 363.518085 236.442404 
z
" clip-path="url(#p7cf9f4b47b)" style="fill: #ff0000; stroke: #e60000; stroke-width: 0.65; stroke-linejoin: miter"/>
   </g>
   <g id="patch_38">
    <path d="M 371.904738 275.80808 
L 375.97506 275.80808 
L 375.97506 249.382711 
L 371.904738 249.382711 
z
" clip-path="url(#p7cf9f4b47b)" style="fill: #008000; stroke: #007300; stroke-width: 0.65; stroke-linejoin: miter"/>
   </g>
   <g id="patch_39">
    <path d="M 380.291391 275.80808 
L 384.361713 275.80808 
L 384.361713 245.523083 
L 380.291391 245.523083 
z
" clip-path="url(#p7cf9f4b47b)" style="fill: #ff0000; stroke: #e60000; stroke-width: 0.65; stroke-linejoin: miter"/>
   </g>
   <g id="patch_40">
    <path d="M 388.678044 275.80808 
L 392.748366 275.80808 
L 392.748366 241.350898 
L 388.678044 241.350898 
z
" clip-path="url(#p7cf9f4b47b)" style="fill: #008000; stroke: #007300; stroke-width: 0.65; stroke-linejoin: miter"/>
   </g>
   <g id="patch_41">
    <path d="M 397.064697 275.80808 
L 401.13502 275.80808 
L 401.13502 259.307835 
L 397.064697 259.307835 
z
" clip-path="url(#p7cf9f4b47b)" style="fill: #ff0000; stroke: #e60000; stroke-width: 0.65; stroke-linejoin: miter"/>
   </g>
   <g id="patch_42">
    <path d="M 405.45135 275.80808 
L 409.521673 275.80808 
L 409.521673 220.606073 
L 405.45135 220.606073 
z
" clip-path="url(#p7cf9f4b47b)" style="fill: #008000; stroke: #007300; stroke-width: 0.65; stroke-linejoin: miter"/>
   </g>
   <g id="patch_43">
    <path d="M 413.838004 275.80808 
L 417.908326 275.80808 
L 417.908326 229.328349 
L 413.838004 229.328349 
z
" clip-path="url(#p7cf9f4b47b)" style="fill: #ff0000; stroke: #e60000; stroke-width: 0.65; stroke-linejoin: miter"/>
   </g>
   <g id="patch_44">
    <path d="M 422.224657 275.80808 
L 426.294979 275.80808 
L 426.294979 239.648124 
L 422.224657 239.648124 
z
" clip-path="url(#p7cf9f4b47b)" style="fill: #ff0000; stroke: #e60000; stroke-width: 0.65; stroke-linejoin: miter"/>
   </g>
   <g id="patch_45">
    <path d="M 430.61131 275.80808 
L 434.681632 275.80808 
L 434.681632 236.181208 
L 430.61131 236.181208 
z
" clip-path="url(#p7cf9f4b47b)" style="fill: #008000; stroke: #007300; stroke-width: 0.65; stroke-linejoin: miter"/>
   </g>
   <g id="patch_46">
    <path d="M 438.997963 275.80808 
L 443.068286 275.80808 
L 443.068286 237.722752 
L 438.997963 237.722752 
z
" clip-path="url(#p7cf9f4b47b)" style="fill: #ff0000; stroke: #e60000; stroke-width: 0.65; stroke-linejoin: miter"/>
   </g>
   <g id="patch_47">
    <path d="M 447.384616 275.80808 
L 451.454939 275.80808 
L 451.454939 216.600735 
L 447.384616 216.600735 
z
" clip-path="url(#p7cf9f4b47b)" style="fill: #ff0000; stroke: #e60000; stroke-width: 0.65; stroke-linejoin: miter"/>
   </g>
   <g id="patch_48">
    <path d="M 455.77127 275.80808 
L 459.841592 275.80808 
L 459.841592 233.953797 
L 455.77127 233.953797 
z
" clip-path="url(#p7cf9f4b47b)" style="fill: #ff0000; stroke: #e60000; stroke-width: 0.65; stroke-linejoin: miter"/>
   </g>
   <g id="patch_49">
    <path d="M 464.157923 275.80808 
L 468.228245 275.80808 
L 468.228245 225.967014 
L 464.157923 225.967014 
z
" clip-path="url(#p7cf9f4b47b)" style="fill: #008000; stroke: #007300; stroke-width: 0.65; stroke-linejoin: miter"/>
   </g>
   <g id="patch_50">
    <path d="M 472.544576 275.80808 
L 476.614898 275.80808 
L 476.614898 243.777219 
L 472.544576 243.777219 
z
" clip-path="url(#p7cf9f4b47b)" style="fill: #008000; stroke: #007300; stroke-width: 0.65; stroke-linejoin: miter"/>
   </g>
   <g id="patch_51">
    <path d="M 480.931229 275.80808 
L 485.001551 275.80808 
L 485.001551 239.455342 
L 480.931229 239.455342 
z
" clip-path="url(#p7cf9f4b47b)" style="fill: #008000; stroke: #007300; stroke-width: 0.65; stroke-linejoin: miter"/>
   </g>
   <g id="patch_52">
    <path d="M 489.317882 275.80808 
L 493.388205 275.80808 
L 493.388205 248.375403 
L 489.317882 248.375403 
z
" clip-path="url(#p7cf9f4b47b)" style="fill: #008000; stroke: #007300; stroke-width: 0.65; stroke-linejoin: miter"/>
   </g>
   <g id="patch_53">
    <path d="M 103.68 275.08 
L 103.68 210.68 
" style="fill: none; stroke: #f0f0f0; stroke-width: 0.8; stroke-linejoin: miter; stroke-linecap: square"/>
   </g>
   <g id="patch_54">
    <path d="M 518.4 275.08 
L 518.4 210.68 
" style="fill: none; stroke: #f0f0f0; stroke-width: 0.8; stroke-linejoin: miter; stroke-linecap: square"/>
   </g>
   <g id="patch_55">
    <path d="M 103.68 275.08 
L 518.4 275.08 
" style="fill: none; stroke: #f0f0f0; stroke-width: 0.8; stroke-linejoin: miter; stroke-linecap: square"/>
   </g>
   <g id="patch_56">
    <path d="M 103.68 210.68 
L 518.4 210.68 
" style="fill: none; stroke: #f0f0f0; stroke-width: 0.8; stroke-linejoin: miter; stroke-linecap: square"/>
   </g>
  </g>
  <g id="axes_3">
   <g id="patch_57">
    <path d="M 103.68 339.48 
L 518.4 339.48 
L 518.4 275.08 
L 103.68 275.08 
z
" style="fill: #fafafa"/>
   </g>
   <g id="matplotlib.axis_5">
    <g id="xtick_11">
     <g id="line2d_45">
      <path d="M 130.726957 339.48 
L 130.726957 275.08 
" clip-path="url(#pf896766347)" style="fill: none; stroke: #d0d0d0; stroke-width: 0.8; stroke-linecap: square"/>
     </g>
     <g id="line2d_46">
      <g>
       <use xlink:href="#m26adc7e723" x="130.726957" y="339.48" style="fill: #101010; stroke: #101010; stroke-width: 0.8"/>
      </g>
     </g>
     <g id="text_15">
      <!-- 0611 -->
      <g style="fill: #101010" transform="translate(121.795627 358.297121) rotate(-15) scale(0.1 -0.1)">
       <use xlink:href="#SimHei-30"/>
       <use xlink:href="#SimHei-36" x="50"/>
       <use xlink:href="#SimHei-31" x="100"/>
       <use xlink:href="#SimHei-31" x="150"/>
      </g>
     </g>
    </g>
    <g id="xtick_12">
     <g id="line2d_47">
      <path d="M 214.593488 339.48 
L 214.593488 275.08 
" clip-path="url(#pf896766347)" style="fill: none; stroke: #d0d0d0; stroke-width: 0.8; stroke-linecap: square"/>
     </g>
     <g id="line2d_48">
      <g>
       <use xlink:href="#m26adc7e723" x="214.593488" y="339.48" style="fill: #101010; stroke: #101010; stroke-width: 0.8"/>
      </g>
     </g>
     <g id="text_16">
      <!-- 0625 -->
      <g style="fill: #101010" transform="translate(205.662159 358.297121) rotate(-15) scale(0.1 -0.1)">
       <use xlink:href="#SimHei-30"/>
       <use xlink:href="#SimHei-36" x="50"/>
       <use xlink:href="#SimHei-32" x="100"/>
       <use xlink:href="#SimHei-35" x="150"/>
      </g>
     </g>
    </g>
    <g id="xtick_13">
     <g id="line2d_49">
      <path d="M 298.46002 339.48 
L 298.46002 275.08 
" clip-path="url(#pf896766347)" style="fill: none; stroke: #d0d0d0; stroke-width: 0.8; stroke-linecap: square"/>
     </g>
     <g id="line2d_50">
      <g>
       <use xlink:href="#m26adc7e723" x="298.46002" y="339.48" style="fill: #101010; stroke: #101010; stroke-width: 0.8"/>
      </g>
     </g>
     <g id="text_17">
      <!-- 0709 -->
      <g style="fill: #101010" transform="translate(289.528691 358.297121) rotate(-15) scale(0.1 -0.1)">
       <defs>
        <path id="SimHei-37" d="M 850 150 
Q 1300 2050 2425 3925 
L 275 3925 
L 275 4375 
L 2950 4375 
L 2950 3950 
Q 1775 2050 1400 150 
L 850 150 
z
" transform="scale(0.015625)"/>
        <path id="SimHei-39" d="M 800 75 
Q 1350 1000 1700 1750 
Q 1075 1650 662 1912 
Q 250 2175 162 2625 
Q 75 3075 175 3437 
Q 275 3800 487 4037 
Q 700 4275 1000 4375 
Q 1300 4475 1537 4475 
Q 1775 4475 2025 4375 
Q 2275 4275 2475 4075 
Q 2675 3875 2750 3662 
Q 2825 3450 2825 3112 
Q 2825 2775 2575 2250 
Q 2325 1725 1350 75 
L 800 75 
z
M 662 2875 
Q 700 2550 937 2337 
Q 1175 2125 1450 2150 
Q 1725 2175 1887 2300 
Q 2050 2425 2200 2725 
Q 2300 3100 2250 3362 
Q 2200 3625 1987 3800 
Q 1775 3975 1525 3975 
Q 1375 4000 1137 3900 
Q 900 3800 762 3500 
Q 625 3200 662 2875 
z
" transform="scale(0.015625)"/>
       </defs>
       <use xlink:href="#SimHei-30"/>
       <use xlink:href="#SimHei-37" x="50"/>
       <use xlink:href="#SimHei-30" x="100"/>
       <use xlink:href="#SimHei-39" x="150"/>
      </g>
     </g>
    </g>
    <g id="xtick_14">
     <g id="line2d_51">
      <path d="M 382.326552 339.48 
L 382.326552 275.08 
" clip-path="url(#pf896766347)" style="fill: none; stroke: #d0d0d0; stroke-width: 0.8; stroke-linecap: square"/>
     </g>
     <g id="line2d_52">
      <g>
       <use xlink:href="#m26adc7e723" x="382.326552" y="339.48" style="fill: #101010; stroke: #101010; stroke-width: 0.8"/>
      </g>
     </g>
     <g id="text_18">
      <!-- 0723 -->
      <g style="fill: #101010" transform="translate(373.395222 358.297121) rotate(-15) scale(0.1 -0.1)">
       <use xlink:href="#SimHei-30"/>
       <use xlink:href="#SimHei-37" x="50"/>
       <use xlink:href="#SimHei-32" x="100"/>
       <use xlink:href="#SimHei-33" x="150"/>
      </g>
     </g>
    </g>
    <g id="xtick_15">
     <g id="line2d_53">
      <path d="M 466.193084 339.48 
L 466.193084 275.08 
" clip-path="url(#pf896766347)" style="fill: none; stroke: #d0d0d0; stroke-width: 0.8; stroke-linecap: square"/>
     </g>
     <g id="line2d_54">
      <g>
       <use xlink:href="#m26adc7e723" x="466.193084" y="339.48" style="fill: #101010; stroke: #101010; stroke-width: 0.8"/>
      </g>
     </g>
     <g id="text_19">
      <!-- 0806 -->
      <g style="fill: #101010" transform="translate(457.261754 358.297121) rotate(-15) scale(0.1 -0.1)">
       <defs>
        <path id="SimHei-38" d="M 175 1375 
Q 175 1675 325 1962 
Q 475 2250 825 2425 
Q 525 2600 425 2812 
Q 325 3025 312 3300 
Q 300 3575 387 3775 
Q 475 3975 650 4150 
Q 825 4325 1037 4387 
Q 1250 4450 1500 4450 
Q 1750 4450 1950 4400 
Q 2150 4350 2375 4187 
Q 2600 4025 2700 3725 
Q 2800 3425 2687 3025 
Q 2575 2625 2100 2400 
Q 2525 2275 2700 2012 
Q 2875 1750 2875 1375 
Q 2875 1000 2762 775 
Q 2650 550 2512 400 
Q 2375 250 2137 162 
Q 1900 75 1537 75 
Q 1175 75 912 162 
Q 650 250 475 425 
Q 300 600 237 837 
Q 175 1075 175 1375 
z
M 687 1400 
Q 675 1100 787 875 
Q 900 650 1200 587 
Q 1500 525 1825 600 
Q 2150 675 2275 950 
Q 2400 1225 2362 1500 
Q 2325 1775 2050 1962 
Q 1775 2150 1450 2125 
Q 1125 2100 912 1900 
Q 700 1700 687 1400 
z
M 775 3350 
Q 775 3100 950 2875 
Q 1125 2650 1500 2650 
Q 1875 2650 2062 2875 
Q 2250 3100 2237 3412 
Q 2225 3725 2012 3875 
Q 1800 4025 1437 4000 
Q 1075 3975 925 3787 
Q 775 3600 775 3350 
z
" transform="scale(0.015625)"/>
       </defs>
       <use xlink:href="#SimHei-30"/>
       <use xlink:href="#SimHei-38" x="50"/>
       <use xlink:href="#SimHei-30" x="100"/>
       <use xlink:href="#SimHei-36" x="150"/>
      </g>
     </g>
    </g>
   </g>
   <g id="matplotlib.axis_6">
    <g id="ytick_10">
     <g id="line2d_55">
      <path d="M 103.68 318.326171 
L 518.4 318.326171 
" clip-path="url(#pf896766347)" style="fill: none; stroke: #d0d0d0; stroke-width: 0.8; stroke-linecap: square"/>
     </g>
     <g id="line2d_56">
      <g>
       <use xlink:href="#m1b4c6b46e2" x="518.4" y="318.326171" style="fill: #101010; stroke: #101010; stroke-width: 0.8"/>
      </g>
     </g>
     <g id="text_20">
      <!-- 20 -->
      <g style="fill: #101010" transform="translate(525.4 321.763671) scale(0.1 -0.1)">
       <use xlink:href="#SimHei-32"/>
       <use xlink:href="#SimHei-30" x="50"/>
      </g>
     </g>
    </g>
    <g id="ytick_11">
     <g id="line2d_57">
      <path d="M 103.68 294.617261 
L 518.4 294.617261 
" clip-path="url(#pf896766347)" style="fill: none; stroke: #d0d0d0; stroke-width: 0.8; stroke-linecap: square"/>
     </g>
     <g id="line2d_58">
      <g>
       <use xlink:href="#m1b4c6b46e2" x="518.4" y="294.617261" style="fill: #101010; stroke: #101010; stroke-width: 0.8"/>
      </g>
     </g>
     <g id="text_21">
      <!-- 40 -->
      <g style="fill: #101010" transform="translate(525.4 298.054761) scale(0.1 -0.1)">
       <use xlink:href="#SimHei-34"/>
       <use xlink:href="#SimHei-30" x="50"/>
      </g>
     </g>
    </g>
    <g id="text_22">
     <!-- control trend -->
     <g style="fill: #101010" transform="translate(546.275 339.78) rotate(-90) scale(0.1 -0.1)">
      <defs>
       <path id="SimHei-6e" d="M 2800 125 
L 2300 125 
L 2300 1925 
Q 2300 2225 2150 2400 
Q 2000 2575 1750 2575 
Q 1425 2575 1137 2237 
Q 850 1900 850 1400 
L 850 125 
L 350 125 
L 350 2925 
L 850 2925 
L 850 2400 
Q 1050 2675 1287 2825 
Q 1525 2975 1900 2975 
Q 2350 2975 2575 2725 
Q 2800 2475 2800 2100 
L 2800 125 
z
" transform="scale(0.015625)"/>
       <path id="SimHei-74" d="M 2750 200 
Q 2625 150 2462 112 
Q 2300 75 2025 75 
Q 1575 75 1300 325 
Q 1025 575 1025 1025 
L 1025 2525 
L 175 2525 
L 175 2925 
L 1025 2925 
L 1025 3900 
L 1525 3900 
L 1525 2925 
L 2550 2925 
L 2550 2525 
L 1525 2525 
L 1525 1000 
Q 1525 800 1625 662 
Q 1725 525 2000 525 
Q 2275 525 2450 575 
Q 2625 625 2750 700 
L 2750 200 
z
" transform="scale(0.015625)"/>
       <path id="SimHei-20" transform="scale(0.015625)"/>
       <path id="SimHei-64" d="M 2750 125 
L 2250 125 
L 2250 500 
Q 2100 275 1900 175 
Q 1700 75 1425 75 
Q 925 75 575 437 
Q 225 800 225 1525 
Q 225 2250 575 2625 
Q 925 3000 1425 3000 
Q 1700 3000 1900 2887 
Q 2100 2775 2250 2550 
L 2250 4400 
L 2750 4400 
L 2750 125 
z
M 2250 1525 
Q 2250 2000 2037 2275 
Q 1825 2550 1525 2550 
Q 1150 2550 962 2275 
Q 775 2000 775 1525 
Q 775 1050 962 787 
Q 1150 525 1525 525 
Q 1825 525 2037 787 
Q 2250 1050 2250 1525 
z
" transform="scale(0.015625)"/>
      </defs>
      <use xlink:href="#SimHei-63"/>
      <use xlink:href="#SimHei-6f" x="50"/>
      <use xlink:href="#SimHei-6e" x="100"/>
      <use xlink:href="#SimHei-74" x="150"/>
      <use xlink:href="#SimHei-72" x="200"/>
      <use xlink:href="#SimHei-6f" x="250"/>
      <use xlink:href="#SimHei-6c" x="300"/>
      <use xlink:href="#SimHei-20" x="350"/>
      <use xlink:href="#SimHei-74" x="400"/>
      <use xlink:href="#SimHei-72" x="450"/>
      <use xlink:href="#SimHei-65" x="500"/>
      <use xlink:href="#SimHei-6e" x="550"/>
      <use xlink:href="#SimHei-64" x="600"/>
     </g>
    </g>
   </g>
   <g id="line2d_59">
    <path d="M 130.726957 328.316252 
L 139.11361 327.197476 
L 147.500263 328.429912 
L 155.886916 328.295673 
L 164.273569 315.472424 
L 172.660222 325.173446 
L 181.046876 326.37582 
L 189.433529 329.035154 
L 197.820182 335.867018 
L 206.206835 333.210672 
L 214.593488 334.728706 
L 222.980142 334.124461 
L 231.366795 326.996756 
L 239.753448 332.75456 
L 248.140101 332.503245 
L 256.526754 331.512071 
L 264.913407 334.479431 
L 273.300061 335.270644 
L 281.686714 336.552727 
L 290.073367 329.129942 
L 298.46002 327.55017 
L 306.846673 318.213838 
L 315.233327 314.898953 
L 323.61998 324.949919 
L 332.006633 321.155355 
L 340.393286 306.199206 
L 348.779939 316.494468 
L 357.166593 307.691634 
L 365.553246 319.20103 
L 373.939899 320.304063 
L 382.326552 301.243854 
L 390.713205 319.811819 
L 399.099858 278.007273 
L 407.486512 313.306426 
L 415.873165 316.029536 
L 424.259818 323.234247 
L 432.646471 321.162325 
L 441.033124 291.025693 
L 449.419778 308.456531 
L 457.806431 300.893815 
L 466.193084 317.076047 
L 474.579737 320.257546 
L 482.96639 323.324436 
L 491.353043 325.605944 
" clip-path="url(#pf896766347)" style="fill: none; stroke: #0000ff; stroke-linecap: square"/>
   </g>
   <g id="patch_58">
    <path d="M 103.68 339.48 
L 103.68 275.08 
" style="fill: none; stroke: #f0f0f0; stroke-width: 0.8; stroke-linejoin: miter; stroke-linecap: square"/>
   </g>
   <g id="patch_59">
    <path d="M 518.4 339.48 
L 518.4 275.08 
" style="fill: none; stroke: #f0f0f0; stroke-width: 0.8; stroke-linejoin: miter; stroke-linecap: square"/>
   </g>
   <g id="patch_60">
    <path d="M 103.68 339.48 
L 518.4 339.48 
" style="fill: none; stroke: #f0f0f0; stroke-width: 0.8; stroke-linejoin: miter; stroke-linecap: square"/>
   </g>
   <g id="patch_61">
    <path d="M 103.68 275.08 
L 518.4 275.08 
" style="fill: none; stroke: #f0f0f0; stroke-width: 0.8; stroke-linejoin: miter; stroke-linecap: square"/>
   </g>
  </g>
  <g id="text_23">
   <!-- -20240809 -->
   <g transform="translate(226.8 12.920625) scale(0.144 -0.144)">
    <defs>
     <path id="SimHei-6c5f" d="M 4600 4575 
Q 5150 4575 5725 4625 
L 5725 4075 
Q 5150 4100 4650 4100 
L 4225 4100 
L 4225 250 
L 4800 250 
Q 5375 250 6050 275 
L 6050 -250 
Q 5375 -225 4800 -225 
L 3225 -225 
Q 2650 -225 1925 -250 
L 1925 275 
Q 2650 250 3225 250 
L 3700 250 
L 3700 4100 
L 3425 4100 
Q 2875 4100 2275 4075 
L 2275 4600 
Q 2900 4575 3425 4575 
L 4600 4575 
z
M 2075 1575 
Q 1825 1325 1525 600 
Q 1225 -125 1050 -625 
Q 750 -450 350 -300 
Q 625 -25 987 712 
Q 1350 1450 1475 1875 
Q 1775 1675 2075 1575 
z
M 475 3375 
Q 1100 3125 1650 2800 
Q 1450 2600 1350 2275 
Q 825 2650 225 2900 
Q 375 3150 475 3375 
z
M 975 5025 
Q 1550 4700 2050 4350 
Q 1850 4125 1700 3875 
Q 1175 4325 700 4600 
Q 825 4750 975 5025 
z
" transform="scale(0.015625)"/>
     <path id="SimHei-897f" d="M 5150 4750 
Q 5525 4750 5950 4775 
L 5950 4350 
Q 5675 4375 5150 4375 
L 4025 4375 
L 4025 3350 
L 5450 3350 
Q 5425 2950 5425 2375 
L 5425 425 
Q 5425 0 5450 -550 
L 5000 -550 
L 5000 -50 
L 1450 -50 
L 1450 -575 
L 975 -575 
Q 1000 175 1000 550 
L 1000 2375 
Q 1000 2875 975 3350 
L 2375 3350 
L 2375 4375 
L 1425 4375 
Q 975 4375 450 4350 
L 450 4775 
Q 975 4750 1400 4750 
L 5150 4750 
z
M 5000 325 
L 5000 2950 
L 4025 2950 
L 4025 1975 
Q 4000 1675 4100 1625 
Q 4200 1575 4875 1650 
Q 4825 1375 4800 1125 
Q 3975 1075 3775 1187 
Q 3575 1300 3600 1700 
L 3600 2950 
L 2800 2950 
Q 2750 2125 2525 1650 
Q 2300 1175 2000 875 
Q 1850 1050 1575 1175 
Q 1950 1475 2150 1912 
Q 2350 2350 2375 2950 
L 1450 2950 
L 1450 325 
L 5000 325 
z
M 3600 3350 
L 3600 4375 
L 2800 4375 
L 2800 3350 
L 3600 3350 
z
" transform="scale(0.015625)"/>
     <path id="SimHei-957f" d="M 1750 2800 
L 1750 4450 
Q 1750 4675 1725 5100 
L 2275 5100 
Q 2250 4625 2250 4475 
L 2250 2800 
L 5275 2800 
Q 5600 2800 5975 2825 
L 5975 2325 
Q 5500 2350 5100 2350 
L 3650 2350 
Q 3825 1850 4187 1375 
Q 4550 900 5050 587 
Q 5550 275 5950 150 
Q 5625 -50 5450 -350 
Q 4925 -75 4475 300 
Q 4025 675 3675 1212 
Q 3325 1750 3150 2350 
L 2250 2350 
L 2250 375 
Q 2975 825 3225 1050 
Q 3400 775 3575 550 
Q 3100 325 2625 -12 
Q 2150 -350 1925 -575 
Q 1725 -300 1550 -100 
Q 1750 100 1750 425 
L 1750 2350 
L 1175 2350 
Q 825 2350 375 2325 
L 375 2825 
Q 825 2800 1125 2800 
L 1750 2800 
z
M 4900 4700 
Q 4625 4475 4087 3937 
Q 3550 3400 3025 2900 
Q 2800 3200 2650 3300 
Q 3075 3600 3600 4150 
Q 4125 4700 4400 5100 
Q 4600 4925 4900 4700 
z
" transform="scale(0.015625)"/>
     <path id="SimHei-8fd0" d="M 5050 1075 
Q 3750 925 3275 862 
Q 2800 800 2625 700 
L 2375 1225 
Q 2625 1325 2900 1775 
Q 3175 2225 3325 2925 
Q 2475 2925 2025 2900 
L 2025 3375 
Q 2500 3350 3950 3350 
Q 5400 3350 5825 3375 
L 5825 2900 
Q 5400 2925 3875 2925 
Q 3800 2650 3587 2200 
Q 3375 1750 3075 1275 
Q 4000 1350 4850 1425 
Q 4675 1750 4350 2150 
Q 4550 2250 4725 2425 
Q 5200 1825 5750 925 
Q 5525 800 5300 650 
Q 5175 875 5050 1075 
z
M 325 0 
Q 1100 500 1350 600 
L 1350 2600 
Q 900 2600 475 2575 
L 475 3050 
Q 950 3025 1400 3025 
L 1825 3025 
Q 1800 2550 1800 2275 
L 1800 700 
Q 2325 50 3787 37 
Q 5250 25 6050 150 
Q 5875 -175 5825 -450 
L 4200 -450 
Q 3550 -450 3112 -387 
Q 2675 -325 2375 -212 
Q 2075 -100 1825 112 
Q 1575 325 1237 25 
Q 900 -275 725 -475 
Q 550 -275 325 0 
z
M 5400 4275 
Q 4925 4300 3975 4300 
Q 3050 4300 2525 4275 
L 2525 4750 
Q 2975 4725 3950 4725 
Q 4925 4725 5400 4750 
L 5400 4275 
z
M 1475 3775 
Q 1175 4275 725 4725 
L 1075 5025 
Q 1725 4325 1875 4075 
L 1475 3775 
z
" transform="scale(0.015625)"/>
     <path id="SimHei-2d" d="M 2975 2125 
L 125 2125 
L 125 2525 
L 2975 2525 
L 2975 2125 
z
" transform="scale(0.015625)"/>
    </defs>
    <use xlink:href="#SimHei-6c5f"/>
    <use xlink:href="#SimHei-897f" x="100"/>
    <use xlink:href="#SimHei-957f" x="200"/>
    <use xlink:href="#SimHei-8fd0" x="300"/>
    <use xlink:href="#SimHei-2d" x="400"/>
    <use xlink:href="#SimHei-32" x="450"/>
    <use xlink:href="#SimHei-30" x="500"/>
    <use xlink:href="#SimHei-32" x="550"/>
    <use xlink:href="#SimHei-34" x="600"/>
    <use xlink:href="#SimHei-30" x="650"/>
    <use xlink:href="#SimHei-38" x="700"/>
    <use xlink:href="#SimHei-30" x="750"/>
    <use xlink:href="#SimHei-39" x="800"/>
   </g>
  </g>
 </g>
 <defs>
  <clipPath id="p010ee8d2dd">
   <rect x="103.68" y="49.68" width="414.72" height="161"/>
  </clipPath>
  <clipPath id="p7cf9f4b47b">
   <rect x="103.68" y="210.68" width="414.72" height="64.4"/>
  </clipPath>
  <clipPath id="pf896766347">
   <rect x="103.68" y="275.08" width="414.72" height="64.4"/>
  </clipPath>
 </defs>
</svg>
